<svg xmlns="http://www.w3.org/2000/svg" xmlns:xlink="http://www.w3.org/1999/xlink" contentStyleType="text/css" data-diagram-type="SEQUENCE" height="1177px" preserveAspectRatio="none" style="width:2155px;height:1177px;background:#FFFFFF;" version="1.1" viewBox="0 0 2155 1177" width="2155px" zoomAndPan="magnify"><title>Prescription Detail (GET /prescriptions?claimId=...&amp;startDate=&amp;endDate=)</title><defs/><g><text fill="#000000" font-family="sans-serif" font-size="14" font-weight="bold" lengthAdjust="spacing" textLength="593.1816" x="777.1516" y="27.9951">Prescription Detail (GET /prescriptions?claimId=...&amp;startDate=&amp;endDate=)</text><rect fill="none" height="480.7969" style="stroke:#000000;stroke-width:1.5;" width="1809.0562" x="329.4287" y="396.6563"/><rect fill="none" height="104.5313" style="stroke:#000000;stroke-width:1.5;" width="1334.5298" x="685.7695" y="522.9922"/><g><title>Client</title><rect fill="#000000" fill-opacity="0.00000" height="977.7891" width="8" x="24.2651" y="118.5938"/><line style="stroke:#181818;stroke-width:0.5;stroke-dasharray:5,5;" x1="28" x2="28" y1="118.5938" y2="1096.3828"/></g><g><title>CVS Prescription Service</title><rect fill="#000000" fill-opacity="0.00000" height="977.7891" width="8" x="428.4453" y="118.5938"/><line style="stroke:#181818;stroke-width:0.5;stroke-dasharray:5,5;" x1="432.4287" x2="432.4287" y1="118.5938" y2="1096.3828"/></g><g><title>Claims Service</title><rect fill="#000000" fill-opacity="0.00000" height="977.7891" width="8" x="750.3979" y="118.5938"/><line style="stroke:#181818;stroke-width:0.5;stroke-dasharray:5,5;" x1="753.7695" x2="753.7695" y1="118.5938" y2="1096.3828"/></g><g><title>Claims Cache</title><rect fill="#000000" fill-opacity="0.00000" height="977.7891" width="8" x="1315.8848" y="118.5938"/><line style="stroke:#181818;stroke-width:0.5;stroke-dasharray:5,5;" x1="1319.3579" x2="1319.3579" y1="118.5938" y2="1096.3828"/></g><g><title>CVS Auth Service</title><rect fill="#000000" fill-opacity="0.00000" height="977.7891" width="8" x="1444.2583" y="118.5938"/><line style="stroke:#181818;stroke-width:0.5;stroke-dasharray:5,5;" x1="1447.4116" x2="1447.4116" y1="118.5938" y2="1096.3828"/></g><g><title>Core Proxy</title><rect fill="#000000" fill-opacity="0.00000" height="977.7891" width="8" x="1602.2256" y="118.5938"/><line style="stroke:#181818;stroke-width:0.5;stroke-dasharray:5,5;" x1="1606.105" x2="1606.105" y1="118.5938" y2="1096.3828"/></g><g><title>Member Profile</title><rect fill="#000000" fill-opacity="0.00000" height="977.7891" width="8" x="1769.5718" y="118.5938"/><line style="stroke:#181818;stroke-width:0.5;stroke-dasharray:5,5;" x1="1773.3462" x2="1773.3462" y1="118.5938" y2="1096.3828"/></g><g><title>CVS Backend</title><rect fill="#000000" fill-opacity="0.00000" height="977.7891" width="8" x="1931.5483" y="118.5938"/><line style="stroke:#181818;stroke-width:0.5;stroke-dasharray:5,5;" x1="1934.7974" x2="1934.7974" y1="118.5938" y2="1096.3828"/></g><g><title>UAF .Privacy.</title><rect fill="#000000" fill-opacity="0.00000" height="977.7891" width="8" x="2070.3921" y="118.5938"/><line style="stroke:#181818;stroke-width:0.5;stroke-dasharray:5,5;" x1="2074.2993" x2="2074.2993" y1="118.5938" y2="1096.3828"/></g><g class="participant participant-head" data-participant="Client"><text fill="#000000" font-family="sans-serif" font-size="14" lengthAdjust="spacing" textLength="40.5303" x="5" y="115.292">Client</text><ellipse cx="28.2651" cy="50.7969" fill="#E2E2F0" rx="8" ry="8" style="stroke:#181818;stroke-width:0.5;"/><path d="M28.2651,58.7969 L28.2651,85.7969 M15.2651,66.7969 L41.2651,66.7969 M28.2651,85.7969 L15.2651,100.7969 M28.2651,85.7969 L41.2651,100.7969" fill="none" style="stroke:#181818;stroke-width:0.5;"/></g><g class="participant participant-tail" data-participant="Client"><text fill="#000000" font-family="sans-serif" font-size="14" lengthAdjust="spacing" textLength="40.5303" x="5" y="1108.3779">Client</text><ellipse cx="28.2651" cy="1120.1797" fill="#E2E2F0" rx="8" ry="8" style="stroke:#181818;stroke-width:0.5;"/><path d="M28.2651,1128.1797 L28.2651,1155.1797 M15.2651,1136.1797 L41.2651,1136.1797 M28.2651,1155.1797 L15.2651,1170.1797 M28.2651,1155.1797 L41.2651,1170.1797" fill="none" style="stroke:#181818;stroke-width:0.5;"/></g><g class="participant participant-head" data-participant="RxSvc"><rect fill="#E2E2F0" height="30.2969" rx="2.5" ry="2.5" style="stroke:#181818;stroke-width:0.5;" width="186.0332" x="339.4287" y="87.2969"/><text fill="#000000" font-family="sans-serif" font-size="14" lengthAdjust="spacing" textLength="172.0332" x="346.4287" y="107.292">CVS Prescription Service</text></g><g class="participant participant-tail" data-participant="RxSvc"><rect fill="#E2E2F0" height="30.2969" rx="2.5" ry="2.5" style="stroke:#181818;stroke-width:0.5;" width="186.0332" x="339.4287" y="1095.3828"/><text fill="#000000" font-family="sans-serif" font-size="14" lengthAdjust="spacing" textLength="172.0332" x="346.4287" y="1115.3779">CVS Prescription Service</text></g><g class="participant participant-head" data-participant="Claims"><rect fill="#E2E2F0" height="30.2969" rx="2.5" ry="2.5" style="stroke:#181818;stroke-width:0.5;" width="117.2568" x="695.7695" y="87.2969"/><text fill="#000000" font-family="sans-serif" font-size="14" lengthAdjust="spacing" textLength="103.2568" x="702.7695" y="107.292">Claims Service</text></g><g class="participant participant-tail" data-participant="Claims"><rect fill="#E2E2F0" height="30.2969" rx="2.5" ry="2.5" style="stroke:#181818;stroke-width:0.5;" width="117.2568" x="695.7695" y="1095.3828"/><text fill="#000000" font-family="sans-serif" font-size="14" lengthAdjust="spacing" textLength="103.2568" x="702.7695" y="1115.3779">Claims Service</text></g><g class="participant participant-head" data-participant="Cache"><text fill="#000000" font-family="sans-serif" font-size="14" lengthAdjust="spacing" textLength="95.0537" x="1269.3579" y="115.292">Claims Cache</text><path d="M1301.8848,66.2969 C1301.8848,56.2969 1319.8848,56.2969 1319.8848,56.2969 C1319.8848,56.2969 1337.8848,56.2969 1337.8848,66.2969 L1337.8848,92.2969 C1337.8848,102.2969 1319.8848,102.2969 1319.8848,102.2969 C1319.8848,102.2969 1301.8848,102.2969 1301.8848,92.2969 L1301.8848,66.2969" fill="#E2E2F0" style="stroke:#181818;stroke-width:0.5;"/><path d="M1301.8848,66.2969 C1301.8848,76.2969 1319.8848,76.2969 1319.8848,76.2969 C1319.8848,76.2969 1337.8848,76.2969 1337.8848,66.2969" fill="none" style="stroke:#181818;stroke-width:0.5;"/></g><g class="participant participant-tail" data-participant="Cache"><text fill="#000000" font-family="sans-serif" font-size="14" lengthAdjust="spacing" textLength="95.0537" x="1269.3579" y="1108.3779">Claims Cache</text><path d="M1301.8848,1121.6797 C1301.8848,1111.6797 1319.8848,1111.6797 1319.8848,1111.6797 C1319.8848,1111.6797 1337.8848,1111.6797 1337.8848,1121.6797 L1337.8848,1147.6797 C1337.8848,1157.6797 1319.8848,1157.6797 1319.8848,1157.6797 C1319.8848,1157.6797 1301.8848,1157.6797 1301.8848,1147.6797 L1301.8848,1121.6797" fill="#E2E2F0" style="stroke:#181818;stroke-width:0.5;"/><path d="M1301.8848,1121.6797 C1301.8848,1131.6797 1319.8848,1131.6797 1319.8848,1131.6797 C1319.8848,1131.6797 1337.8848,1131.6797 1337.8848,1121.6797" fill="none" style="stroke:#181818;stroke-width:0.5;"/></g><g class="participant participant-head" data-participant="CVSAuth"><rect fill="#E2E2F0" height="30.2969" rx="2.5" ry="2.5" style="stroke:#181818;stroke-width:0.5;" width="135.6934" x="1380.4116" y="87.2969"/><text fill="#000000" font-family="sans-serif" font-size="14" lengthAdjust="spacing" textLength="121.6934" x="1387.4116" y="107.292">CVS Auth Service</text></g><g class="participant participant-tail" data-participant="CVSAuth"><rect fill="#E2E2F0" height="30.2969" rx="2.5" ry="2.5" style="stroke:#181818;stroke-width:0.5;" width="135.6934" x="1380.4116" y="1095.3828"/><text fill="#000000" font-family="sans-serif" font-size="14" lengthAdjust="spacing" textLength="121.6934" x="1387.4116" y="1115.3779">CVS Auth Service</text></g><g class="participant participant-head" data-participant="CoreProxy"><rect fill="#E2E2F0" height="46.5938" rx="2.5" ry="2.5" style="stroke:#181818;stroke-width:0.5;" width="160.2412" x="1526.105" y="71"/><text fill="#000000" font-family="sans-serif" font-size="14" lengthAdjust="spacing" textLength="76.4941" x="1567.9785" y="90.9951">Core Proxy</text><text fill="#000000" font-family="sans-serif" font-size="14" lengthAdjust="spacing" textLength="146.2412" x="1533.105" y="107.292">(/userauthorizations)</text></g><g class="participant participant-tail" data-participant="CoreProxy"><rect fill="#E2E2F0" height="46.5938" rx="2.5" ry="2.5" style="stroke:#181818;stroke-width:0.5;" width="160.2412" x="1526.105" y="1095.3828"/><text fill="#000000" font-family="sans-serif" font-size="14" lengthAdjust="spacing" textLength="76.4941" x="1567.9785" y="1115.3779">Core Proxy</text><text fill="#000000" font-family="sans-serif" font-size="14" lengthAdjust="spacing" textLength="146.2412" x="1533.105" y="1131.6748">(/userauthorizations)</text></g><g class="participant participant-head" data-participant="MemberProfile"><rect fill="#E2E2F0" height="46.5938" rx="2.5" ry="2.5" style="stroke:#181818;stroke-width:0.5;" width="154.4512" x="1696.3462" y="71"/><text fill="#000000" font-family="sans-serif" font-size="14" lengthAdjust="spacing" textLength="106.1211" x="1720.5112" y="90.9951">Member Profile</text><text fill="#000000" font-family="sans-serif" font-size="14" lengthAdjust="spacing" textLength="140.4512" x="1703.3462" y="107.292">(/familyaccessrules)</text></g><g class="participant participant-tail" data-participant="MemberProfile"><rect fill="#E2E2F0" height="46.5938" rx="2.5" ry="2.5" style="stroke:#181818;stroke-width:0.5;" width="154.4512" x="1696.3462" y="1095.3828"/><text fill="#000000" font-family="sans-serif" font-size="14" lengthAdjust="spacing" textLength="106.1211" x="1720.5112" y="1115.3779">Member Profile</text><text fill="#000000" font-family="sans-serif" font-size="14" lengthAdjust="spacing" textLength="140.4512" x="1703.3462" y="1131.6748">(/familyaccessrules)</text></g><g class="participant participant-head" data-participant="CVSBackend"><rect fill="#E2E2F0" height="46.5938" rx="2.5" ry="2.5" style="stroke:#181818;stroke-width:0.5;" width="149.502" x="1860.7974" y="71"/><text fill="#000000" font-family="sans-serif" font-size="14" lengthAdjust="spacing" textLength="93.0508" x="1889.0229" y="90.9951">CVS Backend</text><text fill="#000000" font-family="sans-serif" font-size="14" lengthAdjust="spacing" textLength="135.502" x="1867.7974" y="107.292">(/getClaimsHistory)</text></g><g class="participant participant-tail" data-participant="CVSBackend"><rect fill="#E2E2F0" height="46.5938" rx="2.5" ry="2.5" style="stroke:#181818;stroke-width:0.5;" width="149.502" x="1860.7974" y="1095.3828"/><text fill="#000000" font-family="sans-serif" font-size="14" lengthAdjust="spacing" textLength="93.0508" x="1889.0229" y="1115.3779">CVS Backend</text><text fill="#000000" font-family="sans-serif" font-size="14" lengthAdjust="spacing" textLength="135.502" x="1867.7974" y="1131.6748">(/getClaimsHistory)</text></g><g class="participant participant-head" data-participant="UAF"><rect fill="#E2E2F0" height="30.2969" rx="2.5" ry="2.5" style="stroke:#181818;stroke-width:0.5;" width="108.1855" x="2020.2993" y="87.2969"/><text fill="#000000" font-family="sans-serif" font-size="14" lengthAdjust="spacing" textLength="94.1855" x="2027.2993" y="107.292">UAF (Privacy)</text></g><g class="participant participant-tail" data-participant="UAF"><rect fill="#E2E2F0" height="30.2969" rx="2.5" ry="2.5" style="stroke:#181818;stroke-width:0.5;" width="108.1855" x="2020.2993" y="1095.3828"/><text fill="#000000" font-family="sans-serif" font-size="14" lengthAdjust="spacing" textLength="94.1855" x="2027.2993" y="1115.3779">UAF (Privacy)</text></g><rect fill="#EEEEEE" height="3" style="stroke:#EEEEEE;stroke-width:1;" width="2148.4849" x="0" y="149.1602"/><line style="stroke:#000000;stroke-width:1;" x1="0" x2="2148.4849" y1="149.1602" y2="149.1602"/><line style="stroke:#000000;stroke-width:1;" x1="0" x2="2148.4849" y1="152.1602" y2="152.1602"/><rect fill="#EEEEEE" height="23.1328" style="stroke:#000000;stroke-width:2;" width="122.3481" x="1013.0684" y="138.5938"/><text fill="#000000" font-family="sans-serif" font-size="13" font-weight="bold" lengthAdjust="spacing" textLength="103.8223" x="1019.0684" y="154.6606">Client request</text><g class="message" data-participant-1="Client" data-participant-2="RxSvc"><polygon fill="#181818" points="420.4453,188.8594,430.4453,192.8594,420.4453,196.8594,424.4453,192.8594" style="stroke:#181818;stroke-width:1;"/><line style="stroke:#181818;stroke-width:1;" x1="28.2651" x2="426.4453" y1="192.8594" y2="192.8594"/><text fill="#000000" font-family="sans-serif" font-size="13" lengthAdjust="spacing" textLength="380.1802" x="35.2651" y="187.7935">GET /prescriptions?claimId=...&amp;startDate=...&amp;endDate=...</text></g><rect fill="#EEEEEE" height="3" style="stroke:#EEEEEE;stroke-width:1;" width="2148.4849" x="0" y="221.4258"/><line style="stroke:#000000;stroke-width:1;" x1="0" x2="2148.4849" y1="221.4258" y2="221.4258"/><line style="stroke:#000000;stroke-width:1;" x1="0" x2="2148.4849" y1="224.4258" y2="224.4258"/><rect fill="#EEEEEE" height="23.1328" style="stroke:#000000;stroke-width:2;" width="155.3877" x="996.5486" y="210.8594"/><text fill="#000000" font-family="sans-serif" font-size="13" font-weight="bold" lengthAdjust="spacing" textLength="136.8618" x="1002.5486" y="226.9263">Delegate to claims</text><g class="message" data-participant-1="RxSvc" data-participant-2="Claims"><polygon fill="#181818" points="742.3979,276.2578,752.3979,280.2578,742.3979,284.2578,746.3979,280.2578" style="stroke:#181818;stroke-width:1;"/><line style="stroke:#181818;stroke-width:1;" x1="432.4453" x2="748.3979" y1="280.2578" y2="280.2578"/><text fill="#000000" font-family="sans-serif" font-size="13" lengthAdjust="spacing" textLength="141.7876" x="439.4453" y="260.0591">GET /pharmacyclaims</text><text fill="#000000" font-family="sans-serif" font-size="13" lengthAdjust="spacing" textLength="297.9526" x="439.4453" y="275.1919">(membershipResourceId, startDate, endDate)</text></g><rect fill="#EEEEEE" height="3" style="stroke:#EEEEEE;stroke-width:1;" width="2148.4849" x="0" y="308.8242"/><line style="stroke:#000000;stroke-width:1;" x1="0" x2="2148.4849" y1="308.8242" y2="308.8242"/><line style="stroke:#000000;stroke-width:1;" x1="0" x2="2148.4849" y1="311.8242" y2="311.8242"/><rect fill="#EEEEEE" height="23.1328" style="stroke:#000000;stroke-width:2;" width="109.272" x="1019.6064" y="298.2578"/><text fill="#000000" font-family="sans-serif" font-size="13" font-weight="bold" lengthAdjust="spacing" textLength="90.7461" x="1025.6064" y="314.3247">Cache check</text><g class="message" data-participant-1="Claims" data-participant-2="Cache"><polygon fill="#181818" points="1307.8848,348.5234,1317.8848,352.5234,1307.8848,356.5234,1311.8848,352.5234" style="stroke:#181818;stroke-width:1;"/><line style="stroke:#181818;stroke-width:1;" x1="754.3979" x2="1313.8848" y1="352.5234" y2="352.5234"/><text fill="#000000" font-family="sans-serif" font-size="13" lengthAdjust="spacing" textLength="541.4868" x="761.3979" y="347.4575">GET claims-v1-{acctIdSource~acctIdValue}-{mshipResId}-{startDate}-{endDate}</text></g><g class="message" data-participant-1="Cache" data-participant-2="Claims"><polygon fill="#181818" points="765.3979,377.6563,755.3979,381.6563,765.3979,385.6563,761.3979,381.6563" style="stroke:#181818;stroke-width:1;"/><line style="stroke:#181818;stroke-width:1;stroke-dasharray:2,2;" x1="759.3979" x2="1318.8848" y1="381.6563" y2="381.6563"/><text fill="#000000" font-family="sans-serif" font-size="13" lengthAdjust="spacing" textLength="99.8169" x="771.3979" y="376.5903">Hit? data / Miss</text></g><path d="M329.4287,396.6563 L393.8716,396.6563 L393.8716,403.7891 L383.8716,413.7891 L329.4287,413.7891 L329.4287,396.6563" fill="#EEEEEE" style="stroke:#000000;stroke-width:1.5;"/><rect fill="none" height="480.7969" style="stroke:#000000;stroke-width:1.5;" width="1809.0562" x="329.4287" y="396.6563"/><text fill="#000000" font-family="sans-serif" font-size="13" font-weight="bold" lengthAdjust="spacing" textLength="19.4429" x="344.4287" y="409.7231">alt</text><text fill="#000000" font-family="sans-serif" font-size="11" font-weight="bold" lengthAdjust="spacing" textLength="68.0518" x="408.8716" y="408.8667">[Cache hit]</text><g class="message" data-participant-1="Claims" data-participant-2="RxSvc"><polygon fill="#181818" points="443.4453,430.9219,433.4453,434.9219,443.4453,438.9219,439.4453,434.9219" style="stroke:#181818;stroke-width:1;"/><line style="stroke:#181818;stroke-width:1;stroke-dasharray:2,2;" x1="437.4453" x2="753.3979" y1="434.9219" y2="434.9219"/><text fill="#000000" font-family="sans-serif" font-size="13" lengthAdjust="spacing" textLength="171.793" x="449.4453" y="429.856">Pharmacy claims (cached)</text></g><line style="stroke:#000000;stroke-width:1;stroke-dasharray:2,2;" x1="329.4287" x2="2138.4849" y1="443.9219" y2="443.9219"/><text fill="#000000" font-family="sans-serif" font-size="11" font-weight="bold" lengthAdjust="spacing" textLength="79.519" x="334.4287" y="454.1323">[Cache miss]</text><g class="message" data-participant-1="Claims" data-participant-2="CVSAuth"><polygon fill="#181818" points="1436.2583,474.8594,1446.2583,478.8594,1436.2583,482.8594,1440.2583,478.8594" style="stroke:#181818;stroke-width:1;"/><line style="stroke:#181818;stroke-width:1;" x1="754.3979" x2="1442.2583" y1="478.8594" y2="478.8594"/><text fill="#000000" font-family="sans-serif" font-size="13" lengthAdjust="spacing" textLength="171.4946" x="761.3979" y="473.7935">GET /cvs_auth_token_data</text></g><g class="message" data-participant-1="CVSAuth" data-participant-2="Claims"><polygon fill="#181818" points="765.3979,503.9922,755.3979,507.9922,765.3979,511.9922,761.3979,507.9922" style="stroke:#181818;stroke-width:1;"/><line style="stroke:#181818;stroke-width:1;stroke-dasharray:2,2;" x1="759.3979" x2="1447.2583" y1="507.9922" y2="507.9922"/><text fill="#000000" font-family="sans-serif" font-size="13" lengthAdjust="spacing" textLength="139.896" x="771.3979" y="502.9263">tokenId + members[]</text></g><path d="M685.7695,522.9922 L755.2588,522.9922 L755.2588,530.125 L745.2588,540.125 L685.7695,540.125 L685.7695,522.9922" fill="#EEEEEE" style="stroke:#000000;stroke-width:1.5;"/><rect fill="none" height="104.5313" style="stroke:#000000;stroke-width:1.5;" width="1334.5298" x="685.7695" y="522.9922"/><text fill="#000000" font-family="sans-serif" font-size="13" font-weight="bold" lengthAdjust="spacing" textLength="24.4893" x="700.7695" y="536.0591">par</text><text fill="#000000" font-family="sans-serif" font-size="11" font-weight="bold" lengthAdjust="spacing" textLength="72.7246" x="770.2588" y="535.2026">[In parallel]</text><g class="message" data-participant-1="Claims" data-participant-2="CoreProxy"><polygon fill="#181818" points="1594.2256,557.2578,1604.2256,561.2578,1594.2256,565.2578,1598.2256,561.2578" style="stroke:#181818;stroke-width:1;"/><line style="stroke:#181818;stroke-width:1;" x1="754.3979" x2="1600.2256" y1="561.2578" y2="561.2578"/><text fill="#000000" font-family="sans-serif" font-size="13" lengthAdjust="spacing" textLength="125.6519" x="761.3979" y="556.1919">/userauthorizations</text></g><g class="message" data-participant-1="Claims" data-participant-2="MemberProfile"><polygon fill="#181818" points="1761.5718,586.3906,1771.5718,590.3906,1761.5718,594.3906,1765.5718,590.3906" style="stroke:#181818;stroke-width:1;"/><line style="stroke:#181818;stroke-width:1;" x1="754.3979" x2="1767.5718" y1="590.3906" y2="590.3906"/><text fill="#000000" font-family="sans-serif" font-size="13" lengthAdjust="spacing" textLength="120.2754" x="761.3979" y="585.3247">/familyaccessrules</text></g><g class="message" data-participant-1="Claims" data-participant-2="CVSBackend"><polygon fill="#181818" points="1923.5483,615.5234,1933.5483,619.5234,1923.5483,623.5234,1927.5483,619.5234" style="stroke:#181818;stroke-width:1;"/><line style="stroke:#181818;stroke-width:1;" x1="754.3979" x2="1929.5483" y1="619.5234" y2="619.5234"/><text fill="#000000" font-family="sans-serif" font-size="13" lengthAdjust="spacing" textLength="402.8794" x="761.3979" y="614.4575">/getClaimsHistory (tokenId, startDate, endDate, refId, apiKey)</text></g><g class="message" data-participant-1="Claims" data-participant-2="Claims"><line style="stroke:#181818;stroke-width:1;" x1="754.3979" x2="796.3979" y1="655.6563" y2="655.6563"/><line style="stroke:#181818;stroke-width:1;" x1="796.3979" x2="796.3979" y1="655.6563" y2="668.6563"/><line style="stroke:#181818;stroke-width:1;" x1="755.3979" x2="796.3979" y1="668.6563" y2="668.6563"/><polygon fill="#181818" points="765.3979,664.6563,755.3979,668.6563,765.3979,672.6563,761.3979,668.6563" style="stroke:#181818;stroke-width:1;"/><text fill="#000000" font-family="sans-serif" font-size="13" lengthAdjust="spacing" textLength="172.5103" x="761.3979" y="650.5903">Apply Family Access Rules</text></g><g class="message" data-participant-1="Claims" data-participant-2="UAF"><polygon fill="#181818" points="2062.3921,693.7891,2072.3921,697.7891,2062.3921,701.7891,2066.3921,697.7891" style="stroke:#181818;stroke-width:1;"/><line style="stroke:#181818;stroke-width:1;" x1="754.3979" x2="2068.3921" y1="697.7891" y2="697.7891"/><text fill="#000000" font-family="sans-serif" font-size="13" lengthAdjust="spacing" textLength="195.4316" x="761.3979" y="692.7231">Evaluate privacy/entitlements</text></g><g class="message" data-participant-1="UAF" data-participant-2="Claims"><polygon fill="#181818" points="765.3979,722.9219,755.3979,726.9219,765.3979,730.9219,761.3979,726.9219" style="stroke:#181818;stroke-width:1;"/><line style="stroke:#181818;stroke-width:1;stroke-dasharray:2,2;" x1="759.3979" x2="2073.3921" y1="726.9219" y2="726.9219"/><text fill="#000000" font-family="sans-serif" font-size="13" lengthAdjust="spacing" textLength="174.0337" x="771.3979" y="721.856">Entitlements &amp; restrictions</text></g><g class="message" data-participant-1="Claims" data-participant-2="Claims"><line style="stroke:#181818;stroke-width:1;" x1="754.3979" x2="796.3979" y1="756.0547" y2="756.0547"/><line style="stroke:#181818;stroke-width:1;" x1="796.3979" x2="796.3979" y1="756.0547" y2="769.0547"/><line style="stroke:#181818;stroke-width:1;" x1="755.3979" x2="796.3979" y1="769.0547" y2="769.0547"/><polygon fill="#181818" points="765.3979,765.0547,755.3979,769.0547,765.3979,773.0547,761.3979,769.0547" style="stroke:#181818;stroke-width:1;"/><text fill="#000000" font-family="sans-serif" font-size="13" lengthAdjust="spacing" textLength="143.8442" x="761.3979" y="750.9888">Apply UAF restrictions</text></g><g class="message" data-participant-1="Claims" data-participant-2="Claims"><line style="stroke:#181818;stroke-width:1;" x1="754.3979" x2="796.3979" y1="798.1875" y2="798.1875"/><line style="stroke:#181818;stroke-width:1;" x1="796.3979" x2="796.3979" y1="798.1875" y2="811.1875"/><line style="stroke:#181818;stroke-width:1;" x1="755.3979" x2="796.3979" y1="811.1875" y2="811.1875"/><polygon fill="#181818" points="765.3979,807.1875,755.3979,811.1875,765.3979,815.1875,761.3979,811.1875" style="stroke:#181818;stroke-width:1;"/><text fill="#000000" font-family="sans-serif" font-size="13" lengthAdjust="spacing" textLength="191.8833" x="761.3979" y="793.1216">Build mapped claims payload</text></g><g class="message" data-participant-1="Claims" data-participant-2="Cache"><polygon fill="#181818" points="1307.8848,836.3203,1317.8848,840.3203,1307.8848,844.3203,1311.8848,840.3203" style="stroke:#181818;stroke-width:1;"/><line style="stroke:#181818;stroke-width:1;" x1="754.3979" x2="1313.8848" y1="840.3203" y2="840.3203"/><text fill="#000000" font-family="sans-serif" font-size="13" lengthAdjust="spacing" textLength="106.4312" x="761.3979" y="835.2544">PUT cache entry</text></g><g class="message" data-participant-1="Claims" data-participant-2="RxSvc"><polygon fill="#181818" points="443.4453,865.4531,433.4453,869.4531,443.4453,873.4531,439.4453,869.4531" style="stroke:#181818;stroke-width:1;"/><line style="stroke:#181818;stroke-width:1;stroke-dasharray:2,2;" x1="437.4453" x2="753.3979" y1="869.4531" y2="869.4531"/><text fill="#000000" font-family="sans-serif" font-size="13" lengthAdjust="spacing" textLength="178.4263" x="449.4453" y="864.3872">Pharmacy claims (mapped)</text></g><rect fill="#EEEEEE" height="3" style="stroke:#EEEEEE;stroke-width:1;" width="2148.4849" x="0" y="905.0195"/><line style="stroke:#000000;stroke-width:1;" x1="0" x2="2148.4849" y1="905.0195" y2="905.0195"/><line style="stroke:#000000;stroke-width:1;" x1="0" x2="2148.4849" y1="908.0195" y2="908.0195"/><rect fill="#EEEEEE" height="23.1328" style="stroke:#000000;stroke-width:2;" width="211.3296" x="968.5776" y="894.4531"/><text fill="#000000" font-family="sans-serif" font-size="13" font-weight="bold" lengthAdjust="spacing" textLength="192.8037" x="974.5776" y="910.52">Rx service detail selection</text><g class="message" data-participant-1="RxSvc" data-participant-2="RxSvc"><line style="stroke:#181818;stroke-width:1;" x1="432.4453" x2="474.4453" y1="948.7188" y2="948.7188"/><line style="stroke:#181818;stroke-width:1;" x1="474.4453" x2="474.4453" y1="948.7188" y2="961.7188"/><line style="stroke:#181818;stroke-width:1;" x1="433.4453" x2="474.4453" y1="961.7188" y2="961.7188"/><polygon fill="#181818" points="443.4453,957.7188,433.4453,961.7188,443.4453,965.7188,439.4453,961.7188" style="stroke:#181818;stroke-width:1;"/><text fill="#000000" font-family="sans-serif" font-size="13" lengthAdjust="spacing" textLength="271.1084" x="439.4453" y="943.6528">Locate claim by claimNumber == claimId</text></g><g class="message" data-participant-1="RxSvc" data-participant-2="RxSvc"><line style="stroke:#181818;stroke-width:1;" x1="432.4453" x2="474.4453" y1="1005.9844" y2="1005.9844"/><line style="stroke:#181818;stroke-width:1;" x1="474.4453" x2="474.4453" y1="1005.9844" y2="1018.9844"/><line style="stroke:#181818;stroke-width:1;" x1="433.4453" x2="474.4453" y1="1018.9844" y2="1018.9844"/><polygon fill="#181818" points="443.4453,1014.9844,433.4453,1018.9844,443.4453,1022.9844,439.4453,1018.9844" style="stroke:#181818;stroke-width:1;"/><text fill="#000000" font-family="sans-serif" font-size="13" lengthAdjust="spacing" textLength="188.1191" x="439.4453" y="985.7856">Transform to detail response</text><text fill="#000000" font-family="sans-serif" font-size="13" lengthAdjust="spacing" textLength="298.7017" x="439.4453" y="1000.9185">(type conversions, title case, cost calculation)</text></g><g class="message" data-participant-1="RxSvc" data-participant-2="Client"><polygon fill="#181818" points="39.2651,1074.3828,29.2651,1078.3828,39.2651,1082.3828,35.2651,1078.3828" style="stroke:#181818;stroke-width:1;"/><line style="stroke:#181818;stroke-width:1;stroke-dasharray:2,2;" x1="33.2651" x2="431.4453" y1="1078.3828" y2="1078.3828"/><text fill="#000000" font-family="sans-serif" font-size="13" lengthAdjust="spacing" textLength="361.9307" x="45.2651" y="1043.0513">200 OK { claimId, prescriptionId, drugName, drugForm,</text><text fill="#000000" font-family="sans-serif" font-size="13" lengthAdjust="spacing" textLength="249.7485" x="45.2651" y="1058.1841">NDC11, refillsLeft, estimatedCost, ... }</text><text fill="#000000" font-family="sans-serif" font-size="13" lengthAdjust="spacing" textLength="198.1294" x="45.2651" y="1073.3169">(or 400 missing dates/claimId)</text></g><!--SRC=[ZLLDJnin4BtlhnZrWB9gGg3gAL908O4IyT4e0IwbGiRh91RUZzhUY2sYlxqpjZTa4wfoYDRhVPuty_ncOgLL0YPQ6AvbOMMUmKXO9XMqlftUGBVO-6AEkM8o7IVz_VtzFMEPjYDcHNzFP8bRn574kCqr39KKcOqAH4Wk2vPP-3IycpLvPaAl91UVW1cOFizMV0jFNAQ1ybjHmYnxP4QiCKF6bm51grtUGMcNpKXtCzhRGkQQfCYVg_kirIsDq0mnkPQ_cIi_zaSHvK3DmrSYVHIQZi-b4XHWpbAfAiQvC4QNIeJp7XXmkwcUCFw4UbA0XR2-m7DfKDKghbCFcERXsy4Pj2PQhXWFIDo9edu_t0PeyQiKnaA_7uMTpf4NlWSVlcjwgwyRrox-I2Ynm0smEN1_8yZX8XE5hw7cM3ATOeOUXrMcJWwpbCLKcBpKN8oJDgm9sn3OObyAtI_WZp_vEXmRaT07p-53TrQ7dHSKtuwJcGlxnx_SCLMAryvB6YZ72RwiwN0T-5uZpzNPgE1SscCWzq4NhgGnQ7TbGqvBQIE0Eg4tPIUXu5gP5YTu4aT2eOFzsPHYlHq-gkqPDEChyq1EVB0vNli39K1eZsaaw03Z13v3aFN7pmYXw1COP_HWIWc5Emsosj0zUCVqM-26U_70ZictWw_TYk1jGqCh9FpUXRVHi7Fwn0fv8QeO0vFdcpg5kWT5eIeuSxd0m2K3qv3D6nhxeGUdApG0cRNmhTB5Hg0PcEAJuDH6cvAURdo6FSp9M2rvBSs_Kg4e_uMUb58baBAY44bjZu9LAcT94- -zFRb5Rpk_O2ww-fZRV7Hq6qc73JHz1kFd82H-pXliNfTaesb3lCkSarOk6Zo6iDUb6tKOBSo8dMCtccLcdkkKHaBWGJaAL896ewqAZ9bdAtGegTC6fp5MP_3QUOv3YZF5I-Ki6DVXdNGqk7hmvU00lb_0Ivr16pQ75xqdkbnSirJurHdcqhxFhaV3mqDdBAcKkHHpYtOpLgPOP394tZRWK8DNp17_nRuY2RMcp1RKzS9q0rly5m00]--></g></svg>