<svg xmlns="http://www.w3.org/2000/svg" xmlns:xlink="http://www.w3.org/1999/xlink" contentStyleType="text/css" data-diagram-type="SEQUENCE" height="1346px" preserveAspectRatio="none" style="width:2284px;height:1346px;background:#FFFFFF;" version="1.1" viewBox="0 0 2284 1346" width="2284px" zoomAndPan="magnify"><title>Prescription List (POST /prescriptions/search)</title><defs/><g><text fill="#000000" font-family="sans-serif" font-size="14" font-weight="bold" lengthAdjust="spacing" textLength="360.9102" x="957.7002" y="27.9951">Prescription List (POST /prescriptions/search)</text><rect fill="none" height="531.0625" style="stroke:#000000;stroke-width:1.5;" width="1953.4082" x="313.9023" y="426.9219"/><rect fill="none" height="119.6641" style="stroke:#000000;stroke-width:1.5;" width="1461.9653" x="687.1597" y="588.3906"/><rect fill="none" height="74.3984" style="stroke:#000000;stroke-width:1.5;" width="411.2603" x="313.9023" y="1129.6484"/><g><title>Client</title><rect fill="#000000" fill-opacity="0.00000" height="1146.7188" width="8" x="24.2651" y="118.5938"/><line style="stroke:#181818;stroke-width:0.5;stroke-dasharray:5,5;" x1="28" x2="28" y1="118.5938" y2="1265.3125"/></g><g><title>CVS Prescription Service</title><rect fill="#000000" fill-opacity="0.00000" height="1146.7188" width="8" x="412.9189" y="118.5938"/><line style="stroke:#181818;stroke-width:0.5;stroke-dasharray:5,5;" x1="416.9023" x2="416.9023" y1="118.5938" y2="1265.3125"/></g><g><title>Claims Service</title><rect fill="#000000" fill-opacity="0.00000" height="1146.7188" width="8" x="751.7881" y="118.5938"/><line style="stroke:#181818;stroke-width:0.5;stroke-dasharray:5,5;" x1="755.1597" x2="755.1597" y1="118.5938" y2="1265.3125"/></g><g><title>Claims Cache</title><rect fill="#000000" fill-opacity="0.00000" height="1146.7188" width="8" x="1444.7104" y="118.5938"/><line style="stroke:#181818;stroke-width:0.5;stroke-dasharray:5,5;" x1="1448.1836" x2="1448.1836" y1="118.5938" y2="1265.3125"/></g><g><title>CVS Auth Service</title><rect fill="#000000" fill-opacity="0.00000" height="1146.7188" width="8" x="1573.084" y="118.5938"/><line style="stroke:#181818;stroke-width:0.5;stroke-dasharray:5,5;" x1="1576.2373" x2="1576.2373" y1="118.5938" y2="1265.3125"/></g><g><title>Core Proxy</title><rect fill="#000000" fill-opacity="0.00000" height="1146.7188" width="8" x="1731.0513" y="118.5938"/><line style="stroke:#181818;stroke-width:0.5;stroke-dasharray:5,5;" x1="1734.9307" x2="1734.9307" y1="118.5938" y2="1265.3125"/></g><g><title>Member Profile</title><rect fill="#000000" fill-opacity="0.00000" height="1146.7188" width="8" x="1898.3975" y="118.5938"/><line style="stroke:#181818;stroke-width:0.5;stroke-dasharray:5,5;" x1="1902.1719" x2="1902.1719" y1="118.5938" y2="1265.3125"/></g><g><title>CVS Backend</title><rect fill="#000000" fill-opacity="0.00000" height="1146.7188" width="8" x="2060.374" y="118.5938"/><line style="stroke:#181818;stroke-width:0.5;stroke-dasharray:5,5;" x1="2063.623" x2="2063.623" y1="118.5938" y2="1265.3125"/></g><g><title>UAF .Privacy.</title><rect fill="#000000" fill-opacity="0.00000" height="1146.7188" width="8" x="2199.2178" y="118.5938"/><line style="stroke:#181818;stroke-width:0.5;stroke-dasharray:5,5;" x1="2203.125" x2="2203.125" y1="118.5938" y2="1265.3125"/></g><g class="participant participant-head" data-participant="Client"><text fill="#000000" font-family="sans-serif" font-size="14" lengthAdjust="spacing" textLength="40.5303" x="5" y="115.292">Client</text><ellipse cx="28.2651" cy="50.7969" fill="#E2E2F0" rx="8" ry="8" style="stroke:#181818;stroke-width:0.5;"/><path d="M28.2651,58.7969 L28.2651,85.7969 M15.2651,66.7969 L41.2651,66.7969 M28.2651,85.7969 L15.2651,100.7969 M28.2651,85.7969 L41.2651,100.7969" fill="none" style="stroke:#181818;stroke-width:0.5;"/></g><g class="participant participant-tail" data-participant="Client"><text fill="#000000" font-family="sans-serif" font-size="14" lengthAdjust="spacing" textLength="40.5303" x="5" y="1277.3076">Client</text><ellipse cx="28.2651" cy="1289.1094" fill="#E2E2F0" rx="8" ry="8" style="stroke:#181818;stroke-width:0.5;"/><path d="M28.2651,1297.1094 L28.2651,1324.1094 M15.2651,1305.1094 L41.2651,1305.1094 M28.2651,1324.1094 L15.2651,1339.1094 M28.2651,1324.1094 L41.2651,1339.1094" fill="none" style="stroke:#181818;stroke-width:0.5;"/></g><g class="participant participant-head" data-participant="RxSvc"><rect fill="#E2E2F0" height="30.2969" rx="2.5" ry="2.5" style="stroke:#181818;stroke-width:0.5;" width="186.0332" x="323.9023" y="87.2969"/><text fill="#000000" font-family="sans-serif" font-size="14" lengthAdjust="spacing" textLength="172.0332" x="330.9023" y="107.292">CVS Prescription Service</text></g><g class="participant participant-tail" data-participant="RxSvc"><rect fill="#E2E2F0" height="30.2969" rx="2.5" ry="2.5" style="stroke:#181818;stroke-width:0.5;" width="186.0332" x="323.9023" y="1264.3125"/><text fill="#000000" font-family="sans-serif" font-size="14" lengthAdjust="spacing" textLength="172.0332" x="330.9023" y="1284.3076">CVS Prescription Service</text></g><g class="participant participant-head" data-participant="Claims"><rect fill="#E2E2F0" height="30.2969" rx="2.5" ry="2.5" style="stroke:#181818;stroke-width:0.5;" width="117.2568" x="697.1597" y="87.2969"/><text fill="#000000" font-family="sans-serif" font-size="14" lengthAdjust="spacing" textLength="103.2568" x="704.1597" y="107.292">Claims Service</text></g><g class="participant participant-tail" data-participant="Claims"><rect fill="#E2E2F0" height="30.2969" rx="2.5" ry="2.5" style="stroke:#181818;stroke-width:0.5;" width="117.2568" x="697.1597" y="1264.3125"/><text fill="#000000" font-family="sans-serif" font-size="14" lengthAdjust="spacing" textLength="103.2568" x="704.1597" y="1284.3076">Claims Service</text></g><g class="participant participant-head" data-participant="Cache"><text fill="#000000" font-family="sans-serif" font-size="14" lengthAdjust="spacing" textLength="95.0537" x="1398.1836" y="115.292">Claims Cache</text><path d="M1430.7104,66.2969 C1430.7104,56.2969 1448.7104,56.2969 1448.7104,56.2969 C1448.7104,56.2969 1466.7104,56.2969 1466.7104,66.2969 L1466.7104,92.2969 C1466.7104,102.2969 1448.7104,102.2969 1448.7104,102.2969 C1448.7104,102.2969 1430.7104,102.2969 1430.7104,92.2969 L1430.7104,66.2969" fill="#E2E2F0" style="stroke:#181818;stroke-width:0.5;"/><path d="M1430.7104,66.2969 C1430.7104,76.2969 1448.7104,76.2969 1448.7104,76.2969 C1448.7104,76.2969 1466.7104,76.2969 1466.7104,66.2969" fill="none" style="stroke:#181818;stroke-width:0.5;"/></g><g class="participant participant-tail" data-participant="Cache"><text fill="#000000" font-family="sans-serif" font-size="14" lengthAdjust="spacing" textLength="95.0537" x="1398.1836" y="1277.3076">Claims Cache</text><path d="M1430.7104,1290.6094 C1430.7104,1280.6094 1448.7104,1280.6094 1448.7104,1280.6094 C1448.7104,1280.6094 1466.7104,1280.6094 1466.7104,1290.6094 L1466.7104,1316.6094 C1466.7104,1326.6094 1448.7104,1326.6094 1448.7104,1326.6094 C1448.7104,1326.6094 1430.7104,1326.6094 1430.7104,1316.6094 L1430.7104,1290.6094" fill="#E2E2F0" style="stroke:#181818;stroke-width:0.5;"/><path d="M1430.7104,1290.6094 C1430.7104,1300.6094 1448.7104,1300.6094 1448.7104,1300.6094 C1448.7104,1300.6094 1466.7104,1300.6094 1466.7104,1290.6094" fill="none" style="stroke:#181818;stroke-width:0.5;"/></g><g class="participant participant-head" data-participant="CVSAuth"><rect fill="#E2E2F0" height="30.2969" rx="2.5" ry="2.5" style="stroke:#181818;stroke-width:0.5;" width="135.6934" x="1509.2373" y="87.2969"/><text fill="#000000" font-family="sans-serif" font-size="14" lengthAdjust="spacing" textLength="121.6934" x="1516.2373" y="107.292">CVS Auth Service</text></g><g class="participant participant-tail" data-participant="CVSAuth"><rect fill="#E2E2F0" height="30.2969" rx="2.5" ry="2.5" style="stroke:#181818;stroke-width:0.5;" width="135.6934" x="1509.2373" y="1264.3125"/><text fill="#000000" font-family="sans-serif" font-size="14" lengthAdjust="spacing" textLength="121.6934" x="1516.2373" y="1284.3076">CVS Auth Service</text></g><g class="participant participant-head" data-participant="CoreProxy"><rect fill="#E2E2F0" height="46.5938" rx="2.5" ry="2.5" style="stroke:#181818;stroke-width:0.5;" width="160.2412" x="1654.9307" y="71"/><text fill="#000000" font-family="sans-serif" font-size="14" lengthAdjust="spacing" textLength="76.4941" x="1696.8042" y="90.9951">Core Proxy</text><text fill="#000000" font-family="sans-serif" font-size="14" lengthAdjust="spacing" textLength="146.2412" x="1661.9307" y="107.292">(/userauthorizations)</text></g><g class="participant participant-tail" data-participant="CoreProxy"><rect fill="#E2E2F0" height="46.5938" rx="2.5" ry="2.5" style="stroke:#181818;stroke-width:0.5;" width="160.2412" x="1654.9307" y="1264.3125"/><text fill="#000000" font-family="sans-serif" font-size="14" lengthAdjust="spacing" textLength="76.4941" x="1696.8042" y="1284.3076">Core Proxy</text><text fill="#000000" font-family="sans-serif" font-size="14" lengthAdjust="spacing" textLength="146.2412" x="1661.9307" y="1300.6045">(/userauthorizations)</text></g><g class="participant participant-head" data-participant="MemberProfile"><rect fill="#E2E2F0" height="46.5938" rx="2.5" ry="2.5" style="stroke:#181818;stroke-width:0.5;" width="154.4512" x="1825.1719" y="71"/><text fill="#000000" font-family="sans-serif" font-size="14" lengthAdjust="spacing" textLength="106.1211" x="1849.3369" y="90.9951">Member Profile</text><text fill="#000000" font-family="sans-serif" font-size="14" lengthAdjust="spacing" textLength="140.4512" x="1832.1719" y="107.292">(/familyaccessrules)</text></g><g class="participant participant-tail" data-participant="MemberProfile"><rect fill="#E2E2F0" height="46.5938" rx="2.5" ry="2.5" style="stroke:#181818;stroke-width:0.5;" width="154.4512" x="1825.1719" y="1264.3125"/><text fill="#000000" font-family="sans-serif" font-size="14" lengthAdjust="spacing" textLength="106.1211" x="1849.3369" y="1284.3076">Member Profile</text><text fill="#000000" font-family="sans-serif" font-size="14" lengthAdjust="spacing" textLength="140.4512" x="1832.1719" y="1300.6045">(/familyaccessrules)</text></g><g class="participant participant-head" data-participant="CVSBackend"><rect fill="#E2E2F0" height="46.5938" rx="2.5" ry="2.5" style="stroke:#181818;stroke-width:0.5;" width="149.502" x="1989.623" y="71"/><text fill="#000000" font-family="sans-serif" font-size="14" lengthAdjust="spacing" textLength="93.0508" x="2017.8486" y="90.9951">CVS Backend</text><text fill="#000000" font-family="sans-serif" font-size="14" lengthAdjust="spacing" textLength="135.502" x="1996.623" y="107.292">(/getClaimsHistory)</text></g><g class="participant participant-tail" data-participant="CVSBackend"><rect fill="#E2E2F0" height="46.5938" rx="2.5" ry="2.5" style="stroke:#181818;stroke-width:0.5;" width="149.502" x="1989.623" y="1264.3125"/><text fill="#000000" font-family="sans-serif" font-size="14" lengthAdjust="spacing" textLength="93.0508" x="2017.8486" y="1284.3076">CVS Backend</text><text fill="#000000" font-family="sans-serif" font-size="14" lengthAdjust="spacing" textLength="135.502" x="1996.623" y="1300.6045">(/getClaimsHistory)</text></g><g class="participant participant-head" data-participant="UAF"><rect fill="#E2E2F0" height="30.2969" rx="2.5" ry="2.5" style="stroke:#181818;stroke-width:0.5;" width="108.1855" x="2149.125" y="87.2969"/><text fill="#000000" font-family="sans-serif" font-size="14" lengthAdjust="spacing" textLength="94.1855" x="2156.125" y="107.292">UAF (Privacy)</text></g><g class="participant participant-tail" data-participant="UAF"><rect fill="#E2E2F0" height="30.2969" rx="2.5" ry="2.5" style="stroke:#181818;stroke-width:0.5;" width="108.1855" x="2149.125" y="1264.3125"/><text fill="#000000" font-family="sans-serif" font-size="14" lengthAdjust="spacing" textLength="94.1855" x="2156.125" y="1284.3076">UAF (Privacy)</text></g><rect fill="#EEEEEE" height="3" style="stroke:#EEEEEE;stroke-width:1;" width="2277.3105" x="0" y="149.1602"/><line style="stroke:#000000;stroke-width:1;" x1="0" x2="2277.3105" y1="149.1602" y2="149.1602"/><line style="stroke:#000000;stroke-width:1;" x1="0" x2="2277.3105" y1="152.1602" y2="152.1602"/><rect fill="#EEEEEE" height="23.1328" style="stroke:#000000;stroke-width:2;" width="122.3481" x="1077.4812" y="138.5938"/><text fill="#000000" font-family="sans-serif" font-size="13" font-weight="bold" lengthAdjust="spacing" textLength="103.8223" x="1083.4812" y="154.6606">Client request</text><g class="message" data-participant-1="Client" data-participant-2="RxSvc"><polygon fill="#181818" points="404.9189,219.125,414.9189,223.125,404.9189,227.125,408.9189,223.125" style="stroke:#181818;stroke-width:1;"/><line style="stroke:#181818;stroke-width:1;" x1="28.2651" x2="410.9189" y1="223.125" y2="223.125"/><text fill="#000000" font-family="sans-serif" font-size="13" lengthAdjust="spacing" textLength="175.0239" x="35.2651" y="187.7935">POST /prescriptions/search</text><text fill="#000000" font-family="sans-serif" font-size="13" lengthAdjust="spacing" textLength="236.7549" x="35.2651" y="202.9263">body: { membershipResourceIds[] }</text><text fill="#000000" font-family="sans-serif" font-size="13" lengthAdjust="spacing" textLength="171.2153" x="35.2651" y="218.0591">query: startDate, endDate</text></g><rect fill="#EEEEEE" height="3" style="stroke:#EEEEEE;stroke-width:1;" width="2277.3105" x="0" y="251.6914"/><line style="stroke:#000000;stroke-width:1;" x1="0" x2="2277.3105" y1="251.6914" y2="251.6914"/><line style="stroke:#000000;stroke-width:1;" x1="0" x2="2277.3105" y1="254.6914" y2="254.6914"/><rect fill="#EEEEEE" height="23.1328" style="stroke:#000000;stroke-width:2;" width="155.3877" x="1060.9614" y="241.125"/><text fill="#000000" font-family="sans-serif" font-size="13" font-weight="bold" lengthAdjust="spacing" textLength="136.8618" x="1066.9614" y="257.1919">Delegate to claims</text><g class="message" data-participant-1="RxSvc" data-participant-2="Claims"><polygon fill="#181818" points="743.7881,306.5234,753.7881,310.5234,743.7881,314.5234,747.7881,310.5234" style="stroke:#181818;stroke-width:1;"/><line style="stroke:#181818;stroke-width:1;" x1="416.9189" x2="749.7881" y1="310.5234" y2="310.5234"/><text fill="#000000" font-family="sans-serif" font-size="13" lengthAdjust="spacing" textLength="141.7876" x="423.9189" y="290.3247">GET /pharmacyclaims</text><text fill="#000000" font-family="sans-serif" font-size="13" lengthAdjust="spacing" textLength="314.8691" x="423.9189" y="305.4575">(membershipResourceId(s), startDate, endDate)</text></g><rect fill="#EEEEEE" height="3" style="stroke:#EEEEEE;stroke-width:1;" width="2277.3105" x="0" y="339.0898"/><line style="stroke:#000000;stroke-width:1;" x1="0" x2="2277.3105" y1="339.0898" y2="339.0898"/><line style="stroke:#000000;stroke-width:1;" x1="0" x2="2277.3105" y1="342.0898" y2="342.0898"/><rect fill="#EEEEEE" height="23.1328" style="stroke:#000000;stroke-width:2;" width="109.272" x="1084.0193" y="328.5234"/><text fill="#000000" font-family="sans-serif" font-size="13" font-weight="bold" lengthAdjust="spacing" textLength="90.7461" x="1090.0193" y="344.5903">Cache check</text><g class="message" data-participant-1="Claims" data-participant-2="Cache"><polygon fill="#181818" points="1436.7104,378.7891,1446.7104,382.7891,1436.7104,386.7891,1440.7104,382.7891" style="stroke:#181818;stroke-width:1;"/><line style="stroke:#181818;stroke-width:1;" x1="755.7881" x2="1442.7104" y1="382.7891" y2="382.7891"/><text fill="#000000" font-family="sans-serif" font-size="13" lengthAdjust="spacing" textLength="541.4868" x="762.7881" y="377.7231">GET claims-v1-{acctIdSource~acctIdValue}-{mshipResId}-{startDate}-{endDate}</text></g><g class="message" data-participant-1="Cache" data-participant-2="Claims"><polygon fill="#181818" points="766.7881,407.9219,756.7881,411.9219,766.7881,415.9219,762.7881,411.9219" style="stroke:#181818;stroke-width:1;"/><line style="stroke:#181818;stroke-width:1;stroke-dasharray:2,2;" x1="760.7881" x2="1447.7104" y1="411.9219" y2="411.9219"/><text fill="#000000" font-family="sans-serif" font-size="13" lengthAdjust="spacing" textLength="99.8169" x="772.7881" y="406.856">Hit? data / Miss</text></g><path d="M313.9023,426.9219 L378.3452,426.9219 L378.3452,434.0547 L368.3452,444.0547 L313.9023,444.0547 L313.9023,426.9219" fill="#EEEEEE" style="stroke:#000000;stroke-width:1.5;"/><rect fill="none" height="531.0625" style="stroke:#000000;stroke-width:1.5;" width="1953.4082" x="313.9023" y="426.9219"/><text fill="#000000" font-family="sans-serif" font-size="13" font-weight="bold" lengthAdjust="spacing" textLength="19.4429" x="328.9023" y="439.9888">alt</text><text fill="#000000" font-family="sans-serif" font-size="11" font-weight="bold" lengthAdjust="spacing" textLength="68.0518" x="393.3452" y="439.1323">[Cache hit]</text><g class="message" data-participant-1="Claims" data-participant-2="RxSvc"><polygon fill="#181818" points="427.9189,461.1875,417.9189,465.1875,427.9189,469.1875,423.9189,465.1875" style="stroke:#181818;stroke-width:1;"/><line style="stroke:#181818;stroke-width:1;stroke-dasharray:2,2;" x1="421.9189" x2="754.7881" y1="465.1875" y2="465.1875"/><text fill="#000000" font-family="sans-serif" font-size="13" lengthAdjust="spacing" textLength="171.793" x="433.9189" y="460.1216">Pharmacy claims (cached)</text></g><line style="stroke:#000000;stroke-width:1;stroke-dasharray:2,2;" x1="313.9023" x2="2267.3105" y1="474.1875" y2="474.1875"/><text fill="#000000" font-family="sans-serif" font-size="11" font-weight="bold" lengthAdjust="spacing" textLength="79.519" x="318.9023" y="484.3979">[Cache miss]</text><path d="M667,492.9922 L667,517.9922 L843,517.9922 L843,502.9922 L833,492.9922 L667,492.9922" fill="#FEFFDD" style="stroke:#181818;stroke-width:0.5;"/><path d="M833,492.9922 L833,502.9922 L843,502.9922 L833,492.9922" fill="#FEFFDD" style="stroke:#181818;stroke-width:0.5;"/><text fill="#000000" font-family="sans-serif" font-size="13" lengthAdjust="spacing" textLength="155.3208" x="673" y="510.0591">Validate membership id</text><g class="message" data-participant-1="Claims" data-participant-2="CVSAuth"><polygon fill="#181818" points="1565.084,540.2578,1575.084,544.2578,1565.084,548.2578,1569.084,544.2578" style="stroke:#181818;stroke-width:1;"/><line style="stroke:#181818;stroke-width:1;" x1="755.7881" x2="1571.084" y1="544.2578" y2="544.2578"/><text fill="#000000" font-family="sans-serif" font-size="13" lengthAdjust="spacing" textLength="171.4946" x="762.7881" y="539.1919">GET /cvs_auth_token_data</text></g><g class="message" data-participant-1="CVSAuth" data-participant-2="Claims"><polygon fill="#181818" points="766.7881,569.3906,756.7881,573.3906,766.7881,577.3906,762.7881,573.3906" style="stroke:#181818;stroke-width:1;"/><line style="stroke:#181818;stroke-width:1;stroke-dasharray:2,2;" x1="760.7881" x2="1576.084" y1="573.3906" y2="573.3906"/><text fill="#000000" font-family="sans-serif" font-size="13" lengthAdjust="spacing" textLength="139.896" x="772.7881" y="568.3247">tokenId + members[]</text></g><path d="M687.1597,588.3906 L756.6489,588.3906 L756.6489,595.5234 L746.6489,605.5234 L687.1597,605.5234 L687.1597,588.3906" fill="#EEEEEE" style="stroke:#000000;stroke-width:1.5;"/><rect fill="none" height="119.6641" style="stroke:#000000;stroke-width:1.5;" width="1461.9653" x="687.1597" y="588.3906"/><text fill="#000000" font-family="sans-serif" font-size="13" font-weight="bold" lengthAdjust="spacing" textLength="24.4893" x="702.1597" y="601.4575">par</text><text fill="#000000" font-family="sans-serif" font-size="11" font-weight="bold" lengthAdjust="spacing" textLength="72.7246" x="771.6489" y="600.6011">[In parallel]</text><g class="message" data-participant-1="Claims" data-participant-2="CoreProxy"><polygon fill="#181818" points="1723.0513,622.6563,1733.0513,626.6563,1723.0513,630.6563,1727.0513,626.6563" style="stroke:#181818;stroke-width:1;"/><line style="stroke:#181818;stroke-width:1;" x1="755.7881" x2="1729.0513" y1="626.6563" y2="626.6563"/><text fill="#000000" font-family="sans-serif" font-size="13" lengthAdjust="spacing" textLength="216.8931" x="762.7881" y="621.5903">/userauthorizations (EIE headers)</text></g><g class="message" data-participant-1="Claims" data-participant-2="MemberProfile"><polygon fill="#181818" points="1890.3975,651.7891,1900.3975,655.7891,1890.3975,659.7891,1894.3975,655.7891" style="stroke:#181818;stroke-width:1;"/><line style="stroke:#181818;stroke-width:1;" x1="755.7881" x2="1896.3975" y1="655.7891" y2="655.7891"/><text fill="#000000" font-family="sans-serif" font-size="13" lengthAdjust="spacing" textLength="120.2754" x="762.7881" y="650.7231">/familyaccessrules</text></g><g class="message" data-participant-1="Claims" data-participant-2="CVSBackend"><polygon fill="#181818" points="2052.374,696.0547,2062.374,700.0547,2052.374,704.0547,2056.374,700.0547" style="stroke:#181818;stroke-width:1;"/><line style="stroke:#181818;stroke-width:1;" x1="755.7881" x2="2058.374" y1="700.0547" y2="700.0547"/><text fill="#000000" font-family="sans-serif" font-size="13" lengthAdjust="spacing" textLength="115.6797" x="762.7881" y="679.856">/getClaimsHistory</text><text fill="#000000" font-family="sans-serif" font-size="13" lengthAdjust="spacing" textLength="283.0674" x="762.7881" y="694.9888">(tokenId, startDate, endDate, refId, apiKey)</text></g><g class="message" data-participant-1="Claims" data-participant-2="Claims"><line style="stroke:#181818;stroke-width:1;" x1="755.7881" x2="797.7881" y1="736.1875" y2="736.1875"/><line style="stroke:#181818;stroke-width:1;" x1="797.7881" x2="797.7881" y1="736.1875" y2="749.1875"/><line style="stroke:#181818;stroke-width:1;" x1="756.7881" x2="797.7881" y1="749.1875" y2="749.1875"/><polygon fill="#181818" points="766.7881,745.1875,756.7881,749.1875,766.7881,753.1875,762.7881,749.1875" style="stroke:#181818;stroke-width:1;"/><text fill="#000000" font-family="sans-serif" font-size="13" lengthAdjust="spacing" textLength="425.1279" x="762.7881" y="731.1216">Apply Family Access Rules (indexId, age, sensitive drug visibility)</text></g><g class="message" data-participant-1="Claims" data-participant-2="UAF"><polygon fill="#181818" points="2191.2178,774.3203,2201.2178,778.3203,2191.2178,782.3203,2195.2178,778.3203" style="stroke:#181818;stroke-width:1;"/><line style="stroke:#181818;stroke-width:1;" x1="755.7881" x2="2197.2178" y1="778.3203" y2="778.3203"/><text fill="#000000" font-family="sans-serif" font-size="13" lengthAdjust="spacing" textLength="351.6729" x="762.7881" y="773.2544">Check privacy entitlements (EIE headers, memberIds)</text></g><g class="message" data-participant-1="UAF" data-participant-2="Claims"><polygon fill="#181818" points="766.7881,803.4531,756.7881,807.4531,766.7881,811.4531,762.7881,807.4531" style="stroke:#181818;stroke-width:1;"/><line style="stroke:#181818;stroke-width:1;stroke-dasharray:2,2;" x1="760.7881" x2="2202.2178" y1="807.4531" y2="807.4531"/><text fill="#000000" font-family="sans-serif" font-size="13" lengthAdjust="spacing" textLength="174.0337" x="772.7881" y="802.3872">Entitlements &amp; restrictions</text></g><g class="message" data-participant-1="Claims" data-participant-2="Claims"><line style="stroke:#181818;stroke-width:1;" x1="755.7881" x2="797.7881" y1="836.5859" y2="836.5859"/><line style="stroke:#181818;stroke-width:1;" x1="797.7881" x2="797.7881" y1="836.5859" y2="849.5859"/><line style="stroke:#181818;stroke-width:1;" x1="756.7881" x2="797.7881" y1="849.5859" y2="849.5859"/><polygon fill="#181818" points="766.7881,845.5859,756.7881,849.5859,766.7881,853.5859,762.7881,849.5859" style="stroke:#181818;stroke-width:1;"/><text fill="#000000" font-family="sans-serif" font-size="13" lengthAdjust="spacing" textLength="334.2485" x="762.7881" y="831.52">Apply UAF restrictions (hide restricted dependents)</text></g><g class="message" data-participant-1="Claims" data-participant-2="Claims"><line style="stroke:#181818;stroke-width:1;" x1="755.7881" x2="797.7881" y1="878.7188" y2="878.7188"/><line style="stroke:#181818;stroke-width:1;" x1="797.7881" x2="797.7881" y1="878.7188" y2="891.7188"/><line style="stroke:#181818;stroke-width:1;" x1="756.7881" x2="797.7881" y1="891.7188" y2="891.7188"/><polygon fill="#181818" points="766.7881,887.7188,756.7881,891.7188,766.7881,895.7188,762.7881,891.7188" style="stroke:#181818;stroke-width:1;"/><text fill="#000000" font-family="sans-serif" font-size="13" lengthAdjust="spacing" textLength="357.957" x="762.7881" y="873.6528">Build mapped claims payload (SDK&#8594;API field mapping)</text></g><g class="message" data-participant-1="Claims" data-participant-2="Cache"><polygon fill="#181818" points="1436.7104,916.8516,1446.7104,920.8516,1436.7104,924.8516,1440.7104,920.8516" style="stroke:#181818;stroke-width:1;"/><line style="stroke:#181818;stroke-width:1;" x1="755.7881" x2="1442.7104" y1="920.8516" y2="920.8516"/><text fill="#000000" font-family="sans-serif" font-size="13" lengthAdjust="spacing" textLength="668.9224" x="762.7881" y="915.7856">PUT claims-v1-{acctIdSource~acctIdValue}-{mshipResId}-{startDate}-{endDate} = mapped payload</text></g><g class="message" data-participant-1="Claims" data-participant-2="RxSvc"><polygon fill="#181818" points="427.9189,945.9844,417.9189,949.9844,427.9189,953.9844,423.9189,949.9844" style="stroke:#181818;stroke-width:1;"/><line style="stroke:#181818;stroke-width:1;stroke-dasharray:2,2;" x1="421.9189" x2="754.7881" y1="949.9844" y2="949.9844"/><text fill="#000000" font-family="sans-serif" font-size="13" lengthAdjust="spacing" textLength="178.4263" x="433.9189" y="944.9185">Pharmacy claims (mapped)</text></g><rect fill="#EEEEEE" height="3" style="stroke:#EEEEEE;stroke-width:1;" width="2277.3105" x="0" y="985.5508"/><line style="stroke:#000000;stroke-width:1;" x1="0" x2="2277.3105" y1="985.5508" y2="985.5508"/><line style="stroke:#000000;stroke-width:1;" x1="0" x2="2277.3105" y1="988.5508" y2="988.5508"/><rect fill="#EEEEEE" height="23.1328" style="stroke:#000000;stroke-width:2;" width="171.3267" x="1052.9919" y="974.9844"/><text fill="#000000" font-family="sans-serif" font-size="13" font-weight="bold" lengthAdjust="spacing" textLength="152.8008" x="1058.9919" y="991.0513">Rx service transform</text><g class="message" data-participant-1="RxSvc" data-participant-2="RxSvc"><line style="stroke:#181818;stroke-width:1;" x1="416.9189" x2="458.9189" y1="1044.3828" y2="1044.3828"/><line style="stroke:#181818;stroke-width:1;" x1="458.9189" x2="458.9189" y1="1044.3828" y2="1057.3828"/><line style="stroke:#181818;stroke-width:1;" x1="417.9189" x2="458.9189" y1="1057.3828" y2="1057.3828"/><polygon fill="#181818" points="427.9189,1053.3828,417.9189,1057.3828,427.9189,1061.3828,423.9189,1057.3828" style="stroke:#181818;stroke-width:1;"/><text fill="#000000" font-family="sans-serif" font-size="13" lengthAdjust="spacing" textLength="175.7856" x="423.9189" y="1024.1841">Deduplicate by uniqueRxId</text><text fill="#000000" font-family="sans-serif" font-size="13" lengthAdjust="spacing" textLength="133.2119" x="423.9189" y="1039.3169">(keep latest fillDate)</text></g><g class="message" data-participant-1="RxSvc" data-participant-2="RxSvc"><line style="stroke:#181818;stroke-width:1;" x1="416.9189" x2="458.9189" y1="1101.6484" y2="1101.6484"/><line style="stroke:#181818;stroke-width:1;" x1="458.9189" x2="458.9189" y1="1101.6484" y2="1114.6484"/><line style="stroke:#181818;stroke-width:1;" x1="417.9189" x2="458.9189" y1="1114.6484" y2="1114.6484"/><polygon fill="#181818" points="427.9189,1110.6484,417.9189,1114.6484,427.9189,1118.6484,423.9189,1114.6484" style="stroke:#181818;stroke-width:1;"/><text fill="#000000" font-family="sans-serif" font-size="13" lengthAdjust="spacing" textLength="232.7178" x="423.9189" y="1081.4497">Transform claims &#8594; prescription list</text><text fill="#000000" font-family="sans-serif" font-size="13" lengthAdjust="spacing" textLength="188.7412" x="423.9189" y="1096.5825">(type conversions, title case)</text></g><path d="M313.9023,1129.6484 L383.3535,1129.6484 L383.3535,1136.7813 L373.3535,1146.7813 L313.9023,1146.7813 L313.9023,1129.6484" fill="#EEEEEE" style="stroke:#000000;stroke-width:1.5;"/><rect fill="none" height="74.3984" style="stroke:#000000;stroke-width:1.5;" width="411.2603" x="313.9023" y="1129.6484"/><text fill="#000000" font-family="sans-serif" font-size="13" font-weight="bold" lengthAdjust="spacing" textLength="24.4512" x="328.9023" y="1142.7153">opt</text><text fill="#000000" font-family="sans-serif" font-size="11" font-weight="bold" lengthAdjust="spacing" textLength="270.5957" x="398.3535" y="1141.8589">[Filter by request membershipResourceIds]</text><g class="message" data-participant-1="RxSvc" data-participant-2="RxSvc"><line style="stroke:#181818;stroke-width:1;" x1="416.9189" x2="458.9189" y1="1183.0469" y2="1183.0469"/><line style="stroke:#181818;stroke-width:1;" x1="458.9189" x2="458.9189" y1="1183.0469" y2="1196.0469"/><line style="stroke:#181818;stroke-width:1;" x1="417.9189" x2="458.9189" y1="1196.0469" y2="1196.0469"/><polygon fill="#181818" points="427.9189,1192.0469,417.9189,1196.0469,427.9189,1200.0469,423.9189,1196.0469" style="stroke:#181818;stroke-width:1;"/><text fill="#000000" font-family="sans-serif" font-size="13" lengthAdjust="spacing" textLength="289.2437" x="423.9189" y="1162.8481">If membershipResourceIds empty &#8594; no filter</text><text fill="#000000" font-family="sans-serif" font-size="13" lengthAdjust="spacing" textLength="261.1426" x="423.9189" y="1177.981">Else include only matching mshipResIds</text></g><g class="message" data-participant-1="RxSvc" data-participant-2="Client"><polygon fill="#181818" points="39.2651,1243.3125,29.2651,1247.3125,39.2651,1251.3125,35.2651,1247.3125" style="stroke:#181818;stroke-width:1;"/><line style="stroke:#181818;stroke-width:1;stroke-dasharray:2,2;" x1="33.2651" x2="415.9189" y1="1247.3125" y2="1247.3125"/><text fill="#000000" font-family="sans-serif" font-size="13" lengthAdjust="spacing" textLength="364.6538" x="45.2651" y="1227.1138">200 OK [ { member info, start/end, prescriptionList[] } ]</text><text fill="#000000" font-family="sans-serif" font-size="13" lengthAdjust="spacing" textLength="253.1826" x="45.2651" y="1242.2466">(or 200 empty list / 400 missing dates)</text></g><!--SRC=[hLRDRjj64BxpAGOv128gGMdHam2bK6ov4TmWXfJuOXl6QdSaBRpaihjBmOpX7li0VSG-IMUuArcKbQA77WIHoszclldcXmmw68GhXruwNGLjI_XD-m2zgy-BBp2i3XxueKVXv2RFCY63TN1cD9OXguGBMkfAb07Ud5qlkjuMwBPQuXiG7kQFYwqymXkX2zz1nQDCYI2MmkCUSoRa9Y7uwdNSIHqsNK_N2puxGbh72Tl7vhRi3MkFJX36ElrDj5dcqPHGBQXh_0cB9JesNsc3x60b2cqQ8ILwxsg3oJu24-urrGz2Fc2fsC4QGqpm8-bkNPFlg2TCr_Zhv89gu_HMo8IaaomRZrCrmE7lDL81n-CidGpUH-57yFsQtfPBgveHF47H4lSRNStHszf9d2b_SmVFjoKvTeJnWGYTYu1z87fyqSO_HuDhke5WGSQA4OSsCbE8EOxWrobJs0XNK0OHHogSYjhpUVz4i3ncooq0z9CFCTKs8CVX1p5Cz3xO_ZXuelg4cLgqdl-8DzV2rFWyU2fIr9cYctqukaxndhCOQt2Gn4STVW5kK1Z29-qzJOG9YTD6XmnWH-X0_9JpJfoUPBZACpJKvD6sO5y0fIKPxHRTFY2HrOh5VH4Aj3g8ytxNx4bXkVNttDVtmL8JtJDNHaTC9vSMC5FmmyxtpLr6KEewc9Ny9un1GoUTOBln6C694OBUT3Q53Gf5xl8ZqyvaaFch0JeEjPy40XyF2xLEud-gLVeq3Ij-92fzYGqpuO7gofPac5ILQU2Y9GEJbWtCcGxqTAdmiNMp9fSUIw-3tY8eLwzXgxrUQgD3w_x5Butb2CxQ_gpYk5BimDkseF-kHFqaFKqQE-4PFwpGzD3kBUNaWzEoLVfVKc4lXr3eRRJ2_H4gK5YH7EmrFwt9XreR1OMeAaAdjgr4OwnGq5kSN_xzvr-JgnciD2QOBjTT5T8qNdtztwOHnZj2YSb_6xPeGyF6zQVzCN-aGhPl2WXEb7vbNT7PLydHEQgwCbhox2qRg4jDMt1EtK2Tzu1OWQ4dj6wfcKtSJiSUlkpT9owa6XpkO33Kozp8JKKRpPOqzvuBreUsx23f9PXdjWfmeKsWfK0yTbl-vBOcHOv9p5QdeO155PgMKcav2V9_Mqvv8-bIcfeQnfRKJ8K8SaFLXPVw-AXbYjHs3RzkHl3JktVm-H9kzYyJShMoQJw7PDJlfC-V6_n-WJlIWBugs3ooObremVvC1xmOEJplG9__0m00]--></g></svg>