<svg xmlns="http://www.w3.org/2000/svg" xmlns:xlink="http://www.w3.org/1999/xlink" contentStyleType="text/css" data-diagram-type="DESCRIPTION" height="405px" preserveAspectRatio="none" style="width:861px;height:405px;background:#FFFFFF;" version="1.1" viewBox="0 0 861 405" width="861px" zoomAndPan="magnify"><defs/><g><!--cluster Larger Network--><g class="cluster" data-entity="Larger Network" data-source-line="2" data-uid="ent0002" id="cluster_Larger Network"><path d="M8.5,6 L112.1963,6 A3.75,3.75 0 0 1 114.6963,8.5 L121.6963,29.6094 L851.5,29.6094 A2.5,2.5 0 0 1 854,32.1094 L854,395.5 A2.5,2.5 0 0 1 851.5,398 L8.5,398 A2.5,2.5 0 0 1 6,395.5 L6,8.5 A2.5,2.5 0 0 1 8.5,6" fill="none" style="stroke:#000000;stroke-width:1.5;"/><line style="stroke:#000000;stroke-width:1.5;" x1="6" x2="121.6963" y1="29.6094" y2="29.6094"/><text fill="#000000" font-family="sans-serif" font-size="14" font-weight="bold" lengthAdjust="spacing" textLength="102.6963" x="10" y="22.5332">Larger Network</text></g><!--cluster Subnet--><g class="cluster" data-entity="Subnet" data-source-line="3" data-uid="ent0003" id="cluster_Subnet"><rect fill="none" height="324" rx="2.5" ry="2.5" style="stroke:#181818;stroke-width:1;" width="800" x="30" y="50"/><text fill="#000000" font-family="sans-serif" font-size="14" font-weight="bold" lengthAdjust="spacing" textLength="47.4414" x="406.2793" y="66.5332">Subnet</text></g><!--cluster Compute Layer--><g class="cluster" data-entity="Compute Layer" data-source-line="6" data-uid="ent0005" id="cluster_Compute Layer"><path d="M255.5,158 L358.4102,158 A3.75,3.75 0 0 1 360.9102,160.5 L367.9102,181.6094 L795.5,181.6094 A2.5,2.5 0 0 1 798,184.1094 L798,271.5 A2.5,2.5 0 0 1 795.5,274 L255.5,274 A2.5,2.5 0 0 1 253,271.5 L253,160.5 A2.5,2.5 0 0 1 255.5,158" fill="none" style="stroke:#000000;stroke-width:1.5;"/><line style="stroke:#000000;stroke-width:1.5;" x1="253" x2="367.9102" y1="181.6094" y2="181.6094"/><text fill="#000000" font-family="sans-serif" font-size="14" font-weight="bold" lengthAdjust="spacing" textLength="101.9102" x="257" y="174.5332">Compute Layer</text></g><!--entity API--><g class="entity" data-entity="API" data-source-line="4" data-uid="ent0004" id="entity_API"><rect fill="#F1F1F1" height="47.6094" rx="2.5" ry="2.5" style="stroke:#181818;stroke-width:0.5;" width="121.7031" x="388" y="86"/><rect fill="#F1F1F1" height="10" style="stroke:#181818;stroke-width:0.5;" width="15" x="489.7031" y="91"/><rect fill="#F1F1F1" height="2" style="stroke:#181818;stroke-width:0.5;" width="4" x="487.7031" y="93"/><rect fill="#F1F1F1" height="2" style="stroke:#181818;stroke-width:0.5;" width="4" x="487.7031" y="97"/><text fill="#000000" font-family="sans-serif" font-size="14" lengthAdjust="spacing" textLength="81.7031" x="403" y="120.5332">API Gateway</text></g><!--entity Auth--><g class="entity" data-entity="Auth" data-source-line="15" data-uid="ent0012" id="entity_Auth"><rect fill="#F1F1F1" height="47.6094" rx="2.5" ry="2.5" style="stroke:#181818;stroke-width:0.5;" width="179.3027" x="46.5" y="202"/><rect fill="#F1F1F1" height="10" style="stroke:#181818;stroke-width:0.5;" width="15" x="205.8027" y="207"/><rect fill="#F1F1F1" height="2" style="stroke:#181818;stroke-width:0.5;" width="4" x="203.8027" y="209"/><rect fill="#F1F1F1" height="2" style="stroke:#181818;stroke-width:0.5;" width="4" x="203.8027" y="213"/><text fill="#000000" font-family="sans-serif" font-size="14" lengthAdjust="spacing" textLength="139.3027" x="61.5" y="236.5332">Authentication Service</text></g><!--entity Storage--><g class="entity" data-entity="Storage" data-source-line="18" data-uid="ent0014" id="entity_Storage"><rect fill="#F1F1F1" height="47.6094" rx="2.5" ry="2.5" style="stroke:#181818;stroke-width:0.5;" width="122.4961" x="200" y="310"/><rect fill="#F1F1F1" height="10" style="stroke:#181818;stroke-width:0.5;" width="15" x="302.4961" y="315"/><rect fill="#F1F1F1" height="2" style="stroke:#181818;stroke-width:0.5;" width="4" x="300.4961" y="317"/><rect fill="#F1F1F1" height="2" style="stroke:#181818;stroke-width:0.5;" width="4" x="300.4961" y="321"/><text fill="#000000" font-family="sans-serif" font-size="14" lengthAdjust="spacing" textLength="82.4961" x="215" y="344.5332">Data Storage</text></g><!--entity EC2_1--><g class="entity" data-entity="EC2_1" data-source-line="7" data-uid="ent0006" id="entity_EC2_1"><rect fill="#F1F1F1" height="47.6094" rx="2.5" ry="2.5" style="stroke:#181818;stroke-width:0.5;" width="135.7236" x="638" y="202"/><rect fill="#F1F1F1" height="10" style="stroke:#181818;stroke-width:0.5;" width="15" x="753.7236" y="207"/><rect fill="#F1F1F1" height="2" style="stroke:#181818;stroke-width:0.5;" width="4" x="751.7236" y="209"/><rect fill="#F1F1F1" height="2" style="stroke:#181818;stroke-width:0.5;" width="4" x="751.7236" y="213"/><text fill="#000000" font-family="sans-serif" font-size="14" lengthAdjust="spacing" textLength="95.7236" x="653" y="236.5332">EC2 Instance 1</text></g><!--entity EC2_2--><g class="entity" data-entity="EC2_2" data-source-line="8" data-uid="ent0007" id="entity_EC2_2"><rect fill="#F1F1F1" height="47.6094" rx="2.5" ry="2.5" style="stroke:#181818;stroke-width:0.5;" width="135.7236" x="467" y="202"/><rect fill="#F1F1F1" height="10" style="stroke:#181818;stroke-width:0.5;" width="15" x="582.7236" y="207"/><rect fill="#F1F1F1" height="2" style="stroke:#181818;stroke-width:0.5;" width="4" x="580.7236" y="209"/><rect fill="#F1F1F1" height="2" style="stroke:#181818;stroke-width:0.5;" width="4" x="580.7236" y="213"/><text fill="#000000" font-family="sans-serif" font-size="14" lengthAdjust="spacing" textLength="95.7236" x="482" y="236.5332">EC2 Instance 2</text></g><!--entity EC2_3--><g class="entity" data-entity="EC2_3" data-source-line="9" data-uid="ent0008" id="entity_EC2_3"><rect fill="#F1F1F1" height="47.6094" rx="2.5" ry="2.5" style="stroke:#181818;stroke-width:0.5;" width="135.7236" x="296" y="202"/><rect fill="#F1F1F1" height="10" style="stroke:#181818;stroke-width:0.5;" width="15" x="411.7236" y="207"/><rect fill="#F1F1F1" height="2" style="stroke:#181818;stroke-width:0.5;" width="4" x="409.7236" y="209"/><rect fill="#F1F1F1" height="2" style="stroke:#181818;stroke-width:0.5;" width="4" x="409.7236" y="213"/><text fill="#000000" font-family="sans-serif" font-size="14" lengthAdjust="spacing" textLength="95.7236" x="311" y="236.5332">EC2 Instance 3</text></g><!--link API to EC2_1--><g class="link" data-entity-1="API" data-entity-2="EC2_1" data-source-line="10" data-uid="lnk9" id="link_API_EC2_1"><path d="M510.32,113.27 C544.48,116.64 586.88,124.42 621,142 C648.68,156.27 669.507,177.9148 685.027,197.1048" fill="none" id="API-to-EC2_1" style="stroke:#181818;stroke-width:1;stroke-dasharray:7.0,7.0;"/><polygon fill="#181818" points="688.8,201.77,686.2506,192.2568,685.6558,197.8823,680.0303,197.2875,688.8,201.77" style="stroke:#181818;stroke-width:1;"/></g><!--link API to EC2_2--><g class="link" data-entity-1="API" data-entity-2="EC2_2" data-source-line="11" data-uid="lnk10" id="link_API_EC2_2"><path d="M466.4,134.07 C481.32,153.85 499.0961,177.4105 514.0061,197.1705" fill="none" id="API-to-EC2_2" style="stroke:#181818;stroke-width:1;stroke-dasharray:7.0,7.0;"/><polygon fill="#181818" points="517.62,201.96,515.3921,192.3664,514.6084,197.9687,509.0061,197.185,517.62,201.96" style="stroke:#181818;stroke-width:1;"/></g><!--link API to EC2_3--><g class="link" data-entity-1="API" data-entity-2="EC2_3" data-source-line="12" data-uid="lnk11" id="link_API_EC2_3"><path d="M431.8,134.07 C417.05,153.85 399.5075,177.3907 384.7675,197.1507" fill="none" id="API-to-EC2_3" style="stroke:#181818;stroke-width:1;stroke-dasharray:7.0,7.0;"/><polygon fill="#181818" points="381.18,201.96,389.7675,197.1377,384.1696,197.9522,383.3551,192.3543,381.18,201.96" style="stroke:#181818;stroke-width:1;"/></g><!--link API to Auth--><g class="link" data-entity-1="API" data-entity-2="Auth" data-source-line="16" data-uid="lnk13" id="link_API_Auth"><path d="M387.94,112.39 C346.24,115.21 290.52,122.71 245,142 C211.93,156.01 184.3387,178.2786 163.6687,197.5486" fill="none" id="API-to-Auth" style="stroke:#181818;stroke-width:1;stroke-dasharray:7.0,7.0;"/><polygon fill="#181818" points="159.28,201.64,168.5906,198.4287,162.9372,198.2305,163.1354,192.5771,159.28,201.64" style="stroke:#181818;stroke-width:1;"/></g><!--link Compute Layer to Storage--><g class="link" data-entity-1="Compute Layer" data-entity-2="Storage" data-source-line="19" data-uid="lnk15" id="link_Compute Layer_Storage"><path d="M261,274.2107 C261,275.3352 261,276.4632 261,277.5927 C261,279.8516 261,282.1164 261,284.3706 C261,293.3875 261,296.235 261,303.86" fill="none" id="Compute Layer-to-Storage" style="stroke:#181818;stroke-width:1;stroke-dasharray:7.0,7.0;"/><polygon fill="#181818" points="261,309.86,265,300.86,261,304.86,257,300.86,261,309.86" style="stroke:#181818;stroke-width:1;"/></g><!--SRC=[XP1D2u9048Rl-oi6xnxIUn0M8KG47YDYsWQLQbVMiOZmlxUjVMcIjzrvdtrcUGkK1qm9l0MQb0miYI_Q73ou2G13ab6bHnidrKuHDsC0gK-5LgGOlCagXZaoNV3g0PPWxy8nnSiSMRXYWWLUoRmCBSSi2Y1MfTqb2KPEOqVRqG0PlCbWW0pVPFWa7z_srtiiCzfl_75hNryM_CaQPor-ggauiuTS8kTQGKBcd4jgMhAHwFEve2kQ8YCah8tjqpr_dXtNxVVRzk5gKOix]--></g></svg>