<svg xmlns="http://www.w3.org/2000/svg" xmlns:xlink="http://www.w3.org/1999/xlink" contentStyleType="text/css" data-diagram-type="SEQUENCE" height="650px" preserveAspectRatio="none" style="width:1128px;height:650px;background:#FFFFFF;" version="1.1" viewBox="0 0 1128 650" width="1128px" zoomAndPan="magnify"><title>PDF Retrieval Sequence</title><defs/><g><text fill="#000000" font-family="sans-serif" font-size="14" font-weight="bold" lengthAdjust="spacing" textLength="161.0615" x="485.1924" y="29.5332">PDF Retrieval Sequence</text><g><title>APIC S1 GW</title><rect fill="#FFFFFF" height="396.5703" style="stroke:#181818;stroke-width:1;" width="10" x="252.7168" y="153.5703"/></g><g><title>CVS BFF</title><rect fill="#FFFFFF" height="335.8672" style="stroke:#181818;stroke-width:1;" width="10" x="458.0166" y="183.9219"/></g><g><title>Plan Docs Service</title><rect fill="#FFFFFF" height="275.1641" style="stroke:#181818;stroke-width:1;" width="10" x="679.9346" y="214.2734"/></g><g><title>Benefits Service</title><rect fill="#FFFFFF" height="214.4609" style="stroke:#181818;stroke-width:1;" width="10" x="815.8608" y="244.625"/></g><g><title>Plan Doc S3 Cache</title><rect fill="#FFFFFF" height="153.7578" style="stroke:#181818;stroke-width:1;" width="10" x="962.5571" y="274.9766"/></g><g><title>Core API</title><rect fill="#FFFFFF" height="30.3516" style="stroke:#181818;stroke-width:1;" width="10" x="1072.0464" y="330.6797"/></g><rect fill="none" height="109.4063" style="stroke:#000000;stroke-width:1.5;" width="369.1646" x="753.2817" y="289.9766"/><g><title>CVS Super App</title><rect fill="#000000" fill-opacity="0.00000" height="446.9219" width="8" x="53.417" y="121.2188"/><line style="stroke:#181818;stroke-width:0.5;stroke-dasharray:5.0,5.0;" x1="57" x2="57" y1="121.2188" y2="568.1406"/></g><g><title>APIC S1 GW</title><rect fill="#000000" fill-opacity="0.00000" height="446.9219" width="8" x="253.7168" y="121.2188"/><line style="stroke:#181818;stroke-width:0.5;stroke-dasharray:5.0,5.0;" x1="256.8755" x2="256.8755" y1="121.2188" y2="568.1406"/></g><g><title>CVS BFF</title><rect fill="#000000" fill-opacity="0.00000" height="446.9219" width="8" x="459.0166" y="121.2188"/><line style="stroke:#181818;stroke-width:0.5;stroke-dasharray:5.0,5.0;" x1="462.458" x2="462.458" y1="121.2188" y2="568.1406"/></g><g><title>Plan Docs Service</title><rect fill="#000000" fill-opacity="0.00000" height="446.9219" width="8" x="680.9346" y="121.2188"/><line style="stroke:#181818;stroke-width:0.5;stroke-dasharray:5.0,5.0;" x1="684.7451" x2="684.7451" y1="121.2188" y2="568.1406"/></g><g><title>Benefits Service</title><rect fill="#000000" fill-opacity="0.00000" height="446.9219" width="8" x="816.8608" y="121.2188"/><line style="stroke:#181818;stroke-width:0.5;stroke-dasharray:5.0,5.0;" x1="820.2817" x2="820.2817" y1="121.2188" y2="568.1406"/></g><g><title>Plan Doc S3 Cache</title><rect fill="#000000" fill-opacity="0.00000" height="446.9219" width="8" x="963.5571" y="121.2188"/><line style="stroke:#181818;stroke-width:0.5;stroke-dasharray:5.0,5.0;" x1="967.4678" x2="967.4678" y1="121.2188" y2="568.1406"/></g><g><title>Core API</title><rect fill="#000000" fill-opacity="0.00000" height="446.9219" width="8" x="1073.0464" y="121.2188"/><line style="stroke:#181818;stroke-width:0.5;stroke-dasharray:5.0,5.0;" x1="1076.6465" x2="1076.6465" y1="121.2188" y2="568.1406"/></g><g class="participant participant-head" data-participant="Client"><text fill="#000000" font-family="sans-serif" font-size="14" lengthAdjust="spacing" textLength="98.834" x="5" y="118.1426">CVS Super App</text><ellipse cx="57.417" cy="52.1094" fill="#E2E2F0" rx="8" ry="8" style="stroke:#181818;stroke-width:0.5;"/><path d="M57.417,60.1094 L57.417,87.1094 M44.417,68.1094 L70.417,68.1094 M57.417,87.1094 L44.417,102.1094 M57.417,87.1094 L70.417,102.1094" fill="none" style="stroke:#181818;stroke-width:0.5;"/></g><g class="participant participant-tail" data-participant="Client"><text fill="#000000" font-family="sans-serif" font-size="14" lengthAdjust="spacing" textLength="98.834" x="5" y="581.6738">CVS Super App</text><ellipse cx="57.417" cy="593.25" fill="#E2E2F0" rx="8" ry="8" style="stroke:#181818;stroke-width:0.5;"/><path d="M57.417,601.25 L57.417,628.25 M44.417,609.25 L70.417,609.25 M57.417,628.25 L44.417,643.25 M57.417,628.25 L70.417,643.25" fill="none" style="stroke:#181818;stroke-width:0.5;"/></g><g class="participant participant-head" data-participant="GW"><rect fill="#E2E2F0" height="31.6094" rx="2.5" ry="2.5" style="stroke:#181818;stroke-width:0.5;" width="95.6826" x="209.8755" y="88.6094"/><text fill="#000000" font-family="sans-serif" font-size="14" lengthAdjust="spacing" textLength="81.6826" x="216.8755" y="110.1426">APIC S1 GW</text></g><g class="participant participant-tail" data-participant="GW"><rect fill="#E2E2F0" height="31.6094" rx="2.5" ry="2.5" style="stroke:#181818;stroke-width:0.5;" width="95.6826" x="209.8755" y="567.1406"/><text fill="#000000" font-family="sans-serif" font-size="14" lengthAdjust="spacing" textLength="81.6826" x="216.8755" y="588.6738">APIC S1 GW</text></g><g class="participant participant-head" data-participant="BFF"><rect fill="#E2E2F0" height="31.6094" rx="2.5" ry="2.5" style="stroke:#181818;stroke-width:0.5;" width="73.1172" x="426.458" y="88.6094"/><text fill="#000000" font-family="sans-serif" font-size="14" lengthAdjust="spacing" textLength="59.1172" x="433.458" y="110.1426">CVS BFF</text></g><g class="participant participant-tail" data-participant="BFF"><rect fill="#E2E2F0" height="31.6094" rx="2.5" ry="2.5" style="stroke:#181818;stroke-width:0.5;" width="73.1172" x="426.458" y="567.1406"/><text fill="#000000" font-family="sans-serif" font-size="14" lengthAdjust="spacing" textLength="59.1172" x="433.458" y="588.6738">CVS BFF</text></g><g class="participant participant-head" data-participant="PDS"><rect fill="#E2E2F0" height="31.6094" rx="2.5" ry="2.5" style="stroke:#181818;stroke-width:0.5;" width="128.3789" x="620.7451" y="88.6094"/><text fill="#000000" font-family="sans-serif" font-size="14" lengthAdjust="spacing" textLength="114.3789" x="627.7451" y="110.1426">Plan Docs Service</text></g><g class="participant participant-tail" data-participant="PDS"><rect fill="#E2E2F0" height="31.6094" rx="2.5" ry="2.5" style="stroke:#181818;stroke-width:0.5;" width="128.3789" x="620.7451" y="567.1406"/><text fill="#000000" font-family="sans-serif" font-size="14" lengthAdjust="spacing" textLength="114.3789" x="627.7451" y="588.6738">Plan Docs Service</text></g><g class="participant participant-head" data-participant="BenefitsSvc"><rect fill="#E2E2F0" height="31.6094" rx="2.5" ry="2.5" style="stroke:#181818;stroke-width:0.5;" width="115.1582" x="763.2817" y="88.6094"/><text fill="#000000" font-family="sans-serif" font-size="14" lengthAdjust="spacing" textLength="101.1582" x="770.2817" y="110.1426">Benefits Service</text></g><g class="participant participant-tail" data-participant="BenefitsSvc"><rect fill="#E2E2F0" height="31.6094" rx="2.5" ry="2.5" style="stroke:#181818;stroke-width:0.5;" width="115.1582" x="763.2817" y="567.1406"/><text fill="#000000" font-family="sans-serif" font-size="14" lengthAdjust="spacing" textLength="101.1582" x="770.2817" y="588.6738">Benefits Service</text></g><g class="participant participant-head" data-participant="S3"><text fill="#000000" font-family="sans-serif" font-size="14" lengthAdjust="spacing" textLength="122.1787" x="903.4678" y="118.1426">Plan Doc S3 Cache</text><path d="M949.5571,67.6094 C949.5571,57.6094 967.5571,57.6094 967.5571,57.6094 C967.5571,57.6094 985.5571,57.6094 985.5571,67.6094 L985.5571,93.6094 C985.5571,103.6094 967.5571,103.6094 967.5571,103.6094 C967.5571,103.6094 949.5571,103.6094 949.5571,93.6094 L949.5571,67.6094" fill="#E2E2F0" style="stroke:#181818;stroke-width:1.5;"/><path d="M949.5571,67.6094 C949.5571,77.6094 967.5571,77.6094 967.5571,77.6094 C967.5571,77.6094 985.5571,77.6094 985.5571,67.6094" fill="none" style="stroke:#181818;stroke-width:1.5;"/></g><g class="participant participant-tail" data-participant="S3"><text fill="#000000" font-family="sans-serif" font-size="14" lengthAdjust="spacing" textLength="122.1787" x="903.4678" y="581.6738">Plan Doc S3 Cache</text><path d="M949.5571,594.75 C949.5571,584.75 967.5571,584.75 967.5571,584.75 C967.5571,584.75 985.5571,584.75 985.5571,594.75 L985.5571,620.75 C985.5571,630.75 967.5571,630.75 967.5571,630.75 C967.5571,630.75 949.5571,630.75 949.5571,620.75 L949.5571,594.75" fill="#E2E2F0" style="stroke:#181818;stroke-width:1.5;"/><path d="M949.5571,594.75 C949.5571,604.75 967.5571,604.75 967.5571,604.75 C967.5571,604.75 985.5571,604.75 985.5571,594.75" fill="none" style="stroke:#181818;stroke-width:1.5;"/></g><g class="participant participant-head" data-participant="CoreAPI"><rect fill="#E2E2F0" height="31.6094" rx="2.5" ry="2.5" style="stroke:#181818;stroke-width:0.5;" width="70.7998" x="1041.6465" y="88.6094"/><text fill="#000000" font-family="sans-serif" font-size="14" lengthAdjust="spacing" textLength="56.7998" x="1048.6465" y="110.1426">Core API</text></g><g class="participant participant-tail" data-participant="CoreAPI"><rect fill="#E2E2F0" height="31.6094" rx="2.5" ry="2.5" style="stroke:#181818;stroke-width:0.5;" width="70.7998" x="1041.6465" y="567.1406"/><text fill="#000000" font-family="sans-serif" font-size="14" lengthAdjust="spacing" textLength="56.7998" x="1048.6465" y="588.6738">Core API</text></g><g><title>APIC S1 GW</title><rect fill="#FFFFFF" height="396.5703" style="stroke:#181818;stroke-width:1;" width="10" x="252.7168" y="153.5703"/></g><g><title>CVS BFF</title><rect fill="#FFFFFF" height="335.8672" style="stroke:#181818;stroke-width:1;" width="10" x="458.0166" y="183.9219"/></g><g><title>Plan Docs Service</title><rect fill="#FFFFFF" height="275.1641" style="stroke:#181818;stroke-width:1;" width="10" x="679.9346" y="214.2734"/></g><g><title>Benefits Service</title><rect fill="#FFFFFF" height="214.4609" style="stroke:#181818;stroke-width:1;" width="10" x="815.8608" y="244.625"/></g><g><title>Plan Doc S3 Cache</title><rect fill="#FFFFFF" height="153.7578" style="stroke:#181818;stroke-width:1;" width="10" x="962.5571" y="274.9766"/></g><g><title>Core API</title><rect fill="#FFFFFF" height="30.3516" style="stroke:#181818;stroke-width:1;" width="10" x="1072.0464" y="330.6797"/></g><g class="message" data-participant-1="Client" data-participant-2="GW"><polygon fill="#181818" points="240.7168,149.5703,250.7168,153.5703,240.7168,157.5703,244.7168,153.5703" style="stroke:#181818;stroke-width:1;"/><line style="stroke:#181818;stroke-width:1;" x1="57.417" x2="246.7168" y1="153.5703" y2="153.5703"/><text fill="#000000" font-family="sans-serif" font-size="13" lengthAdjust="spacing" textLength="176.2998" x="64.417" y="148.7139">POST /sa/plandocs/v1/retrieve</text></g><g class="message" data-participant-1="GW" data-participant-2="BFF"><polygon fill="#181818" points="446.0166,179.9219,456.0166,183.9219,446.0166,187.9219,450.0166,183.9219" style="stroke:#181818;stroke-width:1;"/><line style="stroke:#181818;stroke-width:1;" x1="262.7168" x2="452.0166" y1="183.9219" y2="183.9219"/><text fill="#000000" font-family="sans-serif" font-size="13" lengthAdjust="spacing" textLength="176.2998" x="269.7168" y="179.0654">POST /sa/plandocs/v1/retrieve</text></g><g class="message" data-participant-1="BFF" data-participant-2="PDS"><polygon fill="#181818" points="667.9346,210.2734,677.9346,214.2734,667.9346,218.2734,671.9346,214.2734" style="stroke:#181818;stroke-width:1;"/><line style="stroke:#181818;stroke-width:1;" x1="468.0166" x2="673.9346" y1="214.2734" y2="214.2734"/><text fill="#000000" font-family="sans-serif" font-size="13" lengthAdjust="spacing" textLength="192.918" x="475.0166" y="209.417">POST /v1/plan-document/retrieve</text></g><g class="message" data-participant-1="PDS" data-participant-2="BenefitsSvc"><polygon fill="#181818" points="803.8608,240.625,813.8608,244.625,803.8608,248.625,807.8608,244.625" style="stroke:#181818;stroke-width:1;"/><line style="stroke:#181818;stroke-width:1;" x1="689.9346" x2="809.8608" y1="244.625" y2="244.625"/><text fill="#000000" font-family="sans-serif" font-size="13" lengthAdjust="spacing" textLength="106.9263" x="696.9346" y="239.7686">Get Plan Doc PDF</text></g><g class="message" data-participant-1="BenefitsSvc" data-participant-2="S3"><polygon fill="#181818" points="950.5571,270.9766,960.5571,274.9766,950.5571,278.9766,954.5571,274.9766" style="stroke:#181818;stroke-width:1;"/><line style="stroke:#181818;stroke-width:1;" x1="825.8608" x2="956.5571" y1="274.9766" y2="274.9766"/><text fill="#000000" font-family="sans-serif" font-size="13" lengthAdjust="spacing" textLength="85.2427" x="832.8608" y="270.1201">Check for PDF</text></g><path d="M753.2817,289.9766 L813.4526,289.9766 L813.4526,298.3281 L803.4526,308.3281 L753.2817,308.3281 L753.2817,289.9766" fill="#EEEEEE" style="stroke:#000000;stroke-width:1.5;"/><rect fill="none" height="109.4063" style="stroke:#000000;stroke-width:1.5;" width="369.1646" x="753.2817" y="289.9766"/><text fill="#000000" font-family="sans-serif" font-size="13" font-weight="bold" lengthAdjust="spacing" textLength="15.1709" x="768.2817" y="304.4717">alt</text><text fill="#000000" font-family="sans-serif" font-size="11" font-weight="bold" lengthAdjust="spacing" textLength="83.1553" x="828.4526" y="303.3955">[S3 cache miss]</text><g class="message" data-participant-1="BenefitsSvc" data-participant-2="CoreAPI"><polygon fill="#181818" points="1060.0464,326.6797,1070.0464,330.6797,1060.0464,334.6797,1064.0464,330.6797" style="stroke:#181818;stroke-width:1;"/><line style="stroke:#181818;stroke-width:1;" x1="825.8608" x2="1066.0464" y1="330.6797" y2="330.6797"/><text fill="#000000" font-family="sans-serif" font-size="13" lengthAdjust="spacing" textLength="210.2725" x="832.8608" y="325.8232">GET /v5/communicationcontents/{id}</text></g><g class="message" data-participant-1="CoreAPI" data-participant-2="BenefitsSvc"><polygon fill="#181818" points="836.8608,357.0313,826.8608,361.0313,836.8608,365.0313,832.8608,361.0313" style="stroke:#181818;stroke-width:1;"/><line style="stroke:#181818;stroke-width:1;stroke-dasharray:2.0,2.0;" x1="830.8608" x2="1076.0464" y1="361.0313" y2="361.0313"/><text fill="#000000" font-family="sans-serif" font-size="13" lengthAdjust="spacing" textLength="69.3418" x="842.8608" y="356.1748">PDF stream</text></g><g class="message" data-participant-1="BenefitsSvc" data-participant-2="S3"><polygon fill="#181818" points="950.5571,387.3828,960.5571,391.3828,950.5571,395.3828,954.5571,391.3828" style="stroke:#181818;stroke-width:1;"/><line style="stroke:#181818;stroke-width:1;" x1="825.8608" x2="956.5571" y1="391.3828" y2="391.3828"/><text fill="#000000" font-family="sans-serif" font-size="13" lengthAdjust="spacing" textLength="112.6963" x="832.8608" y="386.5264">Write PDF to cache</text></g><g class="message" data-participant-1="S3" data-participant-2="BenefitsSvc"><polygon fill="#181818" points="836.8608,424.7344,826.8608,428.7344,836.8608,432.7344,832.8608,428.7344" style="stroke:#181818;stroke-width:1;"/><line style="stroke:#181818;stroke-width:1;stroke-dasharray:2.0,2.0;" x1="830.8608" x2="966.5571" y1="428.7344" y2="428.7344"/><text fill="#000000" font-family="sans-serif" font-size="13" lengthAdjust="spacing" textLength="69.3418" x="842.8608" y="423.8779">PDF stream</text></g><g class="message" data-participant-1="BenefitsSvc" data-participant-2="PDS"><polygon fill="#181818" points="700.9346,455.0859,690.9346,459.0859,700.9346,463.0859,696.9346,459.0859" style="stroke:#181818;stroke-width:1;"/><line style="stroke:#181818;stroke-width:1;stroke-dasharray:2.0,2.0;" x1="694.9346" x2="819.8608" y1="459.0859" y2="459.0859"/><text fill="#000000" font-family="sans-serif" font-size="13" lengthAdjust="spacing" textLength="69.3418" x="706.9346" y="454.2295">PDF stream</text></g><g class="message" data-participant-1="PDS" data-participant-2="BFF"><polygon fill="#181818" points="479.0166,485.4375,469.0166,489.4375,479.0166,493.4375,475.0166,489.4375" style="stroke:#181818;stroke-width:1;"/><line style="stroke:#181818;stroke-width:1;stroke-dasharray:2.0,2.0;" x1="473.0166" x2="683.9346" y1="489.4375" y2="489.4375"/><text fill="#000000" font-family="sans-serif" font-size="13" lengthAdjust="spacing" textLength="69.3418" x="485.0166" y="484.5811">PDF stream</text></g><g class="message" data-participant-1="BFF" data-participant-2="GW"><polygon fill="#181818" points="273.7168,515.7891,263.7168,519.7891,273.7168,523.7891,269.7168,519.7891" style="stroke:#181818;stroke-width:1;"/><line style="stroke:#181818;stroke-width:1;stroke-dasharray:2.0,2.0;" x1="267.7168" x2="462.0166" y1="519.7891" y2="519.7891"/><text fill="#000000" font-family="sans-serif" font-size="13" lengthAdjust="spacing" textLength="69.3418" x="279.7168" y="514.9326">PDF stream</text></g><g class="message" data-participant-1="GW" data-participant-2="Client"><polygon fill="#181818" points="68.417,546.1406,58.417,550.1406,68.417,554.1406,64.417,550.1406" style="stroke:#181818;stroke-width:1;"/><line style="stroke:#181818;stroke-width:1;stroke-dasharray:2.0,2.0;" x1="62.417" x2="256.7168" y1="550.1406" y2="550.1406"/><text fill="#000000" font-family="sans-serif" font-size="13" lengthAdjust="spacing" textLength="69.3418" x="74.417" y="545.2842">PDF stream</text></g><!--SRC=[ZLBBJiCm4BpxArQzLr5LSUa1gKrfnOa88tespbQrI9pWR7D1_3kxJXz92OX8KHwUsTsP7N9K86Jh3JmZ1OUjAK3Znn6zHQMCfIh097tLe8yr1bZMzGHC0sdXq9EgJI1dNMqymMIPFQQWPx3THSXsDpoM8glD9fxnStYO5SR3kh8DDm-jinXXsLeFOIlqk7SqH9r_wjQgt91vCmrUAuAUGshieSFg-SrGLK3WmJjH_C7lIdNgO7hF8XQGFUaNI1gJr5movncJTfQ4pYqKYrnh24NlTYSS5lTlaXZ1jz1Ox9d6KA5DcNSiUP8HebZ3T-ntrR-0BH9SfFDQUwrwDgdUXvJGymMa1xJliETz3sZic385YOrMR8JIDOq2lcvgdDpZ4Hv4mbrYgx8yUcSDkShRoXChQP9Fbtz5-gN3sNRvUNg7wQqkIMX30KqPSJd-e8_D9BfsmL6NSAew2GfzhXGB-gjBhmDRCAXxMTOekkzptD0b4gDmMMHCm3bjuqKv9v8kyJc6ypSWf_0R]--></g></svg>