<svg xmlns="http://www.w3.org/2000/svg" xmlns:xlink="http://www.w3.org/1999/xlink" contentStyleType="text/css" data-diagram-type="SEQUENCE" height="815px" preserveAspectRatio="none" style="width:1258px;height:815px;background:#FFFFFF;" version="1.1" viewBox="0 0 1258 815" width="1258px" zoomAndPan="magnify"><title>Simplified List Retrieval Sequence</title><defs/><g><text fill="#000000" font-family="sans-serif" font-size="14" font-weight="bold" lengthAdjust="spacing" textLength="228.7373" x="516.2603" y="29.5332">Simplified List Retrieval Sequence</text><g><title>APIC S1 GW</title><rect fill="#FFFFFF" height="561.3281" style="stroke:#181818;stroke-width:1;" width="10" x="225.2568" y="153.5703"/></g><g><title>CVS BFF</title><rect fill="#FFFFFF" height="500.625" style="stroke:#181818;stroke-width:1;" width="10" x="403.0967" y="183.9219"/></g><g><title>LaunchDarkly</title><rect fill="#FFFFFF" height="30.3516" style="stroke:#181818;stroke-width:1;" width="10" x="581.6392" y="214.2734"/></g><g><title>Plan Groups</title><rect fill="#FFFFFF" height="30.3516" style="stroke:#181818;stroke-width:1;" width="10" x="687.3491" y="274.9766"/></g><g><title>Plan Docs Service</title><rect fill="#FFFFFF" height="275.1641" style="stroke:#181818;stroke-width:1;" width="10" x="807.4487" y="335.6797"/></g><g><title>Benefits Service</title><rect fill="#FFFFFF" height="214.4609" style="stroke:#181818;stroke-width:1;" width="10" x="944.105" y="366.0313"/></g><g><title>Plan Docs List Cache</title><rect fill="#FFFFFF" height="153.7578" style="stroke:#181818;stroke-width:1;" width="10" x="1086.5376" y="396.3828"/></g><g><title>Core API</title><rect fill="#FFFFFF" height="30.3516" style="stroke:#181818;stroke-width:1;" width="10" x="1201.8579" y="452.0859"/></g><rect fill="none" height="109.4063" style="stroke:#000000;stroke-width:1.5;" width="370.7319" x="881.5259" y="411.3828"/><g><title>CVS Super App</title><rect fill="#000000" fill-opacity="0.00000" height="611.6797" width="8" x="53.417" y="121.2188"/><line style="stroke:#181818;stroke-width:0.5;stroke-dasharray:5.0,5.0;" x1="57" x2="57" y1="121.2188" y2="732.8984"/></g><g><title>APIC S1 GW</title><rect fill="#000000" fill-opacity="0.00000" height="611.6797" width="8" x="226.2568" y="121.2188"/><line style="stroke:#181818;stroke-width:0.5;stroke-dasharray:5.0,5.0;" x1="229.4155" x2="229.4155" y1="121.2188" y2="732.8984"/></g><g><title>CVS BFF</title><rect fill="#000000" fill-opacity="0.00000" height="611.6797" width="8" x="404.0967" y="121.2188"/><line style="stroke:#181818;stroke-width:0.5;stroke-dasharray:5.0,5.0;" x1="407.5381" x2="407.5381" y1="121.2188" y2="732.8984"/></g><g><title>LaunchDarkly</title><rect fill="#000000" fill-opacity="0.00000" height="611.6797" width="8" x="582.6392" y="121.2188"/><line style="stroke:#181818;stroke-width:0.5;stroke-dasharray:5.0,5.0;" x1="585.8394" x2="585.8394" y1="121.2188" y2="732.8984"/></g><g><title>Plan Groups</title><rect fill="#000000" fill-opacity="0.00000" height="611.6797" width="8" x="688.3491" y="121.2188"/><line style="stroke:#181818;stroke-width:0.5;stroke-dasharray:5.0,5.0;" x1="691.439" x2="691.439" y1="121.2188" y2="732.8984"/></g><g><title>Plan Docs Service</title><rect fill="#000000" fill-opacity="0.00000" height="611.6797" width="8" x="808.4487" y="121.2188"/><line style="stroke:#181818;stroke-width:0.5;stroke-dasharray:5.0,5.0;" x1="812.2593" x2="812.2593" y1="121.2188" y2="732.8984"/></g><g><title>Benefits Service</title><rect fill="#000000" fill-opacity="0.00000" height="611.6797" width="8" x="945.105" y="121.2188"/><line style="stroke:#181818;stroke-width:0.5;stroke-dasharray:5.0,5.0;" x1="948.5259" x2="948.5259" y1="121.2188" y2="732.8984"/></g><g><title>Plan Docs List Cache</title><rect fill="#000000" fill-opacity="0.00000" height="611.6797" width="8" x="1087.5376" y="121.2188"/><line style="stroke:#181818;stroke-width:0.5;stroke-dasharray:5.0,5.0;" x1="1090.6172" x2="1090.6172" y1="121.2188" y2="732.8984"/></g><g><title>Core API</title><rect fill="#000000" fill-opacity="0.00000" height="611.6797" width="8" x="1202.8579" y="121.2188"/><line style="stroke:#181818;stroke-width:0.5;stroke-dasharray:5.0,5.0;" x1="1206.458" x2="1206.458" y1="121.2188" y2="732.8984"/></g><g class="participant participant-head" data-participant="Client"><text fill="#000000" font-family="sans-serif" font-size="14" lengthAdjust="spacing" textLength="98.834" x="5" y="118.1426">CVS Super App</text><ellipse cx="57.417" cy="52.1094" fill="#E2E2F0" rx="8" ry="8" style="stroke:#181818;stroke-width:0.5;"/><path d="M57.417,60.1094 L57.417,87.1094 M44.417,68.1094 L70.417,68.1094 M57.417,87.1094 L44.417,102.1094 M57.417,87.1094 L70.417,102.1094" fill="none" style="stroke:#181818;stroke-width:0.5;"/></g><g class="participant participant-tail" data-participant="Client"><text fill="#000000" font-family="sans-serif" font-size="14" lengthAdjust="spacing" textLength="98.834" x="5" y="746.4316">CVS Super App</text><ellipse cx="57.417" cy="758.0078" fill="#E2E2F0" rx="8" ry="8" style="stroke:#181818;stroke-width:0.5;"/><path d="M57.417,766.0078 L57.417,793.0078 M44.417,774.0078 L70.417,774.0078 M57.417,793.0078 L44.417,808.0078 M57.417,793.0078 L70.417,808.0078" fill="none" style="stroke:#181818;stroke-width:0.5;"/></g><g class="participant participant-head" data-participant="GW"><rect fill="#E2E2F0" height="31.6094" rx="2.5" ry="2.5" style="stroke:#181818;stroke-width:0.5;" width="95.6826" x="182.4155" y="88.6094"/><text fill="#000000" font-family="sans-serif" font-size="14" lengthAdjust="spacing" textLength="81.6826" x="189.4155" y="110.1426">APIC S1 GW</text></g><g class="participant participant-tail" data-participant="GW"><rect fill="#E2E2F0" height="31.6094" rx="2.5" ry="2.5" style="stroke:#181818;stroke-width:0.5;" width="95.6826" x="182.4155" y="731.8984"/><text fill="#000000" font-family="sans-serif" font-size="14" lengthAdjust="spacing" textLength="81.6826" x="189.4155" y="753.4316">APIC S1 GW</text></g><g class="participant participant-head" data-participant="BFF"><rect fill="#E2E2F0" height="31.6094" rx="2.5" ry="2.5" style="stroke:#181818;stroke-width:0.5;" width="73.1172" x="371.5381" y="88.6094"/><text fill="#000000" font-family="sans-serif" font-size="14" lengthAdjust="spacing" textLength="59.1172" x="378.5381" y="110.1426">CVS BFF</text></g><g class="participant participant-tail" data-participant="BFF"><rect fill="#E2E2F0" height="31.6094" rx="2.5" ry="2.5" style="stroke:#181818;stroke-width:0.5;" width="73.1172" x="371.5381" y="731.8984"/><text fill="#000000" font-family="sans-serif" font-size="14" lengthAdjust="spacing" textLength="59.1172" x="378.5381" y="753.4316">CVS BFF</text></g><g class="participant participant-head" data-participant="LaunchDarkly"><rect fill="#E2E2F0" height="31.6094" rx="2.5" ry="2.5" style="stroke:#181818;stroke-width:0.5;" width="99.5996" x="536.8394" y="88.6094"/><text fill="#000000" font-family="sans-serif" font-size="14" lengthAdjust="spacing" textLength="85.5996" x="543.8394" y="110.1426">LaunchDarkly</text></g><g class="participant participant-tail" data-participant="LaunchDarkly"><rect fill="#E2E2F0" height="31.6094" rx="2.5" ry="2.5" style="stroke:#181818;stroke-width:0.5;" width="99.5996" x="536.8394" y="731.8984"/><text fill="#000000" font-family="sans-serif" font-size="14" lengthAdjust="spacing" textLength="85.5996" x="543.8394" y="753.4316">LaunchDarkly</text></g><g class="participant participant-head" data-participant="PlanGroups"><rect fill="#E2E2F0" height="31.6094" rx="2.5" ry="2.5" style="stroke:#181818;stroke-width:0.5;" width="91.8203" x="646.439" y="88.6094"/><text fill="#000000" font-family="sans-serif" font-size="14" lengthAdjust="spacing" textLength="77.8203" x="653.439" y="110.1426">Plan Groups</text></g><g class="participant participant-tail" data-participant="PlanGroups"><rect fill="#E2E2F0" height="31.6094" rx="2.5" ry="2.5" style="stroke:#181818;stroke-width:0.5;" width="91.8203" x="646.439" y="731.8984"/><text fill="#000000" font-family="sans-serif" font-size="14" lengthAdjust="spacing" textLength="77.8203" x="653.439" y="753.4316">Plan Groups</text></g><g class="participant participant-head" data-participant="PDS"><rect fill="#E2E2F0" height="31.6094" rx="2.5" ry="2.5" style="stroke:#181818;stroke-width:0.5;" width="128.3789" x="748.2593" y="88.6094"/><text fill="#000000" font-family="sans-serif" font-size="14" lengthAdjust="spacing" textLength="114.3789" x="755.2593" y="110.1426">Plan Docs Service</text></g><g class="participant participant-tail" data-participant="PDS"><rect fill="#E2E2F0" height="31.6094" rx="2.5" ry="2.5" style="stroke:#181818;stroke-width:0.5;" width="128.3789" x="748.2593" y="731.8984"/><text fill="#000000" font-family="sans-serif" font-size="14" lengthAdjust="spacing" textLength="114.3789" x="755.2593" y="753.4316">Plan Docs Service</text></g><g class="participant participant-head" data-participant="BenefitsSvc"><rect fill="#E2E2F0" height="31.6094" rx="2.5" ry="2.5" style="stroke:#181818;stroke-width:0.5;" width="115.1582" x="891.5259" y="88.6094"/><text fill="#000000" font-family="sans-serif" font-size="14" lengthAdjust="spacing" textLength="101.1582" x="898.5259" y="110.1426">Benefits Service</text></g><g class="participant participant-tail" data-participant="BenefitsSvc"><rect fill="#E2E2F0" height="31.6094" rx="2.5" ry="2.5" style="stroke:#181818;stroke-width:0.5;" width="115.1582" x="891.5259" y="731.8984"/><text fill="#000000" font-family="sans-serif" font-size="14" lengthAdjust="spacing" textLength="101.1582" x="898.5259" y="753.4316">Benefits Service</text></g><g class="participant participant-head" data-participant="Redis"><text fill="#000000" font-family="sans-serif" font-size="14" lengthAdjust="spacing" textLength="133.8408" x="1021.6172" y="118.1426">Plan Docs List Cache</text><path d="M1073.5376,67.6094 C1073.5376,57.6094 1091.5376,57.6094 1091.5376,57.6094 C1091.5376,57.6094 1109.5376,57.6094 1109.5376,67.6094 L1109.5376,93.6094 C1109.5376,103.6094 1091.5376,103.6094 1091.5376,103.6094 C1091.5376,103.6094 1073.5376,103.6094 1073.5376,93.6094 L1073.5376,67.6094" fill="#E2E2F0" style="stroke:#181818;stroke-width:1.5;"/><path d="M1073.5376,67.6094 C1073.5376,77.6094 1091.5376,77.6094 1091.5376,77.6094 C1091.5376,77.6094 1109.5376,77.6094 1109.5376,67.6094" fill="none" style="stroke:#181818;stroke-width:1.5;"/></g><g class="participant participant-tail" data-participant="Redis"><text fill="#000000" font-family="sans-serif" font-size="14" lengthAdjust="spacing" textLength="133.8408" x="1021.6172" y="746.4316">Plan Docs List Cache</text><path d="M1073.5376,759.5078 C1073.5376,749.5078 1091.5376,749.5078 1091.5376,749.5078 C1091.5376,749.5078 1109.5376,749.5078 1109.5376,759.5078 L1109.5376,785.5078 C1109.5376,795.5078 1091.5376,795.5078 1091.5376,795.5078 C1091.5376,795.5078 1073.5376,795.5078 1073.5376,785.5078 L1073.5376,759.5078" fill="#E2E2F0" style="stroke:#181818;stroke-width:1.5;"/><path d="M1073.5376,759.5078 C1073.5376,769.5078 1091.5376,769.5078 1091.5376,769.5078 C1091.5376,769.5078 1109.5376,769.5078 1109.5376,759.5078" fill="none" style="stroke:#181818;stroke-width:1.5;"/></g><g class="participant participant-head" data-participant="CoreAPI"><rect fill="#E2E2F0" height="31.6094" rx="2.5" ry="2.5" style="stroke:#181818;stroke-width:0.5;" width="70.7998" x="1171.458" y="88.6094"/><text fill="#000000" font-family="sans-serif" font-size="14" lengthAdjust="spacing" textLength="56.7998" x="1178.458" y="110.1426">Core API</text></g><g class="participant participant-tail" data-participant="CoreAPI"><rect fill="#E2E2F0" height="31.6094" rx="2.5" ry="2.5" style="stroke:#181818;stroke-width:0.5;" width="70.7998" x="1171.458" y="731.8984"/><text fill="#000000" font-family="sans-serif" font-size="14" lengthAdjust="spacing" textLength="56.7998" x="1178.458" y="753.4316">Core API</text></g><g><title>APIC S1 GW</title><rect fill="#FFFFFF" height="561.3281" style="stroke:#181818;stroke-width:1;" width="10" x="225.2568" y="153.5703"/></g><g><title>CVS BFF</title><rect fill="#FFFFFF" height="500.625" style="stroke:#181818;stroke-width:1;" width="10" x="403.0967" y="183.9219"/></g><g><title>LaunchDarkly</title><rect fill="#FFFFFF" height="30.3516" style="stroke:#181818;stroke-width:1;" width="10" x="581.6392" y="214.2734"/></g><g><title>Plan Groups</title><rect fill="#FFFFFF" height="30.3516" style="stroke:#181818;stroke-width:1;" width="10" x="687.3491" y="274.9766"/></g><g><title>Plan Docs Service</title><rect fill="#FFFFFF" height="275.1641" style="stroke:#181818;stroke-width:1;" width="10" x="807.4487" y="335.6797"/></g><g><title>Benefits Service</title><rect fill="#FFFFFF" height="214.4609" style="stroke:#181818;stroke-width:1;" width="10" x="944.105" y="366.0313"/></g><g><title>Plan Docs List Cache</title><rect fill="#FFFFFF" height="153.7578" style="stroke:#181818;stroke-width:1;" width="10" x="1086.5376" y="396.3828"/></g><g><title>Core API</title><rect fill="#FFFFFF" height="30.3516" style="stroke:#181818;stroke-width:1;" width="10" x="1201.8579" y="452.0859"/></g><g class="message" data-participant-1="Client" data-participant-2="GW"><polygon fill="#181818" points="213.2568,149.5703,223.2568,153.5703,213.2568,157.5703,217.2568,153.5703" style="stroke:#181818;stroke-width:1;"/><line style="stroke:#181818;stroke-width:1;" x1="57.417" x2="219.2568" y1="153.5703" y2="153.5703"/><text fill="#000000" font-family="sans-serif" font-size="13" lengthAdjust="spacing" textLength="148.8398" x="64.417" y="148.7139">POST /sa/plandocs/v1/list</text></g><g class="message" data-participant-1="GW" data-participant-2="BFF"><polygon fill="#181818" points="391.0967,179.9219,401.0967,183.9219,391.0967,187.9219,395.0967,183.9219" style="stroke:#181818;stroke-width:1;"/><line style="stroke:#181818;stroke-width:1;" x1="235.2568" x2="397.0967" y1="183.9219" y2="183.9219"/><text fill="#000000" font-family="sans-serif" font-size="13" lengthAdjust="spacing" textLength="148.8398" x="242.2568" y="179.0654">POST /sa/plandocs/v1/list</text></g><g class="message" data-participant-1="BFF" data-participant-2="LaunchDarkly"><polygon fill="#181818" points="569.6392,210.2734,579.6392,214.2734,569.6392,218.2734,573.6392,214.2734" style="stroke:#181818;stroke-width:1;"/><line style="stroke:#181818;stroke-width:1;" x1="413.0967" x2="575.6392" y1="214.2734" y2="214.2734"/><text fill="#000000" font-family="sans-serif" font-size="13" lengthAdjust="spacing" textLength="112.0044" x="420.0967" y="209.417">Check feature flags</text></g><g class="message" data-participant-1="LaunchDarkly" data-participant-2="BFF"><polygon fill="#181818" points="424.0967,240.625,414.0967,244.625,424.0967,248.625,420.0967,244.625" style="stroke:#181818;stroke-width:1;"/><line style="stroke:#181818;stroke-width:1;stroke-dasharray:2.0,2.0;" x1="418.0967" x2="585.6392" y1="244.625" y2="244.625"/><text fill="#000000" font-family="sans-serif" font-size="13" lengthAdjust="spacing" textLength="63.5845" x="430.0967" y="239.7686">Flag status</text></g><g class="message" data-participant-1="BFF" data-participant-2="PlanGroups"><polygon fill="#181818" points="675.3491,270.9766,685.3491,274.9766,675.3491,278.9766,679.3491,274.9766" style="stroke:#181818;stroke-width:1;"/><line style="stroke:#181818;stroke-width:1;" x1="413.0967" x2="681.3491" y1="274.9766" y2="274.9766"/><text fill="#000000" font-family="sans-serif" font-size="13" lengthAdjust="spacing" textLength="115.6162" x="420.0967" y="270.1201">GET /v3/plangroups</text></g><g class="message" data-participant-1="PlanGroups" data-participant-2="BFF"><polygon fill="#181818" points="424.0967,301.3281,414.0967,305.3281,424.0967,309.3281,420.0967,305.3281" style="stroke:#181818;stroke-width:1;"/><line style="stroke:#181818;stroke-width:1;stroke-dasharray:2.0,2.0;" x1="418.0967" x2="691.3491" y1="305.3281" y2="305.3281"/><text fill="#000000" font-family="sans-serif" font-size="13" lengthAdjust="spacing" textLength="98.2935" x="430.0967" y="300.4717">Plan groups data</text></g><g class="message" data-participant-1="BFF" data-participant-2="PDS"><polygon fill="#181818" points="795.4487,331.6797,805.4487,335.6797,795.4487,339.6797,799.4487,335.6797" style="stroke:#181818;stroke-width:1;"/><line style="stroke:#181818;stroke-width:1;" x1="413.0967" x2="801.4487" y1="335.6797" y2="335.6797"/><text fill="#000000" font-family="sans-serif" font-size="13" lengthAdjust="spacing" textLength="213.1353" x="420.0967" y="330.8232">POST /v1/plan-document-list/retrieve</text></g><g class="message" data-participant-1="PDS" data-participant-2="BenefitsSvc"><polygon fill="#181818" points="932.105,362.0313,942.105,366.0313,932.105,370.0313,936.105,366.0313" style="stroke:#181818;stroke-width:1;"/><line style="stroke:#181818;stroke-width:1;" x1="817.4487" x2="938.105" y1="366.0313" y2="366.0313"/><text fill="#000000" font-family="sans-serif" font-size="13" lengthAdjust="spacing" textLength="107.6563" x="824.4487" y="361.1748">Get Document List</text></g><g class="message" data-participant-1="BenefitsSvc" data-participant-2="Redis"><polygon fill="#181818" points="1074.5376,392.3828,1084.5376,396.3828,1074.5376,400.3828,1078.5376,396.3828" style="stroke:#181818;stroke-width:1;"/><line style="stroke:#181818;stroke-width:1;" x1="954.105" x2="1080.5376" y1="396.3828" y2="396.3828"/><text fill="#000000" font-family="sans-serif" font-size="13" lengthAdjust="spacing" textLength="113.4326" x="961.105" y="391.5264">Check cache for list</text></g><path d="M881.5259,411.3828 L941.6968,411.3828 L941.6968,419.7344 L931.6968,429.7344 L881.5259,429.7344 L881.5259,411.3828" fill="#EEEEEE" style="stroke:#000000;stroke-width:1.5;"/><rect fill="none" height="109.4063" style="stroke:#000000;stroke-width:1.5;" width="370.7319" x="881.5259" y="411.3828"/><text fill="#000000" font-family="sans-serif" font-size="13" font-weight="bold" lengthAdjust="spacing" textLength="15.1709" x="896.5259" y="425.8779">alt</text><text fill="#000000" font-family="sans-serif" font-size="11" font-weight="bold" lengthAdjust="spacing" textLength="99.6553" x="956.6968" y="424.8018">[Redis cache miss]</text><g class="message" data-participant-1="BenefitsSvc" data-participant-2="CoreAPI"><polygon fill="#181818" points="1189.8579,448.0859,1199.8579,452.0859,1189.8579,456.0859,1193.8579,452.0859" style="stroke:#181818;stroke-width:1;"/><line style="stroke:#181818;stroke-width:1;" x1="954.105" x2="1195.8579" y1="452.0859" y2="452.0859"/><text fill="#000000" font-family="sans-serif" font-size="13" lengthAdjust="spacing" textLength="221.8252" x="961.105" y="447.2295">POST /eieheader/v4/.../search/retrieve</text></g><g class="message" data-participant-1="CoreAPI" data-participant-2="BenefitsSvc"><polygon fill="#181818" points="965.105,478.4375,955.105,482.4375,965.105,486.4375,961.105,482.4375" style="stroke:#181818;stroke-width:1;"/><line style="stroke:#181818;stroke-width:1;stroke-dasharray:2.0,2.0;" x1="959.105" x2="1205.8579" y1="482.4375" y2="482.4375"/><text fill="#000000" font-family="sans-serif" font-size="13" lengthAdjust="spacing" textLength="107.6626" x="971.105" y="477.5811">Document list data</text></g><g class="message" data-participant-1="BenefitsSvc" data-participant-2="Redis"><polygon fill="#181818" points="1074.5376,508.7891,1084.5376,512.7891,1074.5376,516.7891,1078.5376,512.7891" style="stroke:#181818;stroke-width:1;"/><line style="stroke:#181818;stroke-width:1;" x1="954.105" x2="1080.5376" y1="512.7891" y2="512.7891"/><text fill="#000000" font-family="sans-serif" font-size="13" lengthAdjust="spacing" textLength="102.5845" x="961.105" y="507.9326">Write list to cache</text></g><g class="message" data-participant-1="Redis" data-participant-2="BenefitsSvc"><polygon fill="#181818" points="965.105,546.1406,955.105,550.1406,965.105,554.1406,961.105,550.1406" style="stroke:#181818;stroke-width:1;"/><line style="stroke:#181818;stroke-width:1;stroke-dasharray:2.0,2.0;" x1="959.105" x2="1090.5376" y1="550.1406" y2="550.1406"/><text fill="#000000" font-family="sans-serif" font-size="13" lengthAdjust="spacing" textLength="78.749" x="971.105" y="545.2842">Document list</text></g><g class="message" data-participant-1="BenefitsSvc" data-participant-2="PDS"><polygon fill="#181818" points="828.4487,576.4922,818.4487,580.4922,828.4487,584.4922,824.4487,580.4922" style="stroke:#181818;stroke-width:1;"/><line style="stroke:#181818;stroke-width:1;stroke-dasharray:2.0,2.0;" x1="822.4487" x2="948.105" y1="580.4922" y2="580.4922"/><text fill="#000000" font-family="sans-serif" font-size="13" lengthAdjust="spacing" textLength="78.749" x="834.4487" y="575.6357">Document list</text></g><g class="message" data-participant-1="PDS" data-participant-2="BFF"><polygon fill="#181818" points="424.0967,606.8438,414.0967,610.8438,424.0967,614.8438,420.0967,610.8438" style="stroke:#181818;stroke-width:1;"/><line style="stroke:#181818;stroke-width:1;stroke-dasharray:2.0,2.0;" x1="418.0967" x2="811.4487" y1="610.8438" y2="610.8438"/><text fill="#000000" font-family="sans-serif" font-size="13" lengthAdjust="spacing" textLength="147.4243" x="430.0967" y="605.9873">Aggregated document list</text></g><g class="message" data-participant-1="BFF" data-participant-2="BFF"><line style="stroke:#181818;stroke-width:1;" x1="413.0967" x2="455.0967" y1="641.1953" y2="641.1953"/><line style="stroke:#181818;stroke-width:1;" x1="455.0967" x2="455.0967" y1="641.1953" y2="654.1953"/><line style="stroke:#181818;stroke-width:1;" x1="414.0967" x2="455.0967" y1="654.1953" y2="654.1953"/><polygon fill="#181818" points="424.0967,650.1953,414.0967,654.1953,424.0967,658.1953,420.0967,654.1953" style="stroke:#181818;stroke-width:1;"/><text fill="#000000" font-family="sans-serif" font-size="13" lengthAdjust="spacing" textLength="144.5425" x="420.0967" y="636.3389">Aggregate final response</text></g><g class="message" data-participant-1="BFF" data-participant-2="GW"><polygon fill="#181818" points="246.2568,680.5469,236.2568,684.5469,246.2568,688.5469,242.2568,684.5469" style="stroke:#181818;stroke-width:1;"/><line style="stroke:#181818;stroke-width:1;stroke-dasharray:2.0,2.0;" x1="240.2568" x2="407.0967" y1="684.5469" y2="684.5469"/><text fill="#000000" font-family="sans-serif" font-size="13" lengthAdjust="spacing" textLength="108.3799" x="252.2568" y="679.6904">Final document list</text></g><g class="message" data-participant-1="GW" data-participant-2="Client"><polygon fill="#181818" points="68.417,710.8984,58.417,714.8984,68.417,718.8984,64.417,714.8984" style="stroke:#181818;stroke-width:1;"/><line style="stroke:#181818;stroke-width:1;stroke-dasharray:2.0,2.0;" x1="62.417" x2="229.2568" y1="714.8984" y2="714.8984"/><text fill="#000000" font-family="sans-serif" font-size="13" lengthAdjust="spacing" textLength="108.3799" x="74.417" y="710.042">Final document list</text></g><!--SRC=[ZLHDZzem4BtxLuouGxHgJnmgiQ6WIYiLRQfoTfr9Ocr8Kjk9r7_V6HiJPmNT8W5s_Dvyl3UEqwv5AFHbQ7MbiOGNRHsyeZCQ9zb2WRz7x1GA8PNh3QpodmKKuu06TiEm0caXRpLsJWpIEAtq83i7gztfMmx54npF7d8yBuyvoFFXuC_eVt7u8iTEDNjftje_IzQfbHqSJJyErZDv7xPtSFjUMQhUJ5fXGE-B9UmPEwoqMwBYms9IefHE_f8MquXUdbog9i1ViTJlikUzGQ3-WpQqeRKGGIHOVo4jjd3wNlo0pCfieC0bnSscfwobqAoodgH3bknuPZpfyry4rb7G3tDI3RUGDwZUe4BfHYgjQcLjPzf2xdG3wvZyG0omZkXMb7YV6JFFdcpX-9LgdZxvcklWqusSU3SlvvHUyC01jY7Dcr1lMVT5r8XquNnh4ccyaEHhLYapOQ0nAO36WRvUuTbpAXeTE-svtkr4uMGsaZM7y7CGbLOy7b3HRLaw58P5oDQ5vHLuqTOAeC-xcDVPYOsXnWPbYIQRFcURpIQpA8rgvjOun2rN73n-U5q7TTDURtrodK5dnYTQfs7kjtmscd0-WEj3HmAxKeZGuhzpfhO6THP9ehCFEQaZtimuFxkwDbWJf8Jo4Pad80xGaWILxkZTPz0EVMSnWAvNz-2F7WRbMyZtbltpL_v31btqlm00]--></g></svg>