<svg xmlns="http://www.w3.org/2000/svg" xmlns:xlink="http://www.w3.org/1999/xlink" contentStyleType="text/css" data-diagram-type="SEQUENCE" height="875px" preserveAspectRatio="none" style="width:1364px;height:875px;background:#FFFFFF;" version="1.1" viewBox="0 0 1364 875" width="1364px" zoomAndPan="magnify"><title>Extended List Retrieval Sequence (with MMF Service)</title><defs/><g><text fill="#000000" font-family="sans-serif" font-size="14" font-weight="bold" lengthAdjust="spacing" textLength="355.5371" x="506.0845" y="29.5332">Extended List Retrieval Sequence (with MMF Service)</text><g><title>APIC S1 GW</title><rect fill="#FFFFFF" height="622.0313" style="stroke:#181818;stroke-width:1;" width="10" x="225.2568" y="153.5703"/></g><g><title>CVS BFF</title><rect fill="#FFFFFF" height="561.3281" style="stroke:#181818;stroke-width:1;" width="10" x="403.0967" y="183.9219"/></g><g><title>LaunchDarkly</title><rect fill="#FFFFFF" height="30.3516" style="stroke:#181818;stroke-width:1;" width="10" x="581.6392" y="214.2734"/></g><g><title>Plan Groups</title><rect fill="#FFFFFF" height="30.3516" style="stroke:#181818;stroke-width:1;" width="10" x="687.3491" y="274.9766"/></g><g><title>MMF Service</title><rect fill="#FFFFFF" height="30.3516" style="stroke:#181818;stroke-width:1;" width="10" x="791.4834" y="335.6797"/></g><g><title>Plan Docs Service</title><rect fill="#FFFFFF" height="275.1641" style="stroke:#181818;stroke-width:1;" width="10" x="913.897" y="396.3828"/></g><g><title>Benefits Service</title><rect fill="#FFFFFF" height="214.4609" style="stroke:#181818;stroke-width:1;" width="10" x="1050.5532" y="426.7344"/></g><g><title>Plan Docs List Cache</title><rect fill="#FFFFFF" height="153.7578" style="stroke:#181818;stroke-width:1;" width="10" x="1192.9858" y="457.0859"/></g><g><title>Core API</title><rect fill="#FFFFFF" height="30.3516" style="stroke:#181818;stroke-width:1;" width="10" x="1308.3062" y="512.7891"/></g><rect fill="none" height="109.4063" style="stroke:#000000;stroke-width:1.5;" width="370.7319" x="987.9741" y="472.0859"/><g><title>CVS Super App</title><rect fill="#000000" fill-opacity="0.00000" height="672.3828" width="8" x="53.417" y="121.2188"/><line style="stroke:#181818;stroke-width:0.5;stroke-dasharray:5.0,5.0;" x1="57" x2="57" y1="121.2188" y2="793.6016"/></g><g><title>APIC S1 GW</title><rect fill="#000000" fill-opacity="0.00000" height="672.3828" width="8" x="226.2568" y="121.2188"/><line style="stroke:#181818;stroke-width:0.5;stroke-dasharray:5.0,5.0;" x1="229.4155" x2="229.4155" y1="121.2188" y2="793.6016"/></g><g><title>CVS BFF</title><rect fill="#000000" fill-opacity="0.00000" height="672.3828" width="8" x="404.0967" y="121.2188"/><line style="stroke:#181818;stroke-width:0.5;stroke-dasharray:5.0,5.0;" x1="407.5381" x2="407.5381" y1="121.2188" y2="793.6016"/></g><g><title>LaunchDarkly</title><rect fill="#000000" fill-opacity="0.00000" height="672.3828" width="8" x="582.6392" y="121.2188"/><line style="stroke:#181818;stroke-width:0.5;stroke-dasharray:5.0,5.0;" x1="585.8394" x2="585.8394" y1="121.2188" y2="793.6016"/></g><g><title>Plan Groups</title><rect fill="#000000" fill-opacity="0.00000" height="672.3828" width="8" x="688.3491" y="121.2188"/><line style="stroke:#181818;stroke-width:0.5;stroke-dasharray:5.0,5.0;" x1="691.439" x2="691.439" y1="121.2188" y2="793.6016"/></g><g><title>MMF Service</title><rect fill="#000000" fill-opacity="0.00000" height="672.3828" width="8" x="792.4834" y="121.2188"/><line style="stroke:#181818;stroke-width:0.5;stroke-dasharray:5.0,5.0;" x1="796.2593" x2="796.2593" y1="121.2188" y2="793.6016"/></g><g><title>Plan Docs Service</title><rect fill="#000000" fill-opacity="0.00000" height="672.3828" width="8" x="914.897" y="121.2188"/><line style="stroke:#181818;stroke-width:0.5;stroke-dasharray:5.0,5.0;" x1="918.7075" x2="918.7075" y1="121.2188" y2="793.6016"/></g><g><title>Benefits Service</title><rect fill="#000000" fill-opacity="0.00000" height="672.3828" width="8" x="1051.5532" y="121.2188"/><line style="stroke:#181818;stroke-width:0.5;stroke-dasharray:5.0,5.0;" x1="1054.9741" x2="1054.9741" y1="121.2188" y2="793.6016"/></g><g><title>Plan Docs List Cache</title><rect fill="#000000" fill-opacity="0.00000" height="672.3828" width="8" x="1193.9858" y="121.2188"/><line style="stroke:#181818;stroke-width:0.5;stroke-dasharray:5.0,5.0;" x1="1197.0654" x2="1197.0654" y1="121.2188" y2="793.6016"/></g><g><title>Core API</title><rect fill="#000000" fill-opacity="0.00000" height="672.3828" width="8" x="1309.3062" y="121.2188"/><line style="stroke:#181818;stroke-width:0.5;stroke-dasharray:5.0,5.0;" x1="1312.9063" x2="1312.9063" y1="121.2188" y2="793.6016"/></g><g class="participant participant-head" data-participant="Client"><text fill="#000000" font-family="sans-serif" font-size="14" lengthAdjust="spacing" textLength="98.834" x="5" y="118.1426">CVS Super App</text><ellipse cx="57.417" cy="52.1094" fill="#E2E2F0" rx="8" ry="8" style="stroke:#181818;stroke-width:0.5;"/><path d="M57.417,60.1094 L57.417,87.1094 M44.417,68.1094 L70.417,68.1094 M57.417,87.1094 L44.417,102.1094 M57.417,87.1094 L70.417,102.1094" fill="none" style="stroke:#181818;stroke-width:0.5;"/></g><g class="participant participant-tail" data-participant="Client"><text fill="#000000" font-family="sans-serif" font-size="14" lengthAdjust="spacing" textLength="98.834" x="5" y="807.1348">CVS Super App</text><ellipse cx="57.417" cy="818.7109" fill="#E2E2F0" rx="8" ry="8" style="stroke:#181818;stroke-width:0.5;"/><path d="M57.417,826.7109 L57.417,853.7109 M44.417,834.7109 L70.417,834.7109 M57.417,853.7109 L44.417,868.7109 M57.417,853.7109 L70.417,868.7109" fill="none" style="stroke:#181818;stroke-width:0.5;"/></g><g class="participant participant-head" data-participant="GW"><rect fill="#E2E2F0" height="31.6094" rx="2.5" ry="2.5" style="stroke:#181818;stroke-width:0.5;" width="95.6826" x="182.4155" y="88.6094"/><text fill="#000000" font-family="sans-serif" font-size="14" lengthAdjust="spacing" textLength="81.6826" x="189.4155" y="110.1426">APIC S1 GW</text></g><g class="participant participant-tail" data-participant="GW"><rect fill="#E2E2F0" height="31.6094" rx="2.5" ry="2.5" style="stroke:#181818;stroke-width:0.5;" width="95.6826" x="182.4155" y="792.6016"/><text fill="#000000" font-family="sans-serif" font-size="14" lengthAdjust="spacing" textLength="81.6826" x="189.4155" y="814.1348">APIC S1 GW</text></g><g class="participant participant-head" data-participant="BFF"><rect fill="#E2E2F0" height="31.6094" rx="2.5" ry="2.5" style="stroke:#181818;stroke-width:0.5;" width="73.1172" x="371.5381" y="88.6094"/><text fill="#000000" font-family="sans-serif" font-size="14" lengthAdjust="spacing" textLength="59.1172" x="378.5381" y="110.1426">CVS BFF</text></g><g class="participant participant-tail" data-participant="BFF"><rect fill="#E2E2F0" height="31.6094" rx="2.5" ry="2.5" style="stroke:#181818;stroke-width:0.5;" width="73.1172" x="371.5381" y="792.6016"/><text fill="#000000" font-family="sans-serif" font-size="14" lengthAdjust="spacing" textLength="59.1172" x="378.5381" y="814.1348">CVS BFF</text></g><g class="participant participant-head" data-participant="LaunchDarkly"><rect fill="#E2E2F0" height="31.6094" rx="2.5" ry="2.5" style="stroke:#181818;stroke-width:0.5;" width="99.5996" x="536.8394" y="88.6094"/><text fill="#000000" font-family="sans-serif" font-size="14" lengthAdjust="spacing" textLength="85.5996" x="543.8394" y="110.1426">LaunchDarkly</text></g><g class="participant participant-tail" data-participant="LaunchDarkly"><rect fill="#E2E2F0" height="31.6094" rx="2.5" ry="2.5" style="stroke:#181818;stroke-width:0.5;" width="99.5996" x="536.8394" y="792.6016"/><text fill="#000000" font-family="sans-serif" font-size="14" lengthAdjust="spacing" textLength="85.5996" x="543.8394" y="814.1348">LaunchDarkly</text></g><g class="participant participant-head" data-participant="PlanGroups"><rect fill="#E2E2F0" height="31.6094" rx="2.5" ry="2.5" style="stroke:#181818;stroke-width:0.5;" width="91.8203" x="646.439" y="88.6094"/><text fill="#000000" font-family="sans-serif" font-size="14" lengthAdjust="spacing" textLength="77.8203" x="653.439" y="110.1426">Plan Groups</text></g><g class="participant participant-tail" data-participant="PlanGroups"><rect fill="#E2E2F0" height="31.6094" rx="2.5" ry="2.5" style="stroke:#181818;stroke-width:0.5;" width="91.8203" x="646.439" y="792.6016"/><text fill="#000000" font-family="sans-serif" font-size="14" lengthAdjust="spacing" textLength="77.8203" x="653.439" y="814.1348">Plan Groups</text></g><g class="participant participant-head" data-participant="MMF"><rect fill="#E2E2F0" height="31.6094" rx="2.5" ry="2.5" style="stroke:#181818;stroke-width:0.5;" width="96.4482" x="748.2593" y="88.6094"/><text fill="#000000" font-family="sans-serif" font-size="14" lengthAdjust="spacing" textLength="82.4482" x="755.2593" y="110.1426">MMF Service</text></g><g class="participant participant-tail" data-participant="MMF"><rect fill="#E2E2F0" height="31.6094" rx="2.5" ry="2.5" style="stroke:#181818;stroke-width:0.5;" width="96.4482" x="748.2593" y="792.6016"/><text fill="#000000" font-family="sans-serif" font-size="14" lengthAdjust="spacing" textLength="82.4482" x="755.2593" y="814.1348">MMF Service</text></g><g class="participant participant-head" data-participant="PDS"><rect fill="#E2E2F0" height="31.6094" rx="2.5" ry="2.5" style="stroke:#181818;stroke-width:0.5;" width="128.3789" x="854.7075" y="88.6094"/><text fill="#000000" font-family="sans-serif" font-size="14" lengthAdjust="spacing" textLength="114.3789" x="861.7075" y="110.1426">Plan Docs Service</text></g><g class="participant participant-tail" data-participant="PDS"><rect fill="#E2E2F0" height="31.6094" rx="2.5" ry="2.5" style="stroke:#181818;stroke-width:0.5;" width="128.3789" x="854.7075" y="792.6016"/><text fill="#000000" font-family="sans-serif" font-size="14" lengthAdjust="spacing" textLength="114.3789" x="861.7075" y="814.1348">Plan Docs Service</text></g><g class="participant participant-head" data-participant="BenefitsSvc"><rect fill="#E2E2F0" height="31.6094" rx="2.5" ry="2.5" style="stroke:#181818;stroke-width:0.5;" width="115.1582" x="997.9741" y="88.6094"/><text fill="#000000" font-family="sans-serif" font-size="14" lengthAdjust="spacing" textLength="101.1582" x="1004.9741" y="110.1426">Benefits Service</text></g><g class="participant participant-tail" data-participant="BenefitsSvc"><rect fill="#E2E2F0" height="31.6094" rx="2.5" ry="2.5" style="stroke:#181818;stroke-width:0.5;" width="115.1582" x="997.9741" y="792.6016"/><text fill="#000000" font-family="sans-serif" font-size="14" lengthAdjust="spacing" textLength="101.1582" x="1004.9741" y="814.1348">Benefits Service</text></g><g class="participant participant-head" data-participant="Redis"><text fill="#000000" font-family="sans-serif" font-size="14" lengthAdjust="spacing" textLength="133.8408" x="1128.0654" y="118.1426">Plan Docs List Cache</text><path d="M1179.9858,67.6094 C1179.9858,57.6094 1197.9858,57.6094 1197.9858,57.6094 C1197.9858,57.6094 1215.9858,57.6094 1215.9858,67.6094 L1215.9858,93.6094 C1215.9858,103.6094 1197.9858,103.6094 1197.9858,103.6094 C1197.9858,103.6094 1179.9858,103.6094 1179.9858,93.6094 L1179.9858,67.6094" fill="#E2E2F0" style="stroke:#181818;stroke-width:1.5;"/><path d="M1179.9858,67.6094 C1179.9858,77.6094 1197.9858,77.6094 1197.9858,77.6094 C1197.9858,77.6094 1215.9858,77.6094 1215.9858,67.6094" fill="none" style="stroke:#181818;stroke-width:1.5;"/></g><g class="participant participant-tail" data-participant="Redis"><text fill="#000000" font-family="sans-serif" font-size="14" lengthAdjust="spacing" textLength="133.8408" x="1128.0654" y="807.1348">Plan Docs List Cache</text><path d="M1179.9858,820.2109 C1179.9858,810.2109 1197.9858,810.2109 1197.9858,810.2109 C1197.9858,810.2109 1215.9858,810.2109 1215.9858,820.2109 L1215.9858,846.2109 C1215.9858,856.2109 1197.9858,856.2109 1197.9858,856.2109 C1197.9858,856.2109 1179.9858,856.2109 1179.9858,846.2109 L1179.9858,820.2109" fill="#E2E2F0" style="stroke:#181818;stroke-width:1.5;"/><path d="M1179.9858,820.2109 C1179.9858,830.2109 1197.9858,830.2109 1197.9858,830.2109 C1197.9858,830.2109 1215.9858,830.2109 1215.9858,820.2109" fill="none" style="stroke:#181818;stroke-width:1.5;"/></g><g class="participant participant-head" data-participant="CoreAPI"><rect fill="#E2E2F0" height="31.6094" rx="2.5" ry="2.5" style="stroke:#181818;stroke-width:0.5;" width="70.7998" x="1277.9063" y="88.6094"/><text fill="#000000" font-family="sans-serif" font-size="14" lengthAdjust="spacing" textLength="56.7998" x="1284.9063" y="110.1426">Core API</text></g><g class="participant participant-tail" data-participant="CoreAPI"><rect fill="#E2E2F0" height="31.6094" rx="2.5" ry="2.5" style="stroke:#181818;stroke-width:0.5;" width="70.7998" x="1277.9063" y="792.6016"/><text fill="#000000" font-family="sans-serif" font-size="14" lengthAdjust="spacing" textLength="56.7998" x="1284.9063" y="814.1348">Core API</text></g><g><title>APIC S1 GW</title><rect fill="#FFFFFF" height="622.0313" style="stroke:#181818;stroke-width:1;" width="10" x="225.2568" y="153.5703"/></g><g><title>CVS BFF</title><rect fill="#FFFFFF" height="561.3281" style="stroke:#181818;stroke-width:1;" width="10" x="403.0967" y="183.9219"/></g><g><title>LaunchDarkly</title><rect fill="#FFFFFF" height="30.3516" style="stroke:#181818;stroke-width:1;" width="10" x="581.6392" y="214.2734"/></g><g><title>Plan Groups</title><rect fill="#FFFFFF" height="30.3516" style="stroke:#181818;stroke-width:1;" width="10" x="687.3491" y="274.9766"/></g><g><title>MMF Service</title><rect fill="#FFFFFF" height="30.3516" style="stroke:#181818;stroke-width:1;" width="10" x="791.4834" y="335.6797"/></g><g><title>Plan Docs Service</title><rect fill="#FFFFFF" height="275.1641" style="stroke:#181818;stroke-width:1;" width="10" x="913.897" y="396.3828"/></g><g><title>Benefits Service</title><rect fill="#FFFFFF" height="214.4609" style="stroke:#181818;stroke-width:1;" width="10" x="1050.5532" y="426.7344"/></g><g><title>Plan Docs List Cache</title><rect fill="#FFFFFF" height="153.7578" style="stroke:#181818;stroke-width:1;" width="10" x="1192.9858" y="457.0859"/></g><g><title>Core API</title><rect fill="#FFFFFF" height="30.3516" style="stroke:#181818;stroke-width:1;" width="10" x="1308.3062" y="512.7891"/></g><g class="message" data-participant-1="Client" data-participant-2="GW"><polygon fill="#181818" points="213.2568,149.5703,223.2568,153.5703,213.2568,157.5703,217.2568,153.5703" style="stroke:#181818;stroke-width:1;"/><line style="stroke:#181818;stroke-width:1;" x1="57.417" x2="219.2568" y1="153.5703" y2="153.5703"/><text fill="#000000" font-family="sans-serif" font-size="13" lengthAdjust="spacing" textLength="148.8398" x="64.417" y="148.7139">POST /sa/plandocs/v1/list</text></g><g class="message" data-participant-1="GW" data-participant-2="BFF"><polygon fill="#181818" points="391.0967,179.9219,401.0967,183.9219,391.0967,187.9219,395.0967,183.9219" style="stroke:#181818;stroke-width:1;"/><line style="stroke:#181818;stroke-width:1;" x1="235.2568" x2="397.0967" y1="183.9219" y2="183.9219"/><text fill="#000000" font-family="sans-serif" font-size="13" lengthAdjust="spacing" textLength="148.8398" x="242.2568" y="179.0654">POST /sa/plandocs/v1/list</text></g><g class="message" data-participant-1="BFF" data-participant-2="LaunchDarkly"><polygon fill="#181818" points="569.6392,210.2734,579.6392,214.2734,569.6392,218.2734,573.6392,214.2734" style="stroke:#181818;stroke-width:1;"/><line style="stroke:#181818;stroke-width:1;" x1="413.0967" x2="575.6392" y1="214.2734" y2="214.2734"/><text fill="#000000" font-family="sans-serif" font-size="13" lengthAdjust="spacing" textLength="112.0044" x="420.0967" y="209.417">Check feature flags</text></g><g class="message" data-participant-1="LaunchDarkly" data-participant-2="BFF"><polygon fill="#181818" points="424.0967,240.625,414.0967,244.625,424.0967,248.625,420.0967,244.625" style="stroke:#181818;stroke-width:1;"/><line style="stroke:#181818;stroke-width:1;stroke-dasharray:2.0,2.0;" x1="418.0967" x2="585.6392" y1="244.625" y2="244.625"/><text fill="#000000" font-family="sans-serif" font-size="13" lengthAdjust="spacing" textLength="63.5845" x="430.0967" y="239.7686">Flag status</text></g><g class="message" data-participant-1="BFF" data-participant-2="PlanGroups"><polygon fill="#181818" points="675.3491,270.9766,685.3491,274.9766,675.3491,278.9766,679.3491,274.9766" style="stroke:#181818;stroke-width:1;"/><line style="stroke:#181818;stroke-width:1;" x1="413.0967" x2="681.3491" y1="274.9766" y2="274.9766"/><text fill="#000000" font-family="sans-serif" font-size="13" lengthAdjust="spacing" textLength="115.6162" x="420.0967" y="270.1201">GET /v3/plangroups</text></g><g class="message" data-participant-1="PlanGroups" data-participant-2="BFF"><polygon fill="#181818" points="424.0967,301.3281,414.0967,305.3281,424.0967,309.3281,420.0967,305.3281" style="stroke:#181818;stroke-width:1;"/><line style="stroke:#181818;stroke-width:1;stroke-dasharray:2.0,2.0;" x1="418.0967" x2="691.3491" y1="305.3281" y2="305.3281"/><text fill="#000000" font-family="sans-serif" font-size="13" lengthAdjust="spacing" textLength="98.2935" x="430.0967" y="300.4717">Plan groups data</text></g><g class="message" data-participant-1="BFF" data-participant-2="MMF"><polygon fill="#181818" points="779.4834,331.6797,789.4834,335.6797,779.4834,339.6797,783.4834,335.6797" style="stroke:#181818;stroke-width:1;"/><line style="stroke:#181818;stroke-width:1;" x1="413.0967" x2="785.4834" y1="335.6797" y2="335.6797"/><text fill="#000000" font-family="sans-serif" font-size="13" lengthAdjust="spacing" textLength="98.2617" x="420.0967" y="330.8232">GET /v2/features</text></g><g class="message" data-participant-1="MMF" data-participant-2="BFF"><polygon fill="#181818" points="424.0967,362.0313,414.0967,366.0313,424.0967,370.0313,420.0967,366.0313" style="stroke:#181818;stroke-width:1;"/><line style="stroke:#181818;stroke-width:1;stroke-dasharray:2.0,2.0;" x1="418.0967" x2="795.4834" y1="366.0313" y2="366.0313"/><text fill="#000000" font-family="sans-serif" font-size="13" lengthAdjust="spacing" textLength="80.2153" x="430.0967" y="361.1748">Features data</text></g><g class="message" data-participant-1="BFF" data-participant-2="PDS"><polygon fill="#181818" points="901.897,392.3828,911.897,396.3828,901.897,400.3828,905.897,396.3828" style="stroke:#181818;stroke-width:1;"/><line style="stroke:#181818;stroke-width:1;" x1="413.0967" x2="907.897" y1="396.3828" y2="396.3828"/><text fill="#000000" font-family="sans-serif" font-size="13" lengthAdjust="spacing" textLength="213.1353" x="420.0967" y="391.5264">POST /v1/plan-document-list/retrieve</text></g><g class="message" data-participant-1="PDS" data-participant-2="BenefitsSvc"><polygon fill="#181818" points="1038.5532,422.7344,1048.5532,426.7344,1038.5532,430.7344,1042.5532,426.7344" style="stroke:#181818;stroke-width:1;"/><line style="stroke:#181818;stroke-width:1;" x1="923.897" x2="1044.5532" y1="426.7344" y2="426.7344"/><text fill="#000000" font-family="sans-serif" font-size="13" lengthAdjust="spacing" textLength="107.6563" x="930.897" y="421.8779">Get Document List</text></g><g class="message" data-participant-1="BenefitsSvc" data-participant-2="Redis"><polygon fill="#181818" points="1180.9858,453.0859,1190.9858,457.0859,1180.9858,461.0859,1184.9858,457.0859" style="stroke:#181818;stroke-width:1;"/><line style="stroke:#181818;stroke-width:1;" x1="1060.5532" x2="1186.9858" y1="457.0859" y2="457.0859"/><text fill="#000000" font-family="sans-serif" font-size="13" lengthAdjust="spacing" textLength="113.4326" x="1067.5532" y="452.2295">Check cache for list</text></g><path d="M987.9741,472.0859 L1048.145,472.0859 L1048.145,480.4375 L1038.145,490.4375 L987.9741,490.4375 L987.9741,472.0859" fill="#EEEEEE" style="stroke:#000000;stroke-width:1.5;"/><rect fill="none" height="109.4063" style="stroke:#000000;stroke-width:1.5;" width="370.7319" x="987.9741" y="472.0859"/><text fill="#000000" font-family="sans-serif" font-size="13" font-weight="bold" lengthAdjust="spacing" textLength="15.1709" x="1002.9741" y="486.5811">alt</text><text fill="#000000" font-family="sans-serif" font-size="11" font-weight="bold" lengthAdjust="spacing" textLength="99.6553" x="1063.145" y="485.5049">[Redis cache miss]</text><g class="message" data-participant-1="BenefitsSvc" data-participant-2="CoreAPI"><polygon fill="#181818" points="1296.3062,508.7891,1306.3062,512.7891,1296.3062,516.7891,1300.3062,512.7891" style="stroke:#181818;stroke-width:1;"/><line style="stroke:#181818;stroke-width:1;" x1="1060.5532" x2="1302.3062" y1="512.7891" y2="512.7891"/><text fill="#000000" font-family="sans-serif" font-size="13" lengthAdjust="spacing" textLength="221.8252" x="1067.5532" y="507.9326">POST /eieheader/v4/.../search/retrieve</text></g><g class="message" data-participant-1="CoreAPI" data-participant-2="BenefitsSvc"><polygon fill="#181818" points="1071.5532,539.1406,1061.5532,543.1406,1071.5532,547.1406,1067.5532,543.1406" style="stroke:#181818;stroke-width:1;"/><line style="stroke:#181818;stroke-width:1;stroke-dasharray:2.0,2.0;" x1="1065.5532" x2="1312.3062" y1="543.1406" y2="543.1406"/><text fill="#000000" font-family="sans-serif" font-size="13" lengthAdjust="spacing" textLength="107.6626" x="1077.5532" y="538.2842">Document list data</text></g><g class="message" data-participant-1="BenefitsSvc" data-participant-2="Redis"><polygon fill="#181818" points="1180.9858,569.4922,1190.9858,573.4922,1180.9858,577.4922,1184.9858,573.4922" style="stroke:#181818;stroke-width:1;"/><line style="stroke:#181818;stroke-width:1;" x1="1060.5532" x2="1186.9858" y1="573.4922" y2="573.4922"/><text fill="#000000" font-family="sans-serif" font-size="13" lengthAdjust="spacing" textLength="102.5845" x="1067.5532" y="568.6357">Write list to cache</text></g><g class="message" data-participant-1="Redis" data-participant-2="BenefitsSvc"><polygon fill="#181818" points="1071.5532,606.8438,1061.5532,610.8438,1071.5532,614.8438,1067.5532,610.8438" style="stroke:#181818;stroke-width:1;"/><line style="stroke:#181818;stroke-width:1;stroke-dasharray:2.0,2.0;" x1="1065.5532" x2="1196.9858" y1="610.8438" y2="610.8438"/><text fill="#000000" font-family="sans-serif" font-size="13" lengthAdjust="spacing" textLength="78.749" x="1077.5532" y="605.9873">Document list</text></g><g class="message" data-participant-1="BenefitsSvc" data-participant-2="PDS"><polygon fill="#181818" points="934.897,637.1953,924.897,641.1953,934.897,645.1953,930.897,641.1953" style="stroke:#181818;stroke-width:1;"/><line style="stroke:#181818;stroke-width:1;stroke-dasharray:2.0,2.0;" x1="928.897" x2="1054.5532" y1="641.1953" y2="641.1953"/><text fill="#000000" font-family="sans-serif" font-size="13" lengthAdjust="spacing" textLength="78.749" x="940.897" y="636.3389">Document list</text></g><g class="message" data-participant-1="PDS" data-participant-2="BFF"><polygon fill="#181818" points="424.0967,667.5469,414.0967,671.5469,424.0967,675.5469,420.0967,671.5469" style="stroke:#181818;stroke-width:1;"/><line style="stroke:#181818;stroke-width:1;stroke-dasharray:2.0,2.0;" x1="418.0967" x2="917.897" y1="671.5469" y2="671.5469"/><text fill="#000000" font-family="sans-serif" font-size="13" lengthAdjust="spacing" textLength="147.4243" x="430.0967" y="666.6904">Aggregated document list</text></g><g class="message" data-participant-1="BFF" data-participant-2="BFF"><line style="stroke:#181818;stroke-width:1;" x1="413.0967" x2="455.0967" y1="701.8984" y2="701.8984"/><line style="stroke:#181818;stroke-width:1;" x1="455.0967" x2="455.0967" y1="701.8984" y2="714.8984"/><line style="stroke:#181818;stroke-width:1;" x1="414.0967" x2="455.0967" y1="714.8984" y2="714.8984"/><polygon fill="#181818" points="424.0967,710.8984,414.0967,714.8984,424.0967,718.8984,420.0967,714.8984" style="stroke:#181818;stroke-width:1;"/><text fill="#000000" font-family="sans-serif" font-size="13" lengthAdjust="spacing" textLength="144.5425" x="420.0967" y="697.042">Aggregate final response</text></g><g class="message" data-participant-1="BFF" data-participant-2="GW"><polygon fill="#181818" points="246.2568,741.25,236.2568,745.25,246.2568,749.25,242.2568,745.25" style="stroke:#181818;stroke-width:1;"/><line style="stroke:#181818;stroke-width:1;stroke-dasharray:2.0,2.0;" x1="240.2568" x2="407.0967" y1="745.25" y2="745.25"/><text fill="#000000" font-family="sans-serif" font-size="13" lengthAdjust="spacing" textLength="108.3799" x="252.2568" y="740.3936">Final document list</text></g><g class="message" data-participant-1="GW" data-participant-2="Client"><polygon fill="#181818" points="68.417,771.6016,58.417,775.6016,68.417,779.6016,64.417,775.6016" style="stroke:#181818;stroke-width:1;"/><line style="stroke:#181818;stroke-width:1;stroke-dasharray:2.0,2.0;" x1="62.417" x2="229.2568" y1="775.6016" y2="775.6016"/><text fill="#000000" font-family="sans-serif" font-size="13" lengthAdjust="spacing" textLength="108.3799" x="74.417" y="770.7451">Final document list</text></g><!--SRC=[ZLHDZzCm4BtxLunwWaCtMk3K0r8ttLP8kwBQ87esoRInDfi4smdmxvcnuyPUMg1IMpkUDn_llTWgso3S_xJOLbZ1Wp8Mdj1gXQDieC3l0xObmfiVojRm-BYbHtfK9RuLGfQsqx38lnPG33rgMFVz0gI1l57OMj5BRLMfUjbQMAptdt8eRc5tS26xGthCIUwsMtT6_ydXWnpQijv8_TpyIb7xHhQmqztG6uValT-cSL7VBexs5n9jkj8aOVjDaORTOOj7PTEeyB0OIr59Axz9Wt56Hsakozg7Fs6bNhMNTng12FBaqORMGdWMOVcHo5h1_dFn1J8ZivuILvGt6s-pXbAp36gK5fdJtO7ZYS3_0Z3HWduO4vEyWhp6yXcEAEr0hHqRUJ8pBD4Zti0o5DyI0embk14LNaQ6ohDeAzZTKy_ZUzVpoGjv1aVYpikvf2FSOu1bYEj6q52LB13AlSkcGQDYx11spJpH5F97ReuyZx8f0l54DW-n9EQ75z9noTHdshzP64r57gElasqs4hM6bktZiCv2aMoHuQ8rft3c2lALx3auqZkQokuTA6HZ_N8AV5762A3FgvoJ8SDWgB16MQ7EnW_PpSrDPb3gifv7unJdMi7D_71QUqxZMSzpSf-UO8wFI8xJN1xve1N5kGIsynC9kjA4y2F-lMQifsSdAHAKlOg95N5Y1jUiJoUD9mgfeBe6PWS40wKWEAgMBc5oNT-r1dtGT1zitT7LfFngysN0-hbxv9y8kZr-0m00]--></g></svg>