<svg xmlns="http://www.w3.org/2000/svg" xmlns:xlink="http://www.w3.org/1999/xlink" contentStyleType="text/css" data-diagram-type="ACTIVITY" height="1359px" preserveAspectRatio="none" style="width:948px;height:1359px;background:#FFFFFF;" version="1.1" viewBox="0 0 948 1359" width="948px" zoomAndPan="magnify"><defs/><g><ellipse cx="420.1683" cy="20" fill="#222222" rx="10" ry="10" style="stroke:#222222;stroke-width:1;"/><rect fill="none" height="139.7969" style="stroke:#000000;stroke-width:1.5;" width="284.1191" x="278.1088" y="40"/><path d="M414.1635,40 L414.1635,50.6094 L404.1635,60.6094 L278.1088,60.6094" fill="none" style="stroke:#000000;stroke-width:1.5;"/><text fill="#000000" font-family="sans-serif" font-size="14" lengthAdjust="spacing" textLength="126.0547" x="281.1088" y="55.5332">OpenPlatform Client</text><rect fill="#F1F1F1" height="35.0938" rx="12.5" ry="12.5" style="stroke:#181818;stroke-width:0.5;" width="264.1191" x="288.1088" y="77.6094"/><text fill="#000000" font-family="sans-serif" font-size="12" lengthAdjust="spacing" textLength="244.1191" x="298.1088" y="100.0664">User navigates to Plan Docs / Taps document</text><rect fill="#F1F1F1" height="35.0938" rx="12.5" ry="12.5" style="stroke:#181818;stroke-width:0.5;" width="130.7246" x="354.806" y="132.7031"/><text fill="#000000" font-family="sans-serif" font-size="12" lengthAdjust="spacing" textLength="110.7246" x="364.806" y="155.1602">Send request to BFF</text><rect fill="none" height="203.7969" style="stroke:#000000;stroke-width:1.5;" width="488.1953" x="182.4076" y="189.7969"/><path d="M309.1107,189.7969 L309.1107,200.4063 L299.1107,210.4063 L182.4076,210.4063" fill="none" style="stroke:#000000;stroke-width:1.5;"/><text fill="#000000" font-family="sans-serif" font-size="14" lengthAdjust="spacing" textLength="116.7031" x="185.4076" y="205.3301">OpenPlatform BFF</text><rect fill="#F1F1F1" height="35.0938" rx="12.5" ry="12.5" style="stroke:#181818;stroke-width:0.5;" width="168.0605" x="336.1381" y="227.4063"/><text fill="#000000" font-family="sans-serif" font-size="12" lengthAdjust="spacing" textLength="148.0605" x="346.1381" y="249.8633">Receive request from Client</text><polygon fill="#F1F1F1" points="376.1495,282.5,464.1871,282.5,476.1871,294.5,464.1871,306.5,376.1495,306.5,364.1495,294.5,376.1495,282.5" style="stroke:#181818;stroke-width:0.5;"/><text fill="#000000" font-family="sans-serif" font-size="11" lengthAdjust="spacing" textLength="88.0376" x="376.1495" y="299.001">Request is for List</text><text fill="#000000" font-family="sans-serif" font-size="11" lengthAdjust="spacing" textLength="43.3984" x="320.7511" y="292.083">List Flow</text><text fill="#000000" font-family="sans-serif" font-size="11" lengthAdjust="spacing" textLength="48.2808" x="476.1871" y="292.083">PDF Flow</text><rect fill="#F1F1F1" height="35.0938" rx="12.5" ry="12.5" style="stroke:#181818;stroke-width:0.5;" width="201.4238" x="202.4076" y="316.5"/><text fill="#000000" font-family="sans-serif" font-size="12" lengthAdjust="spacing" textLength="181.4238" x="212.4076" y="338.957">Call Benefits Service /list endpoint</text><rect fill="#F1F1F1" height="35.0938" rx="12.5" ry="12.5" style="stroke:#181818;stroke-width:0.5;" width="226.7715" x="423.8314" y="316.5"/><text fill="#000000" font-family="sans-serif" font-size="12" lengthAdjust="spacing" textLength="206.7715" x="433.8314" y="338.957">Call Benefits Service /retrieve endpoint</text><polygon fill="#F1F1F1" points="420.1683,357.5938,432.1683,369.5938,420.1683,381.5938,408.1683,369.5938,420.1683,357.5938" style="stroke:#181818;stroke-width:0.5;"/><rect fill="none" height="475.0781" style="stroke:#000000;stroke-width:1.5;" width="926.8652" x="11" y="403.5938"/><path d="M122.1582,403.5938 L122.1582,414.2031 L112.1582,424.2031 L11,424.2031" fill="none" style="stroke:#000000;stroke-width:1.5;"/><text fill="#000000" font-family="sans-serif" font-size="14" lengthAdjust="spacing" textLength="101.1582" x="14" y="419.127">Benefits Service</text><polygon fill="#F1F1F1" points="392.9691,441.2031,447.3676,441.2031,459.3676,453.2031,447.3676,465.2031,392.9691,465.2031,380.9691,453.2031,392.9691,441.2031" style="stroke:#181818;stroke-width:0.5;"/><text fill="#000000" font-family="sans-serif" font-size="11" lengthAdjust="spacing" textLength="54.3984" x="392.9691" y="457.7041">Flow is List</text><text fill="#000000" font-family="sans-serif" font-size="11" lengthAdjust="spacing" textLength="74.5884" x="306.3807" y="450.7861">List Processing</text><text fill="#000000" font-family="sans-serif" font-size="11" lengthAdjust="spacing" textLength="79.4707" x="459.3676" y="450.7861">PDF Processing</text><rect fill="#F1F1F1" height="35.0938" rx="12.5" ry="12.5" style="stroke:#181818;stroke-width:0.5;" width="161.3867" x="115.3442" y="475.2031"/><text fill="#000000" font-family="sans-serif" font-size="12" lengthAdjust="spacing" textLength="141.3867" x="125.3442" y="497.6602">Check Redis Cache for list</text><polygon fill="#F1F1F1" points="145.595,530.2969,246.4802,530.2969,258.4802,542.2969,246.4802,554.2969,145.595,554.2969,133.595,542.2969,145.595,530.2969" style="stroke:#181818;stroke-width:0.5;"/><text fill="#000000" font-family="sans-serif" font-size="11" lengthAdjust="spacing" textLength="100.8853" x="145.595" y="546.7979">List in Redis Cache?</text><text fill="#000000" font-family="sans-serif" font-size="11" lengthAdjust="spacing" textLength="18.9546" x="114.6404" y="539.8799">Yes</text><text fill="#000000" font-family="sans-serif" font-size="11" lengthAdjust="spacing" textLength="14.0615" x="258.4802" y="539.8799">No</text><rect fill="#F1F1F1" height="35.0938" rx="12.5" ry="12.5" style="stroke:#181818;stroke-width:0.5;" width="144.0313" x="23" y="564.2969"/><text fill="#000000" font-family="sans-serif" font-size="12" lengthAdjust="spacing" textLength="124.0313" x="33" y="586.7539">Retrieve list from Redis</text><rect fill="#F1F1F1" height="35.0938" rx="12.5" ry="12.5" style="stroke:#181818;stroke-width:0.5;" width="220.0566" x="187.0313" y="564.2969"/><text fill="#000000" font-family="sans-serif" font-size="12" lengthAdjust="spacing" textLength="200.0566" x="197.0313" y="586.7539">Fetch list from Core Plan Doc System</text><rect fill="#F1F1F1" height="35.0938" rx="12.5" ry="12.5" style="stroke:#181818;stroke-width:0.5;" width="119.375" x="237.3721" y="619.3906"/><text fill="#000000" font-family="sans-serif" font-size="12" lengthAdjust="spacing" textLength="99.375" x="247.3721" y="641.8477">Cache list in Redis</text><polygon fill="#F1F1F1" points="196.0376,660.4844,208.0376,672.4844,196.0376,684.4844,184.0376,672.4844,196.0376,660.4844" style="stroke:#181818;stroke-width:0.5;"/><rect fill="#F1F1F1" height="35.0938" rx="12.5" ry="12.5" style="stroke:#181818;stroke-width:0.5;" width="113.3574" x="139.3589" y="708.4844"/><text fill="#000000" font-family="sans-serif" font-size="12" lengthAdjust="spacing" textLength="93.3574" x="149.3589" y="730.9414">Return list to BFF</text><rect fill="#F1F1F1" height="35.0938" rx="12.5" ry="12.5" style="stroke:#181818;stroke-width:0.5;" width="156.7168" x="565.9407" y="475.2031"/><text fill="#000000" font-family="sans-serif" font-size="12" lengthAdjust="spacing" textLength="136.7168" x="575.9407" y="497.6602">Check S3 Bucket for PDF</text><polygon fill="#F1F1F1" points="598.7495,530.2969,689.8486,530.2969,701.8486,542.2969,689.8486,554.2969,598.7495,554.2969,586.7495,542.2969,598.7495,530.2969" style="stroke:#181818;stroke-width:0.5;"/><text fill="#000000" font-family="sans-serif" font-size="11" lengthAdjust="spacing" textLength="91.0991" x="598.7495" y="546.7979">PDF in S3 Cache?</text><text fill="#000000" font-family="sans-serif" font-size="11" lengthAdjust="spacing" textLength="18.9546" x="567.7949" y="539.8799">Yes</text><text fill="#000000" font-family="sans-serif" font-size="11" lengthAdjust="spacing" textLength="14.0615" x="701.8486" y="539.8799">No</text><rect fill="#F1F1F1" height="35.0938" rx="12.5" ry="12.5" style="stroke:#181818;stroke-width:0.5;" width="131.3574" x="447.0879" y="564.2969"/><text fill="#000000" font-family="sans-serif" font-size="12" lengthAdjust="spacing" textLength="111.3574" x="457.0879" y="586.7539">Stream PDF from S3</text><rect fill="#F1F1F1" height="35.0938" rx="12.5" ry="12.5" style="stroke:#181818;stroke-width:0.5;" width="229.3906" x="661.1362" y="564.2969"/><text fill="#000000" font-family="sans-serif" font-size="12" lengthAdjust="spacing" textLength="209.3906" x="671.1362" y="586.7539">Fetch PDF from Core Plan Doc System</text><polygon fill="#F1F1F1" points="715.6108,619.3906,836.0522,619.3906,848.0522,631.3906,836.0522,643.3906,715.6108,643.3906,703.6108,631.3906,715.6108,619.3906" style="stroke:#181818;stroke-width:0.5;"/><text fill="#000000" font-family="sans-serif" font-size="11" lengthAdjust="spacing" textLength="120.4414" x="715.6108" y="635.8916">Fetched PDF is 0 bytes?</text><text fill="#000000" font-family="sans-serif" font-size="11" lengthAdjust="spacing" textLength="18.9546" x="684.6563" y="628.9736">Yes</text><text fill="#000000" font-family="sans-serif" font-size="11" lengthAdjust="spacing" textLength="14.0615" x="848.0522" y="628.9736">No</text><rect fill="#F1F1F1" height="35.0938" rx="12.5" ry="12.5" style="stroke:#181818;stroke-width:0.5;" width="166.0625" x="608.4453" y="653.3906"/><text fill="#000000" font-family="sans-serif" font-size="12" lengthAdjust="spacing" textLength="146.0625" x="618.4453" y="675.8477">Return Error (do not cache)</text><ellipse cx="691.4766" cy="723.4844" fill="none" rx="11" ry="11" style="stroke:#222222;stroke-width:1;"/><ellipse cx="691.4766" cy="723.4844" fill="#222222" rx="6" ry="6" style="stroke:#222222;stroke-width:1;"/><rect fill="#F1F1F1" height="35.0938" rx="12.5" ry="12.5" style="stroke:#181818;stroke-width:0.5;" width="106.7012" x="806.8359" y="653.3906"/><text fill="#000000" font-family="sans-serif" font-size="12" lengthAdjust="spacing" textLength="86.7012" x="816.8359" y="675.8477">Store PDF in S3</text><rect fill="#F1F1F1" height="35.0938" rx="12.5" ry="12.5" style="stroke:#181818;stroke-width:0.5;" width="131.3574" x="794.5078" y="712.4844"/><text fill="#000000" font-family="sans-serif" font-size="12" lengthAdjust="spacing" textLength="111.3574" x="804.5078" y="734.9414">Stream PDF from S3</text><polygon fill="#F1F1F1" points="644.2991,757.5781,656.2991,769.5781,644.2991,781.5781,632.2991,769.5781,644.2991,757.5781" style="stroke:#181818;stroke-width:0.5;"/><rect fill="#F1F1F1" height="35.0938" rx="12.5" ry="12.5" style="stroke:#181818;stroke-width:0.5;" width="152.6914" x="567.9534" y="801.5781"/><text fill="#000000" font-family="sans-serif" font-size="12" lengthAdjust="spacing" textLength="132.6914" x="577.9534" y="824.0352">Return PDF/Error to BFF</text><polygon fill="#F1F1F1" points="420.1683,842.6719,432.1683,854.6719,420.1683,866.6719,408.1683,854.6719,420.1683,842.6719" style="stroke:#181818;stroke-width:0.5;"/><rect fill="none" height="203.7969" style="stroke:#000000;stroke-width:1.5;" width="411.4316" x="208.2782" y="888.6719"/><path d="M334.9813,888.6719 L334.9813,899.2813 L324.9813,909.2813 L208.2782,909.2813" fill="none" style="stroke:#000000;stroke-width:1.5;"/><text fill="#000000" font-family="sans-serif" font-size="14" lengthAdjust="spacing" textLength="116.7031" x="211.2782" y="904.2051">OpenPlatform BFF</text><polygon fill="#F1F1F1" points="379.8153,926.2813,460.5214,926.2813,472.5214,938.2813,460.5214,950.2813,379.8153,950.2813,367.8153,938.2813,379.8153,926.2813" style="stroke:#181818;stroke-width:0.5;"/><text fill="#000000" font-family="sans-serif" font-size="11" lengthAdjust="spacing" textLength="80.7061" x="379.8153" y="942.7822">Response is List</text><text fill="#000000" font-family="sans-serif" font-size="11" lengthAdjust="spacing" textLength="69.7061" x="298.1093" y="935.8643">List Response</text><text fill="#000000" font-family="sans-serif" font-size="11" lengthAdjust="spacing" textLength="74.5884" x="472.5214" y="935.8643">PDF Response</text><rect fill="#F1F1F1" height="35.0938" rx="12.5" ry="12.5" style="stroke:#181818;stroke-width:0.5;" width="188.0645" x="228.2782" y="960.2813"/><text fill="#000000" font-family="sans-serif" font-size="12" lengthAdjust="spacing" textLength="168.0645" x="238.2782" y="982.7383">Transform &amp; Augment List Data</text><rect fill="#F1F1F1" height="35.0938" rx="12.5" ry="12.5" style="stroke:#181818;stroke-width:0.5;" width="180.7402" x="231.9403" y="1015.375"/><text fill="#000000" font-family="sans-serif" font-size="12" lengthAdjust="spacing" textLength="160.7402" x="241.9403" y="1037.832">Send transformed list to Client</text><rect fill="#F1F1F1" height="35.0938" rx="12.5" ry="12.5" style="stroke:#181818;stroke-width:0.5;" width="163.3672" x="436.3427" y="960.2813"/><text fill="#000000" font-family="sans-serif" font-size="12" lengthAdjust="spacing" textLength="143.3672" x="446.3427" y="982.7383">Stream PDF/Error to Client</text><polygon fill="#F1F1F1" points="420.1683,1056.4688,432.1683,1068.4688,420.1683,1080.4688,408.1683,1068.4688,420.1683,1056.4688" style="stroke:#181818;stroke-width:0.5;"/><rect fill="none" height="203.7969" style="stroke:#000000;stroke-width:1.5;" width="428.1074" x="196.4423" y="1102.4688"/><path d="M332.4969,1102.4688 L332.4969,1113.0781 L322.4969,1123.0781 L196.4423,1123.0781" fill="none" style="stroke:#000000;stroke-width:1.5;"/><text fill="#000000" font-family="sans-serif" font-size="14" lengthAdjust="spacing" textLength="126.0547" x="199.4423" y="1118.002">OpenPlatform Client</text><rect fill="#F1F1F1" height="35.0938" rx="12.5" ry="12.5" style="stroke:#181818;stroke-width:0.5;" width="120.7227" x="359.807" y="1140.0781"/><text fill="#000000" font-family="sans-serif" font-size="12" lengthAdjust="spacing" textLength="100.7227" x="369.807" y="1162.5352">Receive Response</text><polygon fill="#F1F1F1" points="379.8153,1195.1719,460.5214,1195.1719,472.5214,1207.1719,460.5214,1219.1719,379.8153,1219.1719,367.8153,1207.1719,379.8153,1195.1719" style="stroke:#181818;stroke-width:0.5;"/><text fill="#000000" font-family="sans-serif" font-size="11" lengthAdjust="spacing" textLength="80.7061" x="379.8153" y="1211.6729">Response is List</text><text fill="#000000" font-family="sans-serif" font-size="11" lengthAdjust="spacing" textLength="56.2407" x="311.5746" y="1204.7549">Display List</text><text fill="#000000" font-family="sans-serif" font-size="11" lengthAdjust="spacing" textLength="61.123" x="472.5214" y="1204.7549">Display PDF</text><rect fill="#F1F1F1" height="35.0938" rx="12.5" ry="12.5" style="stroke:#181818;stroke-width:0.5;" width="203.3984" x="216.4423" y="1229.1719"/><text fill="#000000" font-family="sans-serif" font-size="12" lengthAdjust="spacing" textLength="183.3984" x="226.4423" y="1251.6289">Display List (0, 1, or multiple docs)</text><rect fill="#F1F1F1" height="35.0938" rx="12.5" ry="12.5" style="stroke:#181818;stroke-width:0.5;" width="164.709" x="439.8407" y="1229.1719"/><text fill="#000000" font-family="sans-serif" font-size="12" lengthAdjust="spacing" textLength="144.709" x="449.8407" y="1251.6289">Display PDF / Handle Error</text><polygon fill="#F1F1F1" points="420.1683,1270.2656,432.1683,1282.2656,420.1683,1294.2656,408.1683,1282.2656,420.1683,1270.2656" style="stroke:#181818;stroke-width:0.5;"/><ellipse cx="420.1683" cy="1337.2656" fill="none" rx="11" ry="11" style="stroke:#222222;stroke-width:1;"/><ellipse cx="420.1683" cy="1337.2656" fill="#222222" rx="6" ry="6" style="stroke:#222222;stroke-width:1;"/><line style="stroke:#181818;stroke-width:1;" x1="420.1683" x2="420.1683" y1="112.7031" y2="132.7031"/><polygon fill="#181818" points="416.1683,122.7031,420.1683,132.7031,424.1683,122.7031,420.1683,126.7031" style="stroke:#181818;stroke-width:1;"/><line style="stroke:#181818;stroke-width:1;" x1="420.1683" x2="420.1683" y1="30" y2="77.6094"/><polygon fill="#181818" points="416.1683,67.6094,420.1683,77.6094,424.1683,67.6094,420.1683,71.6094" style="stroke:#181818;stroke-width:1;"/><line style="stroke:#181818;stroke-width:1;" x1="364.1495" x2="303.1195" y1="294.5" y2="294.5"/><line style="stroke:#181818;stroke-width:1;" x1="303.1195" x2="303.1195" y1="294.5" y2="316.5"/><polygon fill="#181818" points="299.1195,306.5,303.1195,316.5,307.1195,306.5,303.1195,310.5" style="stroke:#181818;stroke-width:1;"/><line style="stroke:#181818;stroke-width:1;" x1="476.1871" x2="537.2172" y1="294.5" y2="294.5"/><line style="stroke:#181818;stroke-width:1;" x1="537.2172" x2="537.2172" y1="294.5" y2="316.5"/><polygon fill="#181818" points="533.2172,306.5,537.2172,316.5,541.2172,306.5,537.2172,310.5" style="stroke:#181818;stroke-width:1;"/><line style="stroke:#181818;stroke-width:1;" x1="303.1195" x2="303.1195" y1="351.5938" y2="369.5938"/><line style="stroke:#181818;stroke-width:1;" x1="303.1195" x2="408.1683" y1="369.5938" y2="369.5938"/><polygon fill="#181818" points="398.1683,365.5938,408.1683,369.5938,398.1683,373.5938,402.1683,369.5938" style="stroke:#181818;stroke-width:1;"/><line style="stroke:#181818;stroke-width:1;" x1="537.2172" x2="537.2172" y1="351.5938" y2="369.5938"/><line style="stroke:#181818;stroke-width:1;" x1="537.2172" x2="432.1683" y1="369.5938" y2="369.5938"/><polygon fill="#181818" points="442.1683,365.5938,432.1683,369.5938,442.1683,373.5938,438.1683,369.5938" style="stroke:#181818;stroke-width:1;"/><line style="stroke:#181818;stroke-width:1;" x1="420.1683" x2="420.1683" y1="262.5" y2="282.5"/><polygon fill="#181818" points="416.1683,272.5,420.1683,282.5,424.1683,272.5,420.1683,276.5" style="stroke:#181818;stroke-width:1;"/><line style="stroke:#181818;stroke-width:1;" x1="420.1683" x2="420.1683" y1="167.7969" y2="227.4063"/><polygon fill="#181818" points="416.1683,217.4063,420.1683,227.4063,424.1683,217.4063,420.1683,221.4063" style="stroke:#181818;stroke-width:1;"/><line style="stroke:#181818;stroke-width:1;" x1="297.0596" x2="297.0596" y1="599.3906" y2="619.3906"/><polygon fill="#181818" points="293.0596,609.3906,297.0596,619.3906,301.0596,609.3906,297.0596,613.3906" style="stroke:#181818;stroke-width:1;"/><line style="stroke:#181818;stroke-width:1;" x1="133.595" x2="95.0156" y1="542.2969" y2="542.2969"/><line style="stroke:#181818;stroke-width:1;" x1="95.0156" x2="95.0156" y1="542.2969" y2="564.2969"/><polygon fill="#181818" points="91.0156,554.2969,95.0156,564.2969,99.0156,554.2969,95.0156,558.2969" style="stroke:#181818;stroke-width:1;"/><line style="stroke:#181818;stroke-width:1;" x1="258.4802" x2="297.0596" y1="542.2969" y2="542.2969"/><line style="stroke:#181818;stroke-width:1;" x1="297.0596" x2="297.0596" y1="542.2969" y2="564.2969"/><polygon fill="#181818" points="293.0596,554.2969,297.0596,564.2969,301.0596,554.2969,297.0596,558.2969" style="stroke:#181818;stroke-width:1;"/><line style="stroke:#181818;stroke-width:1;" x1="95.0156" x2="95.0156" y1="599.3906" y2="672.4844"/><line style="stroke:#181818;stroke-width:1;" x1="95.0156" x2="184.0376" y1="672.4844" y2="672.4844"/><polygon fill="#181818" points="174.0376,668.4844,184.0376,672.4844,174.0376,676.4844,178.0376,672.4844" style="stroke:#181818;stroke-width:1;"/><line style="stroke:#181818;stroke-width:1;" x1="297.0596" x2="297.0596" y1="654.4844" y2="672.4844"/><line style="stroke:#181818;stroke-width:1;" x1="297.0596" x2="208.0376" y1="672.4844" y2="672.4844"/><polygon fill="#181818" points="218.0376,668.4844,208.0376,672.4844,218.0376,676.4844,214.0376,672.4844" style="stroke:#181818;stroke-width:1;"/><line style="stroke:#181818;stroke-width:1;" x1="196.0376" x2="196.0376" y1="510.2969" y2="530.2969"/><polygon fill="#181818" points="192.0376,520.2969,196.0376,530.2969,200.0376,520.2969,196.0376,524.2969" style="stroke:#181818;stroke-width:1;"/><line style="stroke:#181818;stroke-width:1;" x1="196.0376" x2="196.0376" y1="684.4844" y2="708.4844"/><polygon fill="#181818" points="192.0376,698.4844,196.0376,708.4844,200.0376,698.4844,196.0376,702.4844" style="stroke:#181818;stroke-width:1;"/><line style="stroke:#181818;stroke-width:1;" x1="691.4766" x2="691.4766" y1="688.4844" y2="712.4844"/><polygon fill="#181818" points="687.4766,702.4844,691.4766,712.4844,695.4766,702.4844,691.4766,706.4844" style="stroke:#181818;stroke-width:1;"/><line style="stroke:#181818;stroke-width:1;" x1="860.1865" x2="860.1865" y1="688.4844" y2="712.4844"/><polygon fill="#181818" points="856.1865,702.4844,860.1865,712.4844,864.1865,702.4844,860.1865,706.4844" style="stroke:#181818;stroke-width:1;"/><line style="stroke:#181818;stroke-width:1;" x1="703.6108" x2="691.4766" y1="631.3906" y2="631.3906"/><line style="stroke:#181818;stroke-width:1;" x1="691.4766" x2="691.4766" y1="631.3906" y2="653.3906"/><polygon fill="#181818" points="687.4766,643.3906,691.4766,653.3906,695.4766,643.3906,691.4766,647.3906" style="stroke:#181818;stroke-width:1;"/><line style="stroke:#181818;stroke-width:1;" x1="848.0522" x2="860.1865" y1="631.3906" y2="631.3906"/><line style="stroke:#181818;stroke-width:1;" x1="860.1865" x2="860.1865" y1="631.3906" y2="653.3906"/><polygon fill="#181818" points="856.1865,643.3906,860.1865,653.3906,864.1865,643.3906,860.1865,647.3906" style="stroke:#181818;stroke-width:1;"/><line style="stroke:#181818;stroke-width:1;" x1="860.1865" x2="860.1865" y1="747.5781" y2="769.5781"/><line style="stroke:#181818;stroke-width:1;" x1="860.1865" x2="656.2991" y1="769.5781" y2="769.5781"/><polygon fill="#181818" points="666.2991,765.5781,656.2991,769.5781,666.2991,773.5781,662.2991,769.5781" style="stroke:#181818;stroke-width:1;"/><line style="stroke:#181818;stroke-width:1;" x1="775.8315" x2="775.8315" y1="599.3906" y2="619.3906"/><polygon fill="#181818" points="771.8315,609.3906,775.8315,619.3906,779.8315,609.3906,775.8315,613.3906" style="stroke:#181818;stroke-width:1;"/><line style="stroke:#181818;stroke-width:1;" x1="586.7495" x2="512.7666" y1="542.2969" y2="542.2969"/><line style="stroke:#181818;stroke-width:1;" x1="512.7666" x2="512.7666" y1="542.2969" y2="564.2969"/><polygon fill="#181818" points="508.7666,554.2969,512.7666,564.2969,516.7666,554.2969,512.7666,558.2969" style="stroke:#181818;stroke-width:1;"/><line style="stroke:#181818;stroke-width:1;" x1="701.8486" x2="775.8315" y1="542.2969" y2="542.2969"/><line style="stroke:#181818;stroke-width:1;" x1="775.8315" x2="775.8315" y1="542.2969" y2="564.2969"/><polygon fill="#181818" points="771.8315,554.2969,775.8315,564.2969,779.8315,554.2969,775.8315,558.2969" style="stroke:#181818;stroke-width:1;"/><line style="stroke:#181818;stroke-width:1;" x1="512.7666" x2="512.7666" y1="599.3906" y2="769.5781"/><line style="stroke:#181818;stroke-width:1;" x1="512.7666" x2="632.2991" y1="769.5781" y2="769.5781"/><polygon fill="#181818" points="622.2991,765.5781,632.2991,769.5781,622.2991,773.5781,626.2991,769.5781" style="stroke:#181818;stroke-width:1;"/><line style="stroke:#181818;stroke-width:1;" x1="644.2991" x2="644.2991" y1="510.2969" y2="530.2969"/><polygon fill="#181818" points="640.2991,520.2969,644.2991,530.2969,648.2991,520.2969,644.2991,524.2969" style="stroke:#181818;stroke-width:1;"/><line style="stroke:#181818;stroke-width:1;" x1="644.2991" x2="644.2991" y1="781.5781" y2="801.5781"/><polygon fill="#181818" points="640.2991,791.5781,644.2991,801.5781,648.2991,791.5781,644.2991,795.5781" style="stroke:#181818;stroke-width:1;"/><line style="stroke:#181818;stroke-width:1;" x1="380.9691" x2="196.0376" y1="453.2031" y2="453.2031"/><line style="stroke:#181818;stroke-width:1;" x1="196.0376" x2="196.0376" y1="453.2031" y2="475.2031"/><polygon fill="#181818" points="192.0376,465.2031,196.0376,475.2031,200.0376,465.2031,196.0376,469.2031" style="stroke:#181818;stroke-width:1;"/><line style="stroke:#181818;stroke-width:1;" x1="459.3676" x2="644.2991" y1="453.2031" y2="453.2031"/><line style="stroke:#181818;stroke-width:1;" x1="644.2991" x2="644.2991" y1="453.2031" y2="475.2031"/><polygon fill="#181818" points="640.2991,465.2031,644.2991,475.2031,648.2991,465.2031,644.2991,469.2031" style="stroke:#181818;stroke-width:1;"/><line style="stroke:#181818;stroke-width:1;" x1="196.0376" x2="196.0376" y1="743.5781" y2="854.6719"/><line style="stroke:#181818;stroke-width:1;" x1="196.0376" x2="408.1683" y1="854.6719" y2="854.6719"/><polygon fill="#181818" points="398.1683,850.6719,408.1683,854.6719,398.1683,858.6719,402.1683,854.6719" style="stroke:#181818;stroke-width:1;"/><line style="stroke:#181818;stroke-width:1;" x1="644.2991" x2="644.2991" y1="836.6719" y2="854.6719"/><line style="stroke:#181818;stroke-width:1;" x1="644.2991" x2="432.1683" y1="854.6719" y2="854.6719"/><polygon fill="#181818" points="442.1683,850.6719,432.1683,854.6719,442.1683,858.6719,438.1683,854.6719" style="stroke:#181818;stroke-width:1;"/><line style="stroke:#181818;stroke-width:1;" x1="420.1683" x2="420.1683" y1="381.5938" y2="441.2031"/><polygon fill="#181818" points="416.1683,431.2031,420.1683,441.2031,424.1683,431.2031,420.1683,435.2031" style="stroke:#181818;stroke-width:1;"/><line style="stroke:#181818;stroke-width:1;" x1="322.3104" x2="322.3104" y1="995.375" y2="1015.375"/><polygon fill="#181818" points="318.3104,1005.375,322.3104,1015.375,326.3104,1005.375,322.3104,1009.375" style="stroke:#181818;stroke-width:1;"/><line style="stroke:#181818;stroke-width:1;" x1="367.8153" x2="322.3104" y1="938.2813" y2="938.2813"/><line style="stroke:#181818;stroke-width:1;" x1="322.3104" x2="322.3104" y1="938.2813" y2="960.2813"/><polygon fill="#181818" points="318.3104,950.2813,322.3104,960.2813,326.3104,950.2813,322.3104,954.2813" style="stroke:#181818;stroke-width:1;"/><line style="stroke:#181818;stroke-width:1;" x1="472.5214" x2="518.0262" y1="938.2813" y2="938.2813"/><line style="stroke:#181818;stroke-width:1;" x1="518.0262" x2="518.0262" y1="938.2813" y2="960.2813"/><polygon fill="#181818" points="514.0262,950.2813,518.0262,960.2813,522.0262,950.2813,518.0262,954.2813" style="stroke:#181818;stroke-width:1;"/><line style="stroke:#181818;stroke-width:1;" x1="322.3104" x2="322.3104" y1="1050.4688" y2="1068.4688"/><line style="stroke:#181818;stroke-width:1;" x1="322.3104" x2="408.1683" y1="1068.4688" y2="1068.4688"/><polygon fill="#181818" points="398.1683,1064.4688,408.1683,1068.4688,398.1683,1072.4688,402.1683,1068.4688" style="stroke:#181818;stroke-width:1;"/><line style="stroke:#181818;stroke-width:1;" x1="518.0262" x2="518.0262" y1="995.375" y2="1068.4688"/><line style="stroke:#181818;stroke-width:1;" x1="518.0262" x2="432.1683" y1="1068.4688" y2="1068.4688"/><polygon fill="#181818" points="442.1683,1064.4688,432.1683,1068.4688,442.1683,1072.4688,438.1683,1068.4688" style="stroke:#181818;stroke-width:1;"/><line style="stroke:#181818;stroke-width:1;" x1="420.1683" x2="420.1683" y1="866.6719" y2="926.2813"/><polygon fill="#181818" points="416.1683,916.2813,420.1683,926.2813,424.1683,916.2813,420.1683,920.2813" style="stroke:#181818;stroke-width:1;"/><line style="stroke:#181818;stroke-width:1;" x1="367.8153" x2="318.1415" y1="1207.1719" y2="1207.1719"/><line style="stroke:#181818;stroke-width:1;" x1="318.1415" x2="318.1415" y1="1207.1719" y2="1229.1719"/><polygon fill="#181818" points="314.1415,1219.1719,318.1415,1229.1719,322.1415,1219.1719,318.1415,1223.1719" style="stroke:#181818;stroke-width:1;"/><line style="stroke:#181818;stroke-width:1;" x1="472.5214" x2="522.1952" y1="1207.1719" y2="1207.1719"/><line style="stroke:#181818;stroke-width:1;" x1="522.1952" x2="522.1952" y1="1207.1719" y2="1229.1719"/><polygon fill="#181818" points="518.1952,1219.1719,522.1952,1229.1719,526.1952,1219.1719,522.1952,1223.1719" style="stroke:#181818;stroke-width:1;"/><line style="stroke:#181818;stroke-width:1;" x1="318.1415" x2="318.1415" y1="1264.2656" y2="1282.2656"/><line style="stroke:#181818;stroke-width:1;" x1="318.1415" x2="408.1683" y1="1282.2656" y2="1282.2656"/><polygon fill="#181818" points="398.1683,1278.2656,408.1683,1282.2656,398.1683,1286.2656,402.1683,1282.2656" style="stroke:#181818;stroke-width:1;"/><line style="stroke:#181818;stroke-width:1;" x1="522.1952" x2="522.1952" y1="1264.2656" y2="1282.2656"/><line style="stroke:#181818;stroke-width:1;" x1="522.1952" x2="432.1683" y1="1282.2656" y2="1282.2656"/><polygon fill="#181818" points="442.1683,1278.2656,432.1683,1282.2656,442.1683,1286.2656,438.1683,1282.2656" style="stroke:#181818;stroke-width:1;"/><line style="stroke:#181818;stroke-width:1;" x1="420.1683" x2="420.1683" y1="1175.1719" y2="1195.1719"/><polygon fill="#181818" points="416.1683,1185.1719,420.1683,1195.1719,424.1683,1185.1719,420.1683,1189.1719" style="stroke:#181818;stroke-width:1;"/><line style="stroke:#181818;stroke-width:1;" x1="420.1683" x2="420.1683" y1="1080.4688" y2="1140.0781"/><polygon fill="#181818" points="416.1683,1130.0781,420.1683,1140.0781,424.1683,1130.0781,420.1683,1134.0781" style="stroke:#181818;stroke-width:1;"/><line style="stroke:#181818;stroke-width:1;" x1="420.1683" x2="420.1683" y1="1294.2656" y2="1326.2656"/><polygon fill="#181818" points="416.1683,1316.2656,420.1683,1326.2656,424.1683,1316.2656,420.1683,1320.2656" style="stroke:#181818;stroke-width:1;"/><!--SRC=[ZPHFZzem4CNlV8hH7geWhSHMUsiELO6Y7geMaUsXHsyo0MkDdTeJAbJrktTinoIR3Rkz8C3lpRpV-8yZOMasQ_XJaZGQRhutgBTAK6ti4LPAegOR-3C3-F33eGKjJd8l21sG0TPfM9lImG8UHEEWCcLxP4VkzGNg2Yp-Qj6HLoytctpsztepNkywxR14USABkROcPV6LPGtPhbkI3jWCNwMZET01DMJ-EsoK-JrdBLTR2QLWYHfhIGuAj2TP8YoKbt74niXO5fL3oBRhpN-OBPALo16V5T2Lh4U4Osiaz0I-YO__8lhMcXATatgVCXomV88TLgnUYVA00TddpuF0LmjEgOUgZwdgJtInKXXj5ppWXy46IwmKH_3DNEGRfF8mqAwCnSksGt5sXCSyYMCsDKpIbGs3IVrRgwCedOdXwA_05_UmRCidf83EmfxSkxWTAwvJ5sHH7BqlOXJth_9UTA_XXZtqSgo2WST-1uzdlXfJ4NhqpzOoGbOPq8QWz9dd-KNbo3JTZt6um1429U9yk39DE1p-osrW-IBc6Up5n2cUlgVn7hh6Q0uwTPBJOhUL3rPe5qgyWq_jtZyKmGDhGIB6ZOy69I6FDfsK_lhtXsLKlvz13pMmlSNrxB5BJr1gaR_1kvQkKU8S_ujnXdz1TdSBxs-1GnrRHR9Hw1zBD- -1afpZZmfur0Ly4RfYLo0RylWJymy0]--></g></svg>