<svg xmlns="http://www.w3.org/2000/svg" xmlns:xlink="http://www.w3.org/1999/xlink" contentStyleType="text/css" data-diagram-type="ACTIVITY" height="2017.7083px" preserveAspectRatio="none" style="width:2806px;height:2017px;" version="1.1" viewBox="0 0 2806 2017" width="2806.25px" zoomAndPan="magnify"><title>Detailed Plan Document List Orchestration</title><defs><linearGradient id="gw8bocqwjf34x0" x1="50%" x2="50%" y1="0%" y2="100%"><stop offset="0%" stop-color="#B8B8B8"/><stop offset="100%" stop-color="#999999"/></linearGradient><linearGradient id="gw8bocqwjf34x1" x1="50%" x2="50%" y1="0%" y2="100%"><stop offset="0%" stop-color="#7C9AB9"/><stop offset="100%" stop-color="#304D6D"/></linearGradient><linearGradient id="gw8bocqwjf34x2" x1="50%" x2="50%" y1="0%" y2="100%"><stop offset="0%" stop-color="#70B8F7"/><stop offset="100%" stop-color="#246BAA"/></linearGradient><linearGradient id="gw8bocqwjf34x3" x1="50%" x2="50%" y1="0%" y2="100%"><stop offset="0%" stop-color="#B8B8B8"/><stop offset="100%" stop-color="#6B6B6B"/></linearGradient></defs><g><rect fill="url(#gw8bocqwjf34x0)" height="48.2361" rx="4.1667" ry="4.1667" style="stroke:#6B6B6B;stroke-width:1.0417;" width="521.757" x="1140.7323" y="20.8333"/><text fill="#304D6D" font-family="Verdana" font-size="20.8333" font-weight="bold" lengthAdjust="spacing" textLength="498.8403" x="1152.1907" y="53.2369">Detailed Plan Document List Orchestration</text><rect fill="url(#gw8bocqwjf34x0)" height="25.6083" style="stroke:url(#gw8bocqwjf34x0);stroke-width:1.0417;" width="2771.9716" x="15.625" y="81.5694"/><rect fill="#C2F0FF" height="1924.4619" style="stroke:#C2F0FF;stroke-width:1.0417;" width="1155.3691" x="15.625" y="81.5694"/><ellipse cx="392.3398" cy="122.8027" fill="#3399F3" rx="10.4167" ry="10.4167" style="stroke:#304D6D;stroke-width:1.0417;"/><rect fill="url(#gw8bocqwjf34x1)" height="38.1083" rx="4.1667" ry="4.1667" style="stroke:#304D6D;stroke-width:1.0417;" width="198.5026" x="293.0885" y="154.0527"/><text fill="#FFFFFF" font-family="Verdana" font-size="12.5" lengthAdjust="spacing" textLength="175.5859" x="304.5469" y="178.0782">User navigates to Plan Docs</text><path d="M587.0888,202.5777 L587.0888,246.8068 L566.2554,250.9735 L587.0888,255.1402 L587.0888,299.3693 A0,0 0 0 0 587.0888,299.3693 L774.66,299.3693 A0,0 0 0 0 774.66,299.3693 L774.66,212.9944 L764.2433,202.5777 L587.0888,202.5777 A0,0 0 0 0 587.0888,202.5777" fill="url(#gw8bocqwjf34x2)" style="stroke:#246BAA;stroke-width:1.0417;"/><path d="M764.2433,202.5777 L764.2433,212.9944 L774.66,212.9944 L764.2433,202.5777" fill="url(#gw8bocqwjf34x2)" style="stroke:#246BAA;stroke-width:1.0417;"/><text fill="#FFFFFF" font-family="Verdana" font-size="12.5" lengthAdjust="spacing" textLength="155.2795" x="598.5471" y="225.5615">Checks for feature flags:</text><text fill="#FFFFFF" font-family="Verdana" font-size="12.5" lengthAdjust="spacing" textLength="107.5806" x="598.5471" y="240.7532">- `DenPlanDocs`</text><text fill="#FFFFFF" font-family="Verdana" font-size="12.5" lengthAdjust="spacing" textLength="108.3618" x="598.5471" y="255.9448">- `MedPlanDocs`</text><text fill="#FFFFFF" font-family="Verdana" font-size="12.5" lengthAdjust="spacing" textLength="120.0073" x="598.5471" y="271.1365">- `VisionPlanDocs`</text><text fill="#FFFFFF" font-family="Verdana" font-size="12.5" lengthAdjust="spacing" textLength="137.738" x="598.5471" y="286.3281">- `PlanDocsMsgAvail`</text><rect fill="url(#gw8bocqwjf34x1)" height="38.1083" rx="4.1667" ry="4.1667" style="stroke:#304D6D;stroke-width:1.0417;" width="347.8312" x="218.4242" y="231.9194"/><text fill="#FFFFFF" font-family="Verdana" font-size="12.5" lengthAdjust="spacing" textLength="29.6082" x="229.8826" y="255.9448">Calls</text><text fill="#FFFFFF" font-family="Verdana" font-size="12.5" font-weight="bold" lengthAdjust="spacing" textLength="91.272" x="263.8852" y="255.9448">Features API</text><text fill="#FFFFFF" font-family="Verdana" font-size="12.5" lengthAdjust="spacing" textLength="195.2454" x="359.5517" y="255.9448">with `membershipResourceId`</text><rect fill="url(#gw8bocqwjf34x1)" height="38.1083" rx="4.1667" ry="4.1667" style="stroke:#304D6D;stroke-width:1.0417;" width="223.1303" x="280.7747" y="438.0859"/><text fill="#FFFFFF" font-family="Verdana" font-size="12.5" lengthAdjust="spacing" textLength="200.2136" x="292.233" y="462.1114">Receives Features API response</text><polygon fill="url(#gw8bocqwjf34x3)" points="186.7195,497.0276,597.9602,497.0276,610.4602,509.8317,597.9602,522.6359,186.7195,522.6359,174.2195,509.8317,186.7195,497.0276" style="stroke:#6B6B6B;stroke-width:1.0417;"/><text fill="#FFFFFF" font-family="Verdana" font-size="12.5" lengthAdjust="spacing" textLength="400.824" x="191.9278" y="514.8031">PlanDocsMsgAvail is enabled OR no PlanDoc types are enabled?</text><text fill="#FFFFFF" font-family="Verdana" font-size="12.5" lengthAdjust="spacing" textLength="21.3562" x="147.655" y="501.9989">yes</text><text fill="#FFFFFF" font-family="Verdana" font-size="12.5" lengthAdjust="spacing" textLength="15.4968" x="615.6685" y="501.9989">no</text><rect fill="url(#gw8bocqwjf34x1)" height="38.1083" rx="4.1667" ry="4.1667" style="stroke:#304D6D;stroke-width:1.0417;" width="224.2839" x="21.875" y="543.4692"/><text fill="#FFFFFF" font-family="Verdana" font-size="12.5" lengthAdjust="spacing" textLength="201.3672" x="33.3333" y="567.4947">Displays "Special Messaging" UI</text><ellipse cx="134.0169" cy="629.0609" fill="none" rx="11.4583" ry="11.4583" style="stroke:#304D6D;stroke-width:1.0417;"/><ellipse cx="134.0169" cy="629.0609" fill="none" rx="6.25" ry="6.25" style="stroke:#304D6D;stroke-width:1.0417;"/><rect fill="url(#gw8bocqwjf34x1)" height="53.3" rx="4.1667" ry="4.1667" style="stroke:#304D6D;stroke-width:1.0417;" width="400.5351" x="450.3952" y="543.4692"/><text fill="#FFFFFF" font-family="Verdana" font-size="12.5" lengthAdjust="spacing" textLength="184.4604" x="461.8535" y="567.4947">Constructs request body with</text><text fill="#FFFFFF" font-family="Verdana" font-size="12.5" lengthAdjust="spacing" textLength="377.6184" x="461.8535" y="582.6864">`policyResourceId`, `membershipResourceId`, `dateAsOf`</text><rect fill="url(#gw8bocqwjf34x1)" height="53.3" rx="4.1667" ry="4.1667" style="stroke:#304D6D;stroke-width:1.0417;" width="232.3405" x="534.4925" y="632.7942"/><text fill="#FFFFFF" font-family="Verdana" font-size="12.5" lengthAdjust="spacing" textLength="144.8853" x="545.9508" y="656.8197">Sends POST request to</text><text fill="#FFFFFF" font-family="Verdana" font-size="12.5" font-weight="bold" lengthAdjust="spacing" textLength="209.4238" x="545.9508" y="672.0113">/v1/cvs/plan-documents/list</text><rect fill="url(#gw8bocqwjf34x1)" height="38.1083" rx="4.1667" ry="4.1667" style="stroke:#304D6D;stroke-width:1.0417;" width="192.7592" x="554.2831" y="1709.848"/><text fill="#FFFFFF" font-family="Verdana" font-size="12.5" lengthAdjust="spacing" textLength="169.8425" x="565.7415" y="1733.8735">Receives final list from BFF</text><polygon fill="url(#gw8bocqwjf34x3)" points="477.2781,1768.7897,824.0473,1768.7897,836.5473,1781.5938,824.0473,1794.398,477.2781,1794.398,464.7781,1781.5938,477.2781,1768.7897" style="stroke:#6B6B6B;stroke-width:1.0417;"/><text fill="#FFFFFF" font-family="Verdana" font-size="12.5" lengthAdjust="spacing" textLength="336.3525" x="482.4865" y="1786.5651">Response contains `reasonCode: "HHL Not signed"`?</text><text fill="#FFFFFF" font-family="Verdana" font-size="12.5" lengthAdjust="spacing" textLength="21.3562" x="438.2136" y="1773.761">yes</text><text fill="#FFFFFF" font-family="Verdana" font-size="12.5" lengthAdjust="spacing" textLength="15.4968" x="841.7557" y="1773.761">no</text><rect fill="url(#gw8bocqwjf34x1)" height="38.1083" rx="4.1667" ry="4.1667" style="stroke:#304D6D;stroke-width:1.0417;" width="276.1332" x="277.4089" y="1804.8147"/><text fill="#FFFFFF" font-family="Verdana" font-size="12.5" lengthAdjust="spacing" textLength="253.2166" x="288.8672" y="1828.8401">Displays "Special Messaging" UI for HHL</text><polygon fill="url(#gw8bocqwjf34x3)" points="804.6224,1804.8147,967.0776,1804.8147,979.5776,1817.6188,967.0776,1830.423,804.6224,1830.423,792.1224,1817.6188,804.6224,1804.8147" style="stroke:#6B6B6B;stroke-width:1.0417;"/><text fill="#FFFFFF" font-family="Verdana" font-size="12.5" lengthAdjust="spacing" textLength="152.0386" x="809.8307" y="1822.5901">Document list is empty?</text><text fill="#FFFFFF" font-family="Verdana" font-size="12.5" lengthAdjust="spacing" textLength="21.3562" x="765.5579" y="1809.786">yes</text><text fill="#FFFFFF" font-family="Verdana" font-size="12.5" lengthAdjust="spacing" textLength="15.4968" x="984.786" y="1809.786">no</text><rect fill="url(#gw8bocqwjf34x1)" height="38.1083" rx="4.1667" ry="4.1667" style="stroke:#304D6D;stroke-width:1.0417;" width="300.6816" x="584.7921" y="1840.8396"/><text fill="#FFFFFF" font-family="Verdana" font-size="12.5" lengthAdjust="spacing" textLength="277.7649" x="596.2504" y="1864.8651">Displays "No documents available" message</text><rect fill="url(#gw8bocqwjf34x1)" height="38.1083" rx="4.1667" ry="4.1667" style="stroke:#304D6D;stroke-width:1.0417;" width="260.5204" x="906.307" y="1840.8396"/><text fill="#FFFFFF" font-family="Verdana" font-size="12.5" lengthAdjust="spacing" textLength="237.6038" x="917.7653" y="1864.8651">Displays list of documents to the user</text><polygon fill="url(#gw8bocqwjf34x3)" points="885.85,1889.3646,898.35,1901.8646,885.85,1914.3646,873.35,1901.8646,885.85,1889.3646" style="stroke:#6B6B6B;stroke-width:1.0417;"/><polygon fill="url(#gw8bocqwjf34x3)" points="650.6627,1924.7813,663.1627,1937.2813,650.6627,1949.7813,638.1627,1937.2813,650.6627,1924.7813" style="stroke:#6B6B6B;stroke-width:1.0417;"/><ellipse cx="650.6627" cy="1982.073" fill="none" rx="11.4583" ry="11.4583" style="stroke:#304D6D;stroke-width:1.0417;"/><ellipse cx="650.6627" cy="1982.073" fill="none" rx="6.25" ry="6.25" style="stroke:#304D6D;stroke-width:1.0417;"/><line style="stroke:#3399F3;stroke-width:2.0833;" x1="15.625" x2="15.625" y1="81.5694" y2="2006.0313"/><rect fill="#C9FFC9" height="1924.4619" style="stroke:#C9FFC9;stroke-width:1.0417;" width="294.7591" x="1170.9941" y="81.5694"/><rect fill="url(#gw8bocqwjf34x1)" height="38.1083" rx="4.1667" ry="4.1667" style="stroke:#304D6D;stroke-width:1.0417;" width="129.5573" x="1254.6366" y="320.2026"/><text fill="#FFFFFF" font-family="Verdana" font-size="12.5" lengthAdjust="spacing" textLength="106.6406" x="1266.095" y="344.2281">Receives request</text><rect fill="url(#gw8bocqwjf34x1)" height="38.1083" rx="4.1667" ry="4.1667" style="stroke:#304D6D;stroke-width:1.0417;" width="284.3424" x="1177.2441" y="379.1443"/><text fill="#FFFFFF" font-family="Verdana" font-size="12.5" lengthAdjust="spacing" textLength="261.4258" x="1188.7024" y="403.1698">Returns enabled features for the member</text><line style="stroke:#3399F3;stroke-width:2.0833;" x1="1170.9941" x2="1170.9941" y1="81.5694" y2="2006.0313"/><rect fill="#C9FFC9" height="1924.4619" style="stroke:#C9FFC9;stroke-width:1.0417;" width="348.4151" x="1465.7532" y="81.5694"/><rect fill="url(#gw8bocqwjf34x1)" height="38.1083" rx="4.1667" ry="4.1667" style="stroke:#304D6D;stroke-width:1.0417;" width="233.2682" x="1524.3683" y="706.9275"/><text fill="#FFFFFF" font-family="Verdana" font-size="12.5" lengthAdjust="spacing" textLength="210.3516" x="1535.8266" y="730.953">Receives List Request from Client</text><rect fill="url(#gw8bocqwjf34x1)" height="53.3" rx="4.1667" ry="4.1667" style="stroke:#304D6D;stroke-width:1.0417;" width="217.4479" x="1532.2784" y="765.8691"/><text fill="#FFFFFF" font-family="Verdana" font-size="12.5" lengthAdjust="spacing" textLength="29.6082" x="1543.7368" y="789.8946">Calls</text><text fill="#FFFFFF" font-family="Verdana" font-size="12.5" font-weight="bold" lengthAdjust="spacing" textLength="113.4094" x="1577.7395" y="789.8946">Benefits Service</text><text fill="#FFFFFF" font-family="Verdana" font-size="12.5" lengthAdjust="spacing" textLength="194.5313" x="1543.7368" y="805.0863">`/plan-document-list/retrieve`</text><rect fill="url(#gw8bocqwjf34x1)" height="38.1083" rx="4.1667" ry="4.1667" style="stroke:#304D6D;stroke-width:1.0417;" width="239.8966" x="1521.0541" y="1474.0814"/><text fill="#FFFFFF" font-family="Verdana" font-size="12.5" lengthAdjust="spacing" textLength="216.98" x="1532.5124" y="1498.1069">Receives list from Benefits Service</text><rect fill="url(#gw8bocqwjf34x1)" height="38.1083" rx="4.1667" ry="4.1667" style="stroke:#304D6D;stroke-width:1.0417;" width="337.9985" x="1472.0032" y="1533.0231"/><text fill="#FFFFFF" font-family="Verdana" font-size="12.5" lengthAdjust="spacing" textLength="315.0818" x="1483.4615" y="1557.0485">Augments data (e.g., appends language to name)</text><rect fill="url(#gw8bocqwjf34x1)" height="38.1083" rx="4.1667" ry="4.1667" style="stroke:#304D6D;stroke-width:1.0417;" width="317.57" x="1482.2174" y="1591.9647"/><text fill="#FFFFFF" font-family="Verdana" font-size="12.5" lengthAdjust="spacing" textLength="294.6533" x="1493.6757" y="1615.9902">Transforms response to OpenPlatform contract</text><rect fill="url(#gw8bocqwjf34x1)" height="38.1083" rx="4.1667" ry="4.1667" style="stroke:#304D6D;stroke-width:1.0417;" width="284.6049" x="1498.7" y="1650.9064"/><text fill="#FFFFFF" font-family="Verdana" font-size="12.5" lengthAdjust="spacing" textLength="261.6882" x="1510.1583" y="1674.9318">Returns formatted document list to Client</text><line style="stroke:#3399F3;stroke-width:2.0833;" x1="1465.7532" x2="1465.7532" y1="81.5694" y2="2006.0313"/><rect fill="#C9FFC9" height="1924.4619" style="stroke:#C9FFC9;stroke-width:1.0417;" width="725.174" x="1814.1683" y="81.5694"/><rect fill="url(#gw8bocqwjf34x1)" height="38.1083" rx="4.1667" ry="4.1667" style="stroke:#304D6D;stroke-width:1.0417;" width="190.7572" x="1949.6053" y="840.0024"/><text fill="#FFFFFF" font-family="Verdana" font-size="12.5" lengthAdjust="spacing" textLength="167.8406" x="1961.0636" y="864.0279">Receives request from BFF</text><path d="M2168.5048,892.3899 L2168.5048,913.8316 L2147.6715,917.9983 L2168.5048,922.1649 L2168.5048,943.6066 A0,0 0 0 0 2168.5048,943.6066 L2534.1339,943.6066 A0,0 0 0 0 2534.1339,943.6066 L2534.1339,902.8066 L2523.7172,892.3899 L2168.5048,892.3899 A0,0 0 0 0 2168.5048,892.3899" fill="url(#gw8bocqwjf34x2)" style="stroke:#246BAA;stroke-width:1.0417;"/><path d="M2523.7172,892.3899 L2523.7172,902.8066 L2534.1339,902.8066 L2523.7172,892.3899" fill="url(#gw8bocqwjf34x2)" style="stroke:#246BAA;stroke-width:1.0417;"/><text fill="#FFFFFF" font-family="Verdana" font-size="12.5" lengthAdjust="spacing" textLength="333.3374" x="2179.9632" y="915.3737">Cache key includes `dateAsOf`, `policyResourceId`,</text><text fill="#FFFFFF" font-family="Verdana" font-size="12.5" lengthAdjust="spacing" textLength="330.0659" x="2179.9632" y="930.5654">and other attributes for Medicare/Commercial plans.</text><rect fill="url(#gw8bocqwjf34x1)" height="38.1083" rx="4.1667" ry="4.1667" style="stroke:#304D6D;stroke-width:1.0417;" width="205.3752" x="1942.2963" y="898.9441"/><text fill="#FFFFFF" font-family="Verdana" font-size="12.5" lengthAdjust="spacing" textLength="182.4585" x="1953.7547" y="922.9696">Derives composite cache key</text><rect fill="url(#gw8bocqwjf34x1)" height="38.1083" rx="4.1667" ry="4.1667" style="stroke:#304D6D;stroke-width:1.0417;" width="330.6376" x="1879.6651" y="964.4399"/><text fill="#FFFFFF" font-family="Verdana" font-size="12.5" lengthAdjust="spacing" textLength="44.5068" x="1891.1235" y="988.4654">Checks</text><text fill="#FFFFFF" font-family="Verdana" font-size="12.5" font-weight="bold" lengthAdjust="spacing" textLength="84.7351" x="1940.0248" y="988.4654">Redis Cache</text><text fill="#FFFFFF" font-family="Verdana" font-size="12.5" lengthAdjust="spacing" textLength="169.6899" x="2029.1545" y="988.4654">for `planDocListResponse`</text><polygon fill="url(#gw8bocqwjf34x3)" points="2006.2429,1023.3816,2083.725,1023.3816,2096.225,1036.1857,2083.725,1048.9899,2006.2429,1048.9899,1993.7429,1036.1857,2006.2429,1023.3816" style="stroke:#6B6B6B;stroke-width:1.0417;"/><text fill="#FFFFFF" font-family="Verdana" font-size="12.5" lengthAdjust="spacing" textLength="67.0654" x="2011.4512" y="1041.157">Cache Hit?</text><text fill="#FFFFFF" font-family="Verdana" font-size="12.5" lengthAdjust="spacing" textLength="21.3562" x="1967.1783" y="1028.3529">yes</text><text fill="#FFFFFF" font-family="Verdana" font-size="12.5" lengthAdjust="spacing" textLength="15.4968" x="2101.4333" y="1028.3529">no</text><rect fill="url(#gw8bocqwjf34x1)" height="38.1083" rx="4.1667" ry="4.1667" style="stroke:#304D6D;stroke-width:1.0417;" width="186.6496" x="1820.4183" y="1069.8232"/><text fill="#FFFFFF" font-family="Verdana" font-size="12.5" lengthAdjust="spacing" textLength="163.7329" x="1831.8766" y="1093.8487">Returns cached list to BFF</text><rect fill="url(#gw8bocqwjf34x1)" height="38.1083" rx="4.1667" ry="4.1667" style="stroke:#304D6D;stroke-width:1.0417;" width="184.5683" x="2083.9406" y="1069.8232"/><text fill="#FFFFFF" font-family="Verdana" font-size="12.5" lengthAdjust="spacing" textLength="29.6082" x="2095.399" y="1093.8487">Calls</text><text fill="#FFFFFF" font-family="Verdana" font-size="12.5" font-weight="bold" lengthAdjust="spacing" textLength="127.6489" x="2129.4017" y="1093.8487">Core Plan Doc API</text><rect fill="url(#gw8bocqwjf34x1)" height="38.1083" rx="4.1667" ry="4.1667" style="stroke:#304D6D;stroke-width:1.0417;" width="193.5893" x="2079.4301" y="1261.8398"/><text fill="#FFFFFF" font-family="Verdana" font-size="12.5" lengthAdjust="spacing" textLength="170.6726" x="2090.8885" y="1285.8653">Receives list from Core API</text><rect fill="url(#gw8bocqwjf34x1)" height="38.1083" rx="4.1667" ry="4.1667" style="stroke:#304D6D;stroke-width:1.0417;" width="296.6471" x="2027.9012" y="1320.7815"/><text fill="#FFFFFF" font-family="Verdana" font-size="12.5" lengthAdjust="spacing" textLength="145.9595" x="2039.3595" y="1344.8069">Caches the response in</text><text fill="#FFFFFF" font-family="Verdana" font-size="12.5" font-weight="bold" lengthAdjust="spacing" textLength="38.5071" x="2189.7135" y="1344.8069">Redis</text><text fill="#FFFFFF" font-family="Verdana" font-size="12.5" lengthAdjust="spacing" textLength="80.4749" x="2232.6152" y="1344.8069">(1-hour TTL)</text><rect fill="url(#gw8bocqwjf34x1)" height="38.1083" rx="4.1667" ry="4.1667" style="stroke:#304D6D;stroke-width:1.0417;" width="138.5783" x="2106.9356" y="1379.7231"/><text fill="#FFFFFF" font-family="Verdana" font-size="12.5" lengthAdjust="spacing" textLength="115.6616" x="2118.394" y="1403.7486">Returns list to BFF</text><polygon fill="url(#gw8bocqwjf34x3)" points="2044.9839,1428.2481,2057.4839,1440.7481,2044.9839,1453.2481,2032.4839,1440.7481,2044.9839,1428.2481" style="stroke:#6B6B6B;stroke-width:1.0417;"/><line style="stroke:#3399F3;stroke-width:2.0833;" x1="1814.1683" x2="1814.1683" y1="81.5694" y2="2006.0313"/><rect fill="#C9FFC9" height="1924.4619" style="stroke:#C9FFC9;stroke-width:1.0417;" width="241.8905" x="2539.3422" y="81.5694"/><rect fill="url(#gw8bocqwjf34x1)" height="38.1083" rx="4.1667" ry="4.1667" style="stroke:#304D6D;stroke-width:1.0417;" width="212.3393" x="2555.1595" y="1128.7649"/><text fill="#FFFFFF" font-family="Verdana" font-size="12.5" lengthAdjust="spacing" textLength="189.4226" x="2566.6178" y="1152.7903">Retrieves document metadata</text><rect fill="url(#gw8bocqwjf34x1)" height="53.3" rx="4.1667" ry="4.1667" style="stroke:#304D6D;stroke-width:1.0417;" width="231.4738" x="2545.5922" y="1187.7065"/><text fill="#FFFFFF" font-family="Verdana" font-size="12.5" lengthAdjust="spacing" textLength="177.0325" x="2557.0506" y="1211.732">Returns list, potentially with</text><text fill="#FFFFFF" font-family="Verdana" font-size="12.5" lengthAdjust="spacing" textLength="208.5571" x="2557.0506" y="1226.9236">`reasonCode: "HHL Not signed"`</text><line style="stroke:#3399F3;stroke-width:2.0833;" x1="2539.3422" x2="2539.3422" y1="81.5694" y2="2006.0313"/><line style="stroke:#3399F3;stroke-width:2.0833;" x1="2781.2327" x2="2781.2327" y1="81.5694" y2="2006.0313"/><line style="stroke:#446E9B;stroke-width:3.125;" x1="392.3398" x2="392.3398" y1="133.2194" y2="154.0527"/><polygon fill="#446E9B" points="388.1732,143.6361,392.3398,154.0527,396.5065,143.6361,392.3398,147.8027" style="stroke:#446E9B;stroke-width:1.0417;"/><line style="stroke:#446E9B;stroke-width:3.125;" x1="392.3398" x2="392.3398" y1="192.1611" y2="231.9194"/><polygon fill="#446E9B" points="388.1732,221.5027,392.3398,231.9194,396.5065,221.5027,392.3398,225.6694" style="stroke:#446E9B;stroke-width:1.0417;"/><line style="stroke:#446E9B;stroke-width:3.125;" x1="134.0169" x2="134.0169" y1="581.5776" y2="617.6025"/><polygon fill="#446E9B" points="129.8503,607.1859,134.0169,617.6025,138.1836,607.1859,134.0169,611.3525" style="stroke:#446E9B;stroke-width:1.0417;"/><line style="stroke:#446E9B;stroke-width:3.125;" x1="650.6627" x2="650.6627" y1="596.7692" y2="632.7942"/><polygon fill="#446E9B" points="646.4961,622.3775,650.6627,632.7942,654.8294,622.3775,650.6627,626.5442" style="stroke:#446E9B;stroke-width:1.0417;"/><line style="stroke:#446E9B;stroke-width:3.125;" x1="792.1224" x2="735.1329" y1="1817.6188" y2="1817.6188"/><line style="stroke:#446E9B;stroke-width:3.125;" x1="735.1329" x2="735.1329" y1="1817.6188" y2="1840.8396"/><polygon fill="#446E9B" points="730.9662,1830.423,735.1329,1840.8396,739.2995,1830.423,735.1329,1834.5896" style="stroke:#446E9B;stroke-width:1.0417;"/><line style="stroke:#446E9B;stroke-width:3.125;" x1="979.5776" x2="1036.5672" y1="1817.6188" y2="1817.6188"/><line style="stroke:#446E9B;stroke-width:3.125;" x1="1036.5672" x2="1036.5672" y1="1817.6188" y2="1840.8396"/><polygon fill="#446E9B" points="1032.4005,1830.423,1036.5672,1840.8396,1040.7338,1830.423,1036.5672,1834.5896" style="stroke:#446E9B;stroke-width:1.0417;"/><line style="stroke:#446E9B;stroke-width:3.125;" x1="735.1329" x2="735.1329" y1="1878.948" y2="1901.8646"/><line style="stroke:#446E9B;stroke-width:3.125;" x1="735.1329" x2="873.35" y1="1901.8646" y2="1901.8646"/><polygon fill="#446E9B" points="862.9333,1897.698,873.35,1901.8646,862.9333,1906.0313,867.1,1901.8646" style="stroke:#446E9B;stroke-width:1.0417;"/><line style="stroke:#446E9B;stroke-width:3.125;" x1="1036.5672" x2="1036.5672" y1="1878.948" y2="1901.8646"/><line style="stroke:#446E9B;stroke-width:3.125;" x1="1036.5672" x2="898.35" y1="1901.8646" y2="1901.8646"/><polygon fill="#446E9B" points="908.7667,1897.698,898.35,1901.8646,908.7667,1906.0313,904.6,1901.8646" style="stroke:#446E9B;stroke-width:1.0417;"/><line style="stroke:#446E9B;stroke-width:3.125;" x1="464.7781" x2="415.4755" y1="1781.5938" y2="1781.5938"/><line style="stroke:#446E9B;stroke-width:3.125;" x1="415.4755" x2="415.4755" y1="1781.5938" y2="1804.8147"/><polygon fill="#446E9B" points="411.3088,1794.398,415.4755,1804.8147,419.6421,1794.398,415.4755,1798.5647" style="stroke:#446E9B;stroke-width:1.0417;"/><line style="stroke:#446E9B;stroke-width:3.125;" x1="836.5473" x2="885.85" y1="1781.5938" y2="1781.5938"/><line style="stroke:#446E9B;stroke-width:3.125;" x1="885.85" x2="885.85" y1="1781.5938" y2="1804.8147"/><polygon fill="#446E9B" points="881.6833,1794.398,885.85,1804.8147,890.0167,1794.398,885.85,1798.5647" style="stroke:#446E9B;stroke-width:1.0417;"/><line style="stroke:#446E9B;stroke-width:3.125;" x1="415.4755" x2="415.4755" y1="1842.923" y2="1937.2813"/><line style="stroke:#446E9B;stroke-width:3.125;" x1="415.4755" x2="638.1627" y1="1937.2813" y2="1937.2813"/><polygon fill="#446E9B" points="627.7461,1933.1146,638.1627,1937.2813,627.7461,1941.448,631.9127,1937.2813" style="stroke:#446E9B;stroke-width:1.0417;"/><line style="stroke:#446E9B;stroke-width:3.125;" x1="885.85" x2="885.85" y1="1914.3646" y2="1937.2813"/><line style="stroke:#446E9B;stroke-width:3.125;" x1="885.85" x2="663.1627" y1="1937.2813" y2="1937.2813"/><polygon fill="#446E9B" points="673.5794,1933.1146,663.1627,1937.2813,673.5794,1941.448,669.4127,1937.2813" style="stroke:#446E9B;stroke-width:1.0417;"/><line style="stroke:#446E9B;stroke-width:3.125;" x1="650.6627" x2="650.6627" y1="1747.9563" y2="1768.7897"/><polygon fill="#446E9B" points="646.4961,1758.373,650.6627,1768.7897,654.8294,1758.373,650.6627,1762.5397" style="stroke:#446E9B;stroke-width:1.0417;"/><line style="stroke:#446E9B;stroke-width:3.125;" x1="650.6627" x2="650.6627" y1="1949.7813" y2="1970.6146"/><polygon fill="#446E9B" points="646.4961,1960.198,650.6627,1970.6146,654.8294,1960.198,650.6627,1964.3646" style="stroke:#446E9B;stroke-width:1.0417;"/><line style="stroke:#446E9B;stroke-width:3.125;" x1="174.2195" x2="134.0169" y1="509.8317" y2="509.8317"/><line style="stroke:#446E9B;stroke-width:3.125;" x1="134.0169" x2="134.0169" y1="509.8317" y2="543.4692"/><polygon fill="#446E9B" points="129.8503,533.0526,134.0169,543.4692,138.1836,533.0526,134.0169,537.2192" style="stroke:#446E9B;stroke-width:1.0417;"/><line style="stroke:#446E9B;stroke-width:3.125;" x1="610.4602" x2="650.6627" y1="509.8317" y2="509.8317"/><line style="stroke:#446E9B;stroke-width:3.125;" x1="650.6627" x2="650.6627" y1="509.8317" y2="543.4692"/><polygon fill="#446E9B" points="646.4961,533.0526,650.6627,543.4692,654.8294,533.0526,650.6627,537.2192" style="stroke:#446E9B;stroke-width:1.0417;"/><line style="stroke:#446E9B;stroke-width:3.125;" x1="392.3398" x2="392.3398" y1="476.1943" y2="497.0276"/><polygon fill="#446E9B" points="388.1732,486.6109,392.3398,497.0276,396.5065,486.6109,392.3398,490.7776" style="stroke:#446E9B;stroke-width:1.0417;"/><line style="stroke:#446E9B;stroke-width:3.125;" x1="1319.4153" x2="1319.4153" y1="358.311" y2="379.1443"/><polygon fill="#446E9B" points="1315.2486,368.7276,1319.4153,379.1443,1323.5819,368.7276,1319.4153,372.8943" style="stroke:#446E9B;stroke-width:1.0417;"/><line style="stroke:#446E9B;stroke-width:3.125;" x1="1641.0024" x2="1641.0024" y1="745.0358" y2="765.8691"/><polygon fill="#446E9B" points="1636.8357,755.4525,1641.0024,765.8691,1645.1691,755.4525,1641.0024,759.6191" style="stroke:#446E9B;stroke-width:1.0417;"/><line style="stroke:#446E9B;stroke-width:3.125;" x1="1641.0024" x2="1641.0024" y1="1512.1897" y2="1533.0231"/><polygon fill="#446E9B" points="1636.8357,1522.6064,1641.0024,1533.0231,1645.1691,1522.6064,1641.0024,1526.7731" style="stroke:#446E9B;stroke-width:1.0417;"/><line style="stroke:#446E9B;stroke-width:3.125;" x1="1641.0024" x2="1641.0024" y1="1571.1314" y2="1591.9647"/><polygon fill="#446E9B" points="1636.8357,1581.5481,1641.0024,1591.9647,1645.1691,1581.5481,1641.0024,1585.7147" style="stroke:#446E9B;stroke-width:1.0417;"/><line style="stroke:#446E9B;stroke-width:3.125;" x1="1641.0024" x2="1641.0024" y1="1630.073" y2="1650.9064"/><polygon fill="#446E9B" points="1636.8357,1640.4897,1641.0024,1650.9064,1645.1691,1640.4897,1641.0024,1644.6564" style="stroke:#446E9B;stroke-width:1.0417;"/><line style="stroke:#446E9B;stroke-width:3.125;" x1="2044.9839" x2="2044.9839" y1="878.1108" y2="898.9441"/><polygon fill="#446E9B" points="2040.8173,888.5274,2044.9839,898.9441,2049.1506,888.5274,2044.9839,892.6941" style="stroke:#446E9B;stroke-width:1.0417;"/><line style="stroke:#446E9B;stroke-width:3.125;" x1="2044.9839" x2="2044.9839" y1="937.0524" y2="964.4399"/><polygon fill="#446E9B" points="2040.8173,954.0232,2044.9839,964.4399,2049.1506,954.0232,2044.9839,958.1899" style="stroke:#446E9B;stroke-width:1.0417;"/><line style="stroke:#446E9B;stroke-width:3.125;" x1="2176.2248" x2="2176.2248" y1="1299.9481" y2="1320.7815"/><polygon fill="#446E9B" points="2172.0581,1310.3648,2176.2248,1320.7815,2180.3914,1310.3648,2176.2248,1314.5315" style="stroke:#446E9B;stroke-width:1.0417;"/><line style="stroke:#446E9B;stroke-width:3.125;" x1="2176.2248" x2="2176.2248" y1="1358.8898" y2="1379.7231"/><polygon fill="#446E9B" points="2172.0581,1369.3064,2176.2248,1379.7231,2180.3914,1369.3064,2176.2248,1373.4731" style="stroke:#446E9B;stroke-width:1.0417;"/><line style="stroke:#446E9B;stroke-width:3.125;" x1="1993.7429" x2="1913.7431" y1="1036.1857" y2="1036.1857"/><line style="stroke:#446E9B;stroke-width:3.125;" x1="1913.7431" x2="1913.7431" y1="1036.1857" y2="1069.8232"/><polygon fill="#446E9B" points="1909.5764,1059.4065,1913.7431,1069.8232,1917.9097,1059.4065,1913.7431,1063.5732" style="stroke:#446E9B;stroke-width:1.0417;"/><line style="stroke:#446E9B;stroke-width:3.125;" x1="2096.225" x2="2176.2248" y1="1036.1857" y2="1036.1857"/><line style="stroke:#446E9B;stroke-width:3.125;" x1="2176.2248" x2="2176.2248" y1="1036.1857" y2="1069.8232"/><polygon fill="#446E9B" points="2172.0581,1059.4065,2176.2248,1069.8232,2180.3914,1059.4065,2176.2248,1063.5732" style="stroke:#446E9B;stroke-width:1.0417;"/><line style="stroke:#446E9B;stroke-width:3.125;" x1="1913.7431" x2="1913.7431" y1="1107.9315" y2="1440.7481"/><line style="stroke:#446E9B;stroke-width:3.125;" x1="1913.7431" x2="2032.4839" y1="1440.7481" y2="1440.7481"/><polygon fill="#446E9B" points="2022.0673,1436.5814,2032.4839,1440.7481,2022.0673,1444.9148,2026.2339,1440.7481" style="stroke:#446E9B;stroke-width:1.0417;"/><line style="stroke:#446E9B;stroke-width:3.125;" x1="2176.2248" x2="2176.2248" y1="1417.8314" y2="1440.7481"/><line style="stroke:#446E9B;stroke-width:3.125;" x1="2176.2248" x2="2057.4839" y1="1440.7481" y2="1440.7481"/><polygon fill="#446E9B" points="2067.9006,1436.5814,2057.4839,1440.7481,2067.9006,1444.9148,2063.7339,1440.7481" style="stroke:#446E9B;stroke-width:1.0417;"/><line style="stroke:#446E9B;stroke-width:3.125;" x1="2044.9839" x2="2044.9839" y1="1002.5482" y2="1023.3816"/><polygon fill="#446E9B" points="2040.8173,1012.9649,2044.9839,1023.3816,2049.1506,1012.9649,2044.9839,1017.1316" style="stroke:#446E9B;stroke-width:1.0417;"/><line style="stroke:#446E9B;stroke-width:3.125;" x1="2661.3291" x2="2661.3291" y1="1166.8732" y2="1187.7065"/><polygon fill="#446E9B" points="2657.1625,1177.2898,2661.3291,1187.7065,2665.4958,1177.2898,2661.3291,1181.4565" style="stroke:#446E9B;stroke-width:1.0417;"/><line style="stroke:#446E9B;stroke-width:3.125;" x1="392.3398" x2="392.3398" y1="270.0277" y2="302.9277"/><line style="stroke:#446E9B;stroke-width:3.125;" x1="392.3398" x2="1319.4153" y1="302.9277" y2="302.9277"/><line style="stroke:#446E9B;stroke-width:3.125;" x1="1319.4153" x2="1319.4153" y1="302.9277" y2="320.2026"/><polygon fill="#446E9B" points="1315.2486,309.786,1319.4153,320.2026,1323.5819,309.786,1319.4153,313.9526" style="stroke:#446E9B;stroke-width:1.0417;"/><line style="stroke:#446E9B;stroke-width:3.125;" x1="1319.4153" x2="1319.4153" y1="417.2526" y2="422.4609"/><line style="stroke:#446E9B;stroke-width:3.125;" x1="1319.4153" x2="392.3398" y1="422.4609" y2="422.4609"/><line style="stroke:#446E9B;stroke-width:3.125;" x1="392.3398" x2="392.3398" y1="422.4609" y2="438.0859"/><polygon fill="#446E9B" points="388.1732,427.6693,392.3398,438.0859,396.5065,427.6693,392.3398,431.8359" style="stroke:#446E9B;stroke-width:1.0417;"/><line style="stroke:#446E9B;stroke-width:3.125;" x1="650.6627" x2="650.6627" y1="686.0942" y2="691.3025"/><line style="stroke:#446E9B;stroke-width:3.125;" x1="650.6627" x2="1641.0024" y1="691.3025" y2="691.3025"/><line style="stroke:#446E9B;stroke-width:3.125;" x1="1641.0024" x2="1641.0024" y1="691.3025" y2="706.9275"/><polygon fill="#446E9B" points="1636.8357,696.5108,1641.0024,706.9275,1645.1691,696.5108,1641.0024,700.6775" style="stroke:#446E9B;stroke-width:1.0417;"/><line style="stroke:#446E9B;stroke-width:3.125;" x1="1641.0024" x2="1641.0024" y1="819.1691" y2="824.3774"/><line style="stroke:#446E9B;stroke-width:3.125;" x1="1641.0024" x2="2044.9839" y1="824.3774" y2="824.3774"/><line style="stroke:#446E9B;stroke-width:3.125;" x1="2044.9839" x2="2044.9839" y1="824.3774" y2="840.0024"/><polygon fill="#446E9B" points="2040.8173,829.5858,2044.9839,840.0024,2049.1506,829.5858,2044.9839,833.7524" style="stroke:#446E9B;stroke-width:1.0417;"/><line style="stroke:#446E9B;stroke-width:3.125;" x1="2176.2248" x2="2176.2248" y1="1107.9315" y2="1113.1399"/><line style="stroke:#446E9B;stroke-width:3.125;" x1="2176.2248" x2="2661.3291" y1="1113.1399" y2="1113.1399"/><line style="stroke:#446E9B;stroke-width:3.125;" x1="2661.3291" x2="2661.3291" y1="1113.1399" y2="1128.7649"/><polygon fill="#446E9B" points="2657.1625,1118.3482,2661.3291,1128.7649,2665.4958,1118.3482,2661.3291,1122.5149" style="stroke:#446E9B;stroke-width:1.0417;"/><line style="stroke:#446E9B;stroke-width:3.125;" x1="2661.3291" x2="2661.3291" y1="1241.0065" y2="1246.2148"/><line style="stroke:#446E9B;stroke-width:3.125;" x1="2661.3291" x2="2176.2248" y1="1246.2148" y2="1246.2148"/><line style="stroke:#446E9B;stroke-width:3.125;" x1="2176.2248" x2="2176.2248" y1="1246.2148" y2="1261.8398"/><polygon fill="#446E9B" points="2172.0581,1251.4231,2176.2248,1261.8398,2180.3914,1251.4231,2176.2248,1255.5898" style="stroke:#446E9B;stroke-width:1.0417;"/><line style="stroke:#446E9B;stroke-width:3.125;" x1="2044.9839" x2="2044.9839" y1="1453.2481" y2="1458.4564"/><line style="stroke:#446E9B;stroke-width:3.125;" x1="2044.9839" x2="1641.0024" y1="1458.4564" y2="1458.4564"/><line style="stroke:#446E9B;stroke-width:3.125;" x1="1641.0024" x2="1641.0024" y1="1458.4564" y2="1474.0814"/><polygon fill="#446E9B" points="1636.8357,1463.6648,1641.0024,1474.0814,1645.1691,1463.6648,1641.0024,1467.8314" style="stroke:#446E9B;stroke-width:1.0417;"/><line style="stroke:#446E9B;stroke-width:3.125;" x1="1641.0024" x2="1641.0024" y1="1689.0147" y2="1694.223"/><line style="stroke:#446E9B;stroke-width:3.125;" x1="1641.0024" x2="650.6627" y1="1694.223" y2="1694.223"/><line style="stroke:#446E9B;stroke-width:3.125;" x1="650.6627" x2="650.6627" y1="1694.223" y2="1709.848"/><polygon fill="#446E9B" points="646.4961,1699.4314,650.6627,1709.848,654.8294,1699.4314,650.6627,1703.598" style="stroke:#446E9B;stroke-width:1.0417;"/><text fill="#304D6D" font-family="Verdana" font-size="12.5" lengthAdjust="spacing" textLength="126.123" x="530.248" y="99.3449">OpenPlatform Client</text><text fill="#304D6D" font-family="Verdana" font-size="12.5" lengthAdjust="spacing" textLength="80.0049" x="1278.3712" y="99.3449">Features API</text><text fill="#304D6D" font-family="Verdana" font-size="12.5" lengthAdjust="spacing" textLength="208.1055" x="1535.908" y="99.3449">OpenPlatform BFF (Orchestrator)</text><text fill="#304D6D" font-family="Verdana" font-size="12.5" lengthAdjust="spacing" textLength="101.1414" x="2126.1846" y="99.3449">Benefits Service</text><text fill="#304D6D" font-family="Verdana" font-size="12.5" lengthAdjust="spacing" textLength="113.739" x="2603.418" y="99.3449">Core Plan Doc API</text><!--SRC=[fLLDRzim3BtxLt3P9JNQ1hl6Xo5BKBH0snHfjjCELcpQ4MfBdYXd290VFqgE7JlfFe2T34iY-TxZe_J1Rh54e4eaM8XD45Xf2uG5MY4BJE6b40eMEgbBL1OU9LbOccIBP8smKgiWE7oSLLKX4_zxM5QeECPcsfGmBoH77GAomjXW-fNGW18xcGkB15PtsIaAfdDH50HXU8V2reRtPoyFOGW_fTr2N6AvGKDRMQsGT6qIV4ZZA53Q8XYPRsq0CDzYyaR0bI5hSa1MY9ocl7S3yS83KwvQtAmyONgsyaqIapXRR7-VA9_jM9KuG9M2AytSrvXibIvqlZ_qWH-2wGeJb3l-DVYZPhqYjyG7504giN7YPcs4myoDW8Pcz2-QdlBtwt8nghGYZ0APmVWSEiXJyUMAES3n1DXznHa4QtRS_tpb42aOxv6kM8ZfGb9LY3t1wBN2H8e2df18v5Bb8_Zw4F4PiheAi224iT8-QCvOhAaJsya06vtkVLU_gxZIJ7BVQ-drRrhDwocRPaRBB7QLfg_S0uANvUkwIsprTnM6azsdIRAZ2MDLD-dHk3GfsBbXw487FHj8- -Nk3iOdTsjpTN2bEg6z-rV7QfdHRJCyeDQ-Nr1X9fdlAvgTJ30CcUSGpOq3Cp5eZSGTnXUWpbCCKPW-08Rigo_G-Cr4bvKcoLEH2EO1RxXt-uCvuKbfzq2gfAXJ3Zp9or9VjiM72RQzPbCO49QnRsfxj2uF4dlLu6IkonADDuTZJBSSrmsB4waPqJ1SSGGrE7Z6NOwuQfpeH5uTJUobSJvk0DzBU-vABqmpL9vm2avRTxKSbUcxiTUbkMQdjxTFSzD4_iIW4HUd3br9tpg2jgKykLQmX28QWd9ehg5Y-igoAaNdV8E2j9hh5ASmkhz_X6TjWMIkC1t5xq1vpnDzLtZQZISTQCOQjOoTd_tjqjuDtFMs1Ip- -DFDbliCw_NZrJle-rggL6R_DK4dbETyl8jdTUwd5PoICCRR_FOQH5NvMUSsvBN8qG5IeaGFThesR3DNcqxq-C00LQ8LeqcQEMsvkHssCJkcws5BzpJL_t0Fz-bbKh7pUoGRtPo3MqjxC48oW3zRu1sZ_-K2zbF4QIvTx-el1YJTCr1MTdzPPL3dMNVYyDlW7X3tD8pOxAukDcuPrkh7-r8ww-LWSPqHQtAFd0y-MghzDY-8__a5]--></g></svg>