<svg xmlns="http://www.w3.org/2000/svg" xmlns:xlink="http://www.w3.org/1999/xlink" contentStyleType="text/css" data-diagram-type="ACTIVITY" height="1340.625px" preserveAspectRatio="none" style="width:1502px;height:1340px;" version="1.1" viewBox="0 0 1502 1340" width="1502.0833px" zoomAndPan="magnify"><title>Plan Documents Orchestration (Option 1)</title><defs><linearGradient id="gb3td598dnghr0" x1="50%" x2="50%" y1="0%" y2="100%"><stop offset="0%" stop-color="#B8B8B8"/><stop offset="100%" stop-color="#999999"/></linearGradient><linearGradient id="gb3td598dnghr1" x1="50%" x2="50%" y1="0%" y2="100%"><stop offset="0%" stop-color="#7C9AB9"/><stop offset="100%" stop-color="#304D6D"/></linearGradient><linearGradient id="gb3td598dnghr2" x1="50%" x2="50%" y1="0%" y2="100%"><stop offset="0%" stop-color="#B8B8B8"/><stop offset="100%" stop-color="#6B6B6B"/></linearGradient><linearGradient id="gb3td598dnghr3" x1="50%" x2="50%" y1="0%" y2="100%"><stop offset="0%" stop-color="#70B8F7"/><stop offset="100%" stop-color="#246BAA"/></linearGradient></defs><g><rect fill="url(#gb3td598dnghr0)" height="48.2361" rx="4.1667" ry="4.1667" style="stroke:#6B6B6B;stroke-width:1.0417;" width="510.1807" x="494.6091" y="20.8333"/><text fill="#304D6D" font-family="Verdana" font-size="20.8333" font-weight="bold" lengthAdjust="spacing" textLength="487.264" x="506.0674" y="53.2369">Plan Documents Orchestration (Option 1)</text><rect fill="url(#gb3td598dnghr0)" height="25.6083" style="stroke:url(#gb3td598dnghr0);stroke-width:1.0417;" width="1468.1488" x="15.625" y="81.5694"/><rect fill="#C2F0FF" height="1247.26" style="stroke:#C2F0FF;stroke-width:1.0417;" width="871.993" x="15.625" y="81.5694"/><ellipse cx="473.2422" cy="122.8027" fill="#3399F3" rx="10.4167" ry="10.4167" style="stroke:#304D6D;stroke-width:1.0417;"/><rect fill="url(#gb3td598dnghr1)" height="38.1083" rx="4.1667" ry="4.1667" style="stroke:#304D6D;stroke-width:1.0417;" width="198.5026" x="373.9909" y="154.0527"/><text fill="#FFFFFF" font-family="Verdana" font-size="12.5" lengthAdjust="spacing" textLength="175.5859" x="385.4492" y="178.0782">User navigates to Plan Docs</text><rect fill="url(#gb3td598dnghr1)" height="38.1083" rx="4.1667" ry="4.1667" style="stroke:#304D6D;stroke-width:1.0417;" width="265.5924" x="340.446" y="212.9944"/><text fill="#FFFFFF" font-family="Verdana" font-size="12.5" lengthAdjust="spacing" textLength="29.6082" x="351.9043" y="237.0199">Calls</text><text fill="#FFFFFF" font-family="Verdana" font-size="12.5" font-weight="bold" lengthAdjust="spacing" textLength="91.272" x="385.907" y="237.0199">Features API</text><text fill="#FFFFFF" font-family="Verdana" font-size="12.5" lengthAdjust="spacing" textLength="113.0066" x="481.5735" y="237.0199">to check eligibility</text><polygon fill="url(#gb3td598dnghr2)" points="387.0188,271.936,559.4655,271.936,571.9655,284.7402,559.4655,297.5444,387.0188,297.5444,374.5188,284.7402,387.0188,271.936" style="stroke:#6B6B6B;stroke-width:1.0417;"/><text fill="#FFFFFF" font-family="Verdana" font-size="12.5" lengthAdjust="spacing" textLength="162.03" x="392.2272" y="289.7115">Is eligible for documents?</text><text fill="#FFFFFF" font-family="Verdana" font-size="12.5" lengthAdjust="spacing" textLength="21.3562" x="347.9543" y="276.9073">yes</text><text fill="#FFFFFF" font-family="Verdana" font-size="12.5" lengthAdjust="spacing" textLength="15.4968" x="577.1739" y="276.9073">no</text><rect fill="url(#gb3td598dnghr1)" height="38.1083" rx="4.1667" ry="4.1667" style="stroke:#304D6D;stroke-width:1.0417;" width="229.2826" x="78.3071" y="318.3777"/><text fill="#FFFFFF" font-family="Verdana" font-size="12.5" lengthAdjust="spacing" textLength="206.366" x="89.7654" y="342.4032">Sends request for Document List</text><rect fill="url(#gb3td598dnghr1)" height="38.1083" rx="4.1667" ry="4.1667" style="stroke:#304D6D;stroke-width:1.0417;" width="274.1618" x="55.8675" y="720.2942"/><text fill="#FFFFFF" font-family="Verdana" font-size="12.5" lengthAdjust="spacing" textLength="251.2451" x="67.3258" y="744.3197">Receives and displays the document list</text><rect fill="url(#gb3td598dnghr1)" height="38.1083" rx="4.1667" ry="4.1667" style="stroke:#304D6D;stroke-width:1.0417;" width="213.7553" x="86.0708" y="836.3983"/><text fill="#FFFFFF" font-family="Verdana" font-size="12.5" lengthAdjust="spacing" textLength="190.8386" x="97.5291" y="860.4238">Sends request for specific PDF</text><rect fill="url(#gb3td598dnghr1)" height="38.1083" rx="4.1667" ry="4.1667" style="stroke:#304D6D;stroke-width:1.0417;" width="213.5844" x="86.1562" y="1165.7211"/><text fill="#FFFFFF" font-family="Verdana" font-size="12.5" lengthAdjust="spacing" textLength="190.6677" x="97.6145" y="1189.7466">Receives and displays the PDF</text><polygon fill="url(#gb3td598dnghr2)" points="82.3507,779.2358,303.5461,779.2358,316.0461,792.04,303.5461,804.8442,82.3507,804.8442,69.8507,792.04,82.3507,779.2358" style="stroke:#6B6B6B;stroke-width:1.0417;"/><text fill="#FFFFFF" font-family="Verdana" font-size="12.5" lengthAdjust="spacing" textLength="21.3562" x="202.3234" y="822.6196">yes</text><text fill="#FFFFFF" font-family="Verdana" font-size="12.5" lengthAdjust="spacing" textLength="210.7788" x="87.559" y="797.0113">User selects a document to view?</text><text fill="#FFFFFF" font-family="Verdana" font-size="12.5" lengthAdjust="spacing" textLength="15.4968" x="49.1455" y="784.2072">no</text><polygon fill="url(#gb3td598dnghr2)" points="192.9484,1224.6628,205.4484,1237.1628,192.9484,1249.6628,180.4484,1237.1628,192.9484,1224.6628" style="stroke:#6B6B6B;stroke-width:1.0417;"/><rect fill="url(#gb3td598dnghr1)" height="53.3" rx="4.1667" ry="4.1667" style="stroke:#304D6D;stroke-width:1.0417;" width="266.9963" x="616.4551" y="318.3777"/><text fill="#FFFFFF" font-family="Verdana" font-size="12.5" lengthAdjust="spacing" textLength="244.0796" x="627.9134" y="342.4032">Displays a special message to the user</text><text fill="#FFFFFF" font-family="Verdana" font-size="12.5" lengthAdjust="spacing" textLength="206.0181" x="627.9134" y="357.5948">(e.g., "No documents available")</text><polygon fill="url(#gb3td598dnghr2)" points="473.2422,1260.0794,485.7422,1272.5794,473.2422,1285.0794,460.7422,1272.5794,473.2422,1260.0794" style="stroke:#6B6B6B;stroke-width:1.0417;"/><ellipse cx="473.2422" cy="1317.3711" fill="none" rx="11.4583" ry="11.4583" style="stroke:#304D6D;stroke-width:1.0417;"/><ellipse cx="473.2422" cy="1317.3711" fill="none" rx="6.25" ry="6.25" style="stroke:#304D6D;stroke-width:1.0417;"/><line style="stroke:#3399F3;stroke-width:2.0833;" x1="15.625" x2="15.625" y1="81.5694" y2="1328.8294"/><rect fill="#C9FFC9" height="1247.26" style="stroke:#C9FFC9;stroke-width:1.0417;" width="589.7919" x="887.618" y="81.5694"/><rect fill="url(#gb3td598dnghr1)" height="38.1083" rx="4.1667" ry="4.1667" style="stroke:#304D6D;stroke-width:1.0417;" width="233.2682" x="924.349" y="392.511"/><text fill="#FFFFFF" font-family="Verdana" font-size="12.5" lengthAdjust="spacing" textLength="210.3516" x="935.8073" y="416.5365">Receives List Request from Client</text><path d="M1169.1823,441.036 L1169.1823,477.6693 L1148.349,481.8359 L1169.1823,486.0026 L1169.1823,522.6359 A0,0 0 0 0 1169.1823,522.6359 L1466.8549,522.6359 A0,0 0 0 0 1466.8549,522.6359 L1466.8549,451.4526 L1456.4382,441.036 L1169.1823,441.036 A0,0 0 0 0 1169.1823,441.036" fill="url(#gb3td598dnghr3)" style="stroke:#246BAA;stroke-width:1.0417;"/><path d="M1456.4382,441.036 L1456.4382,451.4526 L1466.8549,451.4526 L1456.4382,441.036" fill="url(#gb3td598dnghr3)" style="stroke:#246BAA;stroke-width:1.0417;"/><text fill="#FFFFFF" font-family="Verdana" font-size="12.5" font-weight="bold" lengthAdjust="spacing" textLength="265.3809" x="1180.6407" y="464.0198">Benefits Service Logic (List Retrieval)</text><text fill="#FFFFFF" font-family="Verdana" font-size="12.5" lengthAdjust="spacing" textLength="54.8828" x="1180.6407" y="479.2114">1. Check</text><text fill="#FFFFFF" font-family="Verdana" font-size="12.5" font-weight="bold" lengthAdjust="spacing" textLength="84.7351" x="1239.918" y="479.2114">Redis Cache</text><text fill="#FFFFFF" font-family="Verdana" font-size="12.5" lengthAdjust="spacing" textLength="69.2322" x="1329.0476" y="479.2114">for the list.</text><text fill="#FFFFFF" font-family="Verdana" font-size="12.5" lengthAdjust="spacing" textLength="137.7502" x="1180.6407" y="494.4031">2. On cache miss, call</text><text fill="#FFFFFF" font-family="Verdana" font-size="12.5" font-weight="bold" lengthAdjust="spacing" textLength="62.1033" x="1322.7854" y="494.4031">Core API</text><text fill="#FFFFFF" font-family="Verdana" font-size="12.5" lengthAdjust="spacing" textLength="4.5471" x="1384.8887" y="494.4031">.</text><text fill="#FFFFFF" font-family="Verdana" font-size="12.5" lengthAdjust="spacing" textLength="143.811" x="1180.6407" y="509.5947">3. Store the new list in</text><text fill="#FFFFFF" font-family="Verdana" font-size="12.5" font-weight="bold" lengthAdjust="spacing" textLength="84.7351" x="1328.8462" y="509.5947">Redis Cache</text><text fill="#FFFFFF" font-family="Verdana" font-size="12.5" lengthAdjust="spacing" textLength="4.5471" x="1413.5813" y="509.5947">.</text><rect fill="url(#gb3td598dnghr1)" height="38.1083" rx="4.1667" ry="4.1667" style="stroke:#304D6D;stroke-width:1.0417;" width="214.7319" x="933.6171" y="462.7818"/><text fill="#FFFFFF" font-family="Verdana" font-size="12.5" lengthAdjust="spacing" textLength="29.6082" x="945.0755" y="486.8073">Calls</text><text fill="#FFFFFF" font-family="Verdana" font-size="12.5" font-weight="bold" lengthAdjust="spacing" textLength="113.4094" x="979.0782" y="486.8073">Benefits Service</text><text fill="#FFFFFF" font-family="Verdana" font-size="12.5" lengthAdjust="spacing" textLength="40.0085" x="1096.8821" y="486.8073">for list</text><rect fill="url(#gb3td598dnghr1)" height="38.1083" rx="4.1667" ry="4.1667" style="stroke:#304D6D;stroke-width:1.0417;" width="239.8966" x="921.0347" y="543.4692"/><text fill="#FFFFFF" font-family="Verdana" font-size="12.5" lengthAdjust="spacing" textLength="216.98" x="932.4931" y="567.4947">Receives list from Benefits Service</text><rect fill="url(#gb3td598dnghr1)" height="38.1083" rx="4.1667" ry="4.1667" style="stroke:#304D6D;stroke-width:1.0417;" width="287.0402" x="897.463" y="602.4109"/><text fill="#FFFFFF" font-family="Verdana" font-size="12.5" lengthAdjust="spacing" textLength="264.1235" x="908.9213" y="626.4364">Augments and transforms data as needed</text><rect fill="url(#gb3td598dnghr1)" height="38.1083" rx="4.1667" ry="4.1667" style="stroke:#304D6D;stroke-width:1.0417;" width="227.4333" x="927.2664" y="661.3525"/><text fill="#FFFFFF" font-family="Verdana" font-size="12.5" lengthAdjust="spacing" textLength="204.5166" x="938.7248" y="685.378">Returns formatted document list</text><rect fill="url(#gb3td598dnghr1)" height="38.1083" rx="4.1667" ry="4.1667" style="stroke:#304D6D;stroke-width:1.0417;" width="235.7951" x="923.0855" y="895.34"/><text fill="#FFFFFF" font-family="Verdana" font-size="12.5" lengthAdjust="spacing" textLength="212.8784" x="934.5439" y="919.3654">Receives PDF Request from Client</text><path d="M1172.2097,943.8649 L1172.2097,980.4983 L1151.3763,984.6649 L1172.2097,988.8316 L1172.2097,1025.4649 A0,0 0 0 0 1172.2097,1025.4649 L1472.2015,1025.4649 A0,0 0 0 0 1472.2015,1025.4649 L1472.2015,954.2816 L1461.7849,943.8649 L1172.2097,943.8649 A0,0 0 0 0 1172.2097,943.8649" fill="url(#gb3td598dnghr3)" style="stroke:#246BAA;stroke-width:1.0417;"/><path d="M1461.7849,943.8649 L1461.7849,954.2816 L1472.2015,954.2816 L1461.7849,943.8649" fill="url(#gb3td598dnghr3)" style="stroke:#246BAA;stroke-width:1.0417;"/><text fill="#FFFFFF" font-family="Verdana" font-size="12.5" font-weight="bold" lengthAdjust="spacing" textLength="267.7002" x="1183.668" y="966.8488">Benefits Service Logic (PDF Retrieval)</text><text fill="#FFFFFF" font-family="Verdana" font-size="12.5" lengthAdjust="spacing" textLength="54.8828" x="1183.668" y="982.0404">1. Check</text><text fill="#FFFFFF" font-family="Verdana" font-size="12.5" font-weight="bold" lengthAdjust="spacing" textLength="63.9954" x="1242.9454" y="982.0404">S3 Cache</text><text fill="#FFFFFF" font-family="Verdana" font-size="12.5" lengthAdjust="spacing" textLength="75.2869" x="1311.3352" y="982.0404">for the PDF.</text><text fill="#FFFFFF" font-family="Verdana" font-size="12.5" lengthAdjust="spacing" textLength="137.7502" x="1183.668" y="997.2321">2. On cache miss, call</text><text fill="#FFFFFF" font-family="Verdana" font-size="12.5" font-weight="bold" lengthAdjust="spacing" textLength="62.1033" x="1325.8128" y="997.2321">Core API</text><text fill="#FFFFFF" font-family="Verdana" font-size="12.5" lengthAdjust="spacing" textLength="4.5471" x="1387.9161" y="997.2321">.</text><text fill="#FFFFFF" font-family="Verdana" font-size="12.5" lengthAdjust="spacing" textLength="149.8657" x="1183.668" y="1012.4237">3. Store the new PDF in</text><text fill="#FFFFFF" font-family="Verdana" font-size="12.5" font-weight="bold" lengthAdjust="spacing" textLength="63.9954" x="1337.9283" y="1012.4237">S3 Cache</text><text fill="#FFFFFF" font-family="Verdana" font-size="12.5" lengthAdjust="spacing" textLength="4.5471" x="1401.9236" y="1012.4237">.</text><rect fill="url(#gb3td598dnghr1)" height="38.1083" rx="4.1667" ry="4.1667" style="stroke:#304D6D;stroke-width:1.0417;" width="220.7865" x="930.5898" y="965.6108"/><text fill="#FFFFFF" font-family="Verdana" font-size="12.5" lengthAdjust="spacing" textLength="29.6082" x="942.0481" y="989.6362">Calls</text><text fill="#FFFFFF" font-family="Verdana" font-size="12.5" font-weight="bold" lengthAdjust="spacing" textLength="113.4094" x="976.0508" y="989.6362">Benefits Service</text><text fill="#FFFFFF" font-family="Verdana" font-size="12.5" lengthAdjust="spacing" textLength="46.0632" x="1093.8548" y="989.6362">for PDF</text><rect fill="url(#gb3td598dnghr1)" height="38.1083" rx="4.1667" ry="4.1667" style="stroke:#304D6D;stroke-width:1.0417;" width="294.2301" x="893.868" y="1047.8378"/><text fill="#FFFFFF" font-family="Verdana" font-size="12.5" lengthAdjust="spacing" textLength="271.3135" x="905.3263" y="1071.8633">Receives PDF stream from Benefits Service</text><rect fill="url(#gb3td598dnghr1)" height="38.1083" rx="4.1667" ry="4.1667" style="stroke:#304D6D;stroke-width:1.0417;" width="194.8649" x="943.5506" y="1106.7795"/><text fill="#FFFFFF" font-family="Verdana" font-size="12.5" lengthAdjust="spacing" textLength="171.9482" x="955.009" y="1130.805">Streams PDF back to Client</text><line style="stroke:#3399F3;stroke-width:2.0833;" x1="887.618" x2="887.618" y1="81.5694" y2="1328.8294"/><line style="stroke:#3399F3;stroke-width:2.0833;" x1="1477.4099" x2="1477.4099" y1="81.5694" y2="1328.8294"/><line style="stroke:#446E9B;stroke-width:3.125;" x1="473.2422" x2="473.2422" y1="133.2194" y2="154.0527"/><polygon fill="#446E9B" points="469.0755,143.6361,473.2422,154.0527,477.4089,143.6361,473.2422,147.8027" style="stroke:#446E9B;stroke-width:1.0417;"/><line style="stroke:#446E9B;stroke-width:3.125;" x1="473.2422" x2="473.2422" y1="192.1611" y2="212.9944"/><polygon fill="#446E9B" points="469.0755,202.5777,473.2422,212.9944,477.4089,202.5777,473.2422,206.7444" style="stroke:#446E9B;stroke-width:1.0417;"/><line style="stroke:#446E9B;stroke-width:3.125;" x1="192.9484" x2="192.9484" y1="804.8442" y2="836.3983"/><polygon fill="#446E9B" points="188.7817,825.9816,192.9484,836.3983,197.1151,825.9816,192.9484,830.1483" style="stroke:#446E9B;stroke-width:1.0417;"/><line style="stroke:#446E9B;stroke-width:3.125;" x1="69.8507" x2="35.4167" y1="792.04" y2="792.04"/><polygon fill="#446E9B" points="31.25,1016.5878,35.4167,1027.0045,39.5833,1016.5878,35.4167,1020.7545" style="stroke:#446E9B;stroke-width:3.125;"/><line style="stroke:#446E9B;stroke-width:3.125;" x1="35.4167" x2="35.4167" y1="792.04" y2="1237.1628"/><line style="stroke:#446E9B;stroke-width:3.125;" x1="35.4167" x2="180.4484" y1="1237.1628" y2="1237.1628"/><polygon fill="#446E9B" points="170.0317,1232.9961,180.4484,1237.1628,170.0317,1241.3294,174.1984,1237.1628" style="stroke:#446E9B;stroke-width:1.0417;"/><line style="stroke:#446E9B;stroke-width:3.125;" x1="192.9484" x2="192.9484" y1="1203.8294" y2="1224.6628"/><polygon fill="#446E9B" points="188.7817,1214.2461,192.9484,1224.6628,197.1151,1214.2461,192.9484,1218.4128" style="stroke:#446E9B;stroke-width:1.0417;"/><line style="stroke:#446E9B;stroke-width:3.125;" x1="192.9484" x2="192.9484" y1="758.4025" y2="779.2358"/><polygon fill="#446E9B" points="188.7817,768.8192,192.9484,779.2358,197.1151,768.8192,192.9484,772.9858" style="stroke:#446E9B;stroke-width:1.0417;"/><line style="stroke:#446E9B;stroke-width:3.125;" x1="374.5188" x2="192.9484" y1="284.7402" y2="284.7402"/><line style="stroke:#446E9B;stroke-width:3.125;" x1="192.9484" x2="192.9484" y1="284.7402" y2="318.3777"/><polygon fill="#446E9B" points="188.7817,307.961,192.9484,318.3777,197.1151,307.961,192.9484,312.1277" style="stroke:#446E9B;stroke-width:1.0417;"/><line style="stroke:#446E9B;stroke-width:3.125;" x1="571.9655" x2="749.9532" y1="284.7402" y2="284.7402"/><line style="stroke:#446E9B;stroke-width:3.125;" x1="749.9532" x2="749.9532" y1="284.7402" y2="318.3777"/><polygon fill="#446E9B" points="745.7865,307.961,749.9532,318.3777,754.1199,307.961,749.9532,312.1277" style="stroke:#446E9B;stroke-width:1.0417;"/><line style="stroke:#446E9B;stroke-width:3.125;" x1="192.9484" x2="192.9484" y1="1249.6628" y2="1272.5794"/><line style="stroke:#446E9B;stroke-width:3.125;" x1="192.9484" x2="460.7422" y1="1272.5794" y2="1272.5794"/><polygon fill="#446E9B" points="450.3255,1268.4128,460.7422,1272.5794,450.3255,1276.7461,454.4922,1272.5794" style="stroke:#446E9B;stroke-width:1.0417;"/><line style="stroke:#446E9B;stroke-width:3.125;" x1="749.9532" x2="749.9532" y1="371.6777" y2="1272.5794"/><line style="stroke:#446E9B;stroke-width:3.125;" x1="749.9532" x2="485.7422" y1="1272.5794" y2="1272.5794"/><polygon fill="#446E9B" points="496.1589,1268.4128,485.7422,1272.5794,496.1589,1276.7461,491.9922,1272.5794" style="stroke:#446E9B;stroke-width:1.0417;"/><line style="stroke:#446E9B;stroke-width:3.125;" x1="473.2422" x2="473.2422" y1="251.1027" y2="271.936"/><polygon fill="#446E9B" points="469.0755,261.5194,473.2422,271.936,477.4089,261.5194,473.2422,265.686" style="stroke:#446E9B;stroke-width:1.0417;"/><line style="stroke:#446E9B;stroke-width:3.125;" x1="473.2422" x2="473.2422" y1="1285.0794" y2="1305.9128"/><polygon fill="#446E9B" points="469.0755,1295.4961,473.2422,1305.9128,477.4089,1295.4961,473.2422,1299.6628" style="stroke:#446E9B;stroke-width:1.0417;"/><line style="stroke:#446E9B;stroke-width:3.125;" x1="1040.9831" x2="1040.9831" y1="430.6193" y2="462.7818"/><polygon fill="#446E9B" points="1036.8164,452.3651,1040.9831,462.7818,1045.1497,452.3651,1040.9831,456.5318" style="stroke:#446E9B;stroke-width:1.0417;"/><line style="stroke:#446E9B;stroke-width:3.125;" x1="1040.9831" x2="1040.9831" y1="500.8901" y2="543.4692"/><polygon fill="#446E9B" points="1036.8164,533.0526,1040.9831,543.4692,1045.1497,533.0526,1040.9831,537.2192" style="stroke:#446E9B;stroke-width:1.0417;"/><line style="stroke:#446E9B;stroke-width:3.125;" x1="1040.9831" x2="1040.9831" y1="581.5776" y2="602.4109"/><polygon fill="#446E9B" points="1036.8164,591.9942,1040.9831,602.4109,1045.1497,591.9942,1040.9831,596.1609" style="stroke:#446E9B;stroke-width:1.0417;"/><line style="stroke:#446E9B;stroke-width:3.125;" x1="1040.9831" x2="1040.9831" y1="640.5192" y2="661.3525"/><polygon fill="#446E9B" points="1036.8164,650.9359,1040.9831,661.3525,1045.1497,650.9359,1040.9831,655.1025" style="stroke:#446E9B;stroke-width:1.0417;"/><line style="stroke:#446E9B;stroke-width:3.125;" x1="1040.9831" x2="1040.9831" y1="933.4483" y2="965.6108"/><polygon fill="#446E9B" points="1036.8164,955.1941,1040.9831,965.6108,1045.1497,955.1941,1040.9831,959.3608" style="stroke:#446E9B;stroke-width:1.0417;"/><line style="stroke:#446E9B;stroke-width:3.125;" x1="1040.9831" x2="1040.9831" y1="1003.7191" y2="1047.8378"/><polygon fill="#446E9B" points="1036.8164,1037.4212,1040.9831,1047.8378,1045.1497,1037.4212,1040.9831,1041.5878" style="stroke:#446E9B;stroke-width:1.0417;"/><line style="stroke:#446E9B;stroke-width:3.125;" x1="1040.9831" x2="1040.9831" y1="1085.9461" y2="1106.7795"/><polygon fill="#446E9B" points="1036.8164,1096.3628,1040.9831,1106.7795,1045.1497,1096.3628,1040.9831,1100.5295" style="stroke:#446E9B;stroke-width:1.0417;"/><line style="stroke:#446E9B;stroke-width:3.125;" x1="192.9484" x2="192.9484" y1="356.486" y2="374.7152"/><line style="stroke:#446E9B;stroke-width:3.125;" x1="192.9484" x2="1040.9831" y1="374.7152" y2="374.7152"/><line style="stroke:#446E9B;stroke-width:3.125;" x1="1040.9831" x2="1040.9831" y1="374.7152" y2="392.511"/><polygon fill="#446E9B" points="1036.8164,382.0943,1040.9831,392.511,1045.1497,382.0943,1040.9831,386.261" style="stroke:#446E9B;stroke-width:1.0417;"/><line style="stroke:#446E9B;stroke-width:3.125;" x1="1040.9831" x2="1040.9831" y1="699.4609" y2="704.6692"/><line style="stroke:#446E9B;stroke-width:3.125;" x1="1040.9831" x2="192.9484" y1="704.6692" y2="704.6692"/><line style="stroke:#446E9B;stroke-width:3.125;" x1="192.9484" x2="192.9484" y1="704.6692" y2="720.2942"/><polygon fill="#446E9B" points="188.7817,709.8775,192.9484,720.2942,197.1151,709.8775,192.9484,714.0442" style="stroke:#446E9B;stroke-width:1.0417;"/><line style="stroke:#446E9B;stroke-width:3.125;" x1="192.9484" x2="192.9484" y1="874.5066" y2="879.715"/><line style="stroke:#446E9B;stroke-width:3.125;" x1="192.9484" x2="1040.9831" y1="879.715" y2="879.715"/><line style="stroke:#446E9B;stroke-width:3.125;" x1="1040.9831" x2="1040.9831" y1="879.715" y2="895.34"/><polygon fill="#446E9B" points="1036.8164,884.9233,1040.9831,895.34,1045.1497,884.9233,1040.9831,889.09" style="stroke:#446E9B;stroke-width:1.0417;"/><line style="stroke:#446E9B;stroke-width:3.125;" x1="1040.9831" x2="1040.9831" y1="1144.8878" y2="1150.0961"/><line style="stroke:#446E9B;stroke-width:3.125;" x1="1040.9831" x2="192.9484" y1="1150.0961" y2="1150.0961"/><line style="stroke:#446E9B;stroke-width:3.125;" x1="192.9484" x2="192.9484" y1="1150.0961" y2="1165.7211"/><polygon fill="#446E9B" points="188.7817,1155.3045,192.9484,1165.7211,197.1151,1155.3045,192.9484,1159.4711" style="stroke:#446E9B;stroke-width:1.0417;"/><text fill="#304D6D" font-family="Verdana" font-size="12.5" lengthAdjust="spacing" textLength="126.123" x="388.56" y="99.3449">OpenPlatform Client</text><text fill="#304D6D" font-family="Verdana" font-size="12.5" lengthAdjust="spacing" textLength="208.1055" x="1078.4612" y="99.3449">OpenPlatform BFF (Orchestrator)</text><!--SRC=[bPHBRzf058Nt_XMtoGPRaQKqExoe20WfKbGGjBjk1ljYHXtFk7C7HqZy-DuPcvT3Khe2nkS-pfaFVt4Rh12e5ZagiOeY9vr2c2kXOMBoRONQ4Snila5oLZXfD0ncTVXyZADeVp-gQoNpy6G_gr5pgLiRMy5OIIxUH-I4TT7m9w45BHfP2eS4pXo7K1ODnq8fWYIPed1Royz7yvSayIgUdFy6LBAKAwcassMHNCFWXReptfR7GN5OzbiCx8ctt2754S1mYReWiFXdonQ2zc0CNYMvZ3Nx-n-ORxHHfjnTcdYUJjdlqRwnyTxtN62Eik4rVGTO77fRSx3jknvDFQF6jUGSbsWRcICRyskeRhes3i7ASkFu1rpHmwifPGw3RfYp4XkXuYG9-iSKnY6Z95bW8Gd6WjVjPd0KOKuQf5zJc6d8_NEe9D43VrUA2yV6OXjvAtnAOUdycQ_N-1PwWDJz6LxDyGOB5xa4VSYZRoOaCzgMBLc2YpbOJJvjWa8u0O9u91POP6rB1aAJTrC9vx0uNlKnm1iWFD_DpsGFjH8x2WRVDVI01Lu95UP-pPE6aMmallKnkmeQrPZBDL_TV3BDWkX_IJlVcvjyXDg_OJjkqAFjCzxQWJtSBe1RFhsZZOlIJdWpRbU0yxC3RwSHhVOCjtuu71oAwcFi_1q5IIjV2VR0rtaUuqqeVGfJ5pGgGXXe4xV_4BcEpa-6aqE9Q24H2Yea4YNwZNoVBVFtImymBTC7kFjkJcyu48sG_B9MU1TdKTkSdAcZlm00]--></g></svg>