<svg xmlns="http://www.w3.org/2000/svg" xmlns:xlink="http://www.w3.org/1999/xlink" contentStyleType="text/css" data-diagram-type="ACTIVITY" height="1988.5417px" preserveAspectRatio="none" style="width:2409px;height:1988px;" version="1.1" viewBox="0 0 2409 1988" width="2409.375px" zoomAndPan="magnify"><title>Flowchart: Joint Project Management &amp; PMO Sync</title><defs><linearGradient id="g1sgysfuifc62a0" x1="50%" x2="50%" y1="0%" y2="100%"><stop offset="0%" stop-color="#B8B8B8"/><stop offset="100%" stop-color="#999999"/></linearGradient><linearGradient id="g1sgysfuifc62a1" x1="50%" x2="50%" y1="0%" y2="100%"><stop offset="0%" stop-color="#7C9AB9"/><stop offset="100%" stop-color="#304D6D"/></linearGradient><linearGradient id="g1sgysfuifc62a2" x1="50%" x2="50%" y1="0%" y2="100%"><stop offset="0%" stop-color="#70B8F7"/><stop offset="100%" stop-color="#246BAA"/></linearGradient><linearGradient id="g1sgysfuifc62a3" x1="50%" x2="50%" y1="0%" y2="100%"><stop offset="0%" stop-color="#B8B8B8"/><stop offset="100%" stop-color="#6B6B6B"/></linearGradient></defs><g><rect fill="url(#g1sgysfuifc62a0)" height="48.2361" rx="4.1667" ry="4.1667" style="stroke:#6B6B6B;stroke-width:1.0417;" width="608.6711" x="898.9723" y="20.8333"/><text fill="#304D6D" font-family="Verdana" font-size="20.8333" font-weight="bold" lengthAdjust="spacing" textLength="585.7544" x="910.4307" y="53.2369">Flowchart: Joint Project Management &amp; PMO Sync</text><rect fill="url(#g1sgysfuifc62a0)" height="25.6083" style="stroke:url(#g1sgysfuifc62a0);stroke-width:1.0417;" width="2375.3657" x="15.625" y="81.5694"/><ellipse cx="121.1873" cy="122.8027" fill="#3399F3" rx="10.4167" ry="10.4167" style="stroke:#304D6D;stroke-width:1.0417;"/><rect fill="url(#g1sgysfuifc62a1)" height="53.3" rx="4.1667" ry="4.1667" style="stroke:#304D6D;stroke-width:1.0417;" width="182.1147" x="30.13" y="154.0527"/><text fill="#FFFFFF" font-family="Verdana" font-size="12.5" lengthAdjust="spacing" textLength="159.198" x="41.5883" y="178.0782">Program Leads co-author</text><text fill="#FFFFFF" font-family="Verdana" font-size="12.5" font-weight="bold" lengthAdjust="spacing" textLength="146.0022" x="41.5883" y="193.2699">Joint Project Charter</text><path d="M241.333,221.6319 L241.333,250.6694 L220.4997,254.836 L241.333,259.0027 L241.333,288.0402 A0,0 0 0 0 241.333,288.0402 L372.7397,288.0402 A0,0 0 0 0 372.7397,288.0402 L372.7397,232.0485 L362.323,221.6319 L241.333,221.6319 A0,0 0 0 0 241.333,221.6319" fill="url(#g1sgysfuifc62a2)" style="stroke:#246BAA;stroke-width:1.0417;"/><path d="M362.323,221.6319 L362.323,232.0485 L372.7397,232.0485 L362.323,221.6319" fill="url(#g1sgysfuifc62a2)" style="stroke:#246BAA;stroke-width:1.0417;"/><text fill="#FFFFFF" font-family="Verdana" font-size="12.5" lengthAdjust="spacing" textLength="99.115" x="252.7913" y="244.6157">- Defines Scope</text><text fill="#FFFFFF" font-family="Verdana" font-size="12.5" lengthAdjust="spacing" textLength="95.9656" x="252.7913" y="259.8073">- Defines Goals</text><text fill="#FFFFFF" font-family="Verdana" font-size="12.5" lengthAdjust="spacing" textLength="86.261" x="252.7913" y="274.999">- Assigns PMs</text><rect fill="url(#g1sgysfuifc62a1)" height="53.3" rx="4.1667" ry="4.1667" style="stroke:#304D6D;stroke-width:1.0417;" width="198.6247" x="21.875" y="228.186"/><text fill="#FFFFFF" font-family="Verdana" font-size="12.5" lengthAdjust="spacing" textLength="122.5403" x="33.3333" y="252.2115">Executive Sponsors</text><text fill="#FFFFFF" font-family="Verdana" font-size="12.5" lengthAdjust="spacing" textLength="175.708" x="33.3333" y="267.4032">review and approve Charter</text><line style="stroke:#3399F3;stroke-width:2.0833;" x1="15.625" x2="15.625" y1="81.5694" y2="1976.5416"/><rect fill="url(#g1sgysfuifc62a1)" height="68.4916" rx="4.1667" ry="4.1667" style="stroke:#304D6D;stroke-width:1.0417;" width="202.9277" x="384.198" y="308.8735"/><text fill="#FFFFFF" font-family="Verdana" font-size="12.5" lengthAdjust="spacing" textLength="95.5444" x="395.6563" y="332.899">Create detailed</text><text fill="#FFFFFF" font-family="Verdana" font-size="12.5" font-weight="bold" lengthAdjust="spacing" textLength="180.011" x="395.6563" y="348.0906">Internal Project Schedule</text><text fill="#FFFFFF" font-family="Verdana" font-size="12.5" lengthAdjust="spacing" textLength="82.312" x="395.6563" y="363.2823">(e.g., in Jira)</text><line style="stroke:#3399F3;stroke-width:2.0833;" x1="377.948" x2="377.948" y1="81.5694" y2="1976.5416"/><rect fill="url(#g1sgysfuifc62a1)" height="68.4916" rx="4.1667" ry="4.1667" style="stroke:#304D6D;stroke-width:1.0417;" width="202.9277" x="597.5423" y="398.1984"/><text fill="#FFFFFF" font-family="Verdana" font-size="12.5" lengthAdjust="spacing" textLength="95.5444" x="609.0007" y="422.2239">Create detailed</text><text fill="#FFFFFF" font-family="Verdana" font-size="12.5" font-weight="bold" lengthAdjust="spacing" textLength="180.011" x="609.0007" y="437.4156">Internal Project Schedule</text><text fill="#FFFFFF" font-family="Verdana" font-size="12.5" lengthAdjust="spacing" textLength="98.3398" x="609.0007" y="452.6072">(e.g., in Asana)</text><line style="stroke:#3399F3;stroke-width:2.0833;" x1="591.2923" x2="591.2923" y1="81.5694" y2="1976.5416"/><path d="M1120.5119,477.1067 L1120.5119,513.74 L1099.6785,517.9067 L1120.5119,522.0734 L1120.5119,558.7067 A0,0 0 0 0 1120.5119,558.7067 L1432.253,558.7067 A0,0 0 0 0 1432.253,558.7067 L1432.253,487.5234 L1421.8363,477.1067 L1120.5119,477.1067 A0,0 0 0 0 1120.5119,477.1067" fill="url(#g1sgysfuifc62a2)" style="stroke:#246BAA;stroke-width:1.0417;"/><path d="M1421.8363,477.1067 L1421.8363,487.5234 L1432.253,487.5234 L1421.8363,477.1067" fill="url(#g1sgysfuifc62a2)" style="stroke:#246BAA;stroke-width:1.0417;"/><text fill="#FFFFFF" font-family="Verdana" font-size="12.5" lengthAdjust="spacing" textLength="88.9221" x="1131.9702" y="500.0905">IMS Contains:</text><text fill="#FFFFFF" font-family="Verdana" font-size="12.5" lengthAdjust="spacing" textLength="115.4663" x="1131.9702" y="515.2822">- Major Milestones</text><text fill="#FFFFFF" font-family="Verdana" font-size="12.5" lengthAdjust="spacing" textLength="279.4495" x="1131.9702" y="530.4738">- Key Deliverables (Interface Control Points)</text><text fill="#FFFFFF" font-family="Verdana" font-size="12.5" lengthAdjust="spacing" textLength="230.5054" x="1131.9702" y="545.6655">- Cross-organizational Dependencies</text><rect fill="url(#g1sgysfuifc62a1)" height="53.3" rx="4.1667" ry="4.1667" style="stroke:#304D6D;stroke-width:1.0417;" width="288.7919" x="810.8866" y="491.2567"/><text fill="#FFFFFF" font-family="Verdana" font-size="12.5" lengthAdjust="spacing" textLength="218.5181" x="822.345" y="515.2822">Collaborate to create and maintain</text><text fill="#FFFFFF" font-family="Verdana" font-size="12.5" lengthAdjust="spacing" textLength="20.282" x="822.345" y="530.4738">the</text><text fill="#FFFFFF" font-family="Verdana" font-size="12.5" font-weight="bold" lengthAdjust="spacing" textLength="241.1987" x="847.0215" y="530.4738">Integrated Master Schedule (IMS)</text><rect fill="url(#g1sgysfuifc62a1)" height="38.1083" rx="4.1667" ry="4.1667" style="stroke:#304D6D;stroke-width:1.0417;" width="178.0314" x="866.2669" y="579.54"/><text fill="#FFFFFF" font-family="Verdana" font-size="12.5" lengthAdjust="spacing" textLength="155.1147" x="877.7252" y="603.5655">Project Execution Begins</text><rect fill="url(#g1sgysfuifc62a1)" height="38.1083" rx="4.1667" ry="4.1667" style="stroke:#304D6D;stroke-width:1.0417;" width="204.9662" x="852.7995" y="950.4649"/><text fill="#FFFFFF" font-family="Verdana" font-size="12.5" lengthAdjust="spacing" textLength="182.0496" x="864.2578" y="974.4904">Review progress against IMS</text><rect fill="url(#g1sgysfuifc62a1)" height="38.1083" rx="4.1667" ry="4.1667" style="stroke:#304D6D;stroke-width:1.0417;" width="226.768" x="841.8986" y="1010.5128"/><text fill="#FFFFFF" font-family="Verdana" font-size="12.5" lengthAdjust="spacing" textLength="203.8513" x="853.3569" y="1034.5383">Identify upcoming dependencies</text><rect fill="url(#g1sgysfuifc62a1)" height="38.1083" rx="4.1667" ry="4.1667" style="stroke:#304D6D;stroke-width:1.0417;" width="200.8097" x="854.8777" y="1069.4544"/><text fill="#FFFFFF" font-family="Verdana" font-size="12.5" lengthAdjust="spacing" textLength="177.8931" x="866.3361" y="1093.4799">Update shared Risk Register</text><rect fill="url(#g1sgysfuifc62a1)" height="38.1083" rx="4.1667" ry="4.1667" style="stroke:#304D6D;stroke-width:1.0417;" width="189.8173" x="860.3739" y="1185.5586"/><text fill="#FFFFFF" font-family="Verdana" font-size="12.5" lengthAdjust="spacing" textLength="166.9006" x="871.8323" y="1209.584">Escalate to Program Leads</text><polygon fill="url(#g1sgysfuifc62a3)" points="847.7183,1128.3961,1062.8469,1128.3961,1075.3469,1141.2003,1062.8469,1154.0044,847.7183,1154.0044,835.2183,1141.2003,847.7183,1128.3961" style="stroke:#6B6B6B;stroke-width:1.0417;"/><text fill="#FFFFFF" font-family="Verdana" font-size="12.5" lengthAdjust="spacing" textLength="21.3562" x="964.6576" y="1171.7799">yes</text><text fill="#FFFFFF" font-family="Verdana" font-size="12.5" lengthAdjust="spacing" textLength="204.7119" x="852.9266" y="1146.1716">Blocker or Major Risk Identified?</text><polygon fill="url(#g1sgysfuifc62a3)" points="955.2826,1244.5002,967.7826,1257.0002,955.2826,1269.5002,942.7826,1257.0002,955.2826,1244.5002" style="stroke:#6B6B6B;stroke-width:1.0417;"/><polygon fill="url(#g1sgysfuifc62a3)" points="955.2826,638.4816,967.7826,650.9816,955.2826,663.4816,942.7826,650.9816,955.2826,638.4816" style="stroke:#6B6B6B;stroke-width:1.0417;"/><polygon fill="url(#g1sgysfuifc62a3)" points="883.1706,1290.3336,1027.3946,1290.3336,1039.8946,1303.1377,1027.3946,1315.9419,883.1706,1315.9419,870.6706,1303.1377,883.1706,1290.3336" style="stroke:#6B6B6B;stroke-width:1.0417;"/><text fill="#FFFFFF" font-family="Verdana" font-size="12.5" lengthAdjust="spacing" textLength="133.8074" x="888.3789" y="1308.109">Project Not Complete</text><line style="stroke:#3399F3;stroke-width:2.0833;" x1="804.6366" x2="804.6366" y1="81.5694" y2="1976.5416"/><rect fill="url(#g1sgysfuifc62a1)" height="38.1083" rx="4.1667" ry="4.1667" style="stroke:#304D6D;stroke-width:1.0417;" width="165.0248" x="1479.0141" y="684.315"/><text fill="#FFFFFF" font-family="Verdana" font-size="12.5" lengthAdjust="spacing" textLength="142.1082" x="1490.4724" y="708.3405">Work on internal tasks</text><rect fill="url(#g1sgysfuifc62a1)" height="53.3" rx="4.1667" ry="4.1667" style="stroke:#304D6D;stroke-width:1.0417;" width="235.6303" x="1443.7113" y="743.2566"/><text fill="#FFFFFF" font-family="Verdana" font-size="12.5" lengthAdjust="spacing" textLength="141.9678" x="1455.1697" y="767.2821">Deliver to an Interface</text><text fill="#FFFFFF" font-family="Verdana" font-size="12.5" lengthAdjust="spacing" textLength="212.7136" x="1455.1697" y="782.4738">Control Point (e.g., API deployed)</text><line style="stroke:#3399F3;stroke-width:2.0833;" x1="1437.4613" x2="1437.4613" y1="81.5694" y2="1976.5416"/><rect fill="url(#g1sgysfuifc62a1)" height="38.1083" rx="4.1667" ry="4.1667" style="stroke:#304D6D;stroke-width:1.0417;" width="165.0248" x="1706.9641" y="817.3899"/><text fill="#FFFFFF" font-family="Verdana" font-size="12.5" lengthAdjust="spacing" textLength="142.1082" x="1718.4224" y="841.4154">Work on internal tasks</text><rect fill="url(#g1sgysfuifc62a1)" height="53.3" rx="4.1667" ry="4.1667" style="stroke:#304D6D;stroke-width:1.0417;" width="199.4364" x="1689.7583" y="876.3316"/><text fill="#FFFFFF" font-family="Verdana" font-size="12.5" lengthAdjust="spacing" textLength="176.5198" x="1701.2166" y="900.3571">Begin dependent work upon</text><text fill="#FFFFFF" font-family="Verdana" font-size="12.5" lengthAdjust="spacing" textLength="115.7898" x="1701.2166" y="915.5487">Provider's delivery</text><line style="stroke:#3399F3;stroke-width:2.0833;" x1="1683.5083" x2="1683.5083" y1="81.5694" y2="1976.5416"/><rect fill="url(#g1sgysfuifc62a1)" height="53.3" rx="4.1667" ry="4.1667" style="stroke:#304D6D;stroke-width:1.0417;" width="226.0722" x="1899.6114" y="1336.7752"/><text fill="#FFFFFF" font-family="Verdana" font-size="12.5" lengthAdjust="spacing" textLength="156.6223" x="1911.0697" y="1360.8007">PMs present summary to</text><text fill="#FFFFFF" font-family="Verdana" font-size="12.5" lengthAdjust="spacing" textLength="203.1555" x="1911.0697" y="1375.9923">Program Leads &amp; Exec Sponsors</text><rect fill="url(#g1sgysfuifc62a1)" height="53.3" rx="4.1667" ry="4.1667" style="stroke:#304D6D;stroke-width:1.0417;" width="163.9201" x="1930.6875" y="1410.9085"/><text fill="#FFFFFF" font-family="Verdana" font-size="12.5" lengthAdjust="spacing" textLength="141.0034" x="1942.1458" y="1434.934">Review project health,</text><text fill="#FFFFFF" font-family="Verdana" font-size="12.5" lengthAdjust="spacing" textLength="116.0339" x="1942.1458" y="1450.1256">scope, and budget</text><rect fill="url(#g1sgysfuifc62a1)" height="38.1083" rx="4.1667" ry="4.1667" style="stroke:#304D6D;stroke-width:1.0417;" width="179.3193" x="1922.9879" y="1485.0418"/><text fill="#FFFFFF" font-family="Verdana" font-size="12.5" lengthAdjust="spacing" textLength="156.4026" x="1934.4462" y="1509.0673">Make go/no-go decisions</text><line style="stroke:#3399F3;stroke-width:2.0833;" x1="1893.3614" x2="1893.3614" y1="81.5694" y2="1976.5416"/><ellipse cx="2270.0363" cy="1554.4001" fill="#3399F3" rx="10.4167" ry="10.4167" style="stroke:#304D6D;stroke-width:1.0417;"/><rect fill="url(#g1sgysfuifc62a1)" height="53.3" rx="4.1667" ry="4.1667" style="stroke:#304D6D;stroke-width:1.0417;" width="176.4323" x="2181.8202" y="1585.6501"/><text fill="#FFFFFF" font-family="Verdana" font-size="12.5" lengthAdjust="spacing" textLength="153.5156" x="2193.2785" y="1609.6756">Change is proposed that</text><text fill="#FFFFFF" font-family="Verdana" font-size="12.5" lengthAdjust="spacing" textLength="146.4661" x="2193.2785" y="1624.8672">impacts IMS or Charter</text><rect fill="url(#g1sgysfuifc62a1)" height="53.3" rx="4.1667" ry="4.1667" style="stroke:#304D6D;stroke-width:1.0417;" width="220.8476" x="2159.6125" y="1659.7834"/><text fill="#FFFFFF" font-family="Verdana" font-size="12.5" lengthAdjust="spacing" textLength="43.2007" x="2171.0709" y="1683.8089">Formal</text><text fill="#FFFFFF" font-family="Verdana" font-size="12.5" font-weight="bold" lengthAdjust="spacing" textLength="150.3357" x="2218.6661" y="1683.8089">Change Request (CR)</text><text fill="#FFFFFF" font-family="Verdana" font-size="12.5" lengthAdjust="spacing" textLength="61.2976" x="2171.0709" y="1699.0005">is created</text><rect fill="url(#g1sgysfuifc62a1)" height="53.3" rx="4.1667" ry="4.1667" style="stroke:#304D6D;stroke-width:1.0417;" width="154.1667" x="2192.953" y="1733.9167"/><text fill="#FFFFFF" font-family="Verdana" font-size="12.5" lengthAdjust="spacing" textLength="131.25" x="2204.4113" y="1757.9422">Both PMs review and</text><text fill="#FFFFFF" font-family="Verdana" font-size="12.5" lengthAdjust="spacing" textLength="116.04" x="2204.4113" y="1773.1339">jointly approve CR</text><polygon fill="url(#g1sgysfuifc62a3)" points="2234.9909,1808.05,2305.0817,1808.05,2317.5817,1820.8542,2305.0817,1833.6583,2234.9909,1833.6583,2222.4909,1820.8542,2234.9909,1808.05" style="stroke:#6B6B6B;stroke-width:1.0417;"/><text fill="#FFFFFF" font-family="Verdana" font-size="12.5" lengthAdjust="spacing" textLength="59.6741" x="2240.1993" y="1825.8255">Approved</text><text fill="#FFFFFF" font-family="Verdana" font-size="12.5" lengthAdjust="spacing" textLength="21.3562" x="2195.9264" y="1813.0213">yes</text><text fill="#FFFFFF" font-family="Verdana" font-size="12.5" lengthAdjust="spacing" textLength="15.4968" x="2322.79" y="1813.0213">no</text><rect fill="url(#g1sgysfuifc62a1)" height="53.3" rx="4.1667" ry="4.1667" style="stroke:#304D6D;stroke-width:1.0417;" width="136.674" x="2136.1003" y="1844.075"/><text fill="#FFFFFF" font-family="Verdana" font-size="12.5" lengthAdjust="spacing" textLength="100.9399" x="2147.5586" y="1868.1005">Update IMS and</text><text fill="#FFFFFF" font-family="Verdana" font-size="12.5" lengthAdjust="spacing" textLength="113.7573" x="2147.5586" y="1883.2921">internal schedules</text><rect fill="url(#g1sgysfuifc62a1)" height="38.1083" rx="4.1667" ry="4.1667" style="stroke:#304D6D;stroke-width:1.0417;" width="84.0556" x="2293.6076" y="1844.075"/><text fill="#FFFFFF" font-family="Verdana" font-size="12.5" lengthAdjust="spacing" textLength="61.1389" x="2305.0659" y="1868.1005">Reject CR</text><polygon fill="url(#g1sgysfuifc62a3)" points="2270.0363,1907.7916,2282.5363,1920.2916,2270.0363,1932.7916,2257.5363,1920.2916,2270.0363,1907.7916" style="stroke:#6B6B6B;stroke-width:1.0417;"/><ellipse cx="2270.0363" cy="1965.0833" fill="none" rx="11.4583" ry="11.4583" style="stroke:#304D6D;stroke-width:1.0417;"/><ellipse cx="2270.0363" cy="1965.0833" fill="none" rx="6.25" ry="6.25" style="stroke:#304D6D;stroke-width:1.0417;"/><line style="stroke:#3399F3;stroke-width:2.0833;" x1="2129.8503" x2="2129.8503" y1="81.5694" y2="1976.5416"/><line style="stroke:#3399F3;stroke-width:2.0833;" x1="2384.6268" x2="2384.6268" y1="81.5694" y2="1976.5416"/><line style="stroke:#446E9B;stroke-width:3.125;" x1="121.1873" x2="121.1873" y1="133.2194" y2="154.0527"/><polygon fill="#446E9B" points="117.0207,143.6361,121.1873,154.0527,125.354,143.6361,121.1873,147.8027" style="stroke:#446E9B;stroke-width:1.0417;"/><line style="stroke:#446E9B;stroke-width:3.125;" x1="121.1873" x2="121.1873" y1="207.3527" y2="228.186"/><polygon fill="#446E9B" points="117.0207,217.7694,121.1873,228.186,125.354,217.7694,121.1873,221.936" style="stroke:#446E9B;stroke-width:1.0417;"/><line style="stroke:#446E9B;stroke-width:3.125;" x1="955.2826" x2="955.2826" y1="544.5567" y2="579.54"/><polygon fill="#446E9B" points="951.1159,569.1233,955.2826,579.54,959.4493,569.1233,955.2826,573.29" style="stroke:#446E9B;stroke-width:1.0417;"/><line style="stroke:#446E9B;stroke-width:3.125;" x1="955.2826" x2="955.2826" y1="988.5732" y2="1010.5128"/><polygon fill="#446E9B" points="951.1159,1000.0961,955.2826,1010.5128,959.4493,1000.0961,955.2826,1004.2628" style="stroke:#446E9B;stroke-width:1.0417;"/><line style="stroke:#446E9B;stroke-width:3.125;" x1="955.2826" x2="955.2826" y1="1048.6211" y2="1069.4544"/><polygon fill="#446E9B" points="951.1159,1059.0378,955.2826,1069.4544,959.4493,1059.0378,955.2826,1063.2044" style="stroke:#446E9B;stroke-width:1.0417;"/><line style="stroke:#446E9B;stroke-width:3.125;" x1="955.2826" x2="955.2826" y1="1154.0044" y2="1185.5586"/><polygon fill="#446E9B" points="951.1159,1175.1419,955.2826,1185.5586,959.4493,1175.1419,955.2826,1179.3086" style="stroke:#446E9B;stroke-width:1.0417;"/><line style="stroke:#446E9B;stroke-width:3.125;" x1="1075.3469" x2="1087.8469" y1="1141.2003" y2="1141.2003"/><polygon fill="#446E9B" points="1083.6802,1199.2523,1087.8469,1209.669,1092.0135,1199.2523,1087.8469,1203.419" style="stroke:#446E9B;stroke-width:3.125;"/><line style="stroke:#446E9B;stroke-width:3.125;" x1="1087.8469" x2="1087.8469" y1="1141.2003" y2="1257.0002"/><line style="stroke:#446E9B;stroke-width:3.125;" x1="1087.8469" x2="967.7826" y1="1257.0002" y2="1257.0002"/><polygon fill="#446E9B" points="978.1993,1252.8336,967.7826,1257.0002,978.1993,1261.1669,974.0326,1257.0002" style="stroke:#446E9B;stroke-width:1.0417;"/><line style="stroke:#446E9B;stroke-width:3.125;" x1="955.2826" x2="955.2826" y1="1223.6669" y2="1244.5002"/><polygon fill="#446E9B" points="951.1159,1234.0836,955.2826,1244.5002,959.4493,1234.0836,955.2826,1238.2502" style="stroke:#446E9B;stroke-width:1.0417;"/><line style="stroke:#446E9B;stroke-width:3.125;" x1="955.2826" x2="955.2826" y1="1107.5628" y2="1128.3961"/><polygon fill="#446E9B" points="951.1159,1117.9794,955.2826,1128.3961,959.4493,1117.9794,955.2826,1122.1461" style="stroke:#446E9B;stroke-width:1.0417;"/><line style="stroke:#446E9B;stroke-width:3.125;" x1="1039.8946" x2="1094.0969" y1="1303.1377" y2="1303.1377"/><polygon fill="#446E9B" points="1089.9302,989.6795,1094.0969,979.2628,1098.2635,989.6795,1094.0969,985.5128" style="stroke:#446E9B;stroke-width:3.125;"/><line style="stroke:#446E9B;stroke-width:3.125;" x1="1094.0969" x2="1094.0969" y1="650.9816" y2="1303.1377"/><line style="stroke:#446E9B;stroke-width:3.125;" x1="1094.0969" x2="967.7826" y1="650.9816" y2="650.9816"/><polygon fill="#446E9B" points="978.1993,646.815,967.7826,650.9816,978.1993,655.1483,974.0326,650.9816" style="stroke:#446E9B;stroke-width:1.0417;"/><line style="stroke:#446E9B;stroke-width:3.125;" x1="955.2826" x2="955.2826" y1="1269.5002" y2="1290.3336"/><polygon fill="#446E9B" points="951.1159,1279.9169,955.2826,1290.3336,959.4493,1279.9169,955.2826,1284.0836" style="stroke:#446E9B;stroke-width:1.0417;"/><line style="stroke:#446E9B;stroke-width:3.125;" x1="955.2826" x2="955.2826" y1="617.6483" y2="638.4816"/><polygon fill="#446E9B" points="951.1159,628.065,955.2826,638.4816,959.4493,628.065,955.2826,632.2316" style="stroke:#446E9B;stroke-width:1.0417;"/><line style="stroke:#446E9B;stroke-width:3.125;" x1="1561.5265" x2="1561.5265" y1="722.4233" y2="743.2566"/><polygon fill="#446E9B" points="1557.3598,732.84,1561.5265,743.2566,1565.6932,732.84,1561.5265,737.0066" style="stroke:#446E9B;stroke-width:1.0417;"/><line style="stroke:#446E9B;stroke-width:3.125;" x1="1789.4765" x2="1789.4765" y1="855.4983" y2="876.3316"/><polygon fill="#446E9B" points="1785.3099,865.9149,1789.4765,876.3316,1793.6432,865.9149,1789.4765,870.0816" style="stroke:#446E9B;stroke-width:1.0417;"/><line style="stroke:#446E9B;stroke-width:3.125;" x1="2012.6475" x2="2012.6475" y1="1390.0752" y2="1410.9085"/><polygon fill="#446E9B" points="2008.4808,1400.4918,2012.6475,1410.9085,2016.8142,1400.4918,2012.6475,1404.6585" style="stroke:#446E9B;stroke-width:1.0417;"/><line style="stroke:#446E9B;stroke-width:3.125;" x1="2012.6475" x2="2012.6475" y1="1464.2085" y2="1485.0418"/><polygon fill="#446E9B" points="2008.4808,1474.6251,2012.6475,1485.0418,2016.8142,1474.6251,2012.6475,1478.7918" style="stroke:#446E9B;stroke-width:1.0417;"/><line style="stroke:#446E9B;stroke-width:3.125;" x1="2270.0363" x2="2270.0363" y1="1564.8168" y2="1585.6501"/><polygon fill="#446E9B" points="2265.8696,1575.2335,2270.0363,1585.6501,2274.203,1575.2335,2270.0363,1579.4001" style="stroke:#446E9B;stroke-width:1.0417;"/><line style="stroke:#446E9B;stroke-width:3.125;" x1="2270.0363" x2="2270.0363" y1="1638.9501" y2="1659.7834"/><polygon fill="#446E9B" points="2265.8696,1649.3668,2270.0363,1659.7834,2274.203,1649.3668,2270.0363,1653.5334" style="stroke:#446E9B;stroke-width:1.0417;"/><line style="stroke:#446E9B;stroke-width:3.125;" x1="2270.0363" x2="2270.0363" y1="1713.0834" y2="1733.9167"/><polygon fill="#446E9B" points="2265.8696,1723.5001,2270.0363,1733.9167,2274.203,1723.5001,2270.0363,1727.6667" style="stroke:#446E9B;stroke-width:1.0417;"/><line style="stroke:#446E9B;stroke-width:3.125;" x1="2222.4909" x2="2204.4373" y1="1820.8542" y2="1820.8542"/><line style="stroke:#446E9B;stroke-width:3.125;" x1="2204.4373" x2="2204.4373" y1="1820.8542" y2="1844.075"/><polygon fill="#446E9B" points="2200.2706,1833.6583,2204.4373,1844.075,2208.6039,1833.6583,2204.4373,1837.825" style="stroke:#446E9B;stroke-width:1.0417;"/><line style="stroke:#446E9B;stroke-width:3.125;" x1="2317.5817" x2="2335.6354" y1="1820.8542" y2="1820.8542"/><line style="stroke:#446E9B;stroke-width:3.125;" x1="2335.6354" x2="2335.6354" y1="1820.8542" y2="1844.075"/><polygon fill="#446E9B" points="2331.4687,1833.6583,2335.6354,1844.075,2339.802,1833.6583,2335.6354,1837.825" style="stroke:#446E9B;stroke-width:1.0417;"/><line style="stroke:#446E9B;stroke-width:3.125;" x1="2204.4373" x2="2204.4373" y1="1897.375" y2="1920.2916"/><line style="stroke:#446E9B;stroke-width:3.125;" x1="2204.4373" x2="2257.5363" y1="1920.2916" y2="1920.2916"/><polygon fill="#446E9B" points="2247.1196,1916.125,2257.5363,1920.2916,2247.1196,1924.4583,2251.2863,1920.2916" style="stroke:#446E9B;stroke-width:1.0417;"/><line style="stroke:#446E9B;stroke-width:3.125;" x1="2335.6354" x2="2335.6354" y1="1882.1833" y2="1920.2916"/><line style="stroke:#446E9B;stroke-width:3.125;" x1="2335.6354" x2="2282.5363" y1="1920.2916" y2="1920.2916"/><polygon fill="#446E9B" points="2292.953,1916.125,2282.5363,1920.2916,2292.953,1924.4583,2288.7863,1920.2916" style="stroke:#446E9B;stroke-width:1.0417;"/><line style="stroke:#446E9B;stroke-width:3.125;" x1="2270.0363" x2="2270.0363" y1="1787.2167" y2="1808.05"/><polygon fill="#446E9B" points="2265.8696,1797.6334,2270.0363,1808.05,2274.203,1797.6334,2270.0363,1801.8" style="stroke:#446E9B;stroke-width:1.0417;"/><line style="stroke:#446E9B;stroke-width:3.125;" x1="2270.0363" x2="2270.0363" y1="1932.7916" y2="1953.625"/><polygon fill="#446E9B" points="2265.8696,1943.2083,2270.0363,1953.625,2274.203,1943.2083,2270.0363,1947.375" style="stroke:#446E9B;stroke-width:1.0417;"/><line style="stroke:#446E9B;stroke-width:3.125;" x1="121.1873" x2="121.1873" y1="281.486" y2="293.2485"/><line style="stroke:#446E9B;stroke-width:3.125;" x1="121.1873" x2="485.6618" y1="293.2485" y2="293.2485"/><line style="stroke:#446E9B;stroke-width:3.125;" x1="485.6618" x2="485.6618" y1="293.2485" y2="308.8735"/><polygon fill="#446E9B" points="481.4952,298.4568,485.6618,308.8735,489.8285,298.4568,485.6618,302.6235" style="stroke:#446E9B;stroke-width:1.0417;"/><line style="stroke:#446E9B;stroke-width:3.125;" x1="485.6618" x2="485.6618" y1="377.3651" y2="382.5734"/><line style="stroke:#446E9B;stroke-width:3.125;" x1="485.6618" x2="699.0061" y1="382.5734" y2="382.5734"/><line style="stroke:#446E9B;stroke-width:3.125;" x1="699.0061" x2="699.0061" y1="382.5734" y2="398.1984"/><polygon fill="#446E9B" points="694.8395,387.7818,699.0061,398.1984,703.1728,387.7818,699.0061,391.9484" style="stroke:#446E9B;stroke-width:1.0417;"/><line style="stroke:#446E9B;stroke-width:3.125;" x1="699.0061" x2="699.0061" y1="466.6901" y2="471.8984"/><line style="stroke:#446E9B;stroke-width:3.125;" x1="699.0061" x2="955.2826" y1="471.8984" y2="471.8984"/><line style="stroke:#446E9B;stroke-width:3.125;" x1="955.2826" x2="955.2826" y1="471.8984" y2="491.2567"/><polygon fill="#446E9B" points="951.1159,480.84,955.2826,491.2567,959.4493,480.84,955.2826,485.0067" style="stroke:#446E9B;stroke-width:1.0417;"/><line style="stroke:#446E9B;stroke-width:3.125;" x1="1561.5265" x2="1561.5265" y1="796.5566" y2="801.7649"/><line style="stroke:#446E9B;stroke-width:3.125;" x1="1561.5265" x2="1789.4765" y1="801.7649" y2="801.7649"/><line style="stroke:#446E9B;stroke-width:3.125;" x1="1789.4765" x2="1789.4765" y1="801.7649" y2="817.3899"/><polygon fill="#446E9B" points="1785.3099,806.9733,1789.4765,817.3899,1793.6432,806.9733,1789.4765,811.1399" style="stroke:#446E9B;stroke-width:1.0417;"/><line style="stroke:#446E9B;stroke-width:3.125;" x1="1789.4765" x2="1789.4765" y1="929.6316" y2="934.8399"/><line style="stroke:#446E9B;stroke-width:3.125;" x1="1789.4765" x2="955.2826" y1="934.8399" y2="934.8399"/><line style="stroke:#446E9B;stroke-width:3.125;" x1="955.2826" x2="955.2826" y1="934.8399" y2="950.4649"/><polygon fill="#446E9B" points="951.1159,940.0482,955.2826,950.4649,959.4493,940.0482,955.2826,944.2149" style="stroke:#446E9B;stroke-width:1.0417;"/><line style="stroke:#446E9B;stroke-width:3.125;" x1="955.2826" x2="955.2826" y1="663.4816" y2="668.69"/><line style="stroke:#446E9B;stroke-width:3.125;" x1="955.2826" x2="1561.5265" y1="668.69" y2="668.69"/><line style="stroke:#446E9B;stroke-width:3.125;" x1="1561.5265" x2="1561.5265" y1="668.69" y2="684.315"/><polygon fill="#446E9B" points="1557.3598,673.8983,1561.5265,684.315,1565.6932,673.8983,1561.5265,678.065" style="stroke:#446E9B;stroke-width:1.0417;"/><line style="stroke:#446E9B;stroke-width:3.125;" x1="955.2826" x2="955.2826" y1="1315.9419" y2="1321.1502"/><line style="stroke:#446E9B;stroke-width:3.125;" x1="955.2826" x2="2012.6475" y1="1321.1502" y2="1321.1502"/><line style="stroke:#446E9B;stroke-width:3.125;" x1="2012.6475" x2="2012.6475" y1="1321.1502" y2="1336.7752"/><polygon fill="#446E9B" points="2008.4808,1326.3585,2012.6475,1336.7752,2016.8142,1326.3585,2012.6475,1330.5252" style="stroke:#446E9B;stroke-width:1.0417;"/><line style="stroke:#446E9B;stroke-width:3.125;" x1="2012.6475" x2="2012.6475" y1="1523.1501" y2="1528.3585"/><line style="stroke:#446E9B;stroke-width:3.125;" x1="2012.6475" x2="2270.0363" y1="1528.3585" y2="1528.3585"/><line style="stroke:#446E9B;stroke-width:3.125;" x1="2270.0363" x2="2270.0363" y1="1528.3585" y2="1543.9835"/><polygon fill="#446E9B" points="2265.8696,1533.5668,2270.0363,1543.9835,2274.203,1533.5668,2270.0363,1537.7335" style="stroke:#446E9B;stroke-width:1.0417;"/><text fill="#304D6D" font-family="Verdana" font-size="12.5" lengthAdjust="spacing" textLength="119.635" x="136.969" y="99.3449">Both Organizations</text><text fill="#304D6D" font-family="Verdana" font-size="12.5" lengthAdjust="spacing" textLength="84.1614" x="442.5395" y="99.3449">Provider PMO</text><text fill="#304D6D" font-family="Verdana" font-size="12.5" lengthAdjust="spacing" textLength="95.8923" x="650.0183" y="99.3449">Consumer PMO</text><text fill="#304D6D" font-family="Verdana" font-size="12.5" lengthAdjust="spacing" textLength="205.8777" x="1018.1101" y="99.3449">Both PMs (Weekly Tactical Sync)</text><text fill="#304D6D" font-family="Verdana" font-size="12.5" lengthAdjust="spacing" textLength="91.0645" x="1514.9526" y="99.3449">Provider Team</text><text fill="#304D6D" font-family="Verdana" font-size="12.5" lengthAdjust="spacing" textLength="102.7954" x="1737.0372" y="99.3449">Consumer Team</text><text fill="#304D6D" font-family="Verdana" font-size="12.5" lengthAdjust="spacing" textLength="202.7954" x="1910.2081" y="99.3449">Steering Committee (Bi-weekly)</text><text fill="#304D6D" font-family="Verdana" font-size="12.5" lengthAdjust="spacing" textLength="97.1863" x="2208.6454" y="99.3449">Change Control</text><!--SRC=[fLHDazCw4BphLmmS84bju9uzKBlXenO8R2LGdBNsnDR6rXX9sH1gVpmzikCbx_9UrJla45dgwUdkcMUfvfOfThRWnjuParngc9w_R-HGr3Qa1NqKvnFT1hdd8j7AUblX2OvUqEtgAssEldXkpEErf9g-Xifwzzic9pu-cfY0O1PuMmNRqcUsPQH2vdQVQWbcDZl7Ncf13hFPfLcy-yN5Fha7faq7B0dH17vmV23hIx9T5mJVXXUNnajY2gwgao6QqrlUEi-HDeLqV7RoGMmJyybLZAxo4Kr4my1K2FG1CW-kvA3DFPh5Ch05TCd9kePBSBxngEXjCzBU53MN-uPdCpFXLzMh2tAUFhfWfvV0MuBzlltVU5SHmcV0B3H8q-G7ywuvqZTR95S0GAsOQWrfuAK4BPI4YhwawjPQw8sVWUtKbwxqMWbV8sYCjMboizfCrOapPN58Q4WXuYAhkBBt4cY5Nc8I29mFF_4HWZTmBzWxV06QDhb5oFBp8EXMhO_JV7yP9CQv_1KUTFEMEzZ2ld3yjq6Baqn3GiJJDLVW0sq2dbZb-UJYDxRj8quMFoJi29VTIUvaumwFy6cWgbfPJoDLV3eZIuCRLxStyAzhvCYbEe9oeyd_fLocgmYvlKG7lRf7ol7nnFjbn8NCwjXN-5VN0Rpk1wJJSUCOoLRgKrBNSk4RBUUsHnGhf7M-6acenldAzwxKh4JC5KAnTd57Qz2DUSY8t9OcruqKExIgjcVpywq1st7vPaf8bwV9aREzG7qNGNH8uzaoK4mGSDl1EZhKJiDtylYBO2j8spMSU8hiRn9pKE8uR5t2F_1nyqEMHAEl2dLeNdM58wqDHnGrvnleHSxEk5YmRPwKosLhjasgBqpKzN6H9-TkNrQSS7LbTqoLlFOohmG25YxgiikZNbjVZGaVrzzmx9IPT18XRAeHKzTYwwQOXmeoZhjiyLv22sDdi-7bcd_kCLuqMQunaWP0_KYNk3lcucaxcdjDAo8oRidrfL7dhlh_vJyCEfckFFGvFOKs3ki0xN4J8RQNQP-qVc43kBSFmz-PFm00]--></g></svg>