<svg xmlns="http://www.w3.org/2000/svg" xmlns:xlink="http://www.w3.org/1999/xlink" contentStyleType="text/css" data-diagram-type="SEQUENCE" height="1430px" preserveAspectRatio="none" style="width:1751px;height:1430px;background:#FFFFFF;" version="1.1" viewBox="0 0 1751 1430" width="1751px" zoomAndPan="magnify"><title>Option 1: Plan Documents Access (with ID Cards Pre-check Logic)</title><defs/><g><text fill="#000000" font-family="Verdana" font-size="22" font-weight="bold" lengthAdjust="spacing" textLength="817.9424" x="470.0754" y="37.1182">Option 1: Plan Documents Access (with ID Cards Pre-check Logic)</text><rect fill="#FFFFFF" height="434.5591" style="stroke:#000000;stroke-width:1;" width="1729.0933" x="15" y="493.5444"/><rect fill="#FFFFFF" height="373.9604" style="stroke:none;stroke-width:1;" width="1729.0933" x="15" y="554.1431"/><rect fill="#FFFFFF" height="107.1973" style="stroke:#000000;stroke-width:1;" width="621.8467" x="1112.2466" y="681.709"/><rect fill="#FFFFFF" height="142.9966" style="stroke:#000000;stroke-width:1;" width="621.8467" x="1112.2466" y="1098.8994"/><g><title>OpenPlatform Client</title><rect fill="#000000" fill-opacity="0.00000" height="1217.542" width="8" x="94.6289" y="130.752"/><line style="stroke:#AAAAAA;stroke-width:1;" x1="98" x2="98" y1="130.752" y2="1348.2939"/></g><g><title>OpenPlatform BFF</title><rect fill="#000000" fill-opacity="0.00000" height="1217.542" width="8" x="437.1606" y="130.752"/><line style="stroke:#AAAAAA;stroke-width:1;" x1="440.7744" x2="440.7744" y1="130.752" y2="1348.2939"/></g><g><title>Plan Groups API</title><rect fill="#000000" fill-opacity="0.00000" height="1217.542" width="8" x="851.6089" y="130.752"/><line style="stroke:#AAAAAA;stroke-width:1;" x1="854.8569" x2="854.8569" y1="130.752" y2="1348.2939"/></g><g><title>Features API (MMF)</title><rect fill="#000000" fill-opacity="0.00000" height="1217.542" width="8" x="1021.8037" y="130.752"/><line style="stroke:#AAAAAA;stroke-width:1;" x1="1025.3608" x2="1025.3608" y1="130.752" y2="1348.2939"/></g><g><title>Benefits Service</title><rect fill="#000000" fill-opacity="0.00000" height="1217.542" width="8" x="1191.8857" y="130.752"/><line style="stroke:#AAAAAA;stroke-width:1;" x1="1195.2466" x2="1195.2466" y1="130.752" y2="1348.2939"/></g><g><title>Redis Cache</title><rect fill="#000000" fill-opacity="0.00000" height="1217.542" width="8" x="1420.8706" y="130.752"/><line style="stroke:#AAAAAA;stroke-width:1;" x1="1424.105" x2="1424.105" y1="130.752" y2="1348.2939"/></g><g><title>S3 Cache</title><rect fill="#000000" fill-opacity="0.00000" height="1217.542" width="8" x="1512.6709" y="130.752"/><line style="stroke:#AAAAAA;stroke-width:1;" x1="1516.6362" x2="1516.6362" y1="130.752" y2="1348.2939"/></g><g><title>Core Plan Doc API</title><rect fill="#000000" fill-opacity="0.00000" height="1217.542" width="8" x="1639.3994" y="130.752"/><line style="stroke:#AAAAAA;stroke-width:1;" x1="1642.7056" x2="1642.7056" y1="130.752" y2="1348.2939"/></g><g class="participant participant-head" data-participant="Client"><text fill="#000000" font-family="Verdana" font-size="14" lengthAdjust="spacing" textLength="141.2578" x="25" y="127.8125">OpenPlatform Client</text><ellipse cx="98.6289" cy="61.7373" fill="#FFFFFF" rx="8" ry="8" style="stroke:#000000;stroke-width:1;"/><path d="M98.6289,69.7373 L98.6289,96.7373 M85.6289,77.7373 L111.6289,77.7373 M98.6289,96.7373 L85.6289,111.7373 M98.6289,96.7373 L111.6289,111.7373" fill="none" style="stroke:#000000;stroke-width:1;"/></g><g class="participant participant-tail" data-participant="Client"><text fill="#000000" font-family="Verdana" font-size="14" lengthAdjust="spacing" textLength="141.2578" x="25" y="1361.3691">OpenPlatform Client</text><ellipse cx="98.6289" cy="1373.3086" fill="#FFFFFF" rx="8" ry="8" style="stroke:#000000;stroke-width:1;"/><path d="M98.6289,1381.3086 L98.6289,1408.3086 M85.6289,1389.3086 L111.6289,1389.3086 M98.6289,1408.3086 L85.6289,1423.3086 M98.6289,1408.3086 L111.6289,1423.3086" fill="none" style="stroke:#000000;stroke-width:1;"/></g><g class="participant participant-head" data-participant="BFF"><rect fill="#FFFFFF" height="31.0146" rx="2.5" ry="2.5" style="stroke:#000000;stroke-width:1;" width="140.7725" x="370.7744" y="98.7373"/><text fill="#000000" font-family="Verdana" font-size="14" lengthAdjust="spacing" textLength="126.7725" x="377.7744" y="119.8125">OpenPlatform BFF</text></g><g class="participant participant-tail" data-participant="BFF"><rect fill="#FFFFFF" height="31.0146" rx="2.5" ry="2.5" style="stroke:#000000;stroke-width:1;" width="140.7725" x="370.7744" y="1347.2939"/><text fill="#000000" font-family="Verdana" font-size="14" lengthAdjust="spacing" textLength="126.7725" x="377.7744" y="1368.3691">OpenPlatform BFF</text></g><g class="participant participant-head" data-participant="PlanGroups"><rect fill="#FFFFFF" height="31.0146" rx="2.5" ry="2.5" style="stroke:#000000;stroke-width:1;" width="127.5039" x="791.8569" y="98.7373"/><text fill="#000000" font-family="Verdana" font-size="14" lengthAdjust="spacing" textLength="113.5039" x="798.8569" y="119.8125">Plan Groups API</text></g><g class="participant participant-tail" data-participant="PlanGroups"><rect fill="#FFFFFF" height="31.0146" rx="2.5" ry="2.5" style="stroke:#000000;stroke-width:1;" width="127.5039" x="791.8569" y="1347.2939"/><text fill="#000000" font-family="Verdana" font-size="14" lengthAdjust="spacing" textLength="113.5039" x="798.8569" y="1368.3691">Plan Groups API</text></g><g class="participant participant-head" data-participant="Features"><rect fill="#FFFFFF" height="31.0146" rx="2.5" ry="2.5" style="stroke:#000000;stroke-width:1;" width="152.8857" x="949.3608" y="98.7373"/><text fill="#000000" font-family="Verdana" font-size="14" lengthAdjust="spacing" textLength="138.8857" x="956.3608" y="119.8125">Features API (MMF)</text></g><g class="participant participant-tail" data-participant="Features"><rect fill="#FFFFFF" height="31.0146" rx="2.5" ry="2.5" style="stroke:#000000;stroke-width:1;" width="152.8857" x="949.3608" y="1347.2939"/><text fill="#000000" font-family="Verdana" font-size="14" lengthAdjust="spacing" textLength="138.8857" x="956.3608" y="1368.3691">Features API (MMF)</text></g><g class="participant participant-head" data-participant="Benefits"><rect fill="#FFFFFF" height="31.0146" rx="2.5" ry="2.5" style="stroke:#000000;stroke-width:1;" width="127.2783" x="1132.2466" y="98.7373"/><text fill="#000000" font-family="Verdana" font-size="14" lengthAdjust="spacing" textLength="113.2783" x="1139.2466" y="119.8125">Benefits Service</text></g><g class="participant participant-tail" data-participant="Benefits"><rect fill="#FFFFFF" height="31.0146" rx="2.5" ry="2.5" style="stroke:#000000;stroke-width:1;" width="127.2783" x="1132.2466" y="1347.2939"/><text fill="#000000" font-family="Verdana" font-size="14" lengthAdjust="spacing" textLength="113.2783" x="1139.2466" y="1368.3691">Benefits Service</text></g><g class="participant participant-head" data-participant="Redis"><text fill="#000000" font-family="Verdana" font-size="14" lengthAdjust="spacing" textLength="85.5313" x="1379.105" y="127.8125">Redis Cache</text><path d="M1406.8706,77.7373 C1406.8706,67.7373 1424.8706,67.7373 1424.8706,67.7373 C1424.8706,67.7373 1442.8706,67.7373 1442.8706,77.7373 L1442.8706,103.7373 C1442.8706,113.7373 1424.8706,113.7373 1424.8706,113.7373 C1424.8706,113.7373 1406.8706,113.7373 1406.8706,103.7373 L1406.8706,77.7373" fill="#FFFFFF" style="stroke:#000000;stroke-width:1.5;"/><path d="M1406.8706,77.7373 C1406.8706,87.7373 1424.8706,87.7373 1424.8706,87.7373 C1424.8706,87.7373 1442.8706,87.7373 1442.8706,77.7373" fill="none" style="stroke:#000000;stroke-width:1.5;"/></g><g class="participant participant-tail" data-participant="Redis"><text fill="#000000" font-family="Verdana" font-size="14" lengthAdjust="spacing" textLength="85.5313" x="1379.105" y="1361.3691">Redis Cache</text><path d="M1406.8706,1374.3086 C1406.8706,1364.3086 1424.8706,1364.3086 1424.8706,1364.3086 C1424.8706,1364.3086 1442.8706,1364.3086 1442.8706,1374.3086 L1442.8706,1400.3086 C1442.8706,1410.3086 1424.8706,1410.3086 1424.8706,1410.3086 C1424.8706,1410.3086 1406.8706,1410.3086 1406.8706,1400.3086 L1406.8706,1374.3086" fill="#FFFFFF" style="stroke:#000000;stroke-width:1.5;"/><path d="M1406.8706,1374.3086 C1406.8706,1384.3086 1424.8706,1384.3086 1424.8706,1384.3086 C1424.8706,1384.3086 1442.8706,1384.3086 1442.8706,1374.3086" fill="none" style="stroke:#000000;stroke-width:1.5;"/></g><g class="participant participant-head" data-participant="S3"><text fill="#000000" font-family="Verdana" font-size="14" lengthAdjust="spacing" textLength="66.0693" x="1480.6362" y="127.8125">S3 Cache</text><path d="M1498.6709,77.7373 C1498.6709,67.7373 1516.6709,67.7373 1516.6709,67.7373 C1516.6709,67.7373 1534.6709,67.7373 1534.6709,77.7373 L1534.6709,103.7373 C1534.6709,113.7373 1516.6709,113.7373 1516.6709,113.7373 C1516.6709,113.7373 1498.6709,113.7373 1498.6709,103.7373 L1498.6709,77.7373" fill="#FFFFFF" style="stroke:#000000;stroke-width:1.5;"/><path d="M1498.6709,77.7373 C1498.6709,87.7373 1516.6709,87.7373 1516.6709,87.7373 C1516.6709,87.7373 1534.6709,87.7373 1534.6709,77.7373" fill="none" style="stroke:#000000;stroke-width:1.5;"/></g><g class="participant participant-tail" data-participant="S3"><text fill="#000000" font-family="Verdana" font-size="14" lengthAdjust="spacing" textLength="66.0693" x="1480.6362" y="1361.3691">S3 Cache</text><path d="M1498.6709,1374.3086 C1498.6709,1364.3086 1516.6709,1364.3086 1516.6709,1364.3086 C1516.6709,1364.3086 1534.6709,1364.3086 1534.6709,1374.3086 L1534.6709,1400.3086 C1534.6709,1410.3086 1516.6709,1410.3086 1516.6709,1410.3086 C1516.6709,1410.3086 1498.6709,1410.3086 1498.6709,1400.3086 L1498.6709,1374.3086" fill="#FFFFFF" style="stroke:#000000;stroke-width:1.5;"/><path d="M1498.6709,1374.3086 C1498.6709,1384.3086 1516.6709,1384.3086 1516.6709,1384.3086 C1516.6709,1384.3086 1534.6709,1384.3086 1534.6709,1374.3086" fill="none" style="stroke:#000000;stroke-width:1.5;"/></g><g class="participant participant-head" data-participant="CoreAPI"><rect fill="#FFFFFF" height="31.0146" rx="2.5" ry="2.5" style="stroke:#000000;stroke-width:1;" width="141.3877" x="1572.7056" y="98.7373"/><text fill="#000000" font-family="Verdana" font-size="14" lengthAdjust="spacing" textLength="127.3877" x="1579.7056" y="119.8125">Core Plan Doc API</text></g><g class="participant participant-tail" data-participant="CoreAPI"><rect fill="#FFFFFF" height="31.0146" rx="2.5" ry="2.5" style="stroke:#000000;stroke-width:1;" width="141.3877" x="1572.7056" y="1347.2939"/><text fill="#000000" font-family="Verdana" font-size="14" lengthAdjust="spacing" textLength="127.3877" x="1579.7056" y="1368.3691">Core Plan Doc API</text></g><g class="message" data-participant-1="Client" data-participant-2="BFF"><polygon fill="#333333" points="429.1606,158.5513,439.1606,162.5513,429.1606,166.5513,433.1606,162.5513" style="stroke:#333333;stroke-width:1;"/><line style="stroke:#333333;stroke-width:1;" x1="98.6289" x2="435.1606" y1="162.5513" y2="162.5513"/><text fill="#000000" font-family="Verdana" font-size="13" lengthAdjust="spacing" textLength="180.0068" x="105.6289" y="157.8218">Initial request for user data</text></g><g class="message" data-participant-1="BFF" data-participant-2="PlanGroups"><polygon fill="#333333" points="843.6089,188.3506,853.6089,192.3506,843.6089,196.3506,847.6089,192.3506" style="stroke:#333333;stroke-width:1;"/><line style="stroke:#333333;stroke-width:1;" x1="441.1606" x2="849.6089" y1="192.3506" y2="192.3506"/><text fill="#000000" font-family="Verdana" font-size="13" lengthAdjust="spacing" textLength="126.3882" x="448.1606" y="187.6211">call /v1/plangroups</text></g><g class="message" data-participant-1="PlanGroups" data-participant-2="BFF"><polygon fill="#333333" points="452.1606,218.1499,442.1606,222.1499,452.1606,226.1499,448.1606,222.1499" style="stroke:#333333;stroke-width:1;"/><line style="stroke:#333333;stroke-width:1;stroke-dasharray:2.0,2.0;" x1="446.1606" x2="854.6089" y1="222.1499" y2="222.1499"/><text fill="#000000" font-family="Verdana" font-size="13" lengthAdjust="spacing" textLength="119.3042" x="458.1606" y="217.4204">return planGroups</text></g><g class="message" data-participant-1="BFF" data-participant-2="BFF"><line style="stroke:#333333;stroke-width:1;" x1="441.1606" x2="483.1606" y1="251.9492" y2="251.9492"/><line style="stroke:#333333;stroke-width:1;" x1="483.1606" x2="483.1606" y1="251.9492" y2="264.9492"/><line style="stroke:#333333;stroke-width:1;" x1="442.1606" x2="483.1606" y1="264.9492" y2="264.9492"/><polygon fill="#333333" points="452.1606,260.9492,442.1606,264.9492,452.1606,268.9492,448.1606,264.9492" style="stroke:#333333;stroke-width:1;"/><text fill="#000000" font-family="Verdana" font-size="13" lengthAdjust="spacing" textLength="400.4482" x="448.1606" y="247.2197">Parse all memberResourceIds for active medical/dental plans</text></g><g class="message" data-participant-1="BFF" data-participant-2="Features"><polygon fill="#333333" points="1013.8037,290.7485,1023.8037,294.7485,1013.8037,298.7485,1017.8037,294.7485" style="stroke:#333333;stroke-width:1;"/><line style="stroke:#333333;stroke-width:1;" x1="441.1606" x2="1019.8037" y1="294.7485" y2="294.7485"/><text fill="#000000" font-family="Verdana" font-size="13" lengthAdjust="spacing" textLength="107.5864" x="448.1606" y="290.019">call /v2/features</text></g><g class="message" data-participant-1="Features" data-participant-2="BFF"><polygon fill="#333333" points="452.1606,320.5479,442.1606,324.5479,452.1606,328.5479,448.1606,324.5479" style="stroke:#333333;stroke-width:1;"/><line style="stroke:#333333;stroke-width:1;stroke-dasharray:2.0,2.0;" x1="446.1606" x2="1024.8037" y1="324.5479" y2="324.5479"/><text fill="#000000" font-family="Verdana" font-size="13" lengthAdjust="spacing" textLength="98.522" x="458.1606" y="319.8184">return features</text></g><g class="message" data-participant-1="BFF" data-participant-2="BFF"><line style="stroke:#333333;stroke-width:1;" x1="441.1606" x2="483.1606" y1="354.3472" y2="354.3472"/><line style="stroke:#333333;stroke-width:1;" x1="483.1606" x2="483.1606" y1="354.3472" y2="367.3472"/><line style="stroke:#333333;stroke-width:1;" x1="442.1606" x2="483.1606" y1="367.3472" y2="367.3472"/><polygon fill="#333333" points="452.1606,363.3472,442.1606,367.3472,452.1606,371.3472,448.1606,367.3472" style="stroke:#333333;stroke-width:1;"/><text fill="#000000" font-family="Verdana" font-size="13" lengthAdjust="spacing" textLength="237.0532" x="448.1606" y="349.6177">Check for feature flag CVSSuperApp</text></g><path d="M103,380.3472 L103,421.3472 L577,421.3472 L577,390.3472 L567,380.3472 L103,380.3472" fill="#F0F8FF" style="stroke:#8888CC;stroke-width:1;"/><path d="M567,380.3472 L567,390.3472 L577,390.3472 L567,380.3472" fill="#F0F8FF" style="stroke:#8888CC;stroke-width:1;"/><text fill="#000000" font-family="Verdana" font-size="13" lengthAdjust="spacing" textLength="453.0068" x="109" y="398.417">User is determined eligible and navigates to Plan Documents page.\n</text><text fill="#000000" font-family="Verdana" font-size="13" lengthAdjust="spacing" textLength="329.6782" x="109" y="414.2163">The client now follows the Plan Docs specific logic.</text><g class="message" data-participant-1="Client" data-participant-2="Features"><polygon fill="#333333" points="1013.8037,444.7451,1023.8037,448.7451,1013.8037,452.7451,1017.8037,448.7451" style="stroke:#333333;stroke-width:1;"/><line style="stroke:#333333;stroke-width:1;" x1="98.6289" x2="1019.8037" y1="448.7451" y2="448.7451"/><text fill="#000000" font-family="Verdana" font-size="13" lengthAdjust="spacing" textLength="381.4497" x="105.6289" y="444.0156">Pre-check for document features (e.g., PlanDocsMsgAvail)</text></g><g class="message" data-participant-1="Features" data-participant-2="Client"><polygon fill="#333333" points="109.6289,474.5444,99.6289,478.5444,109.6289,482.5444,105.6289,478.5444" style="stroke:#333333;stroke-width:1;"/><line style="stroke:#333333;stroke-width:1;stroke-dasharray:2.0,2.0;" x1="103.6289" x2="1024.8037" y1="478.5444" y2="478.5444"/><text fill="#000000" font-family="Verdana" font-size="13" lengthAdjust="spacing" textLength="157.8726" x="115.6289" y="473.8149">Return enabled features</text></g><path d="M15,493.5444 L79.0493,493.5444 L79.0493,501.3438 L69.0493,511.3438 L15,511.3438 L15,493.5444" fill="#FFFFFF" style="stroke:#000000;stroke-width:1;"/><rect fill="none" height="434.5591" style="stroke:#000000;stroke-width:1;" width="1729.0933" x="15" y="493.5444"/><text fill="#000000" font-family="Verdana" font-size="13" font-weight="bold" lengthAdjust="spacing" textLength="19.0493" x="30" y="507.6143">alt</text><text fill="#000000" font-family="Verdana" font-size="11" font-weight="bold" lengthAdjust="spacing" textLength="307.189" x="94.0493" y="506.6035">[PlanDocsMsgAvail is enabled or no doc features]</text><g class="message" data-participant-1="Client" data-participant-2="Client"><line style="stroke:#333333;stroke-width:1;" x1="98.6289" x2="140.6289" y1="533.1431" y2="533.1431"/><line style="stroke:#333333;stroke-width:1;" x1="140.6289" x2="140.6289" y1="533.1431" y2="546.1431"/><line style="stroke:#333333;stroke-width:1;" x1="99.6289" x2="140.6289" y1="546.1431" y2="546.1431"/><polygon fill="#333333" points="109.6289,542.1431,99.6289,546.1431,109.6289,550.1431,105.6289,546.1431" style="stroke:#333333;stroke-width:1;"/><text fill="#000000" font-family="Verdana" font-size="13" lengthAdjust="spacing" textLength="202.6489" x="105.6289" y="528.4136">Display "Special Messaging" UI</text></g><path d="M319.6489,519.8438 L319.6489,544.8438 L412.6489,544.8438 L412.6489,529.8438 L402.6489,519.8438 L319.6489,519.8438" fill="#F0F8FF" style="stroke:#8888CC;stroke-width:1;"/><path d="M402.6489,519.8438 L402.6489,529.8438 L412.6489,529.8438 L402.6489,519.8438" fill="#F0F8FF" style="stroke:#8888CC;stroke-width:1;"/><text fill="#000000" font-family="Verdana" font-size="13" lengthAdjust="spacing" textLength="72.814" x="325.6489" y="537.9136">End of flow</text><line style="stroke:#000000;stroke-width:1;stroke-dasharray:2.0,2.0;" x1="15" x2="1744.0933" y1="555.1431" y2="555.1431"/><text fill="#000000" font-family="Verdana" font-size="11" font-weight="bold" lengthAdjust="spacing" textLength="251.9741" x="20" y="566.2021">[Relevant PlanDoc features are enabled]</text><g class="message" data-participant-1="Client" data-participant-2="BFF"><polygon fill="#333333" points="429.1606,603.1104,439.1606,607.1104,429.1606,611.1104,433.1606,607.1104" style="stroke:#333333;stroke-width:1;"/><line style="stroke:#333333;stroke-width:1;" x1="98.6289" x2="435.1606" y1="607.1104" y2="607.1104"/><text fill="#000000" font-family="Verdana" font-size="13" lengthAdjust="spacing" textLength="224.4849" x="105.6289" y="586.5815">POST /v1/cvs/plan-documents/list</text><text fill="#000000" font-family="Verdana" font-size="13" lengthAdjust="spacing" textLength="318.5317" x="105.6289" y="602.3809">(with policyResourceId, membershipResourceId)</text></g><g class="message" data-participant-1="BFF" data-participant-2="Benefits"><polygon fill="#333333" points="1183.8857,632.9097,1193.8857,636.9097,1183.8857,640.9097,1187.8857,636.9097" style="stroke:#333333;stroke-width:1;"/><line style="stroke:#333333;stroke-width:1;" x1="441.1606" x2="1189.8857" y1="636.9097" y2="636.9097"/><text fill="#000000" font-family="Verdana" font-size="13" lengthAdjust="spacing" textLength="216.6646" x="448.1606" y="632.1802">GET /plan-document-list/retrieve</text></g><g class="message" data-participant-1="Benefits" data-participant-2="Redis"><polygon fill="#333333" points="1412.8706,662.709,1422.8706,666.709,1412.8706,670.709,1416.8706,666.709" style="stroke:#333333;stroke-width:1;"/><line style="stroke:#333333;stroke-width:1;" x1="1195.8857" x2="1418.8706" y1="666.709" y2="666.709"/><text fill="#000000" font-family="Verdana" font-size="13" lengthAdjust="spacing" textLength="204.9849" x="1202.8857" y="661.9795">Check for cached document list</text></g><path d="M1112.2466,681.709 L1176.2959,681.709 L1176.2959,689.5083 L1166.2959,699.5083 L1112.2466,699.5083 L1112.2466,681.709" fill="#FFFFFF" style="stroke:#000000;stroke-width:1;"/><rect fill="none" height="107.1973" style="stroke:#000000;stroke-width:1;" width="621.8467" x="1112.2466" y="681.709"/><text fill="#000000" font-family="Verdana" font-size="13" font-weight="bold" lengthAdjust="spacing" textLength="19.0493" x="1127.2466" y="695.7788">alt</text><text fill="#000000" font-family="Verdana" font-size="11" font-weight="bold" lengthAdjust="spacing" textLength="79.8735" x="1191.2959" y="694.7681">[Cache Miss]</text><g class="message" data-participant-1="Benefits" data-participant-2="CoreAPI"><polygon fill="#333333" points="1631.3994,717.3076,1641.3994,721.3076,1631.3994,725.3076,1635.3994,721.3076" style="stroke:#333333;stroke-width:1;"/><line style="stroke:#333333;stroke-width:1;" x1="1195.8857" x2="1637.3994" y1="721.3076" y2="721.3076"/><text fill="#000000" font-family="Verdana" font-size="13" lengthAdjust="spacing" textLength="145.647" x="1202.8857" y="716.5781">Request document list</text></g><g class="message" data-participant-1="CoreAPI" data-participant-2="Benefits"><polygon fill="#333333" points="1206.8857,747.1069,1196.8857,751.1069,1206.8857,755.1069,1202.8857,751.1069" style="stroke:#333333;stroke-width:1;"/><line style="stroke:#333333;stroke-width:1;stroke-dasharray:2.0,2.0;" x1="1200.8857" x2="1642.3994" y1="751.1069" y2="751.1069"/><text fill="#000000" font-family="Verdana" font-size="13" lengthAdjust="spacing" textLength="136.8047" x="1212.8857" y="746.3774">Return document list</text></g><g class="message" data-participant-1="Benefits" data-participant-2="Redis"><polygon fill="#333333" points="1412.8706,776.9063,1422.8706,780.9063,1412.8706,784.9063,1416.8706,780.9063" style="stroke:#333333;stroke-width:1;"/><line style="stroke:#333333;stroke-width:1;" x1="1195.8857" x2="1418.8706" y1="780.9063" y2="780.9063"/><text fill="#000000" font-family="Verdana" font-size="13" lengthAdjust="spacing" textLength="191.2612" x="1202.8857" y="776.1768">Cache response (1-hour TTL)</text></g><g class="message" data-participant-1="Redis" data-participant-2="Benefits"><polygon fill="#333333" points="1206.8857,813.7056,1196.8857,817.7056,1206.8857,821.7056,1202.8857,817.7056" style="stroke:#333333;stroke-width:1;"/><line style="stroke:#333333;stroke-width:1;stroke-dasharray:2.0,2.0;" x1="1200.8857" x2="1423.8706" y1="817.7056" y2="817.7056"/><text fill="#000000" font-family="Verdana" font-size="13" lengthAdjust="spacing" textLength="150.0142" x="1212.8857" y="812.9761">Return cached/new list</text></g><g class="message" data-participant-1="Benefits" data-participant-2="BFF"><polygon fill="#333333" points="452.1606,843.5049,442.1606,847.5049,452.1606,851.5049,448.1606,847.5049" style="stroke:#333333;stroke-width:1;"/><line style="stroke:#333333;stroke-width:1;stroke-dasharray:2.0,2.0;" x1="446.1606" x2="1194.8857" y1="847.5049" y2="847.5049"/><text fill="#000000" font-family="Verdana" font-size="13" lengthAdjust="spacing" textLength="313.4727" x="458.1606" y="842.7754">Return document list (may include reasonCode)</text></g><g class="message" data-participant-1="BFF" data-participant-2="BFF"><line style="stroke:#333333;stroke-width:1;" x1="441.1606" x2="483.1606" y1="877.3042" y2="877.3042"/><line style="stroke:#333333;stroke-width:1;" x1="483.1606" x2="483.1606" y1="877.3042" y2="890.3042"/><line style="stroke:#333333;stroke-width:1;" x1="442.1606" x2="483.1606" y1="890.3042" y2="890.3042"/><polygon fill="#333333" points="452.1606,886.3042,442.1606,890.3042,452.1606,894.3042,448.1606,890.3042" style="stroke:#333333;stroke-width:1;"/><text fill="#000000" font-family="Verdana" font-size="13" lengthAdjust="spacing" textLength="224.542" x="448.1606" y="872.5747">Augment/transform data for client</text></g><g class="message" data-participant-1="BFF" data-participant-2="Client"><polygon fill="#333333" points="109.6289,916.1035,99.6289,920.1035,109.6289,924.1035,105.6289,920.1035" style="stroke:#333333;stroke-width:1;"/><line style="stroke:#333333;stroke-width:1;stroke-dasharray:2.0,2.0;" x1="103.6289" x2="440.1606" y1="920.1035" y2="920.1035"/><text fill="#000000" font-family="Verdana" font-size="13" lengthAdjust="spacing" textLength="200.1733" x="115.6289" y="915.374">Return document list response</text></g><path d="M24,940.1035 L24,965.1035 L515,965.1035 L515,950.1035 L505,940.1035 L24,940.1035" fill="#F0F8FF" style="stroke:#8888CC;stroke-width:1;"/><path d="M505,940.1035 L505,950.1035 L515,950.1035 L505,940.1035" fill="#F0F8FF" style="stroke:#8888CC;stroke-width:1;"/><text fill="#000000" font-family="Verdana" font-size="13" lengthAdjust="spacing" textLength="411.271" x="59.6379" y="958.1733">User selects a document from the list, triggering PDF retrieval.</text><g class="message" data-participant-1="Client" data-participant-2="BFF"><polygon fill="#333333" points="429.1606,1004.5015,439.1606,1008.5015,429.1606,1012.5015,433.1606,1008.5015" style="stroke:#333333;stroke-width:1;"/><line style="stroke:#333333;stroke-width:1;" x1="98.6289" x2="435.1606" y1="1008.5015" y2="1008.5015"/><text fill="#000000" font-family="Verdana" font-size="13" lengthAdjust="spacing" textLength="256.166" x="105.6289" y="987.9727">POST /v1/cvs/plan-documents/retrieve</text><text fill="#000000" font-family="Verdana" font-size="13" lengthAdjust="spacing" textLength="122.2305" x="105.6289" y="1003.772">(with documentId)</text></g><g class="message" data-participant-1="BFF" data-participant-2="Benefits"><polygon fill="#333333" points="1183.8857,1050.1001,1193.8857,1054.1001,1183.8857,1058.1001,1187.8857,1054.1001" style="stroke:#333333;stroke-width:1;"/><line style="stroke:#333333;stroke-width:1;" x1="441.1606" x2="1189.8857" y1="1054.1001" y2="1054.1001"/><text fill="#000000" font-family="Verdana" font-size="13" lengthAdjust="spacing" textLength="191.731" x="448.1606" y="1033.5713">GET /plan-document/retrieve</text><text fill="#000000" font-family="Verdana" font-size="13" lengthAdjust="spacing" textLength="268.0107" x="448.1606" y="1049.3706">(with communicationContentResourceId)</text></g><g class="message" data-participant-1="Benefits" data-participant-2="S3"><polygon fill="#333333" points="1504.6709,1079.8994,1514.6709,1083.8994,1504.6709,1087.8994,1508.6709,1083.8994" style="stroke:#333333;stroke-width:1;"/><line style="stroke:#333333;stroke-width:1;" x1="1195.8857" x2="1510.6709" y1="1083.8994" y2="1083.8994"/><text fill="#000000" font-family="Verdana" font-size="13" lengthAdjust="spacing" textLength="141.9844" x="1202.8857" y="1079.1699">Check for cached PDF</text></g><path d="M1112.2466,1098.8994 L1176.2959,1098.8994 L1176.2959,1106.6987 L1166.2959,1116.6987 L1112.2466,1116.6987 L1112.2466,1098.8994" fill="#FFFFFF" style="stroke:#000000;stroke-width:1;"/><rect fill="none" height="142.9966" style="stroke:#000000;stroke-width:1;" width="621.8467" x="1112.2466" y="1098.8994"/><text fill="#000000" font-family="Verdana" font-size="13" font-weight="bold" lengthAdjust="spacing" textLength="19.0493" x="1127.2466" y="1112.9692">alt</text><text fill="#000000" font-family="Verdana" font-size="11" font-weight="bold" lengthAdjust="spacing" textLength="79.8735" x="1191.2959" y="1111.9585">[Cache Miss]</text><g class="message" data-participant-1="Benefits" data-participant-2="CoreAPI"><polygon fill="#333333" points="1631.3994,1134.498,1641.3994,1138.498,1631.3994,1142.498,1635.3994,1138.498" style="stroke:#333333;stroke-width:1;"/><line style="stroke:#333333;stroke-width:1;" x1="1195.8857" x2="1637.3994" y1="1138.498" y2="1138.498"/><text fill="#000000" font-family="Verdana" font-size="13" lengthAdjust="spacing" textLength="151.9438" x="1202.8857" y="1133.7686">Request PDF document</text></g><g class="message" data-participant-1="CoreAPI" data-participant-2="Benefits"><polygon fill="#333333" points="1206.8857,1164.2974,1196.8857,1168.2974,1206.8857,1172.2974,1202.8857,1168.2974" style="stroke:#333333;stroke-width:1;"/><line style="stroke:#333333;stroke-width:1;stroke-dasharray:2.0,2.0;" x1="1200.8857" x2="1642.3994" y1="1168.2974" y2="1168.2974"/><text fill="#000000" font-family="Verdana" font-size="13" lengthAdjust="spacing" textLength="73.8042" x="1212.8857" y="1163.5679">Return PDF</text></g><path d="M1200,1181.2974 L1200,1206.2974 L1349,1206.2974 L1349,1191.2974 L1339,1181.2974 L1200,1181.2974" fill="#F0F8FF" style="stroke:#8888CC;stroke-width:1;"/><path d="M1339,1181.2974 L1339,1191.2974 L1349,1191.2974 L1339,1181.2974" fill="#F0F8FF" style="stroke:#8888CC;stroke-width:1;"/><text fill="#000000" font-family="Verdana" font-size="13" lengthAdjust="spacing" textLength="128.7686" x="1206" y="1199.3672">Verify byte size &gt; 0</text><g class="message" data-participant-1="Benefits" data-participant-2="S3"><polygon fill="#333333" points="1504.6709,1229.896,1514.6709,1233.896,1504.6709,1237.896,1508.6709,1233.896" style="stroke:#333333;stroke-width:1;"/><line style="stroke:#333333;stroke-width:1;" x1="1195.8857" x2="1510.6709" y1="1233.896" y2="1233.896"/><text fill="#000000" font-family="Verdana" font-size="13" lengthAdjust="spacing" textLength="145.0693" x="1202.8857" y="1229.1665">Store PDF in S3 cache</text></g><g class="message" data-participant-1="S3" data-participant-2="Benefits"><polygon fill="#333333" points="1206.8857,1266.6953,1196.8857,1270.6953,1206.8857,1274.6953,1202.8857,1270.6953" style="stroke:#333333;stroke-width:1;"/><line style="stroke:#333333;stroke-width:1;stroke-dasharray:2.0,2.0;" x1="1200.8857" x2="1515.6709" y1="1270.6953" y2="1270.6953"/><text fill="#000000" font-family="Verdana" font-size="13" lengthAdjust="spacing" textLength="156.311" x="1212.8857" y="1265.9658">Return cached/new PDF</text></g><g class="message" data-participant-1="Benefits" data-participant-2="BFF"><polygon fill="#333333" points="452.1606,1296.4946,442.1606,1300.4946,452.1606,1304.4946,448.1606,1300.4946" style="stroke:#333333;stroke-width:1;"/><line style="stroke:#333333;stroke-width:1;stroke-dasharray:2.0,2.0;" x1="446.1606" x2="1194.8857" y1="1300.4946" y2="1300.4946"/><text fill="#000000" font-family="Verdana" font-size="13" lengthAdjust="spacing" textLength="77.6509" x="458.1606" y="1295.7651">Stream PDF</text></g><g class="message" data-participant-1="BFF" data-participant-2="Client"><polygon fill="#333333" points="109.6289,1326.2939,99.6289,1330.2939,109.6289,1334.2939,105.6289,1330.2939" style="stroke:#333333;stroke-width:1;"/><line style="stroke:#333333;stroke-width:1;stroke-dasharray:2.0,2.0;" x1="103.6289" x2="440.1606" y1="1330.2939" y2="1330.2939"/><text fill="#000000" font-family="Verdana" font-size="13" lengthAdjust="spacing" textLength="77.6509" x="115.6289" y="1325.5645">Stream PDF</text></g><!--SRC=[bLPDJ-D84BtxLzGoqYX8X0oBa127aK8W20a48ioSvjAqoqwBThUttGd3ZlQ_RrNRxO_4CpjB3YJTzV7gLRso__1hB11ABPH94g-yHdWelR86JYxWKGi3LrPk2ZI-WhcKM5KmULD-3RTNi10khU3HuLIkKRx2dSsLF4mI8RrrSF1Geg48FhEkW8LM5EC0HDLyJKhXl9Ag5CRls5ukby6G_W-j0fuRPpSbWNcy3KPyLXyDRPSe_CPXC8J9_VtoC9Z7uw7n9HhC59MuGhTL4klqpM6I2YzUH8Lmy8IfeW84rHjCmk_U_UgqTxaw7IPPM8SjfIr-FgNlILAzAaFsee0A_zgWaGW_4g2_nox8fNKfkeNLnE-7ixEplNiXNtCYmwIDJVQ9Fy5ipbqP3J1tphurPwUdf-7iJcLufmmE78GGuVBIVXyDnETx20H_ad_w1HhhOt5ZYC-ph0dNot5-BZd8Y_qE1xT6UIKqN6kLgnUbbN-7Z_LWA9F397Esw0Oqq_QDcl_XJkLhVwat68BNKmZJppncS04nfcFoAmyqYR2fq05tjuP3TcJU3HnvIQ4rpBOdCrAGoUin33tfZAPj2eSqUeR55YUs5xOseLxI777G0eiNT4zOsOsJUCjr42AIbjeYNQQAKizIAe4mSyH1i7RuMuH_ph8u-MpN6koX6vWDi2s2o1b5OqFCYXmMNrUhJObkNfO9cXIeGqaIEkoOSB1PL3p05oQK59IYHrVGUAM0eOUqTWJv6h5LkV24ozlTxLEA78-_6Ohol4QGTVkCVID4cZfCBkjENXLK9KgLAGcQjz9nWCQecX5g26YA-aZpJZr_GkyKRedHIHTesH-V6uTeTkQdHtQt2vccjC7USWeJFCwFZm9AZdrVvVEjKFfmloTD-0l6n6r18uYaj6jFS17QxmLZVgCrWJ2MSGpREiJVfhfI5KtIEwqnvevOkATrBtAIr05ykMqzUxszW6kYbJhC6Wi6g6b-dr0JYwR5rX4WYF86t0YIHWCFg-UWARcjWgwcaSXgfgbDtqpz12gjLlAzKyXHevbghShkzB3D4uSvxleBkBccH8CCKqumS_KSOESQVSY_VWRqvI1vvQTTkpb6qlfoZy930UvLrV6_6xPv3eIErnje6A_l5ssdmtAQKVcvtsWP0HhrfhI6MZSvcQw9ENX-lkkO8-rqzTIEuwbh9cO6tuR9kyHjbyV0mgIWyLD6watAc4HbpSAckD_346A-oTbrvXsjl_3cmBkwRadSE3st4LKDiqSIabXpkyx2odYyMdOR8Yu4QeNGIIiBkwK5LsSvQb26dLUH8YJLBtfBWHzIlBCuzn5Gt3n7nyylJkHYekFa_seaJc_KIRo9MlWT7Um5aROeDeOUElnkkB36az6koFhZHMz28nAXohh5DIAANmk2UOa0az_J0YSSsLkqiNgsNudsx1rUtkc-KdyZV8PFev12KIiVtkC8Yp9y4afB1ZAXq__KHqGs8esLfz4lEelTuUtTDnFwBm00]--></g></svg>