<svg xmlns="http://www.w3.org/2000/svg" xmlns:xlink="http://www.w3.org/1999/xlink" contentStyleType="text/css" data-diagram-type="SEQUENCE" height="1124px" preserveAspectRatio="none" style="width:1590px;height:1124px;background:#FFFFFF;" version="1.1" viewBox="0 0 1590 1124" width="1590px" zoomAndPan="magnify"><defs/><g><g><title>APIc 03 GW</title><rect fill="#FFFFFF" height="909.8125" style="stroke:#181818;stroke-width:1;" width="10" x="318.189" y="114.9609"/></g><g><title>CVS BFF</title><rect fill="#FFFFFF" height="805.7578" style="stroke:#181818;stroke-width:1;" width="10" x="609.0796" y="188.6641"/></g><g><title>SuperApp plangroup cache</title><rect fill="#FFFFFF" height="30.3516" style="stroke:#181818;stroke-width:1;" width="10" x="1082.7637" y="244.3672"/></g><g><title>SuperApp plangroup cache</title><rect fill="#FFFFFF" height="30.3516" style="stroke:#181818;stroke-width:1;" width="10" x="1082.7637" y="522.0156"/></g><g><title>Plan Groups service</title><rect fill="#FFFFFF" height="30.3516" style="stroke:#181818;stroke-width:1;" width="10" x="1254.6318" y="357.2578"/></g><g><title>MMF Service</title><rect fill="#FFFFFF" height="30.3516" style="stroke:#181818;stroke-width:1;" width="10" x="1382.8833" y="417.9609"/></g><g><title>Plan Docs Service</title><rect fill="#FFFFFF" height="30.3516" style="stroke:#181818;stroke-width:1;" width="10" x="1505.2969" y="727.125"/></g><rect fill="none" height="356.7031" style="stroke:#000000;stroke-width:1.5;" width="959.1074" x="487" y="203.6641"/><rect fill="none" height="61.7031" style="stroke:#000000;stroke-width:1.5;" width="520.2427" x="567.521" y="574.3672"/><rect fill="none" height="115.4063" style="stroke:#000000;stroke-width:1.5;" width="1120.4863" x="464" y="650.0703"/><rect fill="none" height="185.5938" style="stroke:#000000;stroke-width:1.5;" width="452.6245" x="547.521" y="779.4766"/><rect fill="none" height="153.2422" style="stroke:#000000;stroke-width:1.5;" width="432.6245" x="557.521" y="804.8281"/><rect fill="none" height="120.8906" style="stroke:#000000;stroke-width:1.5;" width="412.6245" x="567.521" y="830.1797"/><g><title>User</title><rect fill="#000000" fill-opacity="0.00000" height="960.1641" width="8" x="18.7793" y="82.6094"/><line style="stroke:#181818;stroke-width:0.5;stroke-dasharray:5.0,5.0;" x1="22" x2="22" y1="82.6094" y2="1042.7734"/></g><g><title>APIc 03 GW</title><rect fill="#000000" fill-opacity="0.00000" height="960.1641" width="8" x="319.189" y="82.6094"/><line style="stroke:#181818;stroke-width:0.5;stroke-dasharray:5.0,5.0;" x1="322.6787" x2="322.6787" y1="82.6094" y2="1042.7734"/></g><g><title>CVS BFF</title><rect fill="#000000" fill-opacity="0.00000" height="960.1641" width="8" x="610.0796" y="82.6094"/><line style="stroke:#181818;stroke-width:0.5;stroke-dasharray:5.0,5.0;" x1="613.521" x2="613.521" y1="82.6094" y2="1042.7734"/></g><g><title>SuperApp plangroup cache</title><rect fill="#000000" fill-opacity="0.00000" height="960.1641" width="8" x="1083.7637" y="82.6094"/><line style="stroke:#181818;stroke-width:0.5;stroke-dasharray:5.0,5.0;" x1="1086.9229" x2="1086.9229" y1="82.6094" y2="1042.7734"/></g><g><title>Plan Groups service</title><rect fill="#000000" fill-opacity="0.00000" height="960.1641" width="8" x="1255.6318" y="82.6094"/><line style="stroke:#181818;stroke-width:0.5;stroke-dasharray:5.0,5.0;" x1="1259.6045" x2="1259.6045" y1="82.6094" y2="1042.7734"/></g><g><title>MMF Service</title><rect fill="#000000" fill-opacity="0.00000" height="960.1641" width="8" x="1383.8833" y="82.6094"/><line style="stroke:#181818;stroke-width:0.5;stroke-dasharray:5.0,5.0;" x1="1387.6592" x2="1387.6592" y1="82.6094" y2="1042.7734"/></g><g><title>Plan Docs Service</title><rect fill="#000000" fill-opacity="0.00000" height="960.1641" width="8" x="1506.2969" y="82.6094"/><line style="stroke:#181818;stroke-width:0.5;stroke-dasharray:5.0,5.0;" x1="1510.1074" x2="1510.1074" y1="82.6094" y2="1042.7734"/></g><g class="participant participant-head" data-participant="User"><text fill="#000000" font-family="sans-serif" font-size="14" lengthAdjust="spacing" textLength="29.5586" x="5" y="79.5332">User</text><ellipse cx="22.7793" cy="13.5" fill="#E2E2F0" rx="8" ry="8" style="stroke:#181818;stroke-width:0.5;"/><path d="M22.7793,21.5 L22.7793,48.5 M9.7793,29.5 L35.7793,29.5 M22.7793,48.5 L9.7793,63.5 M22.7793,48.5 L35.7793,63.5" fill="none" style="stroke:#181818;stroke-width:0.5;"/></g><g class="participant participant-tail" data-participant="User"><text fill="#000000" font-family="sans-serif" font-size="14" lengthAdjust="spacing" textLength="29.5586" x="5" y="1056.3066">User</text><ellipse cx="22.7793" cy="1067.8828" fill="#E2E2F0" rx="8" ry="8" style="stroke:#181818;stroke-width:0.5;"/><path d="M22.7793,1075.8828 L22.7793,1102.8828 M9.7793,1083.8828 L35.7793,1083.8828 M22.7793,1102.8828 L9.7793,1117.8828 M22.7793,1102.8828 L35.7793,1117.8828" fill="none" style="stroke:#181818;stroke-width:0.5;"/></g><g class="participant participant-head" data-participant="Gateway"><rect fill="#E2E2F0" height="31.6094" rx="2.5" ry="2.5" style="stroke:#181818;stroke-width:0.5;" width="91.0205" x="277.6787" y="50"/><text fill="#000000" font-family="sans-serif" font-size="14" lengthAdjust="spacing" textLength="77.0205" x="284.6787" y="71.5332">APIc 03 GW</text></g><g class="participant participant-tail" data-participant="Gateway"><rect fill="#E2E2F0" height="31.6094" rx="2.5" ry="2.5" style="stroke:#181818;stroke-width:0.5;" width="91.0205" x="277.6787" y="1041.7734"/><text fill="#000000" font-family="sans-serif" font-size="14" lengthAdjust="spacing" textLength="77.0205" x="284.6787" y="1063.3066">APIc 03 GW</text></g><g class="participant participant-head" data-participant="BFF"><rect fill="#E2E2F0" height="31.6094" rx="2.5" ry="2.5" style="stroke:#181818;stroke-width:0.5;" width="73.1172" x="577.521" y="50"/><text fill="#000000" font-family="sans-serif" font-size="14" lengthAdjust="spacing" textLength="59.1172" x="584.521" y="71.5332">CVS BFF</text></g><g class="participant participant-tail" data-participant="BFF"><rect fill="#E2E2F0" height="31.6094" rx="2.5" ry="2.5" style="stroke:#181818;stroke-width:0.5;" width="73.1172" x="577.521" y="1041.7734"/><text fill="#000000" font-family="sans-serif" font-size="14" lengthAdjust="spacing" textLength="59.1172" x="584.521" y="1063.3066">CVS BFF</text></g><g class="participant participant-head" data-participant="Cache"><rect fill="#E2E2F0" height="31.6094" rx="2.5" ry="2.5" style="stroke:#181818;stroke-width:0.5;" width="183.6816" x="995.9229" y="50"/><text fill="#000000" font-family="sans-serif" font-size="14" lengthAdjust="spacing" textLength="169.6816" x="1002.9229" y="71.5332">SuperApp plangroup cache</text></g><g class="participant participant-tail" data-participant="Cache"><rect fill="#E2E2F0" height="31.6094" rx="2.5" ry="2.5" style="stroke:#181818;stroke-width:0.5;" width="183.6816" x="995.9229" y="1041.7734"/><text fill="#000000" font-family="sans-serif" font-size="14" lengthAdjust="spacing" textLength="169.6816" x="1002.9229" y="1063.3066">SuperApp plangroup cache</text></g><g class="participant participant-head" data-participant="PlanGroupsSvc"><rect fill="#E2E2F0" height="31.6094" rx="2.5" ry="2.5" style="stroke:#181818;stroke-width:0.5;" width="140.0547" x="1189.6045" y="50"/><text fill="#000000" font-family="sans-serif" font-size="14" lengthAdjust="spacing" textLength="126.0547" x="1196.6045" y="71.5332">Plan Groups service</text></g><g class="participant participant-tail" data-participant="PlanGroupsSvc"><rect fill="#E2E2F0" height="31.6094" rx="2.5" ry="2.5" style="stroke:#181818;stroke-width:0.5;" width="140.0547" x="1189.6045" y="1041.7734"/><text fill="#000000" font-family="sans-serif" font-size="14" lengthAdjust="spacing" textLength="126.0547" x="1196.6045" y="1063.3066">Plan Groups service</text></g><g class="participant participant-head" data-participant="MMFSvc"><rect fill="#E2E2F0" height="31.6094" rx="2.5" ry="2.5" style="stroke:#181818;stroke-width:0.5;" width="96.4482" x="1339.6592" y="50"/><text fill="#000000" font-family="sans-serif" font-size="14" lengthAdjust="spacing" textLength="82.4482" x="1346.6592" y="71.5332">MMF Service</text></g><g class="participant participant-tail" data-participant="MMFSvc"><rect fill="#E2E2F0" height="31.6094" rx="2.5" ry="2.5" style="stroke:#181818;stroke-width:0.5;" width="96.4482" x="1339.6592" y="1041.7734"/><text fill="#000000" font-family="sans-serif" font-size="14" lengthAdjust="spacing" textLength="82.4482" x="1346.6592" y="1063.3066">MMF Service</text></g><g class="participant participant-head" data-participant="PlanDocsSvc"><rect fill="#E2E2F0" height="31.6094" rx="2.5" ry="2.5" style="stroke:#181818;stroke-width:0.5;" width="128.3789" x="1446.1074" y="50"/><text fill="#000000" font-family="sans-serif" font-size="14" lengthAdjust="spacing" textLength="114.3789" x="1453.1074" y="71.5332">Plan Docs Service</text></g><g class="participant participant-tail" data-participant="PlanDocsSvc"><rect fill="#E2E2F0" height="31.6094" rx="2.5" ry="2.5" style="stroke:#181818;stroke-width:0.5;" width="128.3789" x="1446.1074" y="1041.7734"/><text fill="#000000" font-family="sans-serif" font-size="14" lengthAdjust="spacing" textLength="114.3789" x="1453.1074" y="1063.3066">Plan Docs Service</text></g><g><title>APIc 03 GW</title><rect fill="#FFFFFF" height="909.8125" style="stroke:#181818;stroke-width:1;" width="10" x="318.189" y="114.9609"/></g><g><title>CVS BFF</title><rect fill="#FFFFFF" height="805.7578" style="stroke:#181818;stroke-width:1;" width="10" x="609.0796" y="188.6641"/></g><g><title>SuperApp plangroup cache</title><rect fill="#FFFFFF" height="30.3516" style="stroke:#181818;stroke-width:1;" width="10" x="1082.7637" y="244.3672"/></g><g><title>SuperApp plangroup cache</title><rect fill="#FFFFFF" height="30.3516" style="stroke:#181818;stroke-width:1;" width="10" x="1082.7637" y="522.0156"/></g><g><title>Plan Groups service</title><rect fill="#FFFFFF" height="30.3516" style="stroke:#181818;stroke-width:1;" width="10" x="1254.6318" y="357.2578"/></g><g><title>MMF Service</title><rect fill="#FFFFFF" height="30.3516" style="stroke:#181818;stroke-width:1;" width="10" x="1382.8833" y="417.9609"/></g><g><title>Plan Docs Service</title><rect fill="#FFFFFF" height="30.3516" style="stroke:#181818;stroke-width:1;" width="10" x="1505.2969" y="727.125"/></g><g class="message" data-participant-1="User" data-participant-2="Gateway"><polygon fill="#181818" points="306.189,110.9609,316.189,114.9609,306.189,118.9609,310.189,114.9609" style="stroke:#181818;stroke-width:1;"/><line style="stroke:#181818;stroke-width:1;" x1="22.7793" x2="312.189" y1="114.9609" y2="114.9609"/><text fill="#000000" font-family="sans-serif" font-size="13" font-weight="bold" lengthAdjust="spacing" textLength="7.23" x="29.7793" y="110.1045">1</text><text fill="#000000" font-family="sans-serif" font-size="13" lengthAdjust="spacing" textLength="265.1797" x="41.0093" y="110.1045">GET /sa/plandocs/v1/list with id_token [cite: 1]</text></g><g class="message" data-participant-1="Gateway" data-participant-2="Gateway"><line style="stroke:#181818;stroke-width:1;" x1="328.189" x2="370.189" y1="145.3125" y2="145.3125"/><line style="stroke:#181818;stroke-width:1;" x1="370.189" x2="370.189" y1="145.3125" y2="158.3125"/><line style="stroke:#181818;stroke-width:1;" x1="329.189" x2="370.189" y1="158.3125" y2="158.3125"/><polygon fill="#181818" points="339.189,154.3125,329.189,158.3125,339.189,162.3125,335.189,158.3125" style="stroke:#181818;stroke-width:1;"/><text fill="#000000" font-family="sans-serif" font-size="13" font-weight="bold" lengthAdjust="spacing" textLength="7.23" x="335.189" y="140.4561">2</text><text fill="#000000" font-family="sans-serif" font-size="13" lengthAdjust="spacing" textLength="245.6606" x="346.4189" y="140.4561">Extract EIE Headers from id_token [cite: 2]</text></g><g class="message" data-participant-1="Gateway" data-participant-2="BFF"><polygon fill="#181818" points="597.0796,184.6641,607.0796,188.6641,597.0796,192.6641,601.0796,188.6641" style="stroke:#181818;stroke-width:1;"/><line style="stroke:#181818;stroke-width:1;" x1="328.189" x2="603.0796" y1="188.6641" y2="188.6641"/><text fill="#000000" font-family="sans-serif" font-size="13" font-weight="bold" lengthAdjust="spacing" textLength="7.23" x="335.189" y="183.8076">3</text><text fill="#000000" font-family="sans-serif" font-size="13" lengthAdjust="spacing" textLength="249.2915" x="346.4189" y="183.8076">Pass request to /sa/plandocs/v1/list [cite: 3]</text></g><path d="M487,203.6641 L547.1709,203.6641 L547.1709,212.0156 L537.1709,222.0156 L487,222.0156 L487,203.6641" fill="#EEEEEE" style="stroke:#000000;stroke-width:1.5;"/><rect fill="none" height="356.7031" style="stroke:#000000;stroke-width:1.5;" width="959.1074" x="487" y="203.6641"/><text fill="#000000" font-family="sans-serif" font-size="13" font-weight="bold" lengthAdjust="spacing" textLength="15.1709" x="502" y="218.1592">alt</text><text fill="#000000" font-family="sans-serif" font-size="11" font-weight="bold" lengthAdjust="spacing" textLength="135.1313" x="562.1709" y="217.083">["Check for cached data"]</text><g class="message" data-participant-1="BFF" data-participant-2="Cache"><polygon fill="#181818" points="1070.7637,240.3672,1080.7637,244.3672,1070.7637,248.3672,1074.7637,244.3672" style="stroke:#181818;stroke-width:1;"/><line style="stroke:#181818;stroke-width:1;" x1="619.0796" x2="1076.7637" y1="244.3672" y2="244.3672"/><text fill="#000000" font-family="sans-serif" font-size="13" font-weight="bold" lengthAdjust="spacing" textLength="7.23" x="626.0796" y="239.5107">4</text><text fill="#000000" font-family="sans-serif" font-size="13" lengthAdjust="spacing" textLength="250.0151" x="637.3096" y="239.5107">Check for cached plandocs for user [cite: 2]</text></g><g class="message" data-participant-1="Cache" data-participant-2="BFF"><polygon fill="#181818" points="630.0796,270.7188,620.0796,274.7188,630.0796,278.7188,626.0796,274.7188" style="stroke:#181818;stroke-width:1;"/><line style="stroke:#181818;stroke-width:1;stroke-dasharray:2.0,2.0;" x1="624.0796" x2="1086.7637" y1="274.7188" y2="274.7188"/><text fill="#000000" font-family="sans-serif" font-size="13" font-weight="bold" lengthAdjust="spacing" textLength="7.23" x="636.0796" y="269.8623">5</text><text fill="#000000" font-family="sans-serif" font-size="13" lengthAdjust="spacing" textLength="115.6162" x="647.3096" y="269.8623">Return cache status</text></g><path d="M497,287.7188 L497,313.7188 L729,313.7188 L729,297.7188 L719,287.7188 L497,287.7188" fill="#FEFFDD" style="stroke:#181818;stroke-width:0.5;"/><path d="M719,287.7188 L719,297.7188 L729,297.7188 L719,287.7188" fill="#FEFFDD" style="stroke:#181818;stroke-width:0.5;"/><text fill="#000000" font-family="sans-serif" font-size="13" lengthAdjust="spacing" textLength="211.7007" x="503" y="306.2139">If cache is hit, skip to filtering [cite: 3]</text><line style="stroke:#000000;stroke-width:1;stroke-dasharray:2.0,2.0;" x1="487" x2="1446.1074" y1="320.0703" y2="320.0703"/><text fill="#000000" font-family="sans-serif" font-size="11" font-weight="bold" lengthAdjust="spacing" textLength="99.0591" x="492" y="331.4893">["No cached data"]</text><g class="message" data-participant-1="BFF" data-participant-2="PlanGroupsSvc"><polygon fill="#181818" points="1242.6318,353.2578,1252.6318,357.2578,1242.6318,361.2578,1246.6318,357.2578" style="stroke:#181818;stroke-width:1;"/><line style="stroke:#181818;stroke-width:1;" x1="619.0796" x2="1248.6318" y1="357.2578" y2="357.2578"/><text fill="#000000" font-family="sans-serif" font-size="13" font-weight="bold" lengthAdjust="spacing" textLength="7.23" x="626.0796" y="352.4014">6</text><text fill="#000000" font-family="sans-serif" font-size="13" lengthAdjust="spacing" textLength="161.1353" x="637.3096" y="352.4014">GET /v3/plangroups [cite: 4]</text></g><g class="message" data-participant-1="PlanGroupsSvc" data-participant-2="BFF"><polygon fill="#181818" points="630.0796,383.6094,620.0796,387.6094,630.0796,391.6094,626.0796,387.6094" style="stroke:#181818;stroke-width:1;"/><line style="stroke:#181818;stroke-width:1;stroke-dasharray:2.0,2.0;" x1="624.0796" x2="1258.6318" y1="387.6094" y2="387.6094"/><text fill="#000000" font-family="sans-serif" font-size="13" font-weight="bold" lengthAdjust="spacing" textLength="7.23" x="636.0796" y="382.7529">7</text><text fill="#000000" font-family="sans-serif" font-size="13" lengthAdjust="spacing" textLength="135.8716" x="647.3096" y="382.7529">Return plangroups data</text></g><g class="message" data-participant-1="BFF" data-participant-2="MMFSvc"><polygon fill="#181818" points="1370.8833,413.9609,1380.8833,417.9609,1370.8833,421.9609,1374.8833,417.9609" style="stroke:#181818;stroke-width:1;"/><line style="stroke:#181818;stroke-width:1;" x1="619.0796" x2="1376.8833" y1="417.9609" y2="417.9609"/><text fill="#000000" font-family="sans-serif" font-size="13" font-weight="bold" lengthAdjust="spacing" textLength="7.23" x="626.0796" y="413.1045">8</text><text fill="#000000" font-family="sans-serif" font-size="13" lengthAdjust="spacing" textLength="283.9561" x="637.3096" y="413.1045">GET /v2/features (for CVSSuperApp flag) [cite: 4]</text></g><g class="message" data-participant-1="MMFSvc" data-participant-2="BFF"><polygon fill="#181818" points="630.0796,444.3125,620.0796,448.3125,630.0796,452.3125,626.0796,448.3125" style="stroke:#181818;stroke-width:1;"/><line style="stroke:#181818;stroke-width:1;stroke-dasharray:2.0,2.0;" x1="624.0796" x2="1386.8833" y1="448.3125" y2="448.3125"/><text fill="#000000" font-family="sans-serif" font-size="13" font-weight="bold" lengthAdjust="spacing" textLength="7.23" x="636.0796" y="443.4561">9</text><text fill="#000000" font-family="sans-serif" font-size="13" lengthAdjust="spacing" textLength="145.9707" x="647.3096" y="443.4561">Return feature flag status</text></g><g class="message" data-participant-1="BFF" data-participant-2="BFF"><line style="stroke:#181818;stroke-width:1;" x1="619.0796" x2="661.0796" y1="478.6641" y2="478.6641"/><line style="stroke:#181818;stroke-width:1;" x1="661.0796" x2="661.0796" y1="478.6641" y2="491.6641"/><line style="stroke:#181818;stroke-width:1;" x1="620.0796" x2="661.0796" y1="491.6641" y2="491.6641"/><polygon fill="#181818" points="630.0796,487.6641,620.0796,491.6641,630.0796,495.6641,626.0796,491.6641" style="stroke:#181818;stroke-width:1;"/><text fill="#000000" font-family="sans-serif" font-size="13" font-weight="bold" lengthAdjust="spacing" textLength="14.46" x="626.0796" y="473.8076">10</text><text fill="#000000" font-family="sans-serif" font-size="13" lengthAdjust="spacing" textLength="266.6333" x="644.5396" y="473.8076">Filter plans without CVSSuperApp flag [cite: 5]</text></g><g class="message" data-participant-1="BFF" data-participant-2="Cache"><polygon fill="#181818" points="1070.7637,518.0156,1080.7637,522.0156,1070.7637,526.0156,1074.7637,522.0156" style="stroke:#181818;stroke-width:1;"/><line style="stroke:#181818;stroke-width:1;" x1="619.0796" x2="1076.7637" y1="522.0156" y2="522.0156"/><text fill="#000000" font-family="sans-serif" font-size="13" font-weight="bold" lengthAdjust="spacing" textLength="14.46" x="626.0796" y="517.1592">11</text><text fill="#000000" font-family="sans-serif" font-size="13" lengthAdjust="spacing" textLength="215.3506" x="644.5396" y="517.1592">Cache the filtered plangroups [cite: 6]</text></g><g class="message" data-participant-1="Cache" data-participant-2="BFF"><polygon fill="#181818" points="630.0796,548.3672,620.0796,552.3672,630.0796,556.3672,626.0796,552.3672" style="stroke:#181818;stroke-width:1;"/><line style="stroke:#181818;stroke-width:1;stroke-dasharray:2.0,2.0;" x1="624.0796" x2="1086.7637" y1="552.3672" y2="552.3672"/><text fill="#000000" font-family="sans-serif" font-size="13" font-weight="bold" lengthAdjust="spacing" textLength="14.46" x="636.0796" y="547.5107">12</text><text fill="#000000" font-family="sans-serif" font-size="13" lengthAdjust="spacing" textLength="114.8672" x="654.5396" y="547.5107">Confirm cache write</text></g><path d="M567.521,574.3672 L639.9556,574.3672 L639.9556,582.7188 L629.9556,592.7188 L567.521,592.7188 L567.521,574.3672" fill="#EEEEEE" style="stroke:#000000;stroke-width:1.5;"/><rect fill="none" height="61.7031" style="stroke:#000000;stroke-width:1.5;" width="520.2427" x="567.521" y="574.3672"/><text fill="#000000" font-family="sans-serif" font-size="13" font-weight="bold" lengthAdjust="spacing" textLength="27.4346" x="582.521" y="588.8623">loop</text><text fill="#000000" font-family="sans-serif" font-size="11" font-weight="bold" lengthAdjust="spacing" textLength="138.7729" x="654.9556" y="587.7861">["Filter local plan groups"]</text><g class="message" data-participant-1="BFF" data-participant-2="BFF"><line style="stroke:#181818;stroke-width:1;" x1="619.0796" x2="661.0796" y1="615.0703" y2="615.0703"/><line style="stroke:#181818;stroke-width:1;" x1="661.0796" x2="661.0796" y1="615.0703" y2="628.0703"/><line style="stroke:#181818;stroke-width:1;" x1="620.0796" x2="661.0796" y1="628.0703" y2="628.0703"/><polygon fill="#181818" points="630.0796,624.0703,620.0796,628.0703,630.0796,632.0703,626.0796,628.0703" style="stroke:#181818;stroke-width:1;"/><text fill="#000000" font-family="sans-serif" font-size="13" font-weight="bold" lengthAdjust="spacing" textLength="14.46" x="626.0796" y="610.2139">13</text><text fill="#000000" font-family="sans-serif" font-size="13" lengthAdjust="spacing" textLength="421.2241" x="644.5396" y="610.2139">Filter for ActivelyCovered, Dental/Medical, &amp; exclude sponsor IDs [cite: 7]</text></g><path d="M464,650.0703 L536.4346,650.0703 L536.4346,658.4219 L526.4346,668.4219 L464,668.4219 L464,650.0703" fill="#EEEEEE" style="stroke:#000000;stroke-width:1.5;"/><rect fill="none" height="115.4063" style="stroke:#000000;stroke-width:1.5;" width="1120.4863" x="464" y="650.0703"/><text fill="#000000" font-family="sans-serif" font-size="13" font-weight="bold" lengthAdjust="spacing" textLength="27.4346" x="479" y="664.5654">loop</text><text fill="#000000" font-family="sans-serif" font-size="11" font-weight="bold" lengthAdjust="spacing" textLength="170.5806" x="551.4346" y="663.4893">["Retrieve each plan document"]</text><path d="M474,673.4219 L474,699.4219 L752,699.4219 L752,683.4219 L742,673.4219 L474,673.4219" fill="#FEFFDD" style="stroke:#181818;stroke-width:0.5;"/><path d="M742,673.4219 L742,683.4219 L752,683.4219 L742,673.4219" fill="#FEFFDD" style="stroke:#181818;stroke-width:0.5;"/><text fill="#000000" font-family="sans-serif" font-size="13" lengthAdjust="spacing" textLength="257.8481" x="480" y="691.917">This replaces the 'par' block for compatibility.</text><g class="message" data-participant-1="BFF" data-participant-2="PlanDocsSvc"><polygon fill="#181818" points="1493.2969,723.125,1503.2969,727.125,1493.2969,731.125,1497.2969,727.125" style="stroke:#181818;stroke-width:1;"/><line style="stroke:#181818;stroke-width:1;" x1="619.0796" x2="1499.2969" y1="727.125" y2="727.125"/><text fill="#000000" font-family="sans-serif" font-size="13" font-weight="bold" lengthAdjust="spacing" textLength="14.46" x="626.0796" y="722.2686">14</text><text fill="#000000" font-family="sans-serif" font-size="13" lengthAdjust="spacing" textLength="355.4688" x="644.5396" y="722.2686">POST /v1/plan-document-list/retrieve with a filtered ID [cite: 6]</text></g><g class="message" data-participant-1="PlanDocsSvc" data-participant-2="BFF"><polygon fill="#181818" points="630.0796,753.4766,620.0796,757.4766,630.0796,761.4766,626.0796,757.4766" style="stroke:#181818;stroke-width:1;"/><line style="stroke:#181818;stroke-width:1;stroke-dasharray:2.0,2.0;" x1="624.0796" x2="1509.2969" y1="757.4766" y2="757.4766"/><text fill="#000000" font-family="sans-serif" font-size="13" font-weight="bold" lengthAdjust="spacing" textLength="14.46" x="636.0796" y="752.6201">15</text><text fill="#000000" font-family="sans-serif" font-size="13" lengthAdjust="spacing" textLength="147.4116" x="654.5396" y="752.6201">Return plan document list</text></g><path d="M547.521,779.4766 L719.709,779.4766 L719.709,787.8281 L709.709,797.8281 L547.521,797.8281 L547.521,779.4766" fill="#EEEEEE" style="stroke:#000000;stroke-width:1.5;"/><rect fill="none" height="185.5938" style="stroke:#000000;stroke-width:1.5;" width="452.6245" x="547.521" y="779.4766"/><text fill="#000000" font-family="sans-serif" font-size="13" font-weight="bold" lengthAdjust="spacing" textLength="127.188" x="562.521" y="793.9717">"Aggregate Results"</text><path d="M557.521,804.8281 L629.9556,804.8281 L629.9556,813.1797 L619.9556,823.1797 L557.521,823.1797 L557.521,804.8281" fill="#EEEEEE" style="stroke:#000000;stroke-width:1.5;"/><rect fill="none" height="153.2422" style="stroke:#000000;stroke-width:1.5;" width="432.6245" x="557.521" y="804.8281"/><text fill="#000000" font-family="sans-serif" font-size="13" font-weight="bold" lengthAdjust="spacing" textLength="27.4346" x="572.521" y="819.3232">loop</text><text fill="#000000" font-family="sans-serif" font-size="11" font-weight="bold" lengthAdjust="spacing" textLength="144.3159" x="644.9556" y="818.2471">["For each result received"]</text><path d="M567.521,830.1797 L627.6919,830.1797 L627.6919,838.5313 L617.6919,848.5313 L567.521,848.5313 L567.521,830.1797" fill="#EEEEEE" style="stroke:#000000;stroke-width:1.5;"/><rect fill="none" height="120.8906" style="stroke:#000000;stroke-width:1.5;" width="412.6245" x="567.521" y="830.1797"/><text fill="#000000" font-family="sans-serif" font-size="13" font-weight="bold" lengthAdjust="spacing" textLength="15.1709" x="582.521" y="844.6748">alt</text><text fill="#000000" font-family="sans-serif" font-size="11" font-weight="bold" lengthAdjust="spacing" textLength="111.2461" x="642.6919" y="843.5986">["If HHL Not Signed"]</text><g class="message" data-participant-1="BFF" data-participant-2="BFF"><line style="stroke:#181818;stroke-width:1;" x1="619.0796" x2="661.0796" y1="870.8828" y2="870.8828"/><line style="stroke:#181818;stroke-width:1;" x1="661.0796" x2="661.0796" y1="870.8828" y2="883.8828"/><line style="stroke:#181818;stroke-width:1;" x1="620.0796" x2="661.0796" y1="883.8828" y2="883.8828"/><polygon fill="#181818" points="630.0796,879.8828,620.0796,883.8828,630.0796,887.8828,626.0796,883.8828" style="stroke:#181818;stroke-width:1;"/><text fill="#000000" font-family="sans-serif" font-size="13" font-weight="bold" lengthAdjust="spacing" textLength="14.46" x="626.0796" y="866.0264">16</text><text fill="#000000" font-family="sans-serif" font-size="13" lengthAdjust="spacing" textLength="313.606" x="644.5396" y="866.0264">Add empty array with reasonCode to response [cite: 9]</text></g><line style="stroke:#000000;stroke-width:1;stroke-dasharray:2.0,2.0;" x1="567.521" x2="980.1455" y1="892.8828" y2="892.8828"/><text fill="#000000" font-family="sans-serif" font-size="11" font-weight="bold" lengthAdjust="spacing" textLength="70.9414" x="572.521" y="904.3018">["Otherwise"]</text><g class="message" data-participant-1="BFF" data-participant-2="BFF"><line style="stroke:#181818;stroke-width:1;" x1="619.0796" x2="661.0796" y1="930.0703" y2="930.0703"/><line style="stroke:#181818;stroke-width:1;" x1="661.0796" x2="661.0796" y1="930.0703" y2="943.0703"/><line style="stroke:#181818;stroke-width:1;" x1="620.0796" x2="661.0796" y1="943.0703" y2="943.0703"/><polygon fill="#181818" points="630.0796,939.0703,620.0796,943.0703,630.0796,947.0703,626.0796,943.0703" style="stroke:#181818;stroke-width:1;"/><text fill="#000000" font-family="sans-serif" font-size="13" font-weight="bold" lengthAdjust="spacing" textLength="14.46" x="626.0796" y="925.2139">17</text><text fill="#000000" font-family="sans-serif" font-size="13" lengthAdjust="spacing" textLength="242.7852" x="644.5396" y="925.2139">Add full results to response array [cite: 10]</text></g><g class="message" data-participant-1="BFF" data-participant-2="Gateway"><polygon fill="#181818" points="339.189,990.4219,329.189,994.4219,339.189,998.4219,335.189,994.4219" style="stroke:#181818;stroke-width:1;"/><line style="stroke:#181818;stroke-width:1;stroke-dasharray:2.0,2.0;" x1="333.189" x2="613.0796" y1="994.4219" y2="994.4219"/><text fill="#000000" font-family="sans-serif" font-size="13" font-weight="bold" lengthAdjust="spacing" textLength="14.46" x="345.189" y="989.5654">18</text><text fill="#000000" font-family="sans-serif" font-size="13" lengthAdjust="spacing" textLength="143.0635" x="363.6489" y="989.5654">Return constructed array</text></g><g class="message" data-participant-1="Gateway" data-participant-2="User"><polygon fill="#181818" points="33.7793,1020.7734,23.7793,1024.7734,33.7793,1028.7734,29.7793,1024.7734" style="stroke:#181818;stroke-width:1;"/><line style="stroke:#181818;stroke-width:1;stroke-dasharray:2.0,2.0;" x1="27.7793" x2="322.189" y1="1024.7734" y2="1024.7734"/><text fill="#000000" font-family="sans-serif" font-size="13" font-weight="bold" lengthAdjust="spacing" textLength="14.46" x="39.7793" y="1019.917">19</text><text fill="#000000" font-family="sans-serif" font-size="13" lengthAdjust="spacing" textLength="123.5698" x="58.2393" y="1019.917">Return final response</text></g><!--SRC=[ZLNRRjim37ttLn1-M3UWcTjr5omF0x9SsW3h1KstFGp1eDfq8bInF4bEchyVALzgvp8iG61P9WyFUIXA54vdnUeHJH28s6a3toslSs6SZ6KkCWVXu6uQmza5NFuCGLYu50utOjkr6VwOmTV9n1lGi_jnLkHe1daEkHBPmkWYXrZ4I_JMGrvrxU_832xPpWBHMSkuDENzSdksZhikrzSJcBLCwNtFniEET6mxbhpBcsmUSFRG-rBds8VByGD4LaJCF26hQ7qUAMaTRAHRWan-E_s46VoAfSC-dC-vYd9DtasPWchHWHq_EqEMC9wEuGf5WiP2QlHg3_7TlErFbUt3dR0M3Fufa6WuVPXUvNxH8iIo14AnM4kCdo0bjRqC2IJ2YJ00-f4H1_AYz67Fi8xZzmekrWjFTc-2bQhobbz1hsP_ZwumMOa7rWbNM6-Mu07VJDEhNbCOxpjDApzfOIdTATWdcNC9KgaS6fajMdcZiWZXZJwQOwURAgNN5r7JexO6Ux-JMxSD-LDdPo_N5YAJs4st2zTcM3PnJUrTb2ALow25rrn-EdBDmKgLMBmvnhSw2xnNBlSOLi0UveWe5KYRdaUO-DBx7Aq_5BfmUzHgPX_cXvhCI-heNyfOjLbNWu__srz3dQNIhAf6sHZoFjnVc2L1eBJE8QnoK3eMoiU6CdXuB5ik_u3XK6s7t9-OdC88CoTKT8s999nJU0Nu7AiYeJRFTMR9PJfgylaqRnCW6Op4DGAHN9OCw9GLAq8C3ns4XwNa4K26CNK3b-w49jq9F58ArNdLgrmu-IYLTDktksrVpJkQ9RSpRgrpt_MzEcQFHqXaQb9-r8aNTQQZOwgqPsbzBghtWwUYoH8uug63KQFvOfLNHpXOB0mksE8URQ5SfLEb9INlgsZyDth4I3ebfOrdooEGHidLrJUuqGvcSf6rl-zgFaWIm5NkjY2CeJdios5GM9qDDQbByuTYiSHOr-Npl44hnz0jQMGsqkA_mwI5KXLnsy4j8zUtp5aBdkfIFtsDF6Jxgga7Bk4uKyIE1FHeGQlIV3KqrmmvypNuCXna9bH3fUrMNt5_0G00]--></g></svg>