<svg xmlns="http://www.w3.org/2000/svg" xmlns:xlink="http://www.w3.org/1999/xlink" contentStyleType="text/css" data-diagram-type="ACTIVITY" height="2187.5px" preserveAspectRatio="none" style="width:1463px;height:2187px;" version="1.1" viewBox="0 0 1463 2187" width="1463.5417px" zoomAndPan="magnify"><title>Flowchart: High-Reliability Webhook Sync Process</title><defs><linearGradient id="g1iwqr8q8kb4ut0" x1="50%" x2="50%" y1="0%" y2="100%"><stop offset="0%" stop-color="#B8B8B8"/><stop offset="100%" stop-color="#999999"/></linearGradient><linearGradient id="g1iwqr8q8kb4ut1" x1="50%" x2="50%" y1="0%" y2="100%"><stop offset="0%" stop-color="#7C9AB9"/><stop offset="100%" stop-color="#304D6D"/></linearGradient><linearGradient id="g1iwqr8q8kb4ut2" x1="50%" x2="50%" y1="0%" y2="100%"><stop offset="0%" stop-color="#B8B8B8"/><stop offset="100%" stop-color="#6B6B6B"/></linearGradient></defs><g><rect fill="url(#g1iwqr8q8kb4ut0)" height="48.2361" rx="4.1667" ry="4.1667" style="stroke:#6B6B6B;stroke-width:1.0417;" width="612.8011" x="423.9993" y="20.8333"/><text fill="#304D6D" font-family="Verdana" font-size="20.8333" font-weight="bold" lengthAdjust="spacing" textLength="589.8844" x="435.4576" y="53.2369">Flowchart: High-Reliability Webhook Sync Process</text><rect fill="url(#g1iwqr8q8kb4ut0)" height="25.6083" style="stroke:url(#g1iwqr8q8kb4ut0);stroke-width:1.0417;" width="1429.5497" x="15.625" y="81.5694"/><ellipse cx="224.6862" cy="122.8027" fill="#3399F3" rx="10.4167" ry="10.4167" style="stroke:#304D6D;stroke-width:1.0417;"/><rect fill="url(#g1iwqr8q8kb4ut1)" height="53.3" rx="4.1667" ry="4.1667" style="stroke:#304D6D;stroke-width:1.0417;" width="178.6906" x="135.3409" y="154.0527"/><text fill="#FFFFFF" font-family="Verdana" font-size="12.5" lengthAdjust="spacing" textLength="128.2715" x="146.7992" y="178.0782">Data Change Occurs</text><text fill="#FFFFFF" font-family="Verdana" font-size="12.5" lengthAdjust="spacing" textLength="155.7739" x="146.7992" y="193.2699">(e.g., UX Block updated)</text><rect fill="url(#g1iwqr8q8kb4ut1)" height="53.3" rx="4.1667" ry="4.1667" style="stroke:#304D6D;stroke-width:1.0417;" width="203.9408" x="122.7158" y="228.186"/><text fill="#FFFFFF" font-family="Verdana" font-size="12.5" lengthAdjust="spacing" textLength="173.3276" x="134.1741" y="252.2115">Generate Webhook Payload</text><text fill="#FFFFFF" font-family="Verdana" font-size="12.5" lengthAdjust="spacing" textLength="181.0242" x="134.1741" y="267.4032">(event_id, block_id, version)</text><rect fill="url(#g1iwqr8q8kb4ut1)" height="38.1083" rx="4.1667" ry="4.1667" style="stroke:#304D6D;stroke-width:1.0417;" width="232.2245" x="108.5739" y="302.3193"/><text fill="#FFFFFF" font-family="Verdana" font-size="12.5" lengthAdjust="spacing" textLength="209.3079" x="120.0322" y="326.3448">Sign Payload with HMAC-SHA256</text><rect fill="url(#g1iwqr8q8kb4ut1)" height="53.3" rx="4.1667" ry="4.1667" style="stroke:#304D6D;stroke-width:1.0417;" width="187.382" x="130.9952" y="361.261"/><text fill="#FFFFFF" font-family="Verdana" font-size="12.5" lengthAdjust="spacing" textLength="164.4653" x="142.4535" y="385.2865">Send POST to Consumer's</text><text fill="#FFFFFF" font-family="Verdana" font-size="12.5" lengthAdjust="spacing" textLength="117.7124" x="142.4535" y="400.4781">Webhook Endpoint</text><rect fill="url(#g1iwqr8q8kb4ut1)" height="38.1083" rx="4.1667" ry="4.1667" style="stroke:#304D6D;stroke-width:1.0417;" width="152.7384" x="32.2601" y="1155.9774"/><text fill="#FFFFFF" font-family="Verdana" font-size="12.5" lengthAdjust="spacing" textLength="129.8218" x="43.7185" y="1180.0028">Receive GET request</text><rect fill="url(#g1iwqr8q8kb4ut1)" height="38.1083" rx="4.1667" ry="4.1667" style="stroke:#304D6D;stroke-width:1.0417;" width="173.5087" x="21.875" y="1214.919"/><text fill="#FFFFFF" font-family="Verdana" font-size="12.5" lengthAdjust="spacing" textLength="150.592" x="33.3333" y="1238.9445">Return latest data block</text><rect fill="url(#g1iwqr8q8kb4ut1)" height="53.3" rx="4.1667" ry="4.1667" style="stroke:#304D6D;stroke-width:1.0417;" width="207.1147" x="121.1288" y="1650.4272"/><text fill="#FFFFFF" font-family="Verdana" font-size="12.5" lengthAdjust="spacing" textLength="100.0488" x="132.5872" y="1674.4527">Return list of all</text><text fill="#FFFFFF" font-family="Verdana" font-size="12.5" lengthAdjust="spacing" textLength="184.198" x="132.5872" y="1689.6444">block_ids and version hashes</text><line style="stroke:#3399F3;stroke-width:2.0833;" x1="15.625" x2="15.625" y1="81.5694" y2="2175.9979"/><rect fill="url(#g1iwqr8q8kb4ut1)" height="38.1083" rx="4.1667" ry="4.1667" style="stroke:#304D6D;stroke-width:1.0417;" width="171.7753" x="455.9301" y="435.3943"/><text fill="#FFFFFF" font-family="Verdana" font-size="12.5" lengthAdjust="spacing" textLength="148.8586" x="467.3884" y="459.4198">Receive Webhook POST</text><rect fill="url(#g1iwqr8q8kb4ut1)" height="38.1083" rx="4.1667" ry="4.1667" style="stroke:#304D6D;stroke-width:1.0417;" width="180.2836" x="451.6759" y="494.3359"/><text fill="#FFFFFF" font-family="Verdana" font-size="12.5" lengthAdjust="spacing" textLength="157.3669" x="463.1343" y="518.3614">Validate HMAC Signature</text><polygon fill="url(#g1iwqr8q8kb4ut2)" points="478.6596,553.2776,604.9759,553.2776,617.4759,566.0817,604.9759,578.8859,478.6596,578.8859,466.1596,566.0817,478.6596,553.2776" style="stroke:#6B6B6B;stroke-width:1.0417;"/><text fill="#FFFFFF" font-family="Verdana" font-size="12.5" lengthAdjust="spacing" textLength="115.8997" x="483.8679" y="571.0531">Signature is valid?</text><text fill="#FFFFFF" font-family="Verdana" font-size="12.5" lengthAdjust="spacing" textLength="21.3562" x="439.595" y="558.2489">yes</text><text fill="#FFFFFF" font-family="Verdana" font-size="12.5" lengthAdjust="spacing" textLength="15.4968" x="622.6842" y="558.2489">no</text><rect fill="url(#g1iwqr8q8kb4ut1)" height="53.3" rx="4.1667" ry="4.1667" style="stroke:#304D6D;stroke-width:1.0417;" width="189.0422" x="351.2151" y="589.3026"/><text fill="#FFFFFF" font-family="Verdana" font-size="12.5" lengthAdjust="spacing" textLength="166.1255" x="362.6734" y="613.328">Respond immediately with</text><text fill="#FFFFFF" font-family="Verdana" font-size="12.5" font-weight="bold" lengthAdjust="spacing" textLength="92.1387" x="362.6734" y="628.5197">HTTP 200 OK</text><rect fill="url(#g1iwqr8q8kb4ut1)" height="53.3" rx="4.1667" ry="4.1667" style="stroke:#304D6D;stroke-width:1.0417;" width="138.9201" x="376.2761" y="678.6275"/><text fill="#FFFFFF" font-family="Verdana" font-size="12.5" lengthAdjust="spacing" textLength="116.0034" x="387.7345" y="702.653">Enqueue Event for</text><text fill="#FFFFFF" font-family="Verdana" font-size="12.5" lengthAdjust="spacing" textLength="107.843" x="387.7345" y="717.8446">Async Processing</text><ellipse cx="445.7362" cy="779.8442" fill="none" rx="11.4583" ry="11.4583" style="stroke:#304D6D;stroke-width:1.0417;"/><ellipse cx="445.7362" cy="779.8442" fill="none" rx="6.25" ry="6.25" style="stroke:#304D6D;stroke-width:1.0417;"/><rect fill="url(#g1iwqr8q8kb4ut1)" height="38.1083" rx="4.1667" ry="4.1667" style="stroke:#304D6D;stroke-width:1.0417;" width="121.3908" x="577.2039" y="589.3026"/><text fill="#FFFFFF" font-family="Verdana" font-size="12.5" lengthAdjust="spacing" textLength="98.4741" x="588.6622" y="613.328">Discard request</text><rect fill="url(#g1iwqr8q8kb4ut1)" height="38.1083" rx="4.1667" ry="4.1667" style="stroke:#304D6D;stroke-width:1.0417;" width="153.6174" x="561.0906" y="663.4359"/><text fill="#FFFFFF" font-family="Verdana" font-size="12.5" lengthAdjust="spacing" textLength="130.7007" x="572.5489" y="687.4613">Log security warning</text><ellipse cx="637.8993" cy="749.4609" fill="none" rx="11.4583" ry="11.4583" style="stroke:#304D6D;stroke-width:1.0417;"/><ellipse cx="637.8993" cy="749.4609" fill="none" rx="6.25" ry="6.25" style="stroke:#304D6D;stroke-width:1.0417;"/><line style="stroke:#3399F3;stroke-width:2.0833;" x1="344.9651" x2="344.9651" y1="81.5694" y2="2175.9979"/><ellipse cx="967.3187" cy="812.1358" fill="#3399F3" rx="10.4167" ry="10.4167" style="stroke:#304D6D;stroke-width:1.0417;"/><rect fill="url(#g1iwqr8q8kb4ut1)" height="38.1083" rx="4.1667" ry="4.1667" style="stroke:#304D6D;stroke-width:1.0417;" width="118.4733" x="908.0821" y="843.3858"/><text fill="#FFFFFF" font-family="Verdana" font-size="12.5" lengthAdjust="spacing" textLength="95.5566" x="919.5404" y="867.4113">Dequeue Event</text><rect fill="url(#g1iwqr8q8kb4ut1)" height="53.3" rx="4.1667" ry="4.1667" style="stroke:#304D6D;stroke-width:1.0417;" width="228.8615" x="852.888" y="902.3275"/><text fill="#FFFFFF" font-family="Verdana" font-size="12.5" lengthAdjust="spacing" textLength="146.6553" x="864.3463" y="926.3529">Check event_id against</text><text fill="#FFFFFF" font-family="Verdana" font-size="12.5" lengthAdjust="spacing" textLength="205.9448" x="864.3463" y="941.5446">local cache to prevent duplicates</text><polygon fill="url(#g1iwqr8q8kb4ut2)" points="918.0644,976.4608,1016.5731,976.4608,1029.0731,989.2649,1016.5731,1002.0691,918.0644,1002.0691,905.5644,989.2649,918.0644,976.4608" style="stroke:#6B6B6B;stroke-width:1.0417;"/><text fill="#FFFFFF" font-family="Verdana" font-size="12.5" lengthAdjust="spacing" textLength="88.092" x="923.2727" y="994.2362">Is new event?</text><text fill="#FFFFFF" font-family="Verdana" font-size="12.5" lengthAdjust="spacing" textLength="21.3562" x="878.9998" y="981.4321">yes</text><text fill="#FFFFFF" font-family="Verdana" font-size="12.5" lengthAdjust="spacing" textLength="15.4968" x="1034.2814" y="981.4321">no</text><rect fill="url(#g1iwqr8q8kb4ut1)" height="38.1083" rx="4.1667" ry="4.1667" style="stroke:#304D6D;stroke-width:1.0417;" width="103.9347" x="799.2945" y="1022.9024"/><text fill="#FFFFFF" font-family="Verdana" font-size="12.5" lengthAdjust="spacing" textLength="81.0181" x="810.7529" y="1046.9279">Log event_id</text><rect fill="url(#g1iwqr8q8kb4ut1)" height="53.3" rx="4.1667" ry="4.1667" style="stroke:#304D6D;stroke-width:1.0417;" width="252.2746" x="725.1246" y="1081.8441"/><text fill="#FFFFFF" font-family="Verdana" font-size="12.5" lengthAdjust="spacing" textLength="213.2324" x="736.5829" y="1105.8695">Make GET request to Provider API</text><text fill="#FFFFFF" font-family="Verdana" font-size="12.5" lengthAdjust="spacing" textLength="229.3579" x="736.5829" y="1121.0612">(e.g., /api/v1/ux-blocks/{block_id})</text><rect fill="url(#g1iwqr8q8kb4ut1)" height="38.1083" rx="4.1667" ry="4.1667" style="stroke:#304D6D;stroke-width:1.0417;" width="140.5192" x="781.0023" y="1273.8607"/><text fill="#FFFFFF" font-family="Verdana" font-size="12.5" lengthAdjust="spacing" textLength="117.6025" x="792.4606" y="1297.8861">Receive data block</text><rect fill="url(#g1iwqr8q8kb4ut1)" height="53.3" rx="4.1667" ry="4.1667" style="stroke:#304D6D;stroke-width:1.0417;" width="203.3244" x="749.5997" y="1332.8023"/><text fill="#FFFFFF" font-family="Verdana" font-size="12.5" lengthAdjust="spacing" textLength="180.4077" x="761.058" y="1356.8278">Update local database/cache</text><text fill="#FFFFFF" font-family="Verdana" font-size="12.5" lengthAdjust="spacing" textLength="88.5986" x="761.058" y="1372.0194">with new data</text><rect fill="url(#g1iwqr8q8kb4ut1)" height="38.1083" rx="4.1667" ry="4.1667" style="stroke:#304D6D;stroke-width:1.0417;" width="153.3915" x="774.5661" y="1406.9356"/><text fill="#FFFFFF" font-family="Verdana" font-size="12.5" lengthAdjust="spacing" textLength="130.4749" x="786.0245" y="1430.9611">Processing Complete</text><rect fill="url(#g1iwqr8q8kb4ut1)" height="38.1083" rx="4.1667" ry="4.1667" style="stroke:#304D6D;stroke-width:1.0417;" width="170.2861" x="998.2325" y="1022.9024"/><text fill="#FFFFFF" font-family="Verdana" font-size="12.5" lengthAdjust="spacing" textLength="147.3694" x="1009.6909" y="1046.9279">Discard duplicate event</text><polygon fill="url(#g1iwqr8q8kb4ut2)" points="967.3187,1455.4606,979.8187,1467.9606,967.3187,1480.4606,954.8187,1467.9606,967.3187,1455.4606" style="stroke:#6B6B6B;stroke-width:1.0417;"/><ellipse cx="967.3187" cy="1512.7523" fill="none" rx="11.4583" ry="11.4583" style="stroke:#304D6D;stroke-width:1.0417;"/><ellipse cx="967.3187" cy="1512.7523" fill="none" rx="6.25" ry="6.25" style="stroke:#304D6D;stroke-width:1.0417;"/><line style="stroke:#3399F3;stroke-width:2.0833;" x1="718.8746" x2="718.8746" y1="81.5694" y2="2175.9979"/><ellipse cx="1296.7351" cy="1545.0439" fill="#3399F3" rx="10.4167" ry="10.4167" style="stroke:#304D6D;stroke-width:1.0417;"/><rect fill="url(#g1iwqr8q8kb4ut1)" height="53.3" rx="4.1667" ry="4.1667" style="stroke:#304D6D;stroke-width:1.0417;" width="235.5998" x="1178.9352" y="1576.2939"/><text fill="#FFFFFF" font-family="Verdana" font-size="12.5" lengthAdjust="spacing" textLength="131.2439" x="1190.3936" y="1600.3194">Make GET request to</text><text fill="#FFFFFF" font-family="Verdana" font-size="12.5" lengthAdjust="spacing" textLength="212.6831" x="1190.3936" y="1615.5111">/api/v1/ux-blocks/versions-digest</text><rect fill="url(#g1iwqr8q8kb4ut1)" height="38.1083" rx="4.1667" ry="4.1667" style="stroke:#304D6D;stroke-width:1.0417;" width="163.5844" x="1214.9429" y="1724.5605"/><text fill="#FFFFFF" font-family="Verdana" font-size="12.5" lengthAdjust="spacing" textLength="140.6677" x="1226.4013" y="1748.586">Receive version digest</text><rect fill="url(#g1iwqr8q8kb4ut1)" height="38.1083" rx="4.1667" ry="4.1667" style="stroke:#304D6D;stroke-width:1.0417;" width="178.9286" x="1207.2708" y="1783.5022"/><text fill="#FFFFFF" font-family="Verdana" font-size="12.5" lengthAdjust="spacing" textLength="156.012" x="1218.7291" y="1807.5277">Compare with local state</text><rect fill="url(#g1iwqr8q8kb4ut1)" height="53.3" rx="4.1667" ry="4.1667" style="stroke:#304D6D;stroke-width:1.0417;" width="223.7345" x="1184.8679" y="1899.6063"/><text fill="#FFFFFF" font-family="Verdana" font-size="12.5" lengthAdjust="spacing" textLength="176.2756" x="1196.3262" y="1923.6318">For each mismatched block,</text><text fill="#FFFFFF" font-family="Verdana" font-size="12.5" lengthAdjust="spacing" textLength="200.8179" x="1196.3262" y="1938.8234">fetch the full block from the API</text><rect fill="url(#g1iwqr8q8kb4ut1)" height="38.1083" rx="4.1667" ry="4.1667" style="stroke:#304D6D;stroke-width:1.0417;" width="136.0942" x="1228.688" y="1989.3646"/><text fill="#FFFFFF" font-family="Verdana" font-size="12.5" lengthAdjust="spacing" textLength="113.1775" x="1240.1464" y="2013.3901">Update local state</text><polygon fill="url(#g1iwqr8q8kb4ut2)" points="1225.1389,1842.4438,1368.3314,1842.4438,1380.8314,1855.248,1368.3314,1868.0522,1225.1389,1868.0522,1212.6389,1855.248,1225.1389,1842.4438" style="stroke:#6B6B6B;stroke-width:1.0417;"/><text fill="#FFFFFF" font-family="Verdana" font-size="12.5" lengthAdjust="spacing" textLength="21.3562" x="1306.1101" y="1885.8276">yes</text><text fill="#FFFFFF" font-family="Verdana" font-size="12.5" lengthAdjust="spacing" textLength="132.7759" x="1230.3472" y="1860.2193">Discrepancies found?</text><text fill="#FFFFFF" font-family="Verdana" font-size="12.5" lengthAdjust="spacing" textLength="15.4968" x="1386.0397" y="1847.4152">no</text><polygon fill="url(#g1iwqr8q8kb4ut2)" points="1296.7351,2048.3063,1309.2351,2060.8063,1296.7351,2073.3063,1284.2351,2060.8063,1296.7351,2048.3063" style="stroke:#6B6B6B;stroke-width:1.0417;"/><rect fill="url(#g1iwqr8q8kb4ut1)" height="38.1083" rx="4.1667" ry="4.1667" style="stroke:#304D6D;stroke-width:1.0417;" width="173.1303" x="1210.17" y="2094.1396"/><text fill="#FFFFFF" font-family="Verdana" font-size="12.5" lengthAdjust="spacing" textLength="150.2136" x="1221.6283" y="2118.1651">Reconciliation Complete</text><ellipse cx="1296.7351" cy="2164.5396" fill="none" rx="11.4583" ry="11.4583" style="stroke:#304D6D;stroke-width:1.0417;"/><ellipse cx="1296.7351" cy="2164.5396" fill="none" rx="6.25" ry="6.25" style="stroke:#304D6D;stroke-width:1.0417;"/><line style="stroke:#3399F3;stroke-width:2.0833;" x1="1172.6852" x2="1172.6852" y1="81.5694" y2="2175.9979"/><line style="stroke:#3399F3;stroke-width:2.0833;" x1="1438.8107" x2="1438.8107" y1="81.5694" y2="2175.9979"/><line style="stroke:#446E9B;stroke-width:3.125;" x1="224.6862" x2="224.6862" y1="133.2194" y2="154.0527"/><polygon fill="#446E9B" points="220.5195,143.6361,224.6862,154.0527,228.8528,143.6361,224.6862,147.8027" style="stroke:#446E9B;stroke-width:1.0417;"/><line style="stroke:#446E9B;stroke-width:3.125;" x1="224.6862" x2="224.6862" y1="207.3527" y2="228.186"/><polygon fill="#446E9B" points="220.5195,217.7694,224.6862,228.186,228.8528,217.7694,224.6862,221.936" style="stroke:#446E9B;stroke-width:1.0417;"/><line style="stroke:#446E9B;stroke-width:3.125;" x1="224.6862" x2="224.6862" y1="281.486" y2="302.3193"/><polygon fill="#446E9B" points="220.5195,291.9027,224.6862,302.3193,228.8528,291.9027,224.6862,296.0693" style="stroke:#446E9B;stroke-width:1.0417;"/><line style="stroke:#446E9B;stroke-width:3.125;" x1="224.6862" x2="224.6862" y1="340.4277" y2="361.261"/><polygon fill="#446E9B" points="220.5195,350.8443,224.6862,361.261,228.8528,350.8443,224.6862,355.011" style="stroke:#446E9B;stroke-width:1.0417;"/><line style="stroke:#446E9B;stroke-width:3.125;" x1="108.6294" x2="108.6294" y1="1194.0857" y2="1214.919"/><polygon fill="#446E9B" points="104.4627,1204.5024,108.6294,1214.919,112.796,1204.5024,108.6294,1208.669" style="stroke:#446E9B;stroke-width:1.0417;"/><line style="stroke:#446E9B;stroke-width:3.125;" x1="541.8177" x2="541.8177" y1="473.5026" y2="494.3359"/><polygon fill="#446E9B" points="537.6511,483.9193,541.8177,494.3359,545.9844,483.9193,541.8177,488.0859" style="stroke:#446E9B;stroke-width:1.0417;"/><line style="stroke:#446E9B;stroke-width:3.125;" x1="445.7362" x2="445.7362" y1="642.6025" y2="678.6275"/><polygon fill="#446E9B" points="441.5695,668.2109,445.7362,678.6275,449.9029,668.2109,445.7362,672.3775" style="stroke:#446E9B;stroke-width:1.0417;"/><line style="stroke:#446E9B;stroke-width:3.125;" x1="445.7362" x2="445.7362" y1="731.9275" y2="768.3858"/><polygon fill="#446E9B" points="441.5695,757.9692,445.7362,768.3858,449.9029,757.9692,445.7362,762.1358" style="stroke:#446E9B;stroke-width:1.0417;"/><line style="stroke:#446E9B;stroke-width:3.125;" x1="637.8993" x2="637.8993" y1="627.4109" y2="663.4359"/><polygon fill="#446E9B" points="633.7326,653.0192,637.8993,663.4359,642.0659,653.0192,637.8993,657.1859" style="stroke:#446E9B;stroke-width:1.0417;"/><line style="stroke:#446E9B;stroke-width:3.125;" x1="637.8993" x2="637.8993" y1="701.5442" y2="738.0025"/><polygon fill="#446E9B" points="633.7326,727.5859,637.8993,738.0025,642.0659,727.5859,637.8993,731.7525" style="stroke:#446E9B;stroke-width:1.0417;"/><line style="stroke:#446E9B;stroke-width:3.125;" x1="466.1596" x2="445.7362" y1="566.0817" y2="566.0817"/><line style="stroke:#446E9B;stroke-width:3.125;" x1="445.7362" x2="445.7362" y1="566.0817" y2="589.3026"/><polygon fill="#446E9B" points="441.5695,578.8859,445.7362,589.3026,449.9029,578.8859,445.7362,583.0526" style="stroke:#446E9B;stroke-width:1.0417;"/><line style="stroke:#446E9B;stroke-width:3.125;" x1="617.4759" x2="637.8993" y1="566.0817" y2="566.0817"/><line style="stroke:#446E9B;stroke-width:3.125;" x1="637.8993" x2="637.8993" y1="566.0817" y2="589.3026"/><polygon fill="#446E9B" points="633.7326,578.8859,637.8993,589.3026,642.0659,578.8859,637.8993,583.0526" style="stroke:#446E9B;stroke-width:1.0417;"/><line style="stroke:#446E9B;stroke-width:3.125;" x1="541.8177" x2="541.8177" y1="532.4443" y2="553.2776"/><polygon fill="#446E9B" points="537.6511,542.8609,541.8177,553.2776,545.9844,542.8609,541.8177,547.0276" style="stroke:#446E9B;stroke-width:1.0417;"/><line style="stroke:#446E9B;stroke-width:3.125;" x1="967.3187" x2="967.3187" y1="822.5525" y2="843.3858"/><polygon fill="#446E9B" points="963.1521,832.9692,967.3187,843.3858,971.4854,832.9692,967.3187,837.1358" style="stroke:#446E9B;stroke-width:1.0417;"/><line style="stroke:#446E9B;stroke-width:3.125;" x1="967.3187" x2="967.3187" y1="881.4941" y2="902.3275"/><polygon fill="#446E9B" points="963.1521,891.9108,967.3187,902.3275,971.4854,891.9108,967.3187,896.0775" style="stroke:#446E9B;stroke-width:1.0417;"/><line style="stroke:#446E9B;stroke-width:3.125;" x1="851.2619" x2="851.2619" y1="1061.0107" y2="1081.8441"/><polygon fill="#446E9B" points="847.0952,1071.4274,851.2619,1081.8441,855.4286,1071.4274,851.2619,1075.5941" style="stroke:#446E9B;stroke-width:1.0417;"/><line style="stroke:#446E9B;stroke-width:3.125;" x1="851.2619" x2="851.2619" y1="1311.969" y2="1332.8023"/><polygon fill="#446E9B" points="847.0952,1322.3857,851.2619,1332.8023,855.4286,1322.3857,851.2619,1326.5523" style="stroke:#446E9B;stroke-width:1.0417;"/><line style="stroke:#446E9B;stroke-width:3.125;" x1="851.2619" x2="851.2619" y1="1386.1023" y2="1406.9356"/><polygon fill="#446E9B" points="847.0952,1396.519,851.2619,1406.9356,855.4286,1396.519,851.2619,1400.6856" style="stroke:#446E9B;stroke-width:1.0417;"/><line style="stroke:#446E9B;stroke-width:3.125;" x1="905.5644" x2="851.2619" y1="989.2649" y2="989.2649"/><line style="stroke:#446E9B;stroke-width:3.125;" x1="851.2619" x2="851.2619" y1="989.2649" y2="1022.9024"/><polygon fill="#446E9B" points="847.0952,1012.4858,851.2619,1022.9024,855.4286,1012.4858,851.2619,1016.6524" style="stroke:#446E9B;stroke-width:1.0417;"/><line style="stroke:#446E9B;stroke-width:3.125;" x1="1029.0731" x2="1083.3755" y1="989.2649" y2="989.2649"/><line style="stroke:#446E9B;stroke-width:3.125;" x1="1083.3755" x2="1083.3755" y1="989.2649" y2="1022.9024"/><polygon fill="#446E9B" points="1079.2089,1012.4858,1083.3755,1022.9024,1087.5422,1012.4858,1083.3755,1016.6524" style="stroke:#446E9B;stroke-width:1.0417;"/><line style="stroke:#446E9B;stroke-width:3.125;" x1="851.2619" x2="851.2619" y1="1445.0439" y2="1467.9606"/><line style="stroke:#446E9B;stroke-width:3.125;" x1="851.2619" x2="954.8187" y1="1467.9606" y2="1467.9606"/><polygon fill="#446E9B" points="944.4021,1463.7939,954.8187,1467.9606,944.4021,1472.1273,948.5687,1467.9606" style="stroke:#446E9B;stroke-width:1.0417;"/><line style="stroke:#446E9B;stroke-width:3.125;" x1="1083.3755" x2="1083.3755" y1="1061.0107" y2="1467.9606"/><line style="stroke:#446E9B;stroke-width:3.125;" x1="1083.3755" x2="979.8187" y1="1467.9606" y2="1467.9606"/><polygon fill="#446E9B" points="990.2354,1463.7939,979.8187,1467.9606,990.2354,1472.1273,986.0687,1467.9606" style="stroke:#446E9B;stroke-width:1.0417;"/><line style="stroke:#446E9B;stroke-width:3.125;" x1="967.3187" x2="967.3187" y1="955.6274" y2="976.4608"/><polygon fill="#446E9B" points="963.1521,966.0441,967.3187,976.4608,971.4854,966.0441,967.3187,970.2108" style="stroke:#446E9B;stroke-width:1.0417;"/><line style="stroke:#446E9B;stroke-width:3.125;" x1="967.3187" x2="967.3187" y1="1480.4606" y2="1501.2939"/><polygon fill="#446E9B" points="963.1521,1490.8773,967.3187,1501.2939,971.4854,1490.8773,967.3187,1495.0439" style="stroke:#446E9B;stroke-width:1.0417;"/><line style="stroke:#446E9B;stroke-width:3.125;" x1="1296.7351" x2="1296.7351" y1="1555.4606" y2="1576.2939"/><polygon fill="#446E9B" points="1292.5685,1565.8773,1296.7351,1576.2939,1300.9018,1565.8773,1296.7351,1570.0439" style="stroke:#446E9B;stroke-width:1.0417;"/><line style="stroke:#446E9B;stroke-width:3.125;" x1="1296.7351" x2="1296.7351" y1="1762.6689" y2="1783.5022"/><polygon fill="#446E9B" points="1292.5685,1773.0855,1296.7351,1783.5022,1300.9018,1773.0855,1296.7351,1777.2522" style="stroke:#446E9B;stroke-width:1.0417;"/><line style="stroke:#446E9B;stroke-width:3.125;" x1="1296.7351" x2="1296.7351" y1="1952.9063" y2="1989.3646"/><polygon fill="#446E9B" points="1292.5685,1978.948,1296.7351,1989.3646,1300.9018,1978.948,1296.7351,1983.1146" style="stroke:#446E9B;stroke-width:1.0417;"/><line style="stroke:#446E9B;stroke-width:3.125;" x1="1296.7351" x2="1296.7351" y1="1868.0522" y2="1899.6063"/><polygon fill="#446E9B" points="1292.5685,1889.1897,1296.7351,1899.6063,1300.9018,1889.1897,1296.7351,1893.3563" style="stroke:#446E9B;stroke-width:1.0417;"/><line style="stroke:#446E9B;stroke-width:3.125;" x1="1380.8314" x2="1419.0191" y1="1855.248" y2="1855.248"/><polygon fill="#446E9B" points="1414.8524,1958.1792,1419.0191,1968.5959,1423.1857,1958.1792,1419.0191,1962.3459" style="stroke:#446E9B;stroke-width:3.125;"/><line style="stroke:#446E9B;stroke-width:3.125;" x1="1419.0191" x2="1419.0191" y1="1855.248" y2="2060.8063"/><line style="stroke:#446E9B;stroke-width:3.125;" x1="1419.0191" x2="1309.2351" y1="2060.8063" y2="2060.8063"/><polygon fill="#446E9B" points="1319.6518,2056.6396,1309.2351,2060.8063,1319.6518,2064.9729,1315.4851,2060.8063" style="stroke:#446E9B;stroke-width:1.0417;"/><line style="stroke:#446E9B;stroke-width:3.125;" x1="1296.7351" x2="1296.7351" y1="2027.4729" y2="2048.3063"/><polygon fill="#446E9B" points="1292.5685,2037.8896,1296.7351,2048.3063,1300.9018,2037.8896,1296.7351,2042.0563" style="stroke:#446E9B;stroke-width:1.0417;"/><line style="stroke:#446E9B;stroke-width:3.125;" x1="1296.7351" x2="1296.7351" y1="1821.6105" y2="1842.4438"/><polygon fill="#446E9B" points="1292.5685,1832.0272,1296.7351,1842.4438,1300.9018,1832.0272,1296.7351,1836.1938" style="stroke:#446E9B;stroke-width:1.0417;"/><line style="stroke:#446E9B;stroke-width:3.125;" x1="1296.7351" x2="1296.7351" y1="2073.3063" y2="2094.1396"/><polygon fill="#446E9B" points="1292.5685,2083.7229,1296.7351,2094.1396,1300.9018,2083.7229,1296.7351,2087.8896" style="stroke:#446E9B;stroke-width:1.0417;"/><line style="stroke:#446E9B;stroke-width:3.125;" x1="1296.7351" x2="1296.7351" y1="2132.2479" y2="2153.0813"/><polygon fill="#446E9B" points="1292.5685,2142.6646,1296.7351,2153.0813,1300.9018,2142.6646,1296.7351,2146.8313" style="stroke:#446E9B;stroke-width:1.0417;"/><line style="stroke:#446E9B;stroke-width:3.125;" x1="224.6862" x2="224.6862" y1="414.561" y2="419.7693"/><line style="stroke:#446E9B;stroke-width:3.125;" x1="224.6862" x2="541.8177" y1="419.7693" y2="419.7693"/><line style="stroke:#446E9B;stroke-width:3.125;" x1="541.8177" x2="541.8177" y1="419.7693" y2="435.3943"/><polygon fill="#446E9B" points="537.6511,424.9776,541.8177,435.3943,545.9844,424.9776,541.8177,429.1443" style="stroke:#446E9B;stroke-width:1.0417;"/><line style="stroke:#446E9B;stroke-width:3.125;" x1="851.2619" x2="851.2619" y1="1135.144" y2="1140.3524"/><line style="stroke:#446E9B;stroke-width:3.125;" x1="851.2619" x2="108.6294" y1="1140.3524" y2="1140.3524"/><line style="stroke:#446E9B;stroke-width:3.125;" x1="108.6294" x2="108.6294" y1="1140.3524" y2="1155.9774"/><polygon fill="#446E9B" points="104.4627,1145.5607,108.6294,1155.9774,112.796,1145.5607,108.6294,1149.7274" style="stroke:#446E9B;stroke-width:1.0417;"/><line style="stroke:#446E9B;stroke-width:3.125;" x1="108.6294" x2="108.6294" y1="1253.0273" y2="1258.2357"/><line style="stroke:#446E9B;stroke-width:3.125;" x1="108.6294" x2="851.2619" y1="1258.2357" y2="1258.2357"/><line style="stroke:#446E9B;stroke-width:3.125;" x1="851.2619" x2="851.2619" y1="1258.2357" y2="1273.8607"/><polygon fill="#446E9B" points="847.0952,1263.444,851.2619,1273.8607,855.4286,1263.444,851.2619,1267.6107" style="stroke:#446E9B;stroke-width:1.0417;"/><line style="stroke:#446E9B;stroke-width:3.125;" x1="1296.7351" x2="1296.7351" y1="1629.5939" y2="1634.8022"/><line style="stroke:#446E9B;stroke-width:3.125;" x1="1296.7351" x2="224.6862" y1="1634.8022" y2="1634.8022"/><line style="stroke:#446E9B;stroke-width:3.125;" x1="224.6862" x2="224.6862" y1="1634.8022" y2="1650.4272"/><polygon fill="#446E9B" points="220.5195,1640.0106,224.6862,1650.4272,228.8528,1640.0106,224.6862,1644.1772" style="stroke:#446E9B;stroke-width:1.0417;"/><line style="stroke:#446E9B;stroke-width:3.125;" x1="224.6862" x2="224.6862" y1="1703.7272" y2="1708.9355"/><line style="stroke:#446E9B;stroke-width:3.125;" x1="224.6862" x2="1296.7351" y1="1708.9355" y2="1708.9355"/><line style="stroke:#446E9B;stroke-width:3.125;" x1="1296.7351" x2="1296.7351" y1="1708.9355" y2="1724.5605"/><polygon fill="#446E9B" points="1292.5685,1714.1439,1296.7351,1724.5605,1300.9018,1714.1439,1296.7351,1718.3105" style="stroke:#446E9B;stroke-width:1.0417;"/><text fill="#304D6D" font-family="Verdana" font-size="12.5" lengthAdjust="spacing" textLength="102.3621" x="129.114" y="99.3449">Service Provider</text><text fill="#304D6D" font-family="Verdana" font-size="12.5" lengthAdjust="spacing" textLength="114.093" x="474.8734" y="99.3449">Service Consumer</text><text fill="#304D6D" font-family="Verdana" font-size="12.5" lengthAdjust="spacing" textLength="154.7119" x="868.424" y="99.3449">Consumer Async Worker</text><text fill="#304D6D" font-family="Verdana" font-size="12.5" lengthAdjust="spacing" textLength="226.886" x="1192.305" y="99.3449">Consumer Reconciliation Job (Daily)</text><!--SRC=[ZPF1Sjem48RlUefjBWKcXBGpxS4SEfIGaBQPC84qlNM4lROro98hoL2cwRjt9Tj02ftfpPPs_rtzt-uhbsE1O4iUe-HBnfnm4k7iMkfDd7FZ8fYABEy_e1HyAQHmMtZ2PQxr2kPR5SFCw1YjFMFiUOvcBMBqHskHe7bcrf42Ywwuup3EkSeGxkEuCfPry2AxE8V7R_1HwdW5LPbmXqbtoA8RL6ZePrTdnhTIyuHorgZSTv6Smz8dXQyr6YkqyebpaQas63R2vJ2z6utxy-dexRlt_XvL0hFx-GASXh5MjYhGlBQihJDHIQc5SiFzKzgePnOzO8nYVT0L2P7eLow5RptK0jy2TvN18HCfT7Q_82oiVUI7Bf3Z2ZfRj5q6GBAsrDINA0fC10d9RUYTxdgzwM8nWxUNbt3_kTSR-l29-b5XXJ3nLa2g3HsEx048eJ8VQ9qk6KgBq54w5BeIDkOc0OEaO5rG-w8pi4X0FDODD-f5jaf4IbXR3vewJzgi3jdYGKFanpX7mjcI0fvneQnZn8jBY7cSetU_D242aggK8gPNszgmMmiADtNwaLM-srOuj7_7LmWtaqNx9g_S3X-CPhSKqypPW9TYi7upg7xsm-ZOmQzsX7vtlTQ9uGrmQkO7DORrEK5L87tZz0W_ta4kAFt3hmEvbmdHOvXzg2toTqjkSH2yekimoDuKVnFYzwHfFejIegDnEybwPs_jsx1X6l0UWAM-j8ffkRcZLO9FUWcTAoxajhl3VC9gTcngiuosduWiU7N2rfrvWbHq2bnArhAmm6aL6XN8kStzOFnVepjts_IsXyYRn6a7WvEro_Ggr-oezyfWoKaNBMrKfOwNz5eRGE81XR05TmGcgVcTqssATE0J8AsahCyXDRe8PpI6nv2RydjcDPVeh_VjwGPYVm00]--></g></svg>