<svg xmlns="http://www.w3.org/2000/svg" xmlns:xlink="http://www.w3.org/1999/xlink" contentStyleType="text/css" data-diagram-type="DESCRIPTION" height="1016px" preserveAspectRatio="none" style="width:2057px;height:1016px;background:#FFFFFF;" version="1.1" viewBox="0 0 2057 1016" width="2057px" zoomAndPan="magnify"><title>Release Payment Hold &#8212; Deployment (Aetna + CVS)</title><defs/><g><g class="title" data-source-line="1"><text fill="#000000" font-family="sans-serif" font-size="14" font-weight="bold" lengthAdjust="spacing" textLength="413.2734" x="815.3139" y="22.9951">Release Payment Hold &#8212; Deployment (Aetna + CVS)</text></g><!--cluster device--><g class="cluster" data-entity="device" data-source-line="13" data-uid="ent0002" id="cluster_device"><polygon fill="#F8FBFF" points="625,53.2969,635,43.2969,823,43.2969,823,144.8969,813,154.8969,625,154.8969,625,53.2969" style="stroke:#6B93D6;stroke-width:1;"/><line style="stroke:#6B93D6;stroke-width:1;" x1="813" x2="823" y1="53.2969" y2="43.2969"/><line style="stroke:#6B93D6;stroke-width:1;" x1="625" x2="813" y1="53.2969" y2="53.2969"/><line style="stroke:#6B93D6;stroke-width:1;" x1="813" x2="813" y1="53.2969" y2="154.8969"/><text fill="#000000" font-family="sans-serif" font-size="14" font-weight="bold" lengthAdjust="spacing" textLength="122.1445" x="658.9277" y="69.292">Member Device</text></g><!--cluster aws--><g class="cluster" data-entity="aws" data-source-line="17" data-uid="ent0004" id="cluster_aws"><polygon fill="#F8FBFF" points="16,228.8969,26,218.8969,764,218.8969,764,828.4369,754,838.4369,16,838.4369,16,228.8969" style="stroke:#6B93D6;stroke-width:1;"/><line style="stroke:#6B93D6;stroke-width:1;" x1="754" x2="764" y1="228.8969" y2="218.8969"/><line style="stroke:#6B93D6;stroke-width:1;" x1="16" x2="754" y1="228.8969" y2="228.8969"/><line style="stroke:#6B93D6;stroke-width:1;" x1="754" x2="754" y1="228.8969" y2="838.4369"/><text fill="#000000" font-family="sans-serif" font-size="14" font-weight="bold" lengthAdjust="spacing" textLength="98.3555" x="336.8223" y="244.892">AWS - Aetna</text></g><!--cluster apigw--><g class="cluster" data-entity="apigw" data-source-line="18" data-uid="ent0005" id="cluster_apigw"><polygon fill="#F8FBFF" points="48,284.8969,58,274.8969,732,274.8969,732,383.1869,722,393.1869,48,393.1869,48,284.8969" style="stroke:#6B93D6;stroke-width:1;"/><line style="stroke:#6B93D6;stroke-width:1;" x1="722" x2="732" y1="284.8969" y2="274.8969"/><line style="stroke:#6B93D6;stroke-width:1;" x1="48" x2="722" y1="284.8969" y2="284.8969"/><line style="stroke:#6B93D6;stroke-width:1;" x1="722" x2="722" y1="284.8969" y2="393.1869"/><text fill="#000000" font-family="sans-serif" font-size="14" font-weight="bold" lengthAdjust="spacing" textLength="106.9414" x="332.5293" y="300.892">APIc (Apigee)</text></g><!--cluster bff--><g class="cluster" data-entity="bff" data-source-line="22" data-uid="ent0008" id="cluster_bff"><polygon fill="#F8FBFF" points="48,468.1869,58,458.1869,710,458.1869,710,582.4869,700,592.4869,48,592.4869,48,468.1869" style="stroke:#6B93D6;stroke-width:1;"/><line style="stroke:#6B93D6;stroke-width:1;" x1="700" x2="710" y1="468.1869" y2="458.1869"/><line style="stroke:#6B93D6;stroke-width:1;" x1="48" x2="700" y1="468.1869" y2="468.1869"/><line style="stroke:#6B93D6;stroke-width:1;" x1="700" x2="700" y1="468.1869" y2="592.4869"/><text fill="#000000" font-family="sans-serif" font-size="14" font-weight="bold" lengthAdjust="spacing" textLength="211.9961" x="269.002" y="484.182">Release Payment Hold BFF</text><text fill="#000000" font-family="sans-serif" font-size="14" font-weight="bold" lengthAdjust="spacing" textLength="218.5107" x="265.7446" y="500.4789">(Containers / Fargate / K8s)</text></g><!--cluster cvs--><g class="cluster" data-entity="cvs" data-source-line="30" data-uid="ent0013" id="cluster_cvs"><polygon fill="#F8FBFF" points="788,674.4869,798,664.4869,1655,664.4869,1655,989.8469,1645,999.8469,788,999.8469,788,674.4869" style="stroke:#6B93D6;stroke-width:1;"/><line style="stroke:#6B93D6;stroke-width:1;" x1="1645" x2="1655" y1="674.4869" y2="664.4869"/><line style="stroke:#6B93D6;stroke-width:1;" x1="788" x2="1645" y1="674.4869" y2="674.4869"/><line style="stroke:#6B93D6;stroke-width:1;" x1="1645" x2="1645" y1="674.4869" y2="999.8469"/><text fill="#000000" font-family="sans-serif" font-size="14" font-weight="bold" lengthAdjust="spacing" textLength="148.6406" x="1143.1797" y="690.482">CVS (PBM) Domain</text></g><!--cluster exp--><g class="cluster" data-entity="exp" data-source-line="31" data-uid="ent0014" id="cluster_exp"><polygon fill="#F8FBFF" points="820,730.4869,830,720.4869,1623,720.4869,1623,957.8469,1613,967.8469,820,967.8469,820,730.4869" style="stroke:#6B93D6;stroke-width:1;"/><line style="stroke:#6B93D6;stroke-width:1;" x1="1613" x2="1623" y1="730.4869" y2="720.4869"/><line style="stroke:#6B93D6;stroke-width:1;" x1="820" x2="1613" y1="730.4869" y2="730.4869"/><line style="stroke:#6B93D6;stroke-width:1;" x1="1613" x2="1613" y1="730.4869" y2="967.8469"/><text fill="#000000" font-family="sans-serif" font-size="14" font-weight="bold" lengthAdjust="spacing" textLength="162.6475" x="1136.1763" y="746.482">CVS Experience APIs</text></g><!--entity fe--><g class="entity" data-entity="fe" data-source-line="14" data-uid="ent0003" id="entity_fe"><rect fill="#F1F1F1" height="55.5938" rx="2.5" ry="2.5" style="stroke:#181818;stroke-width:0.5;" width="157.5654" x="645.22" y="83.2969"/><polygon fill="#F1F1F1" points="785.7854,88.2969,785.7854,102.2969,797.7854,102.2969,797.7854,94.2969,791.7854,88.2969,785.7854,88.2969" style="stroke:#181818;stroke-width:0.5;"/><line style="stroke:#181818;stroke-width:0.5;" x1="791.7854" x2="791.7854" y1="88.2969" y2="94.2969"/><line style="stroke:#181818;stroke-width:0.5;" x1="797.7854" x2="791.7854" y1="94.2969" y2="94.2969"/><text fill="#000000" font-family="sans-serif" font-size="14" lengthAdjust="spacing" textLength="127.5654" x="655.22" y="109.292">Aetna Web/Mobile</text><text fill="#000000" font-family="sans-serif" font-size="14" lengthAdjust="spacing" textLength="63.1094" x="655.22" y="125.5889">Frontend</text></g><!--entity cache--><g class="entity" data-entity="cache" data-source-line="26" data-uid="ent0011" id="entity_cache"><path d="M376.26,770.8369 C376.26,760.8369 466.0046,760.8369 466.0046,760.8369 C466.0046,760.8369 555.7493,760.8369 555.7493,770.8369 L555.7493,812.4306 C555.7493,822.4306 466.0046,822.4306 466.0046,822.4306 C466.0046,822.4306 376.26,822.4306 376.26,812.4306 L376.26,770.8369" fill="#F1F1F1" style="stroke:#181818;stroke-width:0.5;"/><path d="M376.26,770.8369 C376.26,780.8369 466.0046,780.8369 466.0046,780.8369 C466.0046,780.8369 555.7493,780.8369 555.7493,770.8369" fill="none" style="stroke:#181818;stroke-width:0.5;"/><text fill="#000000" font-family="sans-serif" font-size="14" lengthAdjust="spacing" textLength="159.4893" x="386.26" y="797.832">Aetna Transient Cache</text><text fill="#000000" font-family="sans-serif" font-size="14" lengthAdjust="spacing" textLength="135.5771" x="386.26" y="814.1289">(Redis/ElastiCache)</text></g><!--entity audit--><g class="entity" data-entity="audit" data-source-line="27" data-uid="ent0012" id="entity_audit"><path d="M590.97,770.8369 C590.97,760.8369 662.9993,760.8369 662.9993,760.8369 C662.9993,760.8369 735.0286,760.8369 735.0286,770.8369 L735.0286,812.4306 C735.0286,822.4306 662.9993,822.4306 662.9993,822.4306 C662.9993,822.4306 590.97,822.4306 590.97,812.4306 L590.97,770.8369" fill="#F1F1F1" style="stroke:#181818;stroke-width:0.5;"/><path d="M590.97,770.8369 C590.97,780.8369 662.9993,780.8369 662.9993,780.8369 C662.9993,780.8369 735.0286,780.8369 735.0286,770.8369" fill="none" style="stroke:#181818;stroke-width:0.5;"/><text fill="#000000" font-family="sans-serif" font-size="14" lengthAdjust="spacing" textLength="124.0586" x="600.97" y="797.832">Aetna Audit Store</text><text fill="#000000" font-family="sans-serif" font-size="14" lengthAdjust="spacing" textLength="99.3125" x="600.97" y="814.1289">(Append-only)</text></g><!--entity Route: /v1/release-payment-hold/*--><g class="entity" data-entity="Route. .v1.release-payment-hold.." data-source-line="19" data-uid="ent0006" id="entity_Route. .v1.release-payment-hold.."><rect fill="#F1F1F1" height="46.2969" rx="2.5" ry="2.5" style="stroke:#181818;stroke-width:0.5;" width="282.8193" x="71.59" y="322.8969"/><rect fill="#F1F1F1" height="10" style="stroke:#181818;stroke-width:0.5;" width="15" x="334.4093" y="327.8969"/><rect fill="#F1F1F1" height="2" style="stroke:#181818;stroke-width:0.5;" width="4" x="332.4093" y="329.8969"/><rect fill="#F1F1F1" height="2" style="stroke:#181818;stroke-width:0.5;" width="4" x="332.4093" y="333.8969"/><text fill="#000000" font-family="sans-serif" font-size="14" lengthAdjust="spacing" textLength="242.8193" x="86.59" y="355.892">Route: /v1/release-payment-hold/*</text></g><!--entity Policies: Auth, Quota, Logging, CORS--><g class="entity" data-entity="Policies. Auth. Quota. Logging. CORS" data-source-line="20" data-uid="ent0007" id="entity_Policies. Auth. Quota. Logging. CORS"><rect fill="#F1F1F1" height="46.2969" rx="2.5" ry="2.5" style="stroke:#181818;stroke-width:0.5;" width="298.6855" x="389.66" y="322.8969"/><rect fill="#F1F1F1" height="10" style="stroke:#181818;stroke-width:0.5;" width="15" x="668.3455" y="327.8969"/><rect fill="#F1F1F1" height="2" style="stroke:#181818;stroke-width:0.5;" width="4" x="666.3455" y="329.8969"/><rect fill="#F1F1F1" height="2" style="stroke:#181818;stroke-width:0.5;" width="4" x="666.3455" y="333.8969"/><text fill="#000000" font-family="sans-serif" font-size="14" lengthAdjust="spacing" textLength="258.6855" x="404.66" y="355.892">Policies: Auth, Quota, Logging, CORS</text></g><!--entity REST: /v1/release-payment-hold/*--><g class="entity" data-entity="REST. .v1.release-payment-hold.." data-source-line="23" data-uid="ent0009" id="entity_REST. .v1.release-payment-hold.."><rect fill="#F1F1F1" height="46.2969" rx="2.5" ry="2.5" style="stroke:#181818;stroke-width:0.5;" width="277.5625" x="72.22" y="522.1869"/><rect fill="#F1F1F1" height="10" style="stroke:#181818;stroke-width:0.5;" width="15" x="329.7825" y="527.1869"/><rect fill="#F1F1F1" height="2" style="stroke:#181818;stroke-width:0.5;" width="4" x="327.7825" y="529.1869"/><rect fill="#F1F1F1" height="2" style="stroke:#181818;stroke-width:0.5;" width="4" x="327.7825" y="533.1869"/><text fill="#000000" font-family="sans-serif" font-size="14" lengthAdjust="spacing" textLength="237.5625" x="87.22" y="555.182">REST: /v1/release-payment-hold/*</text></g><!--entity Telemetry: X-Trace-Id propagation--><g class="entity" data-entity="Telemetry. X-Trace-Id propagation" data-source-line="24" data-uid="ent0010" id="entity_Telemetry. X-Trace-Id propagation"><rect fill="#F1F1F1" height="46.2969" rx="2.5" ry="2.5" style="stroke:#181818;stroke-width:0.5;" width="281.9307" x="385.03" y="522.1869"/><rect fill="#F1F1F1" height="10" style="stroke:#181818;stroke-width:0.5;" width="15" x="646.9607" y="527.1869"/><rect fill="#F1F1F1" height="2" style="stroke:#181818;stroke-width:0.5;" width="4" x="644.9607" y="529.1869"/><rect fill="#F1F1F1" height="2" style="stroke:#181818;stroke-width:0.5;" width="4" x="644.9607" y="533.1869"/><text fill="#000000" font-family="sans-serif" font-size="14" lengthAdjust="spacing" textLength="241.9307" x="400.03" y="555.182">Telemetry: X-Trace-Id propagation</text></g><!--entity GET /cvs/high-cost-hold--><g class="entity" data-entity="GET .cvs.high-cost-hold" data-source-line="32" data-uid="ent0015" id="entity_GET .cvs.high-cost-hold"><rect fill="#F1F1F1" height="46.2969" rx="2.5" ry="2.5" style="stroke:#181818;stroke-width:0.5;" width="205.293" x="844.35" y="768.4869"/><rect fill="#F1F1F1" height="10" style="stroke:#181818;stroke-width:0.5;" width="15" x="1029.643" y="773.4869"/><rect fill="#F1F1F1" height="2" style="stroke:#181818;stroke-width:0.5;" width="4" x="1027.643" y="775.4869"/><rect fill="#F1F1F1" height="2" style="stroke:#181818;stroke-width:0.5;" width="4" x="1027.643" y="779.4869"/><text fill="#000000" font-family="sans-serif" font-size="14" lengthAdjust="spacing" textLength="165.293" x="859.35" y="801.482">GET /cvs/high-cost-hold</text></g><!--entity POST /cvs/payment-consent--><g class="entity" data-entity="POST .cvs.payment-consent" data-source-line="33" data-uid="ent0016" id="entity_POST .cvs.payment-consent"><rect fill="#F1F1F1" height="46.2969" rx="2.5" ry="2.5" style="stroke:#181818;stroke-width:0.5;" width="236.8818" x="1084.56" y="768.4869"/><rect fill="#F1F1F1" height="10" style="stroke:#181818;stroke-width:0.5;" width="15" x="1301.4418" y="773.4869"/><rect fill="#F1F1F1" height="2" style="stroke:#181818;stroke-width:0.5;" width="4" x="1299.4418" y="775.4869"/><rect fill="#F1F1F1" height="2" style="stroke:#181818;stroke-width:0.5;" width="4" x="1299.4418" y="779.4869"/><text fill="#000000" font-family="sans-serif" font-size="14" lengthAdjust="spacing" textLength="196.8818" x="1099.56" y="801.482">POST /cvs/payment-consent</text></g><!--entity POST /cvs/orders/{orderId}/resolve-payment-hold--><g class="entity" data-entity="POST .cvs.orders..orderId..resolve-payment-hold" data-source-line="34" data-uid="ent0017" id="entity_POST .cvs.orders..orderId..resolve-payment-hold"><rect fill="#F1F1F1" height="46.2969" rx="2.5" ry="2.5" style="stroke:#181818;stroke-width:0.5;" width="390.4717" x="843.76" y="897.5469"/><rect fill="#F1F1F1" height="10" style="stroke:#181818;stroke-width:0.5;" width="15" x="1214.2317" y="902.5469"/><rect fill="#F1F1F1" height="2" style="stroke:#181818;stroke-width:0.5;" width="4" x="1212.2317" y="904.5469"/><rect fill="#F1F1F1" height="2" style="stroke:#181818;stroke-width:0.5;" width="4" x="1212.2317" y="908.5469"/><text fill="#000000" font-family="sans-serif" font-size="14" lengthAdjust="spacing" textLength="350.4717" x="858.76" y="930.542">POST /cvs/orders/{orderId}/resolve-payment-hold</text></g><!--entity GET /cvs/orders/{orderId}--><g class="entity" data-entity="GET .cvs.orders..orderId." data-source-line="35" data-uid="ent0018" id="entity_GET .cvs.orders..orderId."><rect fill="#F1F1F1" height="46.2969" rx="2.5" ry="2.5" style="stroke:#181818;stroke-width:0.5;" width="223.4014" x="1356.3" y="768.4869"/><rect fill="#F1F1F1" height="10" style="stroke:#181818;stroke-width:0.5;" width="15" x="1559.7014" y="773.4869"/><rect fill="#F1F1F1" height="2" style="stroke:#181818;stroke-width:0.5;" width="4" x="1557.7014" y="775.4869"/><rect fill="#F1F1F1" height="2" style="stroke:#181818;stroke-width:0.5;" width="4" x="1557.7014" y="779.4869"/><text fill="#000000" font-family="sans-serif" font-size="14" lengthAdjust="spacing" textLength="183.4014" x="1371.3" y="801.482">GET /cvs/orders/{orderId}</text></g><g class="entity" data-entity="GMN24" data-source-line="46" data-uid="ent0025" id="entity_GMN24"><path d="M1671.1,885.4369 L1671.1,955.9681 L2050.9013,955.9681 L2050.9013,895.4369 L2040.9013,885.4369 L1671.1,885.4369" fill="#FEFFDD" style="stroke:#181818;stroke-width:0.5;"/><path d="M2040.9013,885.4369 L2040.9013,895.4369 L2050.9013,895.4369 L2040.9013,885.4369" fill="#FEFFDD" style="stroke:#181818;stroke-width:1;"/><text fill="#000000" font-family="sans-serif" font-size="13" lengthAdjust="spacing" textLength="87.6421" x="1677.1" y="902.5038">Namespaces:</text><text fill="#000000" font-family="sans-serif" font-size="13" lengthAdjust="spacing" textLength="284.9146" x="1677.1" y="917.6366">&#8226; Aetna-owned: /v1/release-payment-hold/*</text><text fill="#000000" font-family="sans-serif" font-size="13" lengthAdjust="spacing" textLength="139.439" x="1677.1" y="932.7694">&#8226; CVS-owned:   /cvs/*</text><text fill="#000000" font-family="sans-serif" font-size="13" lengthAdjust="spacing" textLength="358.8013" x="1677.1" y="947.9022">Idempotency &amp; observability enforced at BFF and APIc.</text></g><!--link fe to apigw--><g class="link" data-entity-1="fe" data-entity-2="apigw" data-source-line="39" data-uid="lnk19" id="link_fe_apigw"><path d="M724,139.2769 C724,169.5219 724,219.8419 724,263.1481 C724,265.8548 724,268.534 724,271.1792 C724,271.8405 724,272.4997 724,273.1567 C724,273.4852 724,267.8131 724,268.1404" fill="none" id="fe-to-apigw" style="stroke:#181818;stroke-width:1;"/><polygon fill="#181818" points="724,274.1404,728,265.1404,724,269.1404,720,265.1404,724,274.1404" style="stroke:#181818;stroke-width:1;"/><text fill="#000000" font-family="sans-serif" font-size="13" lengthAdjust="spacing" textLength="153.7402" x="737.4509" y="183.9638">HTTPS (OAuth2 / mTLS)</text><text fill="#000000" font-family="sans-serif" font-size="13" lengthAdjust="spacing" textLength="178.6421" x="725" y="199.0966">/v1/release-payment-hold/*</text></g><!--link apigw to bff--><g class="link" data-entity-1="apigw" data-entity-2="bff" data-source-line="40" data-uid="lnk20" id="link_apigw_bff"><path d="M718.8357,393.3501 C718.7998,393.6722 718.7638,393.9953 718.7276,394.3194 C718.1494,399.5059 717.5419,404.9551 716.9148,410.5794 C715.6607,421.828 714.3284,433.7772 712.9963,445.7256 C712.3302,451.6998 711.6641,457.6739 711.0078,463.5601 C710.6797,466.5032 711.0188,463.4613 710.6968,466.3496" fill="none" id="apigw-to-bff" style="stroke:#181818;stroke-width:1;"/><polygon fill="#181818" points="710.032,472.3126,715.0046,463.8113,710.586,467.3434,707.0538,462.9248,710.032,472.3126" style="stroke:#181818;stroke-width:1;"/><text fill="#000000" font-family="sans-serif" font-size="13" lengthAdjust="spacing" textLength="96.2114" x="716" y="430.2538">Internal HTTPS</text></g><!--link bff to exp--><g class="link" data-entity-1="bff" data-entity-2="exp" data-source-line="41" data-uid="lnk21" id="link_bff_exp"><path d="M710.0484,546.7442 C710.3988,546.7622 710.7602,546.7807 711.1325,546.7998 C711.8771,546.838 712.6653,546.8786 713.4963,546.9215 C720.1441,547.2651 729.5326,547.7599 741.2865,548.4036 C764.7942,549.6909 797.7634,551.5737 837.1917,554.0331 C916.0484,558.9519 1020.7419,566.1769 1127.2538,575.5569 C1340.2775,594.3169 1560.575,621.6969 1596,656.4869 C1606.5725,666.8694 1613.0919,680.2662 1616.9128,694.565 C1618.8233,701.7144 1620.0591,709.0892 1620.7897,716.4255 C1620.881,717.3425 1620.9645,718.2589 1621.0403,719.1742 C1621.0593,719.4031 1620.6063,713.6504 1620.6243,713.8791" fill="none" id="bff-to-exp" style="stroke:#181818;stroke-width:1;"/><polygon fill="#181818" points="1621.0958,719.8605,1624.3762,710.574,1620.7029,714.876,1616.401,711.2027,1621.0958,719.8605" style="stroke:#181818;stroke-width:1;"/><text fill="#000000" font-family="sans-serif" font-size="13" lengthAdjust="spacing" textLength="82.7544" x="1596.3113" y="629.5538">HTTPS /cvs/*</text><text fill="#000000" font-family="sans-serif" font-size="13" lengthAdjust="spacing" textLength="107.377" x="1584" y="644.6866">(mTLS, allowlist)</text></g><!--link bff to cache--><g class="link" data-entity-1="bff" data-entity-2="cache" data-source-line="42" data-uid="lnk22" id="link_bff_cache"><path d="M694.7212,592.5791 C694.6757,592.679 694.6299,592.7787 694.5838,592.8783 C694.3996,593.2768 694.2109,593.6731 694.0178,594.0668 C693.6316,594.8544 693.2275,595.632 692.8047,596.3978 C691.959,597.9293 691.0386,599.4135 690.0369,600.8349 C688.0334,603.6777 685.705,606.2694 683,608.4869 C669.19,619.8169 618.66,607.8869 603,616.4869 C543.31,649.2469 503.3933,714.6105 482.7533,755.1305" fill="none" id="bff-to-cache" style="stroke:#181818;stroke-width:1;"/><polygon fill="#181818" points="480.03,760.4769,487.6792,754.2729,482.2994,756.0216,480.5507,750.6418,480.03,760.4769" style="stroke:#181818;stroke-width:1;"/><text fill="#000000" font-family="sans-serif" font-size="13" lengthAdjust="spacing" textLength="72.0269" x="604" y="637.0538">purge/read</text></g><!--link bff to audit--><g class="link" data-entity-1="bff" data-entity-2="audit" data-source-line="43" data-uid="lnk23" id="link_bff_audit"><path d="M694.5584,592.969 C694.4635,593.5635 694.368,594.1619 694.2719,594.7642 C694.0796,595.9688 693.8849,597.1886 693.6879,598.4229 C692.1117,608.297 690.3881,619.0941 688.5875,630.3731 C681.385,675.4894 673.8962,722.392 668.7362,754.702" fill="none" id="bff-to-audit" style="stroke:#181818;stroke-width:1;"/><polygon fill="#181818" points="667.79,760.6269,673.1593,752.3703,668.5785,755.6894,665.2594,751.1087,667.79,760.6269" style="stroke:#181818;stroke-width:1;"/><text fill="#000000" font-family="sans-serif" font-size="13" lengthAdjust="spacing" textLength="96.8906" x="691" y="637.0538">append events</text></g><!--link GET /cvs/orders/{orderId} to GMN24--><g class="link" data-entity-1="GET .cvs.orders..orderId." data-entity-2="GMN24" data-source-line="46" data-uid="lnk26" id="link_GET .cvs.orders..orderId._GMN24"><path d="M1511.85,815.1969 C1533.24,825.6169 1559.57,837.6169 1584,846.4369 C1624.36,860.9969 1668.96,874.0669 1710.37,884.9969" fill="none" id="GET /cvs/orders/{orderId}-GMN24" style="stroke:#181818;stroke-width:1;stroke-dasharray:7,7;"/></g><!--SRC=[ZLFHJXin47o_hrXHgKfehgUs4Y9vg1H2A56Xf4bKAXKUDkUzYyMTVRATX0WXyH7zWduQNzArBmcKGbNTmrcUtV5uPksaAmX6L11QWY6kIb8EZdKXuFxk9nnILUXwhz4bfn3UGE_Rk1b5zagg2WsMO6Sez5Ag738iB3r23AKELSu7t4G01vXUvKRFbUZfGXjubGd_UKGRGMQzsswtezj794gBb_htiscMFUtVcxO_Y3scY4BdpYcLKp9yauLCQGVGWWZBm8d6oGnJ1plrxSvfcfpggIpeGXqPhHmf4NeoUc3ideyXXj0GC5pQGBP6XuEKpQfaJjIiSLulGmN0Zv6UE-f0idYNcDhrkAfTZsViUh9xMTSDTI5JIRO3tRcRjU3hN3jimOdESxQw1RspqTYNtcuFVZR4WwEZ2zNeyKrGAZ8M4ZX2awCZNdtUjxL2jd6hhp-U_8Uy2OCbERFgmFTuOZ2bU22WChf29fTQRRG9T3ZrijOESwsoqklhOJfZcniZ4j8c_GAjas6lrfJwvJC4tRcG3iPE6z_ShIgEADQgMAtDzl13LZoiq1WUd3RXK9TiGKszU1oOB-bVLsHO5Oy5vsT35LrN6rC-zIUGS5Soa_aiJhMjtTX4TJPUmnkhKgqi___2mvpQv2Ry1-AMFRQwMFpfyUMJCvysrSxo3JE2EFwu7gyE74ycGxxicP-NzvnkEJaPDo_Kor56TQVdy0FGWG7Fkr5Or5IHt_IWDs937nJjil6UlGLO57fPIEkQs-gG6zTNSvCJdunY2uLi6C8G6j22jLYV54_ZL3kdo-WBbcGh7YVRYUxlVjMlBDPBHU9VKnbgESXD9Qo5HWD1PSNyAbt1Qz1JIsQ1_BwbMm6fJ9kK1A3pxmIGDVdN-pRowhogtm00]--></g></svg>